<svg xmlns="http://www.w3.org/2000/svg" xmlns:xlink="http://www.w3.org/1999/xlink" version="1.1" class="marks" width="409" height="306" viewBox="0 0 409 306"><rect width="409" height="306" fill="white"/><g fill="none" stroke-miterlimit="10" transform="translate(58,69)"><g class="mark-group role-frame root" role="graphics-object" aria-roledescription="group mark container"><g transform="translate(0,0)"><path class="background" aria-hidden="true" d="M0.5,0.5h300v200h-300Z" stroke="#ddd"/><g><g class="mark-group role-axis" aria-hidden="true"><g transform="translate(0.5,200.5)"><path class="background" aria-hidden="true" d="M0,0h0v0h0Z" pointer-events="none"/><g><g class="mark-rule role-axis-grid" pointer-events="none"><line transform="translate(0,-200)" x2="0" y2="200" stroke="#ddd" stroke-width="1" opacity="1"/><line transform="translate(25,-200)" x2="0" y2="200" stroke="#ddd" stroke-width="1" opacity="1"/><line transform="translate(50,-200)" x2="0" y2="200" stroke="#ddd" stroke-width="1" opacity="1"/><line transform="translate(75,-200)" x2="0" y2="200" stroke="#ddd" stroke-width="1" opacity="1"/><line transform="translate(100,-200)" x2="0" y2="200" stroke="#ddd" stroke-width="1" opacity="1"/><line transform="translate(125,-200)" x2="0" y2="200" stroke="#ddd" stroke-width="1" opacity="1"/><line transform="translate(150,-200)" x2="0" y2="200" stroke="#ddd" stroke-width="1" opacity="1"/><line transform="translate(175,-200)" x2="0" y2="200" stroke="#ddd" stroke-width="1" opacity="1"/><line transform="translate(200,-200)" x2="0" y2="200" stroke="#ddd" stroke-width="1" opacity="1"/><line transform="translate(225,-200)" x2="0" y2="200" stroke="#ddd" stroke-width="1" opacity="1"/><line transform="translate(250,-200)" x2="0" y2="200" stroke="#ddd" stroke-width="1" opacity="1"/><line transform="translate(275,-200)" x2="0" y2="200" stroke="#ddd" stroke-width="1" opacity="1"/></g></g><path class="foreground" aria-hidden="true" d="" pointer-events="none" display="none"/></g></g><g class="mark-group role-axis" aria-hidden="true"><g transform="translate(0.5,0.5)"><path class="background" aria-hidden="true" d="M0,0h0v0h0Z" pointer-events="none"/><g><g class="mark-rule role-axis-grid" pointer-events="none"><line transform="translate(0,200)" x2="300" y2="0" stroke="#ddd" stroke-width="1" opacity="1"/><line transform="translate(0,171)" x2="300" y2="0" stroke="#ddd" stroke-width="1" opacity="1"/><line transform="translate(0,143)" x2="300" y2="0" stroke="#ddd" stroke-width="1" opacity="1"/><line transform="translate(0,114)" x2="300" y2="0" stroke="#ddd" stroke-width="1" opacity="1"/><line transform="translate(0,86)" x2="300" y2="0" stroke="#ddd" stroke-width="1" opacity="1"/><line transform="translate(0,57)" x2="300" y2="0" stroke="#ddd" stroke-width="1" opacity="1"/><line transform="translate(0,29)" x2="300" y2="0" stroke="#ddd" stroke-width="1" opacity="1"/><line transform="translate(0,0)" x2="300" y2="0" stroke="#ddd" stroke-width="1" opacity="1"/></g></g><path class="foreground" aria-hidden="true" d="" pointer-events="none" display="none"/></g></g><g class="mark-group role-axis" role="graphics-symbol" aria-roledescription="axis" aria-label="X-axis titled 'Time [hh:mm]' for a time scale with values from 00:00 to 11:59"><g transform="translate(0.5,200.5)"><path class="background" aria-hidden="true" d="M0,0h0v0h0Z" pointer-events="none"/><g><g class="mark-rule role-axis-tick" pointer-events="none"><line transform="translate(0,0)" x2="0" y2="5" stroke="#888" stroke-width="1" opacity="1"/><line transform="translate(25,0)" x2="0" y2="5" stroke="#888" stroke-width="1" opacity="1"/><line transform="translate(50,0)" x2="0" y2="5" stroke="#888" stroke-width="1" opacity="1"/><line transform="translate(75,0)" x2="0" y2="5" stroke="#888" stroke-width="1" opacity="1"/><line transform="translate(100,0)" x2="0" y2="5" stroke="#888" stroke-width="1" opacity="1"/><line transform="translate(125,0)" x2="0" y2="5" stroke="#888" stroke-width="1" opacity="1"/><line transform="translate(150,0)" x2="0" y2="5" stroke="#888" stroke-width="1" opacity="1"/><line transform="translate(175,0)" x2="0" y2="5" stroke="#888" stroke-width="1" opacity="1"/><line transform="translate(200,0)" x2="0" y2="5" stroke="#888" stroke-width="1" opacity="1"/><line transform="translate(225,0)" x2="0" y2="5" stroke="#888" stroke-width="1" opacity="1"/><line transform="translate(250,0)" x2="0" y2="5" stroke="#888" stroke-width="1" opacity="1"/><line transform="translate(275,0)" x2="0" y2="5" stroke="#888" stroke-width="1" opacity="1"/></g><g class="mark-text role-axis-label" pointer-events="none"><text text-anchor="start" transform="translate(0,15)" font-family="sans-serif" font-size="10px" fill="#000" opacity="1">00:00</text><text text-anchor="middle" transform="translate(25.03477051460362,15)" font-family="sans-serif" font-size="10px" fill="#000" opacity="0">01:00</text><text text-anchor="middle" transform="translate(50.06954102920724,15)" font-family="sans-serif" font-size="10px" fill="#000" opacity="1">02:00</text><text text-anchor="middle" transform="translate(75.10431154381085,15)" font-family="sans-serif" font-size="10px" fill="#000" opacity="0">03:00</text><text text-anchor="middle" transform="translate(100.13908205841447,15)" font-family="sans-serif" font-size="10px" fill="#000" opacity="1">04:00</text><text text-anchor="middle" transform="translate(125.17385257301808,15)" font-family="sans-serif" font-size="10px" fill="#000" opacity="0">05:00</text><text text-anchor="middle" transform="translate(150.2086230876217,15)" font-family="sans-serif" font-size="10px" fill="#000" opacity="1">06:00</text><text text-anchor="middle" transform="translate(175.24339360222532,15)" font-family="sans-serif" font-size="10px" fill="#000" opacity="0">07:00</text><text text-anchor="middle" transform="translate(200.27816411682895,15)" font-family="sans-serif" font-size="10px" fill="#000" opacity="1">08:00</text><text text-anchor="middle" transform="translate(225.31293463143257,15)" font-family="sans-serif" font-size="10px" fill="#000" opacity="0">09:00</text><text text-anchor="middle" transform="translate(250.34770514603616,15)" font-family="sans-serif" font-size="10px" fill="#000" opacity="1">10:00</text><text text-anchor="middle" transform="translate(275.3824756606398,15)" font-family="sans-serif" font-size="10px" fill="#000" opacity="0">11:00</text></g><g class="mark-rule role-axis-domain" pointer-events="none"><line transform="translate(0,0)" x2="300" y2="0" stroke="#888" stroke-width="1" opacity="1"/></g><g class="mark-text role-axis-title" pointer-events="none"><text text-anchor="middle" transform="translate(150,30)" font-family="sans-serif" font-size="11px" font-weight="bold" fill="#000" opacity="1">Time [hh:mm]</text></g></g><path class="foreground" aria-hidden="true" d="" pointer-events="none" display="none"/></g></g><g class="mark-group role-axis" role="graphics-symbol" aria-roledescription="axis" aria-label="Y-axis titled '#Covered Branches' for a linear scale with values from 0 to 14,000"><g transform="translate(0.5,0.5)"><path class="background" aria-hidden="true" d="M0,0h0v0h0Z" pointer-events="none"/><g><g class="mark-rule role-axis-tick" pointer-events="none"><line transform="translate(0,200)" x2="-5" y2="0" stroke="#888" stroke-width="1" opacity="1"/><line transform="translate(0,171)" x2="-5" y2="0" stroke="#888" stroke-width="1" opacity="1"/><line transform="translate(0,143)" x2="-5" y2="0" stroke="#888" stroke-width="1" opacity="1"/><line transform="translate(0,114)" x2="-5" y2="0" stroke="#888" stroke-width="1" opacity="1"/><line transform="translate(0,86)" x2="-5" y2="0" stroke="#888" stroke-width="1" opacity="1"/><line transform="translate(0,57)" x2="-5" y2="0" stroke="#888" stroke-width="1" opacity="1"/><line transform="translate(0,29)" x2="-5" y2="0" stroke="#888" stroke-width="1" opacity="1"/><line transform="translate(0,0)" x2="-5" y2="0" stroke="#888" stroke-width="1" opacity="1"/></g><g class="mark-text role-axis-label" pointer-events="none"><text text-anchor="end" transform="translate(-7,203)" font-family="sans-serif" font-size="10px" fill="#000" opacity="1">0</text><text text-anchor="end" transform="translate(-7,174.42857142857144)" font-family="sans-serif" font-size="10px" fill="#000" opacity="1">2,000</text><text text-anchor="end" transform="translate(-7,145.85714285714286)" font-family="sans-serif" font-size="10px" fill="#000" opacity="1">4,000</text><text text-anchor="end" transform="translate(-7,117.28571428571428)" font-family="sans-serif" font-size="10px" fill="#000" opacity="1">6,000</text><text text-anchor="end" transform="translate(-7,88.71428571428572)" font-family="sans-serif" font-size="10px" fill="#000" opacity="1">8,000</text><text text-anchor="end" transform="translate(-7,60.14285714285714)" font-family="sans-serif" font-size="10px" fill="#000" opacity="1">10,000</text><text text-anchor="end" transform="translate(-7,31.57142857142858)" font-family="sans-serif" font-size="10px" fill="#000" opacity="1">12,000</text><text text-anchor="end" transform="translate(-7,3)" font-family="sans-serif" font-size="10px" fill="#000" opacity="1">14,000</text></g><g class="mark-rule role-axis-domain" pointer-events="none"><line transform="translate(0,200)" x2="0" y2="-200" stroke="#888" stroke-width="1" opacity="1"/></g><g class="mark-text role-axis-title" pointer-events="none"><text text-anchor="middle" transform="translate(-41.5859375,100) rotate(-90) translate(0,-2)" font-family="sans-serif" font-size="11px" font-weight="bold" fill="#000" opacity="1">#Covered Branches</text></g></g><path class="foreground" aria-hidden="true" d="" pointer-events="none" display="none"/></g></g><g class="mark-group role-scope layer_0_pathgroup" role="graphics-object" aria-roledescription="group mark container"><g transform="translate(0,0)"><path class="background" aria-hidden="true" d="M0,0h300v200h-300Z"/><g><g class="mark-line role-mark layer_0_marks" role="graphics-symbol" aria-roledescription="line mark container"><path d="M0,200L0.417,44.171L0.834,44.171L1.252,43.414L1.669,43.371L2.086,43.371L2.503,42.929L2.921,37.614L3.338,37.4L3.755,27.014L4.172,24.943L4.59,24.729L5.007,24.386L5.424,24.286L5.841,23.843L6.259,23.757L6.676,21.857L7.093,21.8L7.51,21.729L7.928,21.657L8.345,21.6L8.762,21.529L9.179,21.514L9.597,21.371L10.014,21.357L10.431,21.343L10.848,21.043L11.266,20.871L11.683,20.829L12.1,20.829L12.517,20.743L12.935,20.743L13.352,20.729L13.769,20.7L14.186,20.7L14.604,20.614L15.021,20.6L15.438,20.6L15.855,20.571L16.273,20.571L16.69,20.571L17.107,20.557L17.524,20.557L17.942,20.5L18.359,20.5L18.776,20.5L19.193,20.471L19.611,20.471L20.028,20.457L20.445,20.429L20.862,20.429L21.28,20.429L21.697,20.429L22.114,20.257L22.531,20.257L22.949,20.2L23.366,20.2L23.783,20.2L24.2,20.2L24.618,20.2L25.035,20.2L25.452,20.2L25.869,20.2L26.287,20.2L26.704,20.186L27.121,20.186L27.538,20.186L27.955,20.186L28.373,20.186L28.79,20.186L29.207,20.186L29.624,20.186L30.042,20.086L30.459,20.071L30.876,20.071L31.293,20.071L31.711,20.071L32.128,20.043L32.545,20.043L32.962,20.043L33.38,20.043L33.797,20.029L34.214,20L34.631,20L35.049,19.971L35.466,19.971L35.883,19.971L36.3,19.686L36.718,19.686L37.135,19.686L37.552,19.686L37.969,19.686L38.387,19.686L38.804,19.686L39.221,19.686L39.638,19.686L40.056,19.686L40.473,19.671L40.89,19.671L41.307,19.614L41.725,19.614L42.142,19.614L42.559,19.614L42.976,19.614L43.394,19.614L43.811,19.614L44.228,19.614L44.645,19.614L45.063,19.586L45.48,19.586L45.897,19.229L46.314,19.229L46.732,19.229L47.149,19.229L47.566,19.229L47.983,19.229L48.401,19.229L48.818,19.229L49.235,19.214L49.652,19.214L50.07,19.214L50.487,19.214L50.904,19.214L51.321,19.214L51.739,19.214L52.156,19.214L52.573,19.2L52.99,19.2L53.408,19.2L53.825,19.186L54.242,19.186L54.659,19.186L55.076,19.186L55.494,19.157L55.911,19.157L56.328,19.129L56.745,19.1L57.163,19.1L57.58,19.1L57.997,19.1L58.414,19.1L58.832,19.086L59.249,19.086L59.666,19.086L60.083,19.086L60.501,19.071L60.918,19.071L61.335,19.071L61.752,19.071L62.17,19.071L62.587,19.057L63.004,19.043L63.421,19L63.839,19L64.256,19L64.673,19L65.09,19L65.508,19L65.925,19L66.342,19L66.759,19L67.177,19L67.594,19L68.011,19L68.428,19L68.846,19L69.263,19L69.68,19L70.097,19L70.515,19L70.932,18.986L71.349,18.986L71.766,18.986L72.184,18.771L72.601,18.771L73.018,18.771L73.435,18.771L73.853,18.729L74.27,18.729L74.687,18.729L75.104,18.729L75.522,18.729L75.939,18.729L76.356,18.729L76.773,18.686L77.191,18.657L77.608,18.543L78.025,18.543L78.442,18.543L78.86,18.529L79.277,18.529L79.694,18.529L80.111,18.529L80.529,18.529L80.946,18.529L81.363,18.529L81.78,18.529L82.197,18.529L82.615,18.529L83.032,18.514L83.449,18.514L83.866,18.514L84.284,18.514L84.701,18.514L85.118,18.514L85.535,18.514L85.953,18.514L86.37,18.514L86.787,18.514L87.204,18.514L87.622,18.514L88.039,18.457L88.456,18.443L88.873,17.757L89.291,17.757L89.708,17.757L90.125,17.757L90.542,17.486L90.96,17.486L91.377,17.486L91.794,17.486L92.211,17.486L92.629,17.486L93.046,17.486L93.463,17.486L93.88,17.486L94.298,17.429L94.715,17.429L95.132,17.429L95.549,17.4L95.967,17.4L96.384,17.4L96.801,17.4L97.218,17.4L97.636,17.4L98.053,17.4L98.47,17.4L98.887,17.4L99.305,17.4L99.722,17.4L100.139,17.4L100.556,17.386L100.974,17.371L101.391,17.371L101.808,17.371L102.225,17.371L102.643,17.357L103.06,17.357L103.477,17.357L103.894,17.357L104.312,17.343L104.729,17.343L105.146,17.343L105.563,17.343L105.981,17.343L106.398,17.343L106.815,17.2L107.232,17.186L107.65,17.186L108.067,17.1L108.484,17.1L108.901,17.1L109.318,17.1L109.736,17.1L110.153,17.086L110.57,17.014L110.987,17.014L111.405,17.014L111.822,17.014L112.239,17.014L112.656,17.014L113.074,17.014L113.491,17.014L113.908,17.014L114.325,17.014L114.743,17.014L115.16,17.014L115.577,17.014L115.994,17L116.412,17L116.829,16.971L117.246,16.971L117.663,16.957L118.081,16.957L118.498,16.957L118.915,16.957L119.332,16.957L119.75,16.943L120.167,16.929L120.584,16.914L121.001,16.871L121.419,16.814L121.836,16.814L122.253,16.814L122.67,16.814L123.088,16.814L123.505,16.771L123.922,16.771L124.339,16.771L124.757,16.771L125.174,16.743L125.591,16.743L126.008,16.743L126.426,16.743L126.843,16.743L127.26,16.743L127.677,16.743L128.095,16.743L128.512,16.743L128.929,16.743L129.346,16.571L129.764,16.543L130.181,16.414L130.598,16.4L131.015,16.4L131.433,16.4L131.85,16.4L132.267,16.4L132.684,16.4L133.102,16.4L133.519,16.4L133.936,16.386L134.353,16.386L134.771,16.386L135.188,16.386L135.605,16.386L136.022,16.371L136.439,16.371L136.857,16.357L137.274,16.357L137.691,16.343L138.108,16.343L138.526,16.343L138.943,16.343L139.36,16.343L139.777,16.343L140.195,16.343L140.612,16.343L141.029,16.343L141.446,16.257L141.864,16.243L142.281,16.229L142.698,16.229L143.115,16.229L143.533,16.229L143.95,16.229L144.367,16.229L144.784,16.214L145.202,16.214L145.619,16.214L146.036,16.214L146.453,16.214L146.871,16.214L147.288,16.214L147.705,16.214L148.122,16.214L148.54,16.214L148.957,16.214L149.374,16.2L149.791,16.2L150.209,16.2L150.626,16.2L151.043,16.2L151.46,16.2L151.878,16.2L152.295,16.2L152.712,16.2L153.129,16.2L153.547,16.2L153.964,16.2L154.381,16.186L154.798,16.186L155.216,16.186L155.633,16.186L156.05,16.186L156.467,16.186L156.885,16.171L157.302,16.171L157.719,16.171L158.136,16.171L158.554,16.171L158.971,16.171L159.388,16.171L159.805,16.171L160.223,16.157L160.64,16.157L161.057,16.157L161.474,16.157L161.892,16.157L162.309,16.157L162.726,16.157L163.143,16.157L163.561,16.157L163.978,16.157L164.395,16.157L164.812,16.143L165.229,16.143L165.647,16.143L166.064,16.114L166.481,16.014L166.898,16.014L167.316,16.014L167.733,15.971L168.15,15.971L168.567,15.971L168.985,15.971L169.402,15.814L169.819,15.814L170.236,15.657L170.654,15.657L171.071,15.657L171.488,15.657L171.905,15.657L172.323,15.657L172.74,15.657L173.157,15.643L173.574,15.643L173.992,15.643L174.409,15.614L174.826,15.614L175.243,15.614L175.661,15.614L176.078,15.614L176.495,15.614L176.912,15.614L177.33,15.614L177.747,15.614L178.164,15.6L178.581,15.6L178.999,15.6L179.416,15.557L179.833,15.557L180.25,15.5L180.668,15.5L181.085,15.5L181.502,15.5L181.919,15.5L182.337,15.486L182.754,15.486L183.171,15.486L183.588,15.486L184.006,15.471L184.423,15.471L184.84,15.471L185.257,15.471L185.675,15.471L186.092,15.471L186.509,15.471L186.926,15.471L187.344,15.471L187.761,15.471L188.178,15.471L188.595,15.471L189.013,15.471L189.43,15.471L189.847,15.471L190.264,15.471L190.682,15.471L191.099,15.471L191.516,15.471L191.933,15.471L192.35,15.471L192.768,15.471L193.185,15.471L193.602,15.471L194.019,15.471L194.437,15.443L194.854,15.443L195.271,15.443L195.688,15.443L196.106,15.414L196.523,15.414L196.94,15.4L197.357,15.4L197.775,15.4L198.192,15.4L198.609,15.4L199.026,15.4L199.444,15.4L199.861,15.4L200.278,15.386L200.695,15.386L201.113,15.386L201.53,15.386L201.947,15.386L202.364,15.386L202.782,15.386L203.199,15.386L203.616,15.386L204.033,15.386L204.451,15.386L204.868,15.386L205.285,15.386L205.702,15.386L206.12,15.386L206.537,15.386L206.954,15.386L207.371,15.386L207.789,15.386L208.206,15.386L208.623,15.386L209.04,15.386L209.458,15.386L209.875,15.386L210.292,15.386L210.709,15.386L211.127,15.386L211.544,15.386L211.961,15.386L212.378,15.386L212.796,15.386L213.213,15.386L213.63,15.386L214.047,15.386L214.465,15.386L214.882,15.357L215.299,15.357L215.716,15.357L216.134,15.357L216.551,15.357L216.968,15.357L217.385,15.357L217.803,15.357L218.22,15.357L218.637,15.357L219.054,15.357L219.471,15.357L219.889,15.357L220.306,15.357L220.723,15.357L221.14,15.357L221.558,15.357L221.975,15.357L222.392,15.357L222.809,15.357L223.227,15.357L223.644,15.357L224.061,15.357L224.478,15.357L224.896,15.357L225.313,15.357L225.73,15.357L226.147,15.357L226.565,15.357L226.982,15.357L227.399,15.357L227.816,15.357L228.234,15.357L228.651,15.357L229.068,15.357L229.485,15.357L229.903,15.357L230.32,15.357L230.737,15.357L231.154,15.357L231.572,15.357L231.989,15.357L232.406,15.357L232.823,15.357L233.241,15.357L233.658,15.357L234.075,15.357L234.492,15.057L234.91,14.971L235.327,14.971L235.744,14.914L236.161,14.914L236.579,14.914L236.996,14.914L237.413,14.914L237.83,14.914L238.248,14.914L238.665,14.914L239.082,14.914L239.499,14.914L239.917,14.914L240.334,14.914L240.751,14.914L241.168,14.914L241.586,14.914L242.003,14.914L242.42,14.914L242.837,14.914L243.255,14.9L243.672,14.9L244.089,14.9L244.506,14.9L244.924,14.9L245.341,14.9L245.758,14.9L246.175,14.9L246.592,14.9L247.01,14.9L247.427,14.886L247.844,14.886L248.261,14.886L248.679,14.886L249.096,14.886L249.513,14.886L249.93,14.886L250.348,14.886L250.765,14.886L251.182,14.886L251.599,14.886L252.017,14.886L252.434,14.886L252.851,14.886L253.268,14.886L253.686,14.886L254.103,14.886L254.52,14.886L254.937,14.886L255.355,14.886L255.772,14.886L256.189,14.857L256.606,14.857L257.024,14.857L257.441,14.857L257.858,14.814L258.275,14.814L258.693,14.814L259.11,14.814L259.527,14.814L259.944,14.814L260.362,14.814L260.779,14.814L261.196,14.814L261.613,14.814L262.031,14.8L262.448,14.8L262.865,14.8L263.282,14.8L263.7,14.8L264.117,14.8L264.534,14.8L264.951,14.8L265.369,14.8L265.786,14.8L266.203,14.8L266.62,14.8L267.038,14.8L267.455,14.8L267.872,14.8L268.289,14.8L268.707,14.8L269.124,14.8L269.541,14.8L269.958,14.8L270.376,14.8L270.793,14.8L271.21,14.786L271.627,14.786L272.045,14.786L272.462,14.786L272.879,14.786L273.296,14.786L273.713,14.786L274.131,14.786L274.548,14.786L274.965,14.786L275.382,14.786L275.8,14.786L276.217,14.786L276.634,14.786L277.051,14.786L277.469,14.786L277.886,14.786L278.303,14.786L278.72,14.786L279.138,14.786L279.555,14.771L279.972,14.771L280.389,14.771L280.807,14.771L281.224,14.771L281.641,14.771L282.058,14.771L282.476,14.771L282.893,14.771L283.31,14.771L283.727,14.771L284.145,14.771L284.562,14.771L284.979,14.771L285.396,14.771L285.814,14.771L286.231,14.771L286.648,14.771L287.065,14.771L287.483,14.771L287.9,14.771L288.317,14.771L288.734,14.771L289.152,14.771L289.569,14.771L289.986,14.771L290.403,14.771L290.821,14.771L291.238,14.743L291.655,14.743L292.072,14.743L292.49,14.743L292.907,14.743L293.324,14.743L293.741,14.743L294.159,14.743L294.576,14.743L294.993,14.743L295.41,14.743L295.828,14.743L296.245,14.743L296.662,14.743L297.079,14.743L297.497,14.743L297.914,14.329L298.331,14.329L298.748,14.329L299.166,14.329L299.583,14.329L300,14.329" stroke="#808b88" stroke-width="2"/></g></g><path class="foreground" aria-hidden="true" d="" display="none"/></g></g><g class="mark-symbol role-mark layer_1_marks" role="graphics-symbol" aria-roledescription="symbol mark container"/><g class="mark-symbol role-mark layer_2_marks" role="graphics-symbol" aria-roledescription="symbol mark container"/><g class="mark-symbol role-mark layer_3_marks" role="graphics-symbol" aria-roledescription="symbol mark container"/><g class="mark-symbol role-mark layer_4_marks" role="graphics-symbol" aria-roledescription="symbol mark container"><path transform="translate(0,200)" d="M-3.873,-1.549L-3.873,1.549L-1.549,1.549L-1.549,3.873L1.549,3.873L1.549,1.549L3.873,1.549L3.873,-1.549L1.549,-1.549L1.549,-3.873L-1.549,-3.873L-1.549,-1.549Z" fill="#808b88" stroke-width="2"/><path transform="translate(175.24339360222532,15.614285714285714)" d="M-3.873,-1.549L-3.873,1.549L-1.549,1.549L-1.549,3.873L1.549,3.873L1.549,1.549L3.873,1.549L3.873,-1.549L1.549,-1.549L1.549,-3.873L-1.549,-3.873L-1.549,-1.549Z" fill="#808b88" stroke-width="2"/></g><g class="mark-group role-scope layer_5_pathgroup" role="graphics-object" aria-roledescription="group mark container"><g transform="translate(0,0)"><path class="background" aria-hidden="true" d="M0,0h300v200h-300Z"/><g><g class="mark-area role-mark layer_5_marks" role="graphics-symbol" aria-roledescription="area mark container"><path d="M0,200L0.417,122.086L0.834,96.114L1.252,82.939L1.669,75.026L2.086,69.75L2.503,65.918L2.921,62.38L3.338,59.605L3.755,56.346L4.172,53.491L4.59,51.094L5.007,49.04L5.424,47.271L5.841,45.71L6.259,44.338L6.676,43.015L7.093,41.837L7.51,40.778L7.928,39.822L8.345,38.954L8.762,30.456L9.179,29.377L9.597,28.291L10.014,27.241L10.431,26.192L10.848,25.129L11.266,24.078L11.683,23.279L12.1,22.49L12.517,22.191L12.935,21.991L13.352,21.801L13.769,21.625L14.186,21.454L14.604,21.301L15.021,21.15L15.438,21.09L15.855,21.032L16.273,20.977L16.69,20.925L17.107,20.876L17.524,20.829L17.942,20.781L18.359,20.739L18.776,20.699L19.193,20.657L19.611,20.63L20.028,20.61L20.445,20.591L20.862,20.572L21.28,20.557L21.697,20.542L22.114,20.52L22.531,20.499L22.949,20.475L23.366,20.455L23.783,20.436L24.2,20.417L24.618,20.399L25.035,20.382L25.452,20.364L25.869,20.347L26.287,20.33L26.704,20.315L27.121,20.3L27.538,20.285L27.955,20.271L28.373,20.258L28.79,20.245L29.207,20.233L29.624,20.222L30.042,20.205L30.459,20.188L30.876,20.18L31.293,20.171L31.711,20.165L32.128,20.157L32.545,20.15L32.962,20.142L33.38,20.135L33.797,20.127L34.214,20.117L34.631,20.107L35.049,20.097L35.466,20.086L35.883,20.076L36.3,20.052L36.718,20.029L37.135,20.005L37.552,19.981L37.969,19.957L38.387,19.933L38.804,19.914L39.221,19.896L39.638,19.878L40.056,19.859L40.473,19.84L40.89,19.822L41.307,19.802L41.725,19.782L42.142,19.761L42.559,19.741L42.976,19.723L43.394,19.705L43.811,19.688L44.228,19.671L44.645,19.654L45.063,19.649L45.48,19.644L45.897,19.622L46.314,19.601L46.732,19.579L47.149,19.557L47.566,19.535L47.983,19.514L48.401,19.492L48.818,19.47L49.235,19.448L49.652,19.427L50.07,19.407L50.487,19.388L50.904,19.369L51.321,19.35L51.739,19.331L52.156,19.312L52.573,19.293L52.99,19.273L53.408,19.253L53.825,19.234L54.242,19.215L54.659,19.213L55.076,19.211L55.494,19.207L55.911,19.204L56.328,19.199L56.745,19.193L57.163,19.187L57.58,19.181L57.997,19.176L58.414,19.17L58.832,19.164L59.249,19.158L59.666,19.152L60.083,19.146L60.501,19.139L60.918,19.132L61.335,19.126L61.752,19.12L62.17,19.114L62.587,19.107L63.004,19.101L63.421,19.092L63.839,19.083L64.256,19.076L64.673,19.068L65.09,19.062L65.508,19.057L65.925,19.052L66.342,19.048L66.759,19.043L67.177,19.038L67.594,19.034L68.011,19.03L68.428,19.026L68.846,19.022L69.263,19.018L69.68,19.015L70.097,19.012L70.515,19.008L70.932,19.004L71.349,19.001L71.766,18.998L72.184,18.987L72.601,18.976L73.018,18.965L73.435,18.954L73.853,18.941L74.27,18.929L74.687,18.916L75.104,18.903L75.522,18.89L75.939,18.877L76.356,18.864L76.773,18.849L77.191,18.833L77.608,18.811L78.025,18.789L78.442,18.767L78.86,18.745L79.277,18.722L79.694,18.701L80.111,18.679L80.529,18.657L80.946,18.646L81.363,18.634L81.78,18.622L82.197,18.611L82.615,18.601L83.032,18.591L83.449,18.581L83.866,18.571L84.284,18.561L84.701,18.55L85.118,18.54L85.535,18.532L85.953,18.525L86.37,18.524L86.787,18.522L87.204,18.521L87.622,18.52L88.039,18.517L88.456,18.513L88.873,18.476L89.291,18.439L89.708,18.403L90.125,18.366L90.542,18.316L90.96,18.267L91.377,18.217L91.794,18.168L92.211,18.119L92.629,18.07L93.046,18.021L93.463,17.972L93.88,17.923L94.298,17.871L94.715,17.82L95.132,17.768L95.549,17.715L95.967,17.662L96.384,17.609L96.801,17.559L97.218,17.509L97.636,17.492L98.053,17.475L98.47,17.458L98.887,17.441L99.305,17.437L99.722,17.433L100.139,17.429L100.556,17.424L100.974,17.418L101.391,17.413L101.808,17.407L102.225,17.402L102.643,17.396L103.06,17.393L103.477,17.389L103.894,17.386L104.312,17.383L104.729,17.38L105.146,17.378L105.563,17.375L105.981,17.372L106.398,17.369L106.815,17.36L107.232,17.35L107.65,17.339L108.067,17.325L108.484,17.311L108.901,17.297L109.318,17.283L109.736,17.27L110.153,17.256L110.57,17.239L110.987,17.222L111.405,17.206L111.822,17.19L112.239,17.173L112.656,17.157L113.074,17.141L113.491,17.126L113.908,17.11L114.325,17.095L114.743,17.079L115.16,17.063L115.577,17.054L115.994,17.046L116.412,17.037L116.829,17.031L117.246,17.024L117.663,17.018L118.081,17.011L118.498,17.004L118.915,16.998L119.332,16.995L119.75,16.992L120.167,16.988L120.584,16.983L121.001,16.976L121.419,16.967L121.836,16.957L122.253,16.948L122.67,16.938L123.088,16.929L123.505,16.917L123.922,16.905L124.339,16.894L124.757,16.883L125.174,16.871L125.591,16.86L126.008,16.849L126.426,16.839L126.843,16.829L127.26,16.818L127.677,16.808L128.095,16.798L128.512,16.788L128.929,16.78L129.346,16.763L129.764,16.748L130.181,16.729L130.598,16.709L131.015,16.689L131.433,16.669L131.85,16.65L132.267,16.632L132.684,16.614L133.102,16.597L133.519,16.579L133.936,16.562L134.353,16.545L134.771,16.528L135.188,16.511L135.605,16.494L136.022,16.476L136.439,16.459L136.857,16.44L137.274,16.422L137.691,16.403L138.108,16.392L138.526,16.382L138.943,16.379L139.36,16.376L139.777,16.373L140.195,16.371L140.612,16.368L141.029,16.365L141.446,16.359L141.864,16.351L142.281,16.343L142.698,16.335L143.115,16.328L143.533,16.32L143.95,16.313L144.367,16.305L144.784,16.298L145.202,16.29L145.619,16.284L146.036,16.277L146.453,16.271L146.871,16.265L147.288,16.259L147.705,16.252L148.122,16.246L148.54,16.24L148.957,16.234L149.374,16.227L149.791,16.22L150.209,16.218L150.626,16.216L151.043,16.214L151.46,16.213L151.878,16.212L152.295,16.21L152.712,16.209L153.129,16.207L153.547,16.207L153.964,16.206L154.381,16.205L154.798,16.203L155.216,16.202L155.633,16.201L156.05,16.199L156.467,16.198L156.885,16.196L157.302,16.194L157.719,16.192L158.136,16.19L158.554,16.189L158.971,16.188L159.388,16.186L159.805,16.185L160.223,16.183L160.64,16.181L161.057,16.179L161.474,16.177L161.892,16.175L162.309,16.173L162.726,16.171L163.143,16.169L163.561,16.168L163.978,16.167L164.395,16.165L164.812,16.163L165.229,16.161L165.647,16.16L166.064,16.157L166.481,16.15L166.898,16.142L167.316,16.135L167.733,16.125L168.15,16.116L168.567,16.106L168.985,16.097L169.402,16.081L169.819,16.065L170.236,16.041L170.654,16.017L171.071,15.993L171.488,15.969L171.905,15.946L172.323,15.922L172.74,15.898L173.157,15.873L173.574,15.85L173.992,15.826L174.409,15.801L174.826,15.777L175.243,15.758L175.661,15.739L176.078,15.72L176.495,15.703L176.912,15.686L177.33,15.669L177.747,15.652L178.164,15.641L178.581,15.631L178.999,15.629L179.416,15.624L179.833,15.619L180.25,15.612L180.668,15.604L181.085,15.597L181.502,15.589L181.919,15.582L182.337,15.575L182.754,15.567L183.171,15.561L183.588,15.555L184.006,15.548L184.423,15.541L184.84,15.535L185.257,15.528L185.675,15.521L186.092,15.514L186.509,15.507L186.926,15.501L187.344,15.495L187.761,15.489L188.178,15.485L188.595,15.481L189.013,15.48L189.43,15.478L189.847,15.477L190.264,15.476L190.682,15.474L191.099,15.473L191.516,15.473L191.933,15.472L192.35,15.471L192.768,15.471L193.185,15.471L193.602,15.471L194.019,15.471L194.437,15.47L194.854,15.469L195.271,15.467L195.688,15.466L196.106,15.463L196.523,15.461L196.94,15.457L197.357,15.454L197.775,15.45L198.192,15.447L198.609,15.444L199.026,15.44L199.444,15.437L199.861,15.433L200.278,15.429L200.695,15.425L201.113,15.421L201.53,15.417L201.947,15.413L202.364,15.409L202.782,15.405L203.199,15.402L203.616,15.399L204.033,15.397L204.451,15.394L204.868,15.393L205.285,15.391L205.702,15.39L206.12,15.39L206.537,15.389L206.954,15.388L207.371,15.388L207.789,15.387L208.206,15.386L208.623,15.386L209.04,15.386L209.458,15.386L209.875,15.386L210.292,15.386L210.709,15.386L211.127,15.386L211.544,15.386L211.961,15.386L212.378,15.386L212.796,15.386L213.213,15.386L213.63,15.386L214.047,15.386L214.465,15.386L214.882,15.384L215.299,15.383L215.716,15.382L216.134,15.38L216.551,15.379L216.968,15.378L217.385,15.376L217.803,15.375L218.22,15.373L218.637,15.372L219.054,15.371L219.471,15.369L219.889,15.368L220.306,15.367L220.723,15.365L221.14,15.364L221.558,15.363L221.975,15.361L222.392,15.36L222.809,15.359L223.227,15.357L223.644,15.357L224.061,15.357L224.478,15.357L224.896,15.357L225.313,15.357L225.73,15.357L226.147,15.357L226.565,15.357L226.982,15.357L227.399,15.357L227.816,15.357L228.234,15.357L228.651,15.357L229.068,15.357L229.485,15.357L229.903,15.357L230.32,15.357L230.737,15.357L231.154,15.357L231.572,15.357L231.989,15.357L232.406,15.357L232.823,15.357L233.241,15.357L233.658,15.357L234.075,15.357L234.492,15.343L234.91,15.324L235.327,15.306L235.744,15.285L236.161,15.264L236.579,15.243L236.996,15.222L237.413,15.201L237.83,15.18L238.248,15.159L238.665,15.137L239.082,15.116L239.499,15.095L239.917,15.074L240.334,15.053L240.751,15.032L241.168,15.011L241.586,14.99L242.003,14.969L242.42,14.948L242.837,14.927L243.255,14.919L243.672,14.916L244.089,14.912L244.506,14.912L244.924,14.911L245.341,14.91L245.758,14.91L246.175,14.909L246.592,14.908L247.01,14.907L247.427,14.906L247.844,14.905L248.261,14.903L248.679,14.902L249.096,14.901L249.513,14.899L249.93,14.898L250.348,14.897L250.765,14.895L251.182,14.894L251.599,14.893L252.017,14.892L252.434,14.891L252.851,14.89L253.268,14.89L253.686,14.889L254.103,14.888L254.52,14.888L254.937,14.887L255.355,14.886L255.772,14.886L256.189,14.884L256.606,14.883L257.024,14.882L257.441,14.88L257.858,14.877L258.275,14.873L258.693,14.87L259.11,14.867L259.527,14.863L259.944,14.86L260.362,14.856L260.779,14.853L261.196,14.85L261.613,14.846L262.031,14.842L262.448,14.838L262.865,14.834L263.282,14.83L263.7,14.826L264.117,14.822L264.534,14.818L264.951,14.815L265.369,14.812L265.786,14.81L266.203,14.807L266.62,14.806L267.038,14.805L267.455,14.805L267.872,14.804L268.289,14.803L268.707,14.803L269.124,14.802L269.541,14.801L269.958,14.801L270.376,14.8L270.793,14.8L271.21,14.799L271.627,14.799L272.045,14.798L272.462,14.797L272.879,14.797L273.296,14.796L273.713,14.795L274.131,14.795L274.548,14.794L274.965,14.793L275.382,14.793L275.8,14.792L276.217,14.791L276.634,14.79L277.051,14.79L277.469,14.789L277.886,14.788L278.303,14.788L278.72,14.787L279.138,14.786L279.555,14.785L279.972,14.784L280.389,14.784L280.807,14.783L281.224,14.782L281.641,14.782L282.058,14.781L282.476,14.78L282.893,14.78L283.31,14.779L283.727,14.778L284.145,14.778L284.562,14.777L284.979,14.776L285.396,14.776L285.814,14.775L286.231,14.774L286.648,14.773L287.065,14.773L287.483,14.772L287.9,14.771L288.317,14.771L288.734,14.771L289.152,14.771L289.569,14.771L289.986,14.771L290.403,14.771L290.821,14.771L291.238,14.77L291.655,14.769L292.072,14.767L292.49,14.766L292.907,14.765L293.324,14.763L293.741,14.762L294.159,14.761L294.576,14.759L294.993,14.758L295.41,14.756L295.828,14.755L296.245,14.754L296.662,14.752L297.079,14.751L297.497,14.75L297.914,14.729L298.331,14.707L298.748,14.686L299.166,14.665L299.583,14.644L300,14.624L300,14.624L299.583,14.644L299.166,14.665L298.748,14.686L298.331,14.707L297.914,14.729L297.497,14.75L297.079,14.751L296.662,14.752L296.245,14.754L295.828,14.755L295.41,14.756L294.993,14.758L294.576,14.759L294.159,14.761L293.741,14.762L293.324,14.763L292.907,14.765L292.49,14.766L292.072,14.767L291.655,14.769L291.238,14.77L290.821,14.771L290.403,14.771L289.986,14.771L289.569,14.771L289.152,14.771L288.734,14.771L288.317,14.771L287.9,14.771L287.483,14.772L287.065,14.773L286.648,14.773L286.231,14.774L285.814,14.775L285.396,14.776L284.979,14.776L284.562,14.777L284.145,14.778L283.727,14.778L283.31,14.779L282.893,14.78L282.476,14.78L282.058,14.781L281.641,14.782L281.224,14.782L280.807,14.783L280.389,14.784L279.972,14.784L279.555,14.785L279.138,14.786L278.72,14.787L278.303,14.788L277.886,14.788L277.469,14.789L277.051,14.79L276.634,14.79L276.217,14.791L275.8,14.792L275.382,14.793L274.965,14.793L274.548,14.794L274.131,14.795L273.713,14.795L273.296,14.796L272.879,14.797L272.462,14.797L272.045,14.798L271.627,14.799L271.21,14.799L270.793,14.8L270.376,14.8L269.958,14.801L269.541,14.801L269.124,14.802L268.707,14.803L268.289,14.803L267.872,14.804L267.455,14.805L267.038,14.805L266.62,14.806L266.203,14.807L265.786,14.81L265.369,14.812L264.951,14.815L264.534,14.818L264.117,14.822L263.7,14.826L263.282,14.83L262.865,14.834L262.448,14.838L262.031,14.842L261.613,14.846L261.196,14.85L260.779,14.853L260.362,14.856L259.944,14.86L259.527,14.863L259.11,14.867L258.693,14.87L258.275,14.873L257.858,14.877L257.441,14.88L257.024,14.882L256.606,14.883L256.189,14.884L255.772,14.886L255.355,14.886L254.937,14.887L254.52,14.888L254.103,14.888L253.686,14.889L253.268,14.89L252.851,14.89L252.434,14.891L252.017,14.892L251.599,14.893L251.182,14.894L250.765,14.895L250.348,14.897L249.93,14.898L249.513,14.899L249.096,14.901L248.679,14.902L248.261,14.903L247.844,14.905L247.427,14.906L247.01,14.907L246.592,14.908L246.175,14.909L245.758,14.91L245.341,14.91L244.924,14.911L244.506,14.912L244.089,14.912L243.672,14.916L243.255,14.919L242.837,14.927L242.42,14.948L242.003,14.969L241.586,14.99L241.168,15.011L240.751,15.032L240.334,15.053L239.917,15.074L239.499,15.095L239.082,15.116L238.665,15.137L238.248,15.159L237.83,15.18L237.413,15.201L236.996,15.222L236.579,15.243L236.161,15.264L235.744,15.285L235.327,15.306L234.91,15.324L234.492,15.343L234.075,15.357L233.658,15.357L233.241,15.357L232.823,15.357L232.406,15.357L231.989,15.357L231.572,15.357L231.154,15.357L230.737,15.357L230.32,15.357L229.903,15.357L229.485,15.357L229.068,15.357L228.651,15.357L228.234,15.357L227.816,15.357L227.399,15.357L226.982,15.357L226.565,15.357L226.147,15.357L225.73,15.357L225.313,15.357L224.896,15.357L224.478,15.357L224.061,15.357L223.644,15.357L223.227,15.357L222.809,15.359L222.392,15.36L221.975,15.361L221.558,15.363L221.14,15.364L220.723,15.365L220.306,15.367L219.889,15.368L219.471,15.369L219.054,15.371L218.637,15.372L218.22,15.373L217.803,15.375L217.385,15.376L216.968,15.378L216.551,15.379L216.134,15.38L215.716,15.382L215.299,15.383L214.882,15.384L214.465,15.386L214.047,15.386L213.63,15.386L213.213,15.386L212.796,15.386L212.378,15.386L211.961,15.386L211.544,15.386L211.127,15.386L210.709,15.386L210.292,15.386L209.875,15.386L209.458,15.386L209.04,15.386L208.623,15.386L208.206,15.386L207.789,15.387L207.371,15.388L206.954,15.388L206.537,15.389L206.12,15.39L205.702,15.39L205.285,15.391L204.868,15.393L204.451,15.394L204.033,15.397L203.616,15.399L203.199,15.402L202.782,15.405L202.364,15.409L201.947,15.413L201.53,15.417L201.113,15.421L200.695,15.425L200.278,15.429L199.861,15.433L199.444,15.437L199.026,15.44L198.609,15.444L198.192,15.447L197.775,15.45L197.357,15.454L196.94,15.457L196.523,15.461L196.106,15.463L195.688,15.466L195.271,15.467L194.854,15.469L194.437,15.47L194.019,15.471L193.602,15.471L193.185,15.471L192.768,15.471L192.35,15.471L191.933,15.472L191.516,15.473L191.099,15.473L190.682,15.474L190.264,15.476L189.847,15.477L189.43,15.478L189.013,15.48L188.595,15.481L188.178,15.485L187.761,15.489L187.344,15.495L186.926,15.501L186.509,15.507L186.092,15.514L185.675,15.521L185.257,15.528L184.84,15.535L184.423,15.541L184.006,15.548L183.588,15.555L183.171,15.561L182.754,15.567L182.337,15.575L181.919,15.582L181.502,15.589L181.085,15.597L180.668,15.604L180.25,15.612L179.833,15.619L179.416,15.624L178.999,15.629L178.581,15.631L178.164,15.641L177.747,15.652L177.33,15.669L176.912,15.686L176.495,15.703L176.078,15.72L175.661,15.739L175.243,15.758L174.826,15.777L174.409,15.801L173.992,15.826L173.574,15.85L173.157,15.873L172.74,15.898L172.323,15.922L171.905,15.946L171.488,15.969L171.071,15.993L170.654,16.017L170.236,16.041L169.819,16.065L169.402,16.081L168.985,16.097L168.567,16.106L168.15,16.116L167.733,16.125L167.316,16.135L166.898,16.142L166.481,16.15L166.064,16.157L165.647,16.16L165.229,16.161L164.812,16.163L164.395,16.165L163.978,16.167L163.561,16.168L163.143,16.169L162.726,16.171L162.309,16.173L161.892,16.175L161.474,16.177L161.057,16.179L160.64,16.181L160.223,16.183L159.805,16.185L159.388,16.186L158.971,16.188L158.554,16.189L158.136,16.19L157.719,16.192L157.302,16.194L156.885,16.196L156.467,16.198L156.05,16.199L155.633,16.201L155.216,16.202L154.798,16.203L154.381,16.205L153.964,16.206L153.547,16.207L153.129,16.207L152.712,16.209L152.295,16.21L151.878,16.212L151.46,16.213L151.043,16.214L150.626,16.216L150.209,16.218L149.791,16.22L149.374,16.227L148.957,16.234L148.54,16.24L148.122,16.246L147.705,16.252L147.288,16.259L146.871,16.265L146.453,16.271L146.036,16.277L145.619,16.284L145.202,16.29L144.784,16.298L144.367,16.305L143.95,16.313L143.533,16.32L143.115,16.328L142.698,16.335L142.281,16.343L141.864,16.351L141.446,16.359L141.029,16.365L140.612,16.368L140.195,16.371L139.777,16.373L139.36,16.376L138.943,16.379L138.526,16.382L138.108,16.392L137.691,16.403L137.274,16.422L136.857,16.44L136.439,16.459L136.022,16.476L135.605,16.494L135.188,16.511L134.771,16.528L134.353,16.545L133.936,16.562L133.519,16.579L133.102,16.597L132.684,16.614L132.267,16.632L131.85,16.65L131.433,16.669L131.015,16.689L130.598,16.709L130.181,16.729L129.764,16.748L129.346,16.763L128.929,16.78L128.512,16.788L128.095,16.798L127.677,16.808L127.26,16.818L126.843,16.829L126.426,16.839L126.008,16.849L125.591,16.86L125.174,16.871L124.757,16.883L124.339,16.894L123.922,16.905L123.505,16.917L123.088,16.929L122.67,16.938L122.253,16.948L121.836,16.957L121.419,16.967L121.001,16.976L120.584,16.983L120.167,16.988L119.75,16.992L119.332,16.995L118.915,16.998L118.498,17.004L118.081,17.011L117.663,17.018L117.246,17.024L116.829,17.031L116.412,17.037L115.994,17.046L115.577,17.054L115.16,17.063L114.743,17.079L114.325,17.095L113.908,17.11L113.491,17.126L113.074,17.141L112.656,17.157L112.239,17.173L111.822,17.19L111.405,17.206L110.987,17.222L110.57,17.239L110.153,17.256L109.736,17.27L109.318,17.283L108.901,17.297L108.484,17.311L108.067,17.325L107.65,17.339L107.232,17.35L106.815,17.36L106.398,17.369L105.981,17.372L105.563,17.375L105.146,17.378L104.729,17.38L104.312,17.383L103.894,17.386L103.477,17.389L103.06,17.393L102.643,17.396L102.225,17.402L101.808,17.407L101.391,17.413L100.974,17.418L100.556,17.424L100.139,17.429L99.722,17.433L99.305,17.437L98.887,17.441L98.47,17.458L98.053,17.475L97.636,17.492L97.218,17.509L96.801,17.559L96.384,17.609L95.967,17.662L95.549,17.715L95.132,17.768L94.715,17.82L94.298,17.871L93.88,17.923L93.463,17.972L93.046,18.021L92.629,18.07L92.211,18.119L91.794,18.168L91.377,18.217L90.96,18.267L90.542,18.316L90.125,18.366L89.708,18.403L89.291,18.439L88.873,18.476L88.456,18.513L88.039,18.517L87.622,18.52L87.204,18.521L86.787,18.522L86.37,18.524L85.953,18.525L85.535,18.532L85.118,18.54L84.701,18.55L84.284,18.561L83.866,18.571L83.449,18.581L83.032,18.591L82.615,18.601L82.197,18.611L81.78,18.622L81.363,18.634L80.946,18.646L80.529,18.657L80.111,18.679L79.694,18.701L79.277,18.722L78.86,18.745L78.442,18.767L78.025,18.789L77.608,18.811L77.191,18.833L76.773,18.849L76.356,18.864L75.939,18.877L75.522,18.89L75.104,18.903L74.687,18.916L74.27,18.929L73.853,18.941L73.435,18.954L73.018,18.965L72.601,18.976L72.184,18.987L71.766,18.998L71.349,19.001L70.932,19.004L70.515,19.008L70.097,19.012L69.68,19.015L69.263,19.018L68.846,19.022L68.428,19.026L68.011,19.03L67.594,19.034L67.177,19.038L66.759,19.043L66.342,19.048L65.925,19.052L65.508,19.057L65.09,19.062L64.673,19.068L64.256,19.076L63.839,19.083L63.421,19.092L63.004,19.101L62.587,19.107L62.17,19.114L61.752,19.12L61.335,19.126L60.918,19.132L60.501,19.139L60.083,19.146L59.666,19.152L59.249,19.158L58.832,19.164L58.414,19.17L57.997,19.176L57.58,19.181L57.163,19.187L56.745,19.193L56.328,19.199L55.911,19.204L55.494,19.207L55.076,19.211L54.659,19.213L54.242,19.215L53.825,19.234L53.408,19.253L52.99,19.273L52.573,19.293L52.156,19.312L51.739,19.331L51.321,19.35L50.904,19.369L50.487,19.388L50.07,19.407L49.652,19.427L49.235,19.448L48.818,19.47L48.401,19.492L47.983,19.514L47.566,19.535L47.149,19.557L46.732,19.579L46.314,19.601L45.897,19.622L45.48,19.644L45.063,19.649L44.645,19.654L44.228,19.671L43.811,19.688L43.394,19.705L42.976,19.723L42.559,19.741L42.142,19.761L41.725,19.782L41.307,19.802L40.89,19.822L40.473,19.84L40.056,19.859L39.638,19.878L39.221,19.896L38.804,19.914L38.387,19.933L37.969,19.957L37.552,19.981L37.135,20.005L36.718,20.029L36.3,20.052L35.883,20.076L35.466,20.086L35.049,20.097L34.631,20.107L34.214,20.117L33.797,20.127L33.38,20.135L32.962,20.142L32.545,20.15L32.128,20.157L31.711,20.165L31.293,20.171L30.876,20.18L30.459,20.188L30.042,20.205L29.624,20.222L29.207,20.233L28.79,20.245L28.373,20.258L27.955,20.271L27.538,20.285L27.121,20.3L26.704,20.315L26.287,20.33L25.869,20.347L25.452,20.364L25.035,20.382L24.618,20.399L24.2,20.417L23.783,20.436L23.366,20.455L22.949,20.475L22.531,20.499L22.114,20.52L21.697,20.542L21.28,20.557L20.862,20.572L20.445,20.591L20.028,20.61L19.611,20.63L19.193,20.657L18.776,20.699L18.359,20.739L17.942,20.781L17.524,20.829L17.107,20.876L16.69,20.925L16.273,20.977L15.855,21.032L15.438,21.09L15.021,21.15L14.604,21.301L14.186,21.454L13.769,21.625L13.352,21.801L12.935,21.991L12.517,22.191L12.1,22.49L11.683,23.279L11.266,24.078L10.848,25.129L10.431,26.192L10.014,27.241L9.597,28.291L9.179,29.377L8.762,30.456L8.345,38.954L7.928,39.822L7.51,40.778L7.093,41.837L6.676,43.015L6.259,44.338L5.841,45.71L5.424,47.271L5.007,49.04L4.59,51.094L4.172,53.491L3.755,56.346L3.338,59.605L2.921,62.38L2.503,65.918L2.086,69.75L1.669,75.026L1.252,82.939L0.834,96.114L0.417,122.086L0,200Z" fill="#808b88" opacity="0.2"/></g></g><path class="foreground" aria-hidden="true" d="" display="none"/></g></g><g class="mark-group role-legend" role="graphics-symbol" aria-roledescription="legend" aria-label="Symbol legend titled 'Fuzzer' for shape, fill color and stroke color with 4 values: ft, aflnet, stateafl, sgfuzz"><g transform="translate(0,-47)"><path class="background" aria-hidden="true" d="M0,0h190v29h-190Z" pointer-events="none"/><g><g class="mark-group role-legend-entry"><g transform="translate(0,16)"><path class="background" aria-hidden="true" d="M0,0h0v0h0Z" pointer-events="none"/><g><g class="mark-group role-scope" role="graphics-object" aria-roledescription="group mark container"><g transform="translate(0,0.25)"><path class="background" aria-hidden="true" d="M0,0h21.556640625v12.5h-21.556640625Z" pointer-events="none" opacity="1"/><g><g class="mark-symbol role-legend-symbol" pointer-events="none"><path transform="translate(6,6)" d="M5,0A5,5,0,1,1,-5,0A5,5,0,1,1,5,0" fill="#d66368" fill-opacity="1" stroke="#d66368" stroke-width="1.5" opacity="1"/></g><g class="mark-text role-legend-label" pointer-events="none"><text text-anchor="start" transform="translate(16,9)" font-family="sans-serif" font-size="10px" fill="#000" opacity="1">ft</text></g></g><path class="foreground" aria-hidden="true" d="" pointer-events="none" display="none"/></g><g transform="translate(33,0.25)"><path class="background" aria-hidden="true" d="M0,0h40.462890625v12.5h-40.462890625Z" pointer-events="none" opacity="1"/><g><g class="mark-symbol role-legend-symbol" pointer-events="none"><path transform="translate(6,6)" d="M-5,-5h10v10h-10Z" fill="#f59c0c" fill-opacity="1" stroke="#f59c0c" stroke-width="1.5" opacity="1"/></g><g class="mark-text role-legend-label" pointer-events="none"><text text-anchor="start" transform="translate(16,9)" font-family="sans-serif" font-size="10px" fill="#000" opacity="1">aflnet</text></g></g><path class="foreground" aria-hidden="true" d="" pointer-events="none" display="none"/></g><g transform="translate(85,0.5849364905389036)"><path class="background" aria-hidden="true" d="M0,0h48.2412109375v11.830127018922191h-48.2412109375Z" pointer-events="none" opacity="1"/><g><g class="mark-symbol role-legend-symbol" pointer-events="none"><path transform="translate(6,6)" d="M0,-4.33L-5,4.33L5,4.33Z" fill="#109426" fill-opacity="1" stroke="#109426" stroke-width="1.5" opacity="1"/></g><g class="mark-text role-legend-label" pointer-events="none"><text text-anchor="start" transform="translate(16,9)" font-family="sans-serif" font-size="10px" fill="#000" opacity="1">stateafl</text></g></g><path class="foreground" aria-hidden="true" d="" pointer-events="none" display="none"/></g><g transform="translate(145,0.25)"><path class="background" aria-hidden="true" d="M0,0h44.9013671875v12.5h-44.9013671875Z" pointer-events="none" opacity="1"/><g><g class="mark-symbol role-legend-symbol" pointer-events="none"><path transform="translate(6,6)" d="M-5,-2L-5,2L-2,2L-2,5L2,5L2,2L5,2L5,-2L2,-2L2,-5L-2,-5L-2,-2Z" fill="#808b88" fill-opacity="1" stroke="#808b88" stroke-width="1.5" opacity="1"/></g><g class="mark-text role-legend-label" pointer-events="none"><text text-anchor="start" transform="translate(16,9)" font-family="sans-serif" font-size="10px" fill="#000" opacity="1">sgfuzz</text></g></g><path class="foreground" aria-hidden="true" d="" pointer-events="none" display="none"/></g></g></g><path class="foreground" aria-hidden="true" d="" pointer-events="none" display="none"/></g></g><g class="mark-text role-legend-title" pointer-events="none"><text text-anchor="start" transform="translate(0,9)" font-family="sans-serif" font-size="11px" font-weight="bold" fill="#000" opacity="1">Fuzzer</text></g></g><path class="foreground" aria-hidden="true" d="" pointer-events="none" display="none"/></g></g><g class="mark-group role-title"><g transform="translate(150,-64)"><path class="background" aria-hidden="true" d="M0,0h0v0h0Z" pointer-events="none"/><g><g class="mark-text role-title-text" role="graphics-symbol" aria-roledescription="title" aria-label="Title text 'target:artifact_openssl_client_server_1,cores:4,timeout:43200s'" pointer-events="none"><text text-anchor="middle" transform="translate(0,10)" font-family="sans-serif" font-size="13px" font-weight="bold" fill="#000" opacity="1">target:artifact_openssl_client_server_1,cores:4,timeout:43200s</text></g></g><path class="foreground" aria-hidden="true" d="" pointer-events="none" display="none"/></g></g></g><path class="foreground" aria-hidden="true" d="" display="none"/></g></g></g></svg>