<svg xmlns="http://www.w3.org/2000/svg" xmlns:xlink="http://www.w3.org/1999/xlink" version="1.1" class="marks" width="388" height="306" viewBox="0 0 388 306"><rect width="388" height="306" fill="white"/><g fill="none" stroke-miterlimit="10" transform="translate(53,69)"><g class="mark-group role-frame root" role="graphics-object" aria-roledescription="group mark container"><g transform="translate(0,0)"><path class="background" aria-hidden="true" d="M0.5,0.5h300v200h-300Z" stroke="#ddd"/><g><g class="mark-group role-axis" aria-hidden="true"><g transform="translate(0.5,200.5)"><path class="background" aria-hidden="true" d="M0,0h0v0h0Z" pointer-events="none"/><g><g class="mark-rule role-axis-grid" pointer-events="none"><line transform="translate(0,-200)" x2="0" y2="200" stroke="#ddd" stroke-width="1" opacity="1"/><line transform="translate(25,-200)" x2="0" y2="200" stroke="#ddd" stroke-width="1" opacity="1"/><line transform="translate(50,-200)" x2="0" y2="200" stroke="#ddd" stroke-width="1" opacity="1"/><line transform="translate(75,-200)" x2="0" y2="200" stroke="#ddd" stroke-width="1" opacity="1"/><line transform="translate(100,-200)" x2="0" y2="200" stroke="#ddd" stroke-width="1" opacity="1"/><line transform="translate(125,-200)" x2="0" y2="200" stroke="#ddd" stroke-width="1" opacity="1"/><line transform="translate(150,-200)" x2="0" y2="200" stroke="#ddd" stroke-width="1" opacity="1"/><line transform="translate(175,-200)" x2="0" y2="200" stroke="#ddd" stroke-width="1" opacity="1"/><line transform="translate(200,-200)" x2="0" y2="200" stroke="#ddd" stroke-width="1" opacity="1"/><line transform="translate(225,-200)" x2="0" y2="200" stroke="#ddd" stroke-width="1" opacity="1"/><line transform="translate(250,-200)" x2="0" y2="200" stroke="#ddd" stroke-width="1" opacity="1"/><line transform="translate(275,-200)" x2="0" y2="200" stroke="#ddd" stroke-width="1" opacity="1"/></g></g><path class="foreground" aria-hidden="true" d="" pointer-events="none" display="none"/></g></g><g class="mark-group role-axis" aria-hidden="true"><g transform="translate(0.5,0.5)"><path class="background" aria-hidden="true" d="M0,0h0v0h0Z" pointer-events="none"/><g><g class="mark-rule role-axis-grid" pointer-events="none"><line transform="translate(0,200)" x2="300" y2="0" stroke="#ddd" stroke-width="1" opacity="1"/><line transform="translate(0,160)" x2="300" y2="0" stroke="#ddd" stroke-width="1" opacity="1"/><line transform="translate(0,120)" x2="300" y2="0" stroke="#ddd" stroke-width="1" opacity="1"/><line transform="translate(0,80)" x2="300" y2="0" stroke="#ddd" stroke-width="1" opacity="1"/><line transform="translate(0,40)" x2="300" y2="0" stroke="#ddd" stroke-width="1" opacity="1"/><line transform="translate(0,0)" x2="300" y2="0" stroke="#ddd" stroke-width="1" opacity="1"/></g></g><path class="foreground" aria-hidden="true" d="" pointer-events="none" display="none"/></g></g><g class="mark-group role-axis" role="graphics-symbol" aria-roledescription="axis" aria-label="X-axis titled 'Time [hh:mm]' for a time scale with values from 00:00 to 11:59"><g transform="translate(0.5,200.5)"><path class="background" aria-hidden="true" d="M0,0h0v0h0Z" pointer-events="none"/><g><g class="mark-rule role-axis-tick" pointer-events="none"><line transform="translate(0,0)" x2="0" y2="5" stroke="#888" stroke-width="1" opacity="1"/><line transform="translate(25,0)" x2="0" y2="5" stroke="#888" stroke-width="1" opacity="1"/><line transform="translate(50,0)" x2="0" y2="5" stroke="#888" stroke-width="1" opacity="1"/><line transform="translate(75,0)" x2="0" y2="5" stroke="#888" stroke-width="1" opacity="1"/><line transform="translate(100,0)" x2="0" y2="5" stroke="#888" stroke-width="1" opacity="1"/><line transform="translate(125,0)" x2="0" y2="5" stroke="#888" stroke-width="1" opacity="1"/><line transform="translate(150,0)" x2="0" y2="5" stroke="#888" stroke-width="1" opacity="1"/><line transform="translate(175,0)" x2="0" y2="5" stroke="#888" stroke-width="1" opacity="1"/><line transform="translate(200,0)" x2="0" y2="5" stroke="#888" stroke-width="1" opacity="1"/><line transform="translate(225,0)" x2="0" y2="5" stroke="#888" stroke-width="1" opacity="1"/><line transform="translate(250,0)" x2="0" y2="5" stroke="#888" stroke-width="1" opacity="1"/><line transform="translate(275,0)" x2="0" y2="5" stroke="#888" stroke-width="1" opacity="1"/></g><g class="mark-text role-axis-label" pointer-events="none"><text text-anchor="start" transform="translate(0,15)" font-family="sans-serif" font-size="10px" fill="#000" opacity="1">00:00</text><text text-anchor="middle" transform="translate(25.03477051460362,15)" font-family="sans-serif" font-size="10px" fill="#000" opacity="0">01:00</text><text text-anchor="middle" transform="translate(50.06954102920724,15)" font-family="sans-serif" font-size="10px" fill="#000" opacity="1">02:00</text><text text-anchor="middle" transform="translate(75.10431154381085,15)" font-family="sans-serif" font-size="10px" fill="#000" opacity="0">03:00</text><text text-anchor="middle" transform="translate(100.13908205841447,15)" font-family="sans-serif" font-size="10px" fill="#000" opacity="1">04:00</text><text text-anchor="middle" transform="translate(125.17385257301808,15)" font-family="sans-serif" font-size="10px" fill="#000" opacity="0">05:00</text><text text-anchor="middle" transform="translate(150.2086230876217,15)" font-family="sans-serif" font-size="10px" fill="#000" opacity="1">06:00</text><text text-anchor="middle" transform="translate(175.24339360222532,15)" font-family="sans-serif" font-size="10px" fill="#000" opacity="0">07:00</text><text text-anchor="middle" transform="translate(200.27816411682895,15)" font-family="sans-serif" font-size="10px" fill="#000" opacity="1">08:00</text><text text-anchor="middle" transform="translate(225.31293463143257,15)" font-family="sans-serif" font-size="10px" fill="#000" opacity="0">09:00</text><text text-anchor="middle" transform="translate(250.34770514603616,15)" font-family="sans-serif" font-size="10px" fill="#000" opacity="1">10:00</text><text text-anchor="middle" transform="translate(275.3824756606398,15)" font-family="sans-serif" font-size="10px" fill="#000" opacity="0">11:00</text></g><g class="mark-rule role-axis-domain" pointer-events="none"><line transform="translate(0,0)" x2="300" y2="0" stroke="#888" stroke-width="1" opacity="1"/></g><g class="mark-text role-axis-title" pointer-events="none"><text text-anchor="middle" transform="translate(150,30)" font-family="sans-serif" font-size="11px" font-weight="bold" fill="#000" opacity="1">Time [hh:mm]</text></g></g><path class="foreground" aria-hidden="true" d="" pointer-events="none" display="none"/></g></g><g class="mark-group role-axis" role="graphics-symbol" aria-roledescription="axis" aria-label="Y-axis titled '#Covered Branches' for a linear scale with values from 0 to 5,000"><g transform="translate(0.5,0.5)"><path class="background" aria-hidden="true" d="M0,0h0v0h0Z" pointer-events="none"/><g><g class="mark-rule role-axis-tick" pointer-events="none"><line transform="translate(0,200)" x2="-5" y2="0" stroke="#888" stroke-width="1" opacity="1"/><line transform="translate(0,160)" x2="-5" y2="0" stroke="#888" stroke-width="1" opacity="1"/><line transform="translate(0,120)" x2="-5" y2="0" stroke="#888" stroke-width="1" opacity="1"/><line transform="translate(0,80)" x2="-5" y2="0" stroke="#888" stroke-width="1" opacity="1"/><line transform="translate(0,40)" x2="-5" y2="0" stroke="#888" stroke-width="1" opacity="1"/><line transform="translate(0,0)" x2="-5" y2="0" stroke="#888" stroke-width="1" opacity="1"/></g><g class="mark-text role-axis-label" pointer-events="none"><text text-anchor="end" transform="translate(-7,203)" font-family="sans-serif" font-size="10px" fill="#000" opacity="1">0</text><text text-anchor="end" transform="translate(-7,163)" font-family="sans-serif" font-size="10px" fill="#000" opacity="1">1,000</text><text text-anchor="end" transform="translate(-7,123)" font-family="sans-serif" font-size="10px" fill="#000" opacity="1">2,000</text><text text-anchor="end" transform="translate(-7,83)" font-family="sans-serif" font-size="10px" fill="#000" opacity="1">3,000</text><text text-anchor="end" transform="translate(-7,42.99999999999999)" font-family="sans-serif" font-size="10px" fill="#000" opacity="1">4,000</text><text text-anchor="end" transform="translate(-7,3)" font-family="sans-serif" font-size="10px" fill="#000" opacity="1">5,000</text></g><g class="mark-rule role-axis-domain" pointer-events="none"><line transform="translate(0,200)" x2="0" y2="-200" stroke="#888" stroke-width="1" opacity="1"/></g><g class="mark-text role-axis-title" pointer-events="none"><text text-anchor="middle" transform="translate(-36.0244140625,100) rotate(-90) translate(0,-2)" font-family="sans-serif" font-size="11px" font-weight="bold" fill="#000" opacity="1">#Covered Branches</text></g></g><path class="foreground" aria-hidden="true" d="" pointer-events="none" display="none"/></g></g><g class="mark-group role-scope layer_0_pathgroup" role="graphics-object" aria-roledescription="group mark container"><g transform="translate(0,0)"><path class="background" aria-hidden="true" d="M0,0h300v200h-300Z"/><g><g class="mark-line role-mark layer_0_marks" role="graphics-symbol" aria-roledescription="line mark container"><path d="M0,200L0.417,83.76L0.834,83.76L1.252,83.76L1.669,83.76L2.086,83.76L2.503,83.76L2.921,83.76L3.338,83.76L3.755,83.76L4.172,83.76L4.59,83.76L5.007,83.76L5.424,83.76L5.841,83.76L6.259,83.76L6.676,83.76L7.093,83.76L7.51,83.76L7.928,83.76L8.345,83.76L8.762,83.76L9.179,83.76L9.597,83.76L10.014,83.76L10.431,83.76L10.848,83.76L11.266,83.76L11.683,83.76L12.1,83.76L12.517,83.76L12.935,83.76L13.352,83.76L13.769,83.76L14.186,83.76L14.604,83.76L15.021,83.76L15.438,83.76L15.855,83.76L16.273,83.76L16.69,83.76L17.107,83.76L17.524,83.76L17.942,83.76L18.359,83.76L18.776,83.76L19.193,83.76L19.611,83.76L20.028,83.76L20.445,83.76L20.862,83.76L21.28,83.76L21.697,83.76L22.114,83.76L22.531,83.76L22.949,83.76L23.366,83.76L23.783,83.76L24.2,83.76L24.618,83.76L25.035,83.76L25.452,83.76L25.869,83.76L26.287,83.76L26.704,83.76L27.121,83.76L27.538,83.76L27.955,83.76L28.373,83.76L28.79,83.76L29.207,83.76L29.624,83.76L30.042,83.76L30.459,83.76L30.876,83.76L31.293,83.76L31.711,83.76L32.128,83.76L32.545,83.76L32.962,83.76L33.38,83.76L33.797,83.76L34.214,83.76L34.631,83.76L35.049,83.76L35.466,83.76L35.883,83.76L36.3,83.76L36.718,83.68L37.135,83.68L37.552,83.68L37.969,83.68L38.387,83.68L38.804,83.68L39.221,83.4L39.638,83.4L40.056,83.4L40.473,83.4L40.89,83.4L41.307,83.36L41.725,83.36L42.142,83.36L42.559,83.36L42.976,82.76L43.394,82.76L43.811,82.76L44.228,82.76L44.645,82.76L45.063,82.76L45.48,82.76L45.897,82.76L46.314,82.76L46.732,82.76L47.149,82.76L47.566,82.76L47.983,82.76L48.401,82.76L48.818,82.76L49.235,82.76L49.652,82.76L50.07,82.76L50.487,82.76L50.904,82.76L51.321,82.76L51.739,82.76L52.156,82.76L52.573,82.76L52.99,82.76L53.408,82.76L53.825,82.76L54.242,82.76L54.659,82.76L55.076,82.76L55.494,82.76L55.911,82.76L56.328,82.76L56.745,82.76L57.163,82.76L57.58,82.76L57.997,82.76L58.414,82.76L58.832,82.76L59.249,82.76L59.666,82.76L60.083,82.76L60.501,82.76L60.918,82.76L61.335,82.76L61.752,82.76L62.17,82.76L62.587,82.76L63.004,82.76L63.421,82.76L63.839,82.76L64.256,82.76L64.673,82.76L65.09,82.76L65.508,82.76L65.925,82.76L66.342,82.76L66.759,82.76L67.177,82.76L67.594,82.76L68.011,82.76L68.428,82.76L68.846,82.76L69.263,82.76L69.68,82.76L70.097,82.76L70.515,82.76L70.932,82.76L71.349,82.76L71.766,82.76L72.184,82.76L72.601,82.76L73.018,82.76L73.435,82.76L73.853,82.76L74.27,82.76L74.687,82.76L75.104,82.76L75.522,82.76L75.939,82.76L76.356,82.76L76.773,82.76L77.191,82.76L77.608,82.76L78.025,82.76L78.442,82.76L78.86,82.76L79.277,82.72L79.694,82.72L80.111,82.72L80.529,82.72L80.946,82.72L81.363,82.72L81.78,82.72L82.197,82.72L82.615,82.72L83.032,82.72L83.449,82.72L83.866,82.72L84.284,82.72L84.701,82.68L85.118,82.68L85.535,82.68L85.953,82.68L86.37,82.68L86.787,82.68L87.204,82.68L87.622,82.68L88.039,82.68L88.456,82.68L88.873,82.68L89.291,82.68L89.708,82.68L90.125,82.68L90.542,82.68L90.96,82.68L91.377,82.68L91.794,82.68L92.211,82.68L92.629,82.68L93.046,82.68L93.463,82.68L93.88,82.68L94.298,82.68L94.715,82.68L95.132,82.68L95.549,82.68L95.967,82.68L96.384,82.68L96.801,82.68L97.218,82.68L97.636,82.68L98.053,82.68L98.47,82.68L98.887,82.68L99.305,82.68L99.722,82.68L100.139,82.68L100.556,82.68L100.974,82.68L101.391,82.68L101.808,82.68L102.225,82.68L102.643,82.68L103.06,82.68L103.477,82.68L103.894,82.68L104.312,82.68L104.729,82.68L105.146,82.68L105.563,82.68L105.981,82.68L106.398,82.68L106.815,82.68L107.232,82.68L107.65,82.68L108.067,82.68L108.484,82.68L108.901,82.68L109.318,82.68L109.736,82.68L110.153,82.68L110.57,82.68L110.987,82.68L111.405,82.68L111.822,82.68L112.239,82.68L112.656,82.68L113.074,82.68L113.491,82.44L113.908,82.44L114.325,82.44L114.743,82.44L115.16,82.44L115.577,82.44L115.994,82.44L116.412,82.44L116.829,82.44L117.246,82.44L117.663,82.44L118.081,82.44L118.498,82.44L118.915,82.44L119.332,82.44L119.75,82.44L120.167,82.44L120.584,82.44L121.001,82.44L121.419,82.44L121.836,82.44L122.253,82.44L122.67,82.44L123.088,82.44L123.505,82.44L123.922,82.44L124.339,82.44L124.757,82.44L125.174,82.44L125.591,82.44L126.008,82.44L126.426,82.44L126.843,82.44L127.26,82.44L127.677,82.44L128.095,82.44L128.512,82.44L128.929,82.44L129.346,82.44L129.764,82.44L130.181,82.44L130.598,82.44L131.015,82.44L131.433,82.44L131.85,82.44L132.267,82.44L132.684,82.44L133.102,82.44L133.519,82.44L133.936,82.44L134.353,82.44L134.771,82.44L135.188,82.44L135.605,82.44L136.022,82.44L136.439,82.44L136.857,82.44L137.274,82.44L137.691,82.44L138.108,82.44L138.526,82.44L138.943,82.44L139.36,82.44L139.777,82.44L140.195,82.44L140.612,82.44L141.029,82.44L141.446,82.44L141.864,82.44L142.281,82.44L142.698,82.44L143.115,82.44L143.533,82.44L143.95,82.44L144.367,82.44L144.784,82.44L145.202,82.44L145.619,82.44L146.036,82.44L146.453,82.44L146.871,82.44L147.288,82.44L147.705,82.44L148.122,82.44L148.54,82.44L148.957,82.44L149.374,82.44L149.791,82.44L150.209,82.44L150.626,82.44L151.043,82.44L151.46,82.44L151.878,82.44L152.295,82.44L152.712,82.44L153.129,82.44L153.547,82.44L153.964,82.44L154.381,82.44L154.798,82.44L155.216,82.44L155.633,82.44L156.05,82.44L156.467,82.44L156.885,82.44L157.302,82.44L157.719,82.44L158.136,82.44L158.554,82.44L158.971,82.44L159.388,82.44L159.805,82.44L160.223,82.36L160.64,82.36L161.057,82.36L161.474,82.36L161.892,82.36L162.309,82.36L162.726,82.36L163.143,82.36L163.561,82.36L163.978,82.36L164.395,82.36L164.812,82.36L165.229,82.36L165.647,82.36L166.064,82.36L166.481,82.36L166.898,82.36L167.316,82.36L167.733,82.36L168.15,82.36L168.567,82.36L168.985,82.36L169.402,82.36L169.819,82.36L170.236,82.36L170.654,82.36L171.071,82.36L171.488,82.36L171.905,82.36L172.323,82.36L172.74,82.36L173.157,82.36L173.574,82.36L173.992,82.36L174.409,82.36L174.826,82.36L175.243,82.36L175.661,82.36L176.078,82.36L176.495,82.36L176.912,82.36L177.33,82.36L177.747,82.36L178.164,82.36L178.581,82.36L178.999,82.36L179.416,82.36L179.833,82.36L180.25,82.36L180.668,82.36L181.085,82.36L181.502,82.36L181.919,82.36L182.337,82.36L182.754,82.36L183.171,82.36L183.588,82.36L184.006,82.36L184.423,82.36L184.84,82.36L185.257,82.36L185.675,82.36L186.092,82.36L186.509,82.36L186.926,82.36L187.344,82.36L187.761,82.36L188.178,82.36L188.595,82.36L189.013,82.36L189.43,82.36L189.847,82.36L190.264,82.36L190.682,82.36L191.099,82.36L191.516,82.36L191.933,82.36L192.35,82.36L192.768,82.36L193.185,82.36L193.602,82.36L194.019,82.36L194.437,82.36L194.854,82.36L195.271,82.36L195.688,82.36L196.106,82.36L196.523,82.36L196.94,82.36L197.357,82.36L197.775,82.36L198.192,82.36L198.609,82.36L199.026,82.36L199.444,82.36L199.861,82.36L200.278,82.36L200.695,82.36L201.113,82.36L201.53,82.36L201.947,82.36L202.364,82.36L202.782,82.36L203.199,82.36L203.616,82.36L204.033,82.36L204.451,82.36L204.868,82.36L205.285,82.36L205.702,82.36L206.12,82.36L206.537,82.36L206.954,82.36L207.371,82.36L207.789,82.36L208.206,82.36L208.623,82.36L209.04,82.36L209.458,82.36L209.875,82.36L210.292,82.36L210.709,82.36L211.127,82.36L211.544,82.36L211.961,82.36L212.378,82.36L212.796,82.36L213.213,82.36L213.63,82.36L214.047,82.36L214.465,82.36L214.882,82.36L215.299,82.36L215.716,82.36L216.134,82.36L216.551,82.36L216.968,82.36L217.385,82.36L217.803,82.36L218.22,82.36L218.637,82.36L219.054,82.36L219.471,82.36L219.889,82.36L220.306,82.36L220.723,82.36L221.14,82.36L221.558,82.36L221.975,82.36L222.392,82.36L222.809,82.36L223.227,82.36L223.644,82.36L224.061,82.36L224.478,82.36L224.896,82.36L225.313,82.36L225.73,82.36L226.147,82.36L226.565,82.36L226.982,82.36L227.399,82.36L227.816,82.36L228.234,82.36L228.651,82.36L229.068,82.36L229.485,82.36L229.903,82.36L230.32,82.36L230.737,82.36L231.154,82.36L231.572,82.36L231.989,82.36L232.406,82.36L232.823,82.36L233.241,82.36L233.658,82.36L234.075,82.36L234.492,82.36L234.91,82.36L235.327,82.36L235.744,82.36L236.161,82.36L236.579,82.36L236.996,82.36L237.413,82.36L237.83,82.36L238.248,82.36L238.665,82.36L239.082,82.36L239.499,82.36L239.917,82.36L240.334,82.36L240.751,82.36L241.168,82.36L241.586,82.36L242.003,82.36L242.42,82.36L242.837,82.36L243.255,82.36L243.672,82.36L244.089,82.36L244.506,82.36L244.924,82.36L245.341,82.36L245.758,82.36L246.175,82.36L246.592,82.36L247.01,82.36L247.427,82.36L247.844,82.36L248.261,82.36L248.679,82.36L249.096,82.36L249.513,82.36L249.93,82.36L250.348,82.36L250.765,82.36L251.182,82.36L251.599,82.36L252.017,82.36L252.434,82.36L252.851,82.36L253.268,82.36L253.686,82.36L254.103,82.36L254.52,82.36L254.937,82.36L255.355,82.36L255.772,82.36L256.189,82.36L256.606,82.36L257.024,82.36L257.441,82.36L257.858,82.36L258.275,82.36L258.693,82.36L259.11,82.36L259.527,82.36L259.944,82.36L260.362,82.24L260.779,82.24L261.196,82.24L261.613,82.24L262.031,82.24L262.448,82.24L262.865,82.24L263.282,82.24L263.7,82.24L264.117,82.24L264.534,82.24L264.951,82.24L265.369,82.24L265.786,82.24L266.203,82.24L266.62,82.24L267.038,82.24L267.455,82.24L267.872,82.24L268.289,82.24L268.707,82.24L269.124,82.24L269.541,82.24L269.958,82.24L270.376,82.24L270.793,82.24L271.21,82.24L271.627,82.24L272.045,82.24L272.462,82.24L272.879,82.24L273.296,82.24L273.713,82.24L274.131,82.24L274.548,82.24L274.965,82.24L275.382,82.24L275.8,82.24L276.217,82.24L276.634,82.24L277.051,82.24L277.469,82.24L277.886,82.24L278.303,82.24L278.72,82.24L279.138,82.24L279.555,82.24L279.972,82.24L280.389,82.24L280.807,82.24L281.224,82.24L281.641,82.24L282.058,82.24L282.476,82.24L282.893,82.24L283.31,82.24L283.727,82.24L284.145,82.24L284.562,82.24L284.979,82.24L285.396,82.24L285.814,82.24L286.231,82.24L286.648,82.24L287.065,82.24L287.483,82.24L287.9,82.24L288.317,82.24L288.734,82.24L289.152,82.24L289.569,82.24L289.986,82.24L290.403,82.24L290.821,82.24L291.238,82.24L291.655,82.24L292.072,82.24L292.49,82.24L292.907,82.24L293.324,82.24L293.741,82.24L294.159,82.24L294.576,82.24L294.993,82.24L295.41,82.24L295.828,82.24L296.245,82.24L296.662,82.24L297.079,82.24L297.497,82.24L297.914,82.24L298.331,82.24L298.748,82.24L299.166,82.24L299.583,82.24L300,82.24" stroke="#f59c0c" stroke-width="2"/></g></g><path class="foreground" aria-hidden="true" d="" display="none"/></g><g transform="translate(0,0)"><path class="background" aria-hidden="true" d="M0,0h300v200h-300Z"/><g><g class="mark-line role-mark layer_0_marks" role="graphics-symbol" aria-roledescription="line mark container"><path d="M0,200L0.417,65.48L0.834,65.28L1.252,62.28L1.669,62.28L2.086,62.28L2.503,62.28L2.921,62.28L3.338,62.28L3.755,58.6L4.172,58.24L4.59,58.2L5.007,58.2L5.424,58.2L5.841,58.2L6.259,58.12L6.676,58.12L7.093,57L7.51,56.08L7.928,56.08L8.345,55.2L8.762,54.48L9.179,54.48L9.597,53.72L10.014,53.36L10.431,53.36L10.848,53.36L11.266,53.36L11.683,52.96L12.1,52.84L12.517,52.84L12.935,52.84L13.352,52.4L13.769,52.4L14.186,52.4L14.604,52.4L15.021,52.4L15.438,52.04L15.855,50.64L16.273,50.64L16.69,50.64L17.107,50.04L17.524,50.04L17.942,50.04L18.359,50.04L18.776,50.04L19.193,50.04L19.611,49.92L20.028,49.92L20.445,49.84L20.862,49.76L21.28,49.6L21.697,49.52L22.114,49.28L22.531,49.2L22.949,48.76L23.366,48.76L23.783,47.36L24.2,47.32L24.618,47.32L25.035,47.32L25.452,47.32L25.869,47.32L26.287,47.32L26.704,47.32L27.121,47.32L27.538,47.32L27.955,47.32L28.373,47.32L28.79,47.32L29.207,47.32L29.624,47.28L30.042,47.28L30.459,47.28L30.876,47.24L31.293,47.24L31.711,46.28L32.128,46.28L32.545,46.28L32.962,46.28L33.38,46.28L33.797,46.28L34.214,46.28L34.631,46.28L35.049,46.28L35.466,46.12L35.883,46.12L36.3,46.12L36.718,46.12L37.135,46.12L37.552,46.12L37.969,46.04L38.387,46L38.804,45.76L39.221,45.76L39.638,45.76L40.056,45.76L40.473,45.76L40.89,45.76L41.307,44.96L41.725,44.96L42.142,44.76L42.559,44.76L42.976,44.4L43.394,44.4L43.811,44.4L44.228,44.4L44.645,44.4L45.063,44.4L45.48,44.28L45.897,44.28L46.314,44.24L46.732,44.24L47.149,44.24L47.566,44.24L47.983,44.24L48.401,44.24L48.818,44.24L49.235,44.24L49.652,44.24L50.07,44.24L50.487,44.24L50.904,44.24L51.321,44.24L51.739,44.24L52.156,44.24L52.573,44.24L52.99,44.24L53.408,44.24L53.825,44.24L54.242,44.2L54.659,44.2L55.076,44.16L55.494,44.16L55.911,44.16L56.328,44.16L56.745,44.16L57.163,44.16L57.58,44.16L57.997,44.04L58.414,44.04L58.832,44.04L59.249,44.04L59.666,44.04L60.083,44.04L60.501,44.04L60.918,44.04L61.335,44.04L61.752,44.04L62.17,44.04L62.587,44.04L63.004,44.04L63.421,44.04L63.839,44.04L64.256,43.96L64.673,43.96L65.09,43.96L65.508,43.72L65.925,43.72L66.342,43.72L66.759,43.72L67.177,43.72L67.594,43.72L68.011,43.72L68.428,43.72L68.846,43.72L69.263,43.72L69.68,43.72L70.097,43.72L70.515,43.72L70.932,43.72L71.349,43.72L71.766,43.72L72.184,43.72L72.601,43.72L73.018,43.72L73.435,43.52L73.853,43.32L74.27,43.32L74.687,43.24L75.104,43.24L75.522,43.24L75.939,43.2L76.356,43.2L76.773,43.2L77.191,43.2L77.608,43.2L78.025,43.2L78.442,43.2L78.86,43.2L79.277,43.2L79.694,43.16L80.111,43.16L80.529,43.16L80.946,43.16L81.363,43.16L81.78,43.16L82.197,43.16L82.615,43.16L83.032,29.96L83.449,29.96L83.866,29.96L84.284,29.96L84.701,29.84L85.118,29.84L85.535,29.84L85.953,29.84L86.37,29.76L86.787,29.76L87.204,29.76L87.622,29.72L88.039,29.72L88.456,29.72L88.873,29.72L89.291,29.72L89.708,29.68L90.125,29.68L90.542,29.68L90.96,29.68L91.377,29.68L91.794,29.68L92.211,29.68L92.629,29.68L93.046,29.68L93.463,29.68L93.88,29.68L94.298,29.68L94.715,29.68L95.132,29.56L95.549,29.56L95.967,29.56L96.384,29.56L96.801,29.56L97.218,29.56L97.636,29.56L98.053,29.52L98.47,29.52L98.887,29.52L99.305,29.52L99.722,29.52L100.139,29.48L100.556,29.48L100.974,29.48L101.391,29.48L101.808,29.48L102.225,29.48L102.643,29.48L103.06,29.44L103.477,29.44L103.894,29.44L104.312,29.44L104.729,29.44L105.146,29.44L105.563,29.44L105.981,29.44L106.398,29.44L106.815,29.44L107.232,29.44L107.65,29.4L108.067,29.4L108.484,29.4L108.901,29.4L109.318,29.4L109.736,29.4L110.153,29.4L110.57,29.4L110.987,29.4L111.405,29.4L111.822,29.4L112.239,29.4L112.656,29.4L113.074,29.4L113.491,28.96L113.908,28.96L114.325,28.96L114.743,28.96L115.16,28.96L115.577,28.96L115.994,28.96L116.412,28.96L116.829,28.96L117.246,28.88L117.663,28.88L118.081,28.88L118.498,28.88L118.915,28.8L119.332,28.8L119.75,28.8L120.167,28.8L120.584,28.8L121.001,28.8L121.419,28.8L121.836,28.8L122.253,28.8L122.67,28.8L123.088,28.8L123.505,28.8L123.922,28.8L124.339,28.8L124.757,28.8L125.174,28.8L125.591,28.08L126.008,28.08L126.426,27.24L126.843,27.24L127.26,26.92L127.677,26.92L128.095,26.92L128.512,26.92L128.929,26.92L129.346,26.92L129.764,26.92L130.181,26.92L130.598,26.92L131.015,26.84L131.433,26.84L131.85,26.84L132.267,26.84L132.684,26.84L133.102,26.84L133.519,26.84L133.936,26.84L134.353,26.84L134.771,26.84L135.188,26.84L135.605,26.84L136.022,26.84L136.439,26.84L136.857,26.84L137.274,26.84L137.691,26.84L138.108,26.84L138.526,26.84L138.943,26.84L139.36,26.84L139.777,26.84L140.195,26.84L140.612,26.84L141.029,26.84L141.446,26.84L141.864,26.84L142.281,26.84L142.698,26.84L143.115,26.84L143.533,26.84L143.95,26.84L144.367,26.84L144.784,26.8L145.202,26.8L145.619,26.8L146.036,26.8L146.453,26.8L146.871,26.8L147.288,26.72L147.705,26.72L148.122,26.72L148.54,26.72L148.957,26.72L149.374,26.72L149.791,26.72L150.209,26.72L150.626,26.72L151.043,26.72L151.46,26.72L151.878,26.72L152.295,26.72L152.712,26.72L153.129,26.72L153.547,26.72L153.964,26.72L154.381,26.72L154.798,26.72L155.216,26.72L155.633,26.72L156.05,26.44L156.467,26.44L156.885,26.44L157.302,26.44L157.719,26.4L158.136,26.4L158.554,26.4L158.971,26.04L159.388,26.04L159.805,26.04L160.223,26.04L160.64,26.04L161.057,26.04L161.474,26.04L161.892,26.04L162.309,26.04L162.726,26.04L163.143,26.04L163.561,26.04L163.978,26.04L164.395,26.04L164.812,26.04L165.229,26.04L165.647,26.04L166.064,26.04L166.481,26.04L166.898,26.04L167.316,26.04L167.733,26.04L168.15,26.04L168.567,26L168.985,26L169.402,26L169.819,26L170.236,26L170.654,26L171.071,26L171.488,26L171.905,25.84L172.323,25.84L172.74,25.84L173.157,25.84L173.574,25.84L173.992,25.84L174.409,25.84L174.826,25.84L175.243,25.84L175.661,25.84L176.078,25.84L176.495,25.84L176.912,25.84L177.33,25.84L177.747,25.84L178.164,25.84L178.581,25.84L178.999,25.84L179.416,25.84L179.833,25.84L180.25,25.84L180.668,25.84L181.085,25.6L181.502,25.6L181.919,25.6L182.337,25.6L182.754,25.52L183.171,25.52L183.588,25.44L184.006,25.44L184.423,25.44L184.84,25.44L185.257,25.44L185.675,25.44L186.092,25.44L186.509,25.44L186.926,25.44L187.344,25.44L187.761,25.44L188.178,25.44L188.595,25.44L189.013,25.44L189.43,25.44L189.847,25.44L190.264,25.44L190.682,25.44L191.099,25.44L191.516,25.44L191.933,25.44L192.35,25.44L192.768,25.44L193.185,25.36L193.602,25.36L194.019,25.36L194.437,25.36L194.854,25.36L195.271,25.36L195.688,25.36L196.106,25.36L196.523,25.36L196.94,25.36L197.357,25.36L197.775,25.36L198.192,25.36L198.609,25.36L199.026,25.36L199.444,25.36L199.861,25.36L200.278,25.36L200.695,25.36L201.113,25.36L201.53,25.36L201.947,25.36L202.364,25.36L202.782,25.36L203.199,25.36L203.616,25.36L204.033,25.36L204.451,25.36L204.868,25.36L205.285,25.36L205.702,25.36L206.12,25.36L206.537,25.36L206.954,25.36L207.371,25.36L207.789,25.36L208.206,25.32L208.623,25.32L209.04,25.32L209.458,25.32L209.875,25.32L210.292,25.32L210.709,23.56L211.127,23.56L211.544,23.56L211.961,23.56L212.378,23.56L212.796,23.56L213.213,23.56L213.63,23.56L214.047,23.56L214.465,23.56L214.882,23.56L215.299,23.52L215.716,23.52L216.134,23.52L216.551,23.52L216.968,23.52L217.385,23.52L217.803,23.52L218.22,23.52L218.637,23.52L219.054,23.52L219.471,23.52L219.889,23.52L220.306,23.52L220.723,23.52L221.14,23.52L221.558,23.52L221.975,23.52L222.392,23.52L222.809,23.52L223.227,23.52L223.644,23.52L224.061,23.52L224.478,23.52L224.896,23.52L225.313,23.52L225.73,23.52L226.147,23.52L226.565,23.52L226.982,23.52L227.399,23.52L227.816,23.52L228.234,23.52L228.651,23.52L229.068,23.52L229.485,23.52L229.903,23.52L230.32,23.52L230.737,23.52L231.154,23.52L231.572,23.52L231.989,23.52L232.406,23.52L232.823,23.52L233.241,23.52L233.658,23.52L234.075,23.52L234.492,23.52L234.91,23.52L235.327,23.52L235.744,23.52L236.161,23.52L236.579,23.44L236.996,23.44L237.413,23.44L237.83,23.44L238.248,23.44L238.665,23.44L239.082,23.44L239.499,23.44L239.917,23.44L240.334,23.44L240.751,23.44L241.168,23.44L241.586,23.44L242.003,23.4L242.42,23.4L242.837,23.4L243.255,23.4L243.672,23.4L244.089,23.4L244.506,23.4L244.924,23.4L245.341,23.36L245.758,23.36L246.175,23.36L246.592,23.36L247.01,23.36L247.427,23.36L247.844,23.36L248.261,23.36L248.679,23.36L249.096,23.36L249.513,23.36L249.93,23.36L250.348,23.36L250.765,23.36L251.182,23.36L251.599,23.36L252.017,23.36L252.434,23.36L252.851,23.36L253.268,23.36L253.686,23.36L254.103,23.36L254.52,23.36L254.937,23.36L255.355,23.36L255.772,23.36L256.189,23.36L256.606,23.36L257.024,23.36L257.441,23.36L257.858,23.36L258.275,23.36L258.693,23.36L259.11,23.36L259.527,23.36L259.944,23.36L260.362,23.36L260.779,23.32L261.196,23.32L261.613,23.32L262.031,23.32L262.448,23.32L262.865,23.32L263.282,23.32L263.7,23.32L264.117,23.32L264.534,23.32L264.951,23.32L265.369,23.32L265.786,23.32L266.203,23.32L266.62,23.32L267.038,23.32L267.455,23.32L267.872,23.32L268.289,23.32L268.707,23.32L269.124,23.32L269.541,23.32L269.958,23.32L270.376,23.32L270.793,23.32L271.21,23.32L271.627,23.32L272.045,23.32L272.462,23.32L272.879,23.28L273.296,23.28L273.713,23.28L274.131,23.28L274.548,23.28L274.965,23.28L275.382,23.28L275.8,23.28L276.217,23.28L276.634,23.28L277.051,23.28L277.469,23.28L277.886,23.28L278.303,23.28L278.72,23.28L279.138,23.28L279.555,23.28L279.972,23.28L280.389,23.24L280.807,23.24L281.224,23.24L281.641,23.24L282.058,23.24L282.476,23.24L282.893,23.24L283.31,23.24L283.727,23.16L284.145,23.16L284.562,23.16L284.979,23.16L285.396,23.16L285.814,23.16L286.231,23.16L286.648,23.16L287.065,23.16L287.483,23.12L287.9,23.12L288.317,23.12L288.734,23.12L289.152,23.12L289.569,23.12L289.986,23.12L290.403,23.12L290.821,23.12L291.238,23.12L291.655,23.12L292.072,23.12L292.49,23.12L292.907,23.12L293.324,23.12L293.741,23.12L294.159,23.12L294.576,23.12L294.993,23.12L295.41,23.12L295.828,23.12L296.245,23.12L296.662,23.12L297.079,23.12L297.497,23.12L297.914,23.12L298.331,23.12L298.748,23.12L299.166,23.12L299.583,22.96L300,22.96" stroke="#d66368" stroke-width="2"/></g></g><path class="foreground" aria-hidden="true" d="" display="none"/></g></g><g class="mark-symbol role-mark layer_1_marks" role="graphics-symbol" aria-roledescription="symbol mark container"><path transform="translate(0,200)" d="M3.873,0A3.873,3.873,0,1,1,-3.873,0A3.873,3.873,0,1,1,3.873,0" fill="#d66368" stroke-width="2"/><path transform="translate(100.13908205841447,29.479999999999997)" d="M3.873,0A3.873,3.873,0,1,1,-3.873,0A3.873,3.873,0,1,1,3.873,0" fill="#d66368" stroke-width="2"/><path transform="translate(200.27816411682895,25.360000000000007)" d="M3.873,0A3.873,3.873,0,1,1,-3.873,0A3.873,3.873,0,1,1,3.873,0" fill="#d66368" stroke-width="2"/></g><g class="mark-symbol role-mark layer_2_marks" role="graphics-symbol" aria-roledescription="symbol mark container"><path transform="translate(0,200)" d="M-3.873,-3.873h7.746v7.746h-7.746Z" fill="#f59c0c" stroke-width="2"/><path transform="translate(125.17385257301808,82.44)" d="M-3.873,-3.873h7.746v7.746h-7.746Z" fill="#f59c0c" stroke-width="2"/><path transform="translate(250.34770514603616,82.36000000000001)" d="M-3.873,-3.873h7.746v7.746h-7.746Z" fill="#f59c0c" stroke-width="2"/></g><g class="mark-symbol role-mark layer_3_marks" role="graphics-symbol" aria-roledescription="symbol mark container"/><g class="mark-symbol role-mark layer_4_marks" role="graphics-symbol" aria-roledescription="symbol mark container"/><g class="mark-group role-scope layer_5_pathgroup" role="graphics-object" aria-roledescription="group mark container"><g transform="translate(0,0)"><path class="background" aria-hidden="true" d="M0,0h300v200h-300Z"/><g><g class="mark-area role-mark layer_5_marks" role="graphics-symbol" aria-roledescription="area mark container"><path d="M0,200L0.417,141.88L0.834,122.507L1.252,112.82L1.669,107.008L2.086,103.133L2.503,100.366L2.921,98.29L3.338,96.676L3.755,95.384L4.172,94.327L4.59,93.447L5.007,92.702L5.424,92.063L5.841,91.509L6.259,91.025L6.676,90.598L7.093,90.218L7.51,89.878L7.928,89.572L8.345,89.295L8.762,83.76L9.179,83.76L9.597,83.76L10.014,83.76L10.431,83.76L10.848,83.76L11.266,83.76L11.683,83.76L12.1,83.76L12.517,83.76L12.935,83.76L13.352,83.76L13.769,83.76L14.186,83.76L14.604,83.76L15.021,83.76L15.438,83.76L15.855,83.76L16.273,83.76L16.69,83.76L17.107,83.76L17.524,83.76L17.942,83.76L18.359,83.76L18.776,83.76L19.193,83.76L19.611,83.76L20.028,83.76L20.445,83.76L20.862,83.76L21.28,83.76L21.697,83.76L22.114,83.76L22.531,83.76L22.949,83.76L23.366,83.76L23.783,83.76L24.2,83.76L24.618,83.76L25.035,83.76L25.452,83.76L25.869,83.76L26.287,83.76L26.704,83.76L27.121,83.76L27.538,83.76L27.955,83.76L28.373,83.76L28.79,83.76L29.207,83.76L29.624,83.76L30.042,83.76L30.459,83.76L30.876,83.76L31.293,83.76L31.711,83.76L32.128,83.76L32.545,83.76L32.962,83.76L33.38,83.76L33.797,83.76L34.214,83.76L34.631,83.76L35.049,83.76L35.466,83.76L35.883,83.76L36.3,83.76L36.718,83.756L37.135,83.752L37.552,83.749L37.969,83.745L38.387,83.741L38.804,83.737L39.221,83.72L39.638,83.703L40.056,83.686L40.473,83.669L40.89,83.651L41.307,83.632L41.725,83.613L42.142,83.594L42.559,83.575L42.976,83.528L43.394,83.48L43.811,83.432L44.228,83.385L44.645,83.337L45.063,83.29L45.48,83.246L45.897,83.202L46.314,83.158L46.732,83.114L47.149,83.07L47.566,83.027L47.983,82.996L48.401,82.966L48.818,82.935L49.235,82.905L49.652,82.874L50.07,82.846L50.487,82.817L50.904,82.789L51.321,82.76L51.739,82.76L52.156,82.76L52.573,82.76L52.99,82.76L53.408,82.76L53.825,82.76L54.242,82.76L54.659,82.76L55.076,82.76L55.494,82.76L55.911,82.76L56.328,82.76L56.745,82.76L57.163,82.76L57.58,82.76L57.997,82.76L58.414,82.76L58.832,82.76L59.249,82.76L59.666,82.76L60.083,82.76L60.501,82.76L60.918,82.76L61.335,82.76L61.752,82.76L62.17,82.76L62.587,82.76L63.004,82.76L63.421,82.76L63.839,82.76L64.256,82.76L64.673,82.76L65.09,82.76L65.508,82.76L65.925,82.76L66.342,82.76L66.759,82.76L67.177,82.76L67.594,82.76L68.011,82.76L68.428,82.76L68.846,82.76L69.263,82.76L69.68,82.76L70.097,82.76L70.515,82.76L70.932,82.76L71.349,82.76L71.766,82.76L72.184,82.76L72.601,82.76L73.018,82.76L73.435,82.76L73.853,82.76L74.27,82.76L74.687,82.76L75.104,82.76L75.522,82.76L75.939,82.76L76.356,82.76L76.773,82.76L77.191,82.76L77.608,82.76L78.025,82.76L78.442,82.76L78.86,82.76L79.277,82.758L79.694,82.756L80.111,82.754L80.529,82.752L80.946,82.75L81.363,82.749L81.78,82.747L82.197,82.745L82.615,82.743L83.032,82.741L83.449,82.739L83.866,82.737L84.284,82.735L84.701,82.731L85.118,82.728L85.535,82.724L85.953,82.72L86.37,82.716L86.787,82.712L87.204,82.709L87.622,82.705L88.039,82.703L88.456,82.701L88.873,82.699L89.291,82.697L89.708,82.695L90.125,82.693L90.542,82.691L90.96,82.69L91.377,82.688L91.794,82.686L92.211,82.684L92.629,82.682L93.046,82.68L93.463,82.68L93.88,82.68L94.298,82.68L94.715,82.68L95.132,82.68L95.549,82.68L95.967,82.68L96.384,82.68L96.801,82.68L97.218,82.68L97.636,82.68L98.053,82.68L98.47,82.68L98.887,82.68L99.305,82.68L99.722,82.68L100.139,82.68L100.556,82.68L100.974,82.68L101.391,82.68L101.808,82.68L102.225,82.68L102.643,82.68L103.06,82.68L103.477,82.68L103.894,82.68L104.312,82.68L104.729,82.68L105.146,82.68L105.563,82.68L105.981,82.68L106.398,82.68L106.815,82.68L107.232,82.68L107.65,82.68L108.067,82.68L108.484,82.68L108.901,82.68L109.318,82.68L109.736,82.68L110.153,82.68L110.57,82.68L110.987,82.68L111.405,82.68L111.822,82.68L112.239,82.68L112.656,82.68L113.074,82.68L113.491,82.669L113.908,82.657L114.325,82.646L114.743,82.634L115.16,82.623L115.577,82.611L115.994,82.6L116.412,82.589L116.829,82.577L117.246,82.566L117.663,82.554L118.081,82.543L118.498,82.531L118.915,82.52L119.332,82.509L119.75,82.497L120.167,82.486L120.584,82.474L121.001,82.463L121.419,82.451L121.836,82.44L122.253,82.44L122.67,82.44L123.088,82.44L123.505,82.44L123.922,82.44L124.339,82.44L124.757,82.44L125.174,82.44L125.591,82.44L126.008,82.44L126.426,82.44L126.843,82.44L127.26,82.44L127.677,82.44L128.095,82.44L128.512,82.44L128.929,82.44L129.346,82.44L129.764,82.44L130.181,82.44L130.598,82.44L131.015,82.44L131.433,82.44L131.85,82.44L132.267,82.44L132.684,82.44L133.102,82.44L133.519,82.44L133.936,82.44L134.353,82.44L134.771,82.44L135.188,82.44L135.605,82.44L136.022,82.44L136.439,82.44L136.857,82.44L137.274,82.44L137.691,82.44L138.108,82.44L138.526,82.44L138.943,82.44L139.36,82.44L139.777,82.44L140.195,82.44L140.612,82.44L141.029,82.44L141.446,82.44L141.864,82.44L142.281,82.44L142.698,82.44L143.115,82.44L143.533,82.44L143.95,82.44L144.367,82.44L144.784,82.44L145.202,82.44L145.619,82.44L146.036,82.44L146.453,82.44L146.871,82.44L147.288,82.44L147.705,82.44L148.122,82.44L148.54,82.44L148.957,82.44L149.374,82.44L149.791,82.44L150.209,82.44L150.626,82.44L151.043,82.44L151.46,82.44L151.878,82.44L152.295,82.44L152.712,82.44L153.129,82.44L153.547,82.44L153.964,82.44L154.381,82.44L154.798,82.44L155.216,82.44L155.633,82.44L156.05,82.44L156.467,82.44L156.885,82.44L157.302,82.44L157.719,82.44L158.136,82.44L158.554,82.44L158.971,82.44L159.388,82.44L159.805,82.44L160.223,82.436L160.64,82.432L161.057,82.429L161.474,82.425L161.892,82.421L162.309,82.417L162.726,82.413L163.143,82.41L163.561,82.406L163.978,82.402L164.395,82.398L164.812,82.394L165.229,82.39L165.647,82.387L166.064,82.383L166.481,82.379L166.898,82.375L167.316,82.371L167.733,82.368L168.15,82.364L168.567,82.36L168.985,82.36L169.402,82.36L169.819,82.36L170.236,82.36L170.654,82.36L171.071,82.36L171.488,82.36L171.905,82.36L172.323,82.36L172.74,82.36L173.157,82.36L173.574,82.36L173.992,82.36L174.409,82.36L174.826,82.36L175.243,82.36L175.661,82.36L176.078,82.36L176.495,82.36L176.912,82.36L177.33,82.36L177.747,82.36L178.164,82.36L178.581,82.36L178.999,82.36L179.416,82.36L179.833,82.36L180.25,82.36L180.668,82.36L181.085,82.36L181.502,82.36L181.919,82.36L182.337,82.36L182.754,82.36L183.171,82.36L183.588,82.36L184.006,82.36L184.423,82.36L184.84,82.36L185.257,82.36L185.675,82.36L186.092,82.36L186.509,82.36L186.926,82.36L187.344,82.36L187.761,82.36L188.178,82.36L188.595,82.36L189.013,82.36L189.43,82.36L189.847,82.36L190.264,82.36L190.682,82.36L191.099,82.36L191.516,82.36L191.933,82.36L192.35,82.36L192.768,82.36L193.185,82.36L193.602,82.36L194.019,82.36L194.437,82.36L194.854,82.36L195.271,82.36L195.688,82.36L196.106,82.36L196.523,82.36L196.94,82.36L197.357,82.36L197.775,82.36L198.192,82.36L198.609,82.36L199.026,82.36L199.444,82.36L199.861,82.36L200.278,82.36L200.695,82.36L201.113,82.36L201.53,82.36L201.947,82.36L202.364,82.36L202.782,82.36L203.199,82.36L203.616,82.36L204.033,82.36L204.451,82.36L204.868,82.36L205.285,82.36L205.702,82.36L206.12,82.36L206.537,82.36L206.954,82.36L207.371,82.36L207.789,82.36L208.206,82.36L208.623,82.36L209.04,82.36L209.458,82.36L209.875,82.36L210.292,82.36L210.709,82.36L211.127,82.36L211.544,82.36L211.961,82.36L212.378,82.36L212.796,82.36L213.213,82.36L213.63,82.36L214.047,82.36L214.465,82.36L214.882,82.36L215.299,82.36L215.716,82.36L216.134,82.36L216.551,82.36L216.968,82.36L217.385,82.36L217.803,82.36L218.22,82.36L218.637,82.36L219.054,82.36L219.471,82.36L219.889,82.36L220.306,82.36L220.723,82.36L221.14,82.36L221.558,82.36L221.975,82.36L222.392,82.36L222.809,82.36L223.227,82.36L223.644,82.36L224.061,82.36L224.478,82.36L224.896,82.36L225.313,82.36L225.73,82.36L226.147,82.36L226.565,82.36L226.982,82.36L227.399,82.36L227.816,82.36L228.234,82.36L228.651,82.36L229.068,82.36L229.485,82.36L229.903,82.36L230.32,82.36L230.737,82.36L231.154,82.36L231.572,82.36L231.989,82.36L232.406,82.36L232.823,82.36L233.241,82.36L233.658,82.36L234.075,82.36L234.492,82.36L234.91,82.36L235.327,82.36L235.744,82.36L236.161,82.36L236.579,82.36L236.996,82.36L237.413,82.36L237.83,82.36L238.248,82.36L238.665,82.36L239.082,82.36L239.499,82.36L239.917,82.36L240.334,82.36L240.751,82.36L241.168,82.36L241.586,82.36L242.003,82.36L242.42,82.36L242.837,82.36L243.255,82.36L243.672,82.36L244.089,82.36L244.506,82.36L244.924,82.36L245.341,82.36L245.758,82.36L246.175,82.36L246.592,82.36L247.01,82.36L247.427,82.36L247.844,82.36L248.261,82.36L248.679,82.36L249.096,82.36L249.513,82.36L249.93,82.36L250.348,82.36L250.765,82.36L251.182,82.36L251.599,82.36L252.017,82.36L252.434,82.36L252.851,82.36L253.268,82.36L253.686,82.36L254.103,82.36L254.52,82.36L254.937,82.36L255.355,82.36L255.772,82.36L256.189,82.36L256.606,82.36L257.024,82.36L257.441,82.36L257.858,82.36L258.275,82.36L258.693,82.36L259.11,82.36L259.527,82.36L259.944,82.36L260.362,82.354L260.779,82.349L261.196,82.343L261.613,82.337L262.031,82.331L262.448,82.326L262.865,82.32L263.282,82.314L263.7,82.309L264.117,82.303L264.534,82.297L264.951,82.291L265.369,82.286L265.786,82.28L266.203,82.274L266.62,82.269L267.038,82.263L267.455,82.257L267.872,82.251L268.289,82.246L268.707,82.24L269.124,82.24L269.541,82.24L269.958,82.24L270.376,82.24L270.793,82.24L271.21,82.24L271.627,82.24L272.045,82.24L272.462,82.24L272.879,82.24L273.296,82.24L273.713,82.24L274.131,82.24L274.548,82.24L274.965,82.24L275.382,82.24L275.8,82.24L276.217,82.24L276.634,82.24L277.051,82.24L277.469,82.24L277.886,82.24L278.303,82.24L278.72,82.24L279.138,82.24L279.555,82.24L279.972,82.24L280.389,82.24L280.807,82.24L281.224,82.24L281.641,82.24L282.058,82.24L282.476,82.24L282.893,82.24L283.31,82.24L283.727,82.24L284.145,82.24L284.562,82.24L284.979,82.24L285.396,82.24L285.814,82.24L286.231,82.24L286.648,82.24L287.065,82.24L287.483,82.24L287.9,82.24L288.317,82.24L288.734,82.24L289.152,82.24L289.569,82.24L289.986,82.24L290.403,82.24L290.821,82.24L291.238,82.24L291.655,82.24L292.072,82.24L292.49,82.24L292.907,82.24L293.324,82.24L293.741,82.24L294.159,82.24L294.576,82.24L294.993,82.24L295.41,82.24L295.828,82.24L296.245,82.24L296.662,82.24L297.079,82.24L297.497,82.24L297.914,82.24L298.331,82.24L298.748,82.24L299.166,82.24L299.583,82.24L300,82.24L300,82.24L299.583,82.24L299.166,82.24L298.748,82.24L298.331,82.24L297.914,82.24L297.497,82.24L297.079,82.24L296.662,82.24L296.245,82.24L295.828,82.24L295.41,82.24L294.993,82.24L294.576,82.24L294.159,82.24L293.741,82.24L293.324,82.24L292.907,82.24L292.49,82.24L292.072,82.24L291.655,82.24L291.238,82.24L290.821,82.24L290.403,82.24L289.986,82.24L289.569,82.24L289.152,82.24L288.734,82.24L288.317,82.24L287.9,82.24L287.483,82.24L287.065,82.24L286.648,82.24L286.231,82.24L285.814,82.24L285.396,82.24L284.979,82.24L284.562,82.24L284.145,82.24L283.727,82.24L283.31,82.24L282.893,82.24L282.476,82.24L282.058,82.24L281.641,82.24L281.224,82.24L280.807,82.24L280.389,82.24L279.972,82.24L279.555,82.24L279.138,82.24L278.72,82.24L278.303,82.24L277.886,82.24L277.469,82.24L277.051,82.24L276.634,82.24L276.217,82.24L275.8,82.24L275.382,82.24L274.965,82.24L274.548,82.24L274.131,82.24L273.713,82.24L273.296,82.24L272.879,82.24L272.462,82.24L272.045,82.24L271.627,82.24L271.21,82.24L270.793,82.24L270.376,82.24L269.958,82.24L269.541,82.24L269.124,82.24L268.707,82.24L268.289,82.246L267.872,82.251L267.455,82.257L267.038,82.263L266.62,82.269L266.203,82.274L265.786,82.28L265.369,82.286L264.951,82.291L264.534,82.297L264.117,82.303L263.7,82.309L263.282,82.314L262.865,82.32L262.448,82.326L262.031,82.331L261.613,82.337L261.196,82.343L260.779,82.349L260.362,82.354L259.944,82.36L259.527,82.36L259.11,82.36L258.693,82.36L258.275,82.36L257.858,82.36L257.441,82.36L257.024,82.36L256.606,82.36L256.189,82.36L255.772,82.36L255.355,82.36L254.937,82.36L254.52,82.36L254.103,82.36L253.686,82.36L253.268,82.36L252.851,82.36L252.434,82.36L252.017,82.36L251.599,82.36L251.182,82.36L250.765,82.36L250.348,82.36L249.93,82.36L249.513,82.36L249.096,82.36L248.679,82.36L248.261,82.36L247.844,82.36L247.427,82.36L247.01,82.36L246.592,82.36L246.175,82.36L245.758,82.36L245.341,82.36L244.924,82.36L244.506,82.36L244.089,82.36L243.672,82.36L243.255,82.36L242.837,82.36L242.42,82.36L242.003,82.36L241.586,82.36L241.168,82.36L240.751,82.36L240.334,82.36L239.917,82.36L239.499,82.36L239.082,82.36L238.665,82.36L238.248,82.36L237.83,82.36L237.413,82.36L236.996,82.36L236.579,82.36L236.161,82.36L235.744,82.36L235.327,82.36L234.91,82.36L234.492,82.36L234.075,82.36L233.658,82.36L233.241,82.36L232.823,82.36L232.406,82.36L231.989,82.36L231.572,82.36L231.154,82.36L230.737,82.36L230.32,82.36L229.903,82.36L229.485,82.36L229.068,82.36L228.651,82.36L228.234,82.36L227.816,82.36L227.399,82.36L226.982,82.36L226.565,82.36L226.147,82.36L225.73,82.36L225.313,82.36L224.896,82.36L224.478,82.36L224.061,82.36L223.644,82.36L223.227,82.36L222.809,82.36L222.392,82.36L221.975,82.36L221.558,82.36L221.14,82.36L220.723,82.36L220.306,82.36L219.889,82.36L219.471,82.36L219.054,82.36L218.637,82.36L218.22,82.36L217.803,82.36L217.385,82.36L216.968,82.36L216.551,82.36L216.134,82.36L215.716,82.36L215.299,82.36L214.882,82.36L214.465,82.36L214.047,82.36L213.63,82.36L213.213,82.36L212.796,82.36L212.378,82.36L211.961,82.36L211.544,82.36L211.127,82.36L210.709,82.36L210.292,82.36L209.875,82.36L209.458,82.36L209.04,82.36L208.623,82.36L208.206,82.36L207.789,82.36L207.371,82.36L206.954,82.36L206.537,82.36L206.12,82.36L205.702,82.36L205.285,82.36L204.868,82.36L204.451,82.36L204.033,82.36L203.616,82.36L203.199,82.36L202.782,82.36L202.364,82.36L201.947,82.36L201.53,82.36L201.113,82.36L200.695,82.36L200.278,82.36L199.861,82.36L199.444,82.36L199.026,82.36L198.609,82.36L198.192,82.36L197.775,82.36L197.357,82.36L196.94,82.36L196.523,82.36L196.106,82.36L195.688,82.36L195.271,82.36L194.854,82.36L194.437,82.36L194.019,82.36L193.602,82.36L193.185,82.36L192.768,82.36L192.35,82.36L191.933,82.36L191.516,82.36L191.099,82.36L190.682,82.36L190.264,82.36L189.847,82.36L189.43,82.36L189.013,82.36L188.595,82.36L188.178,82.36L187.761,82.36L187.344,82.36L186.926,82.36L186.509,82.36L186.092,82.36L185.675,82.36L185.257,82.36L184.84,82.36L184.423,82.36L184.006,82.36L183.588,82.36L183.171,82.36L182.754,82.36L182.337,82.36L181.919,82.36L181.502,82.36L181.085,82.36L180.668,82.36L180.25,82.36L179.833,82.36L179.416,82.36L178.999,82.36L178.581,82.36L178.164,82.36L177.747,82.36L177.33,82.36L176.912,82.36L176.495,82.36L176.078,82.36L175.661,82.36L175.243,82.36L174.826,82.36L174.409,82.36L173.992,82.36L173.574,82.36L173.157,82.36L172.74,82.36L172.323,82.36L171.905,82.36L171.488,82.36L171.071,82.36L170.654,82.36L170.236,82.36L169.819,82.36L169.402,82.36L168.985,82.36L168.567,82.36L168.15,82.364L167.733,82.368L167.316,82.371L166.898,82.375L166.481,82.379L166.064,82.383L165.647,82.387L165.229,82.39L164.812,82.394L164.395,82.398L163.978,82.402L163.561,82.406L163.143,82.41L162.726,82.413L162.309,82.417L161.892,82.421L161.474,82.425L161.057,82.429L160.64,82.432L160.223,82.436L159.805,82.44L159.388,82.44L158.971,82.44L158.554,82.44L158.136,82.44L157.719,82.44L157.302,82.44L156.885,82.44L156.467,82.44L156.05,82.44L155.633,82.44L155.216,82.44L154.798,82.44L154.381,82.44L153.964,82.44L153.547,82.44L153.129,82.44L152.712,82.44L152.295,82.44L151.878,82.44L151.46,82.44L151.043,82.44L150.626,82.44L150.209,82.44L149.791,82.44L149.374,82.44L148.957,82.44L148.54,82.44L148.122,82.44L147.705,82.44L147.288,82.44L146.871,82.44L146.453,82.44L146.036,82.44L145.619,82.44L145.202,82.44L144.784,82.44L144.367,82.44L143.95,82.44L143.533,82.44L143.115,82.44L142.698,82.44L142.281,82.44L141.864,82.44L141.446,82.44L141.029,82.44L140.612,82.44L140.195,82.44L139.777,82.44L139.36,82.44L138.943,82.44L138.526,82.44L138.108,82.44L137.691,82.44L137.274,82.44L136.857,82.44L136.439,82.44L136.022,82.44L135.605,82.44L135.188,82.44L134.771,82.44L134.353,82.44L133.936,82.44L133.519,82.44L133.102,82.44L132.684,82.44L132.267,82.44L131.85,82.44L131.433,82.44L131.015,82.44L130.598,82.44L130.181,82.44L129.764,82.44L129.346,82.44L128.929,82.44L128.512,82.44L128.095,82.44L127.677,82.44L127.26,82.44L126.843,82.44L126.426,82.44L126.008,82.44L125.591,82.44L125.174,82.44L124.757,82.44L124.339,82.44L123.922,82.44L123.505,82.44L123.088,82.44L122.67,82.44L122.253,82.44L121.836,82.44L121.419,82.451L121.001,82.463L120.584,82.474L120.167,82.486L119.75,82.497L119.332,82.509L118.915,82.52L118.498,82.531L118.081,82.543L117.663,82.554L117.246,82.566L116.829,82.577L116.412,82.589L115.994,82.6L115.577,82.611L115.16,82.623L114.743,82.634L114.325,82.646L113.908,82.657L113.491,82.669L113.074,82.68L112.656,82.68L112.239,82.68L111.822,82.68L111.405,82.68L110.987,82.68L110.57,82.68L110.153,82.68L109.736,82.68L109.318,82.68L108.901,82.68L108.484,82.68L108.067,82.68L107.65,82.68L107.232,82.68L106.815,82.68L106.398,82.68L105.981,82.68L105.563,82.68L105.146,82.68L104.729,82.68L104.312,82.68L103.894,82.68L103.477,82.68L103.06,82.68L102.643,82.68L102.225,82.68L101.808,82.68L101.391,82.68L100.974,82.68L100.556,82.68L100.139,82.68L99.722,82.68L99.305,82.68L98.887,82.68L98.47,82.68L98.053,82.68L97.636,82.68L97.218,82.68L96.801,82.68L96.384,82.68L95.967,82.68L95.549,82.68L95.132,82.68L94.715,82.68L94.298,82.68L93.88,82.68L93.463,82.68L93.046,82.68L92.629,82.682L92.211,82.684L91.794,82.686L91.377,82.688L90.96,82.69L90.542,82.691L90.125,82.693L89.708,82.695L89.291,82.697L88.873,82.699L88.456,82.701L88.039,82.703L87.622,82.705L87.204,82.709L86.787,82.712L86.37,82.716L85.953,82.72L85.535,82.724L85.118,82.728L84.701,82.731L84.284,82.735L83.866,82.737L83.449,82.739L83.032,82.741L82.615,82.743L82.197,82.745L81.78,82.747L81.363,82.749L80.946,82.75L80.529,82.752L80.111,82.754L79.694,82.756L79.277,82.758L78.86,82.76L78.442,82.76L78.025,82.76L77.608,82.76L77.191,82.76L76.773,82.76L76.356,82.76L75.939,82.76L75.522,82.76L75.104,82.76L74.687,82.76L74.27,82.76L73.853,82.76L73.435,82.76L73.018,82.76L72.601,82.76L72.184,82.76L71.766,82.76L71.349,82.76L70.932,82.76L70.515,82.76L70.097,82.76L69.68,82.76L69.263,82.76L68.846,82.76L68.428,82.76L68.011,82.76L67.594,82.76L67.177,82.76L66.759,82.76L66.342,82.76L65.925,82.76L65.508,82.76L65.09,82.76L64.673,82.76L64.256,82.76L63.839,82.76L63.421,82.76L63.004,82.76L62.587,82.76L62.17,82.76L61.752,82.76L61.335,82.76L60.918,82.76L60.501,82.76L60.083,82.76L59.666,82.76L59.249,82.76L58.832,82.76L58.414,82.76L57.997,82.76L57.58,82.76L57.163,82.76L56.745,82.76L56.328,82.76L55.911,82.76L55.494,82.76L55.076,82.76L54.659,82.76L54.242,82.76L53.825,82.76L53.408,82.76L52.99,82.76L52.573,82.76L52.156,82.76L51.739,82.76L51.321,82.76L50.904,82.789L50.487,82.817L50.07,82.846L49.652,82.874L49.235,82.905L48.818,82.935L48.401,82.966L47.983,82.996L47.566,83.027L47.149,83.07L46.732,83.114L46.314,83.158L45.897,83.202L45.48,83.246L45.063,83.29L44.645,83.337L44.228,83.385L43.811,83.432L43.394,83.48L42.976,83.528L42.559,83.575L42.142,83.594L41.725,83.613L41.307,83.632L40.89,83.651L40.473,83.669L40.056,83.686L39.638,83.703L39.221,83.72L38.804,83.737L38.387,83.741L37.969,83.745L37.552,83.749L37.135,83.752L36.718,83.756L36.3,83.76L35.883,83.76L35.466,83.76L35.049,83.76L34.631,83.76L34.214,83.76L33.797,83.76L33.38,83.76L32.962,83.76L32.545,83.76L32.128,83.76L31.711,83.76L31.293,83.76L30.876,83.76L30.459,83.76L30.042,83.76L29.624,83.76L29.207,83.76L28.79,83.76L28.373,83.76L27.955,83.76L27.538,83.76L27.121,83.76L26.704,83.76L26.287,83.76L25.869,83.76L25.452,83.76L25.035,83.76L24.618,83.76L24.2,83.76L23.783,83.76L23.366,83.76L22.949,83.76L22.531,83.76L22.114,83.76L21.697,83.76L21.28,83.76L20.862,83.76L20.445,83.76L20.028,83.76L19.611,83.76L19.193,83.76L18.776,83.76L18.359,83.76L17.942,83.76L17.524,83.76L17.107,83.76L16.69,83.76L16.273,83.76L15.855,83.76L15.438,83.76L15.021,83.76L14.604,83.76L14.186,83.76L13.769,83.76L13.352,83.76L12.935,83.76L12.517,83.76L12.1,83.76L11.683,83.76L11.266,83.76L10.848,83.76L10.431,83.76L10.014,83.76L9.597,83.76L9.179,83.76L8.762,83.76L8.345,89.295L7.928,89.572L7.51,89.878L7.093,90.218L6.676,90.598L6.259,91.025L5.841,91.509L5.424,92.063L5.007,92.702L4.59,93.447L4.172,94.327L3.755,95.384L3.338,96.676L2.921,98.29L2.503,100.366L2.086,103.133L1.669,107.008L1.252,112.82L0.834,122.507L0.417,141.88L0,200Z" fill="#f59c0c" opacity="0.2"/></g></g><path class="foreground" aria-hidden="true" d="" display="none"/></g><g transform="translate(0,0)"><path class="background" aria-hidden="true" d="M0,0h300v200h-300Z"/><g><g class="mark-area role-mark layer_5_marks" role="graphics-symbol" aria-roledescription="area mark container"><path d="M0,87.848L0.417,87.05L0.834,86.242L1.252,85.291L1.669,84.341L2.086,83.39L2.503,82.44L2.921,81.49L3.338,80.539L3.755,79.413L4.172,78.27L4.59,77.126L5.007,75.981L5.424,74.836L5.841,73.691L6.259,72.543L6.676,71.394L7.093,70.192L7.51,68.947L7.928,67.701L8.345,66.413L8.762,59.484L9.179,58.96L9.597,58.41L10.014,57.985L10.431,57.56L10.848,57.135L11.266,56.71L11.683,56.267L12.1,55.817L12.517,55.543L12.935,55.286L13.352,55.01L13.769,54.733L14.186,54.457L14.604,54.181L15.021,53.909L15.438,53.619L15.855,53.316L16.273,53.057L16.69,52.798L17.107,52.552L17.524,52.341L17.942,52.13L18.359,51.954L18.776,51.796L19.193,51.638L19.611,51.474L20.028,51.31L20.445,51.162L20.862,51.015L21.28,50.861L21.697,50.703L22.114,50.554L22.531,50.402L22.949,50.229L23.366,50.055L23.783,49.815L24.2,49.59L24.618,49.432L25.035,49.274L25.452,49.116L25.869,48.987L26.287,48.857L26.704,48.728L27.121,48.598L27.538,48.469L27.955,48.339L28.373,48.215L28.79,48.091L29.207,47.971L29.624,47.853L30.042,47.743L30.459,47.636L30.876,47.539L31.293,47.446L31.711,47.328L32.128,47.21L32.545,47.158L32.962,47.109L33.38,47.059L33.797,47.01L34.214,46.96L34.631,46.91L35.049,46.861L35.466,46.804L35.883,46.747L36.3,46.69L36.718,46.632L37.135,46.575L37.552,46.518L37.969,46.457L38.387,46.396L38.804,46.324L39.221,46.251L39.638,46.181L40.056,46.11L40.473,46.086L40.89,46.061L41.307,45.998L41.725,45.935L42.142,45.863L42.559,45.79L42.976,45.701L43.394,45.611L43.811,45.522L44.228,45.44L44.645,45.358L45.063,45.276L45.48,45.189L45.897,45.101L46.314,45.011L46.732,44.926L47.149,44.842L47.566,44.77L47.983,44.697L48.401,44.625L48.818,44.552L49.235,44.48L49.652,44.408L50.07,44.373L50.487,44.339L50.904,44.314L51.321,44.29L51.739,44.282L52.156,44.274L52.573,44.267L52.99,44.259L53.408,44.251L53.825,44.244L54.242,44.24L54.659,44.236L55.076,44.232L55.494,44.229L55.911,44.225L56.328,44.221L56.745,44.217L57.163,44.213L57.58,44.21L57.997,44.2L58.414,44.19L58.832,44.181L59.249,44.171L59.666,44.162L60.083,44.152L60.501,44.143L60.918,44.133L61.335,44.124L61.752,44.114L62.17,44.105L62.587,44.095L63.004,44.088L63.421,44.08L63.839,44.074L64.256,44.065L64.673,44.055L65.09,44.046L65.508,44.025L65.925,44.004L66.342,43.983L66.759,43.968L67.177,43.952L67.594,43.937L68.011,43.922L68.428,43.907L68.846,43.891L69.263,43.876L69.68,43.861L70.097,43.846L70.515,43.83L70.932,43.815L71.349,43.8L71.766,43.785L72.184,43.77L72.601,43.754L73.018,43.743L73.435,43.722L73.853,43.691L74.27,43.672L74.687,43.65L75.104,43.627L75.522,43.604L75.939,43.579L76.356,43.554L76.773,43.53L77.191,43.505L77.608,43.48L78.025,43.455L78.442,43.43L78.86,43.406L79.277,43.381L79.694,43.354L80.111,43.328L80.529,43.301L80.946,43.274L81.363,43.248L81.78,43.221L82.197,43.204L82.615,43.196L83.032,42.56L83.449,41.928L83.866,41.295L84.284,40.663L84.701,40.027L85.118,39.39L85.535,38.754L85.953,38.118L86.37,37.478L86.787,36.838L87.204,36.198L87.622,35.556L88.039,34.914L88.456,34.274L88.873,33.634L89.291,32.994L89.708,32.352L90.125,31.71L90.542,31.069L90.96,30.427L91.377,29.785L91.794,29.771L92.211,29.758L92.629,29.745L93.046,29.731L93.463,29.724L93.88,29.716L94.298,29.709L94.715,29.701L95.132,29.691L95.549,29.682L95.967,29.672L96.384,29.665L96.801,29.657L97.218,29.65L97.636,29.642L98.053,29.632L98.47,29.625L98.887,29.617L99.305,29.61L99.722,29.602L100.139,29.592L100.556,29.583L100.974,29.573L101.391,29.564L101.808,29.554L102.225,29.545L102.643,29.535L103.06,29.524L103.477,29.512L103.894,29.507L104.312,29.501L104.729,29.495L105.146,29.49L105.563,29.484L105.981,29.478L106.398,29.472L106.815,29.469L107.232,29.465L107.65,29.459L108.067,29.453L108.484,29.448L108.901,29.444L109.318,29.44L109.736,29.436L110.153,29.432L110.57,29.429L110.987,29.425L111.405,29.421L111.822,29.419L112.239,29.417L112.656,29.415L113.074,29.413L113.491,29.39L113.908,29.368L114.325,29.345L114.743,29.322L115.16,29.299L115.577,29.276L115.994,29.253L116.412,29.232L116.829,29.211L117.246,29.187L117.663,29.162L118.081,29.137L118.498,29.112L118.915,29.084L119.332,29.055L119.75,29.027L120.167,28.998L120.584,28.97L121.001,28.941L121.419,28.912L121.836,28.884L122.253,28.876L122.67,28.869L123.088,28.861L123.505,28.853L123.922,28.846L124.339,28.838L124.757,28.83L125.174,28.823L125.591,28.781L126.008,28.743L126.426,28.665L126.843,28.587L127.26,28.493L127.677,28.404L128.095,28.314L128.512,28.225L128.929,28.135L129.346,28.046L129.764,27.956L130.181,27.867L130.598,27.777L131.015,27.684L131.433,27.59L131.85,27.497L132.267,27.404L132.684,27.31L133.102,27.217L133.519,27.124L133.936,27.03L134.353,26.971L134.771,26.912L135.188,26.893L135.605,26.874L136.022,26.87L136.439,26.867L136.857,26.863L137.274,26.859L137.691,26.855L138.108,26.851L138.526,26.848L138.943,26.844L139.36,26.84L139.777,26.84L140.195,26.84L140.612,26.84L141.029,26.84L141.446,26.84L141.864,26.84L142.281,26.84L142.698,26.84L143.115,26.84L143.533,26.84L143.95,26.84L144.367,26.84L144.784,26.838L145.202,26.836L145.619,26.834L146.036,26.832L146.453,26.83L146.871,26.829L147.288,26.823L147.705,26.817L148.122,26.811L148.54,26.806L148.957,26.8L149.374,26.794L149.791,26.789L150.209,26.783L150.626,26.777L151.043,26.771L151.46,26.766L151.878,26.76L152.295,26.754L152.712,26.749L153.129,26.743L153.547,26.739L153.964,26.735L154.381,26.731L154.798,26.728L155.216,26.724L155.633,26.72L156.05,26.707L156.467,26.693L156.885,26.68L157.302,26.667L157.719,26.651L158.136,26.636L158.554,26.621L158.971,26.589L159.388,26.556L159.805,26.524L160.223,26.491L160.64,26.459L161.057,26.427L161.474,26.394L161.892,26.362L162.309,26.33L162.726,26.297L163.143,26.265L163.561,26.232L163.978,26.2L164.395,26.168L164.812,26.149L165.229,26.13L165.647,26.11L166.064,26.091L166.481,26.074L166.898,26.057L167.316,26.04L167.733,26.04L168.15,26.04L168.567,26.038L168.985,26.036L169.402,26.034L169.819,26.032L170.236,26.03L170.654,26.029L171.071,26.027L171.488,26.025L171.905,26.015L172.323,26.006L172.74,25.996L173.157,25.987L173.574,25.977L173.992,25.968L174.409,25.958L174.826,25.949L175.243,25.939L175.661,25.93L176.078,25.92L176.495,25.91L176.912,25.901L177.33,25.893L177.747,25.886L178.164,25.878L178.581,25.87L178.999,25.863L179.416,25.855L179.833,25.848L180.25,25.84L180.668,25.84L181.085,25.829L181.502,25.817L181.919,25.806L182.337,25.794L182.754,25.779L183.171,25.764L183.588,25.745L184.006,25.726L184.423,25.707L184.84,25.688L185.257,25.669L185.675,25.65L186.092,25.63L186.509,25.611L186.926,25.592L187.344,25.573L187.761,25.554L188.178,25.535L188.595,25.516L189.013,25.497L189.43,25.478L189.847,25.47L190.264,25.463L190.682,25.455L191.099,25.448L191.516,25.444L191.933,25.44L192.35,25.44L192.768,25.44L193.185,25.436L193.602,25.432L194.019,25.429L194.437,25.425L194.854,25.421L195.271,25.417L195.688,25.413L196.106,25.41L196.523,25.406L196.94,25.402L197.357,25.398L197.775,25.394L198.192,25.39L198.609,25.387L199.026,25.383L199.444,25.379L199.861,25.375L200.278,25.371L200.695,25.368L201.113,25.364L201.53,25.36L201.947,25.36L202.364,25.36L202.782,25.36L203.199,25.36L203.616,25.36L204.033,25.36L204.451,25.36L204.868,25.36L205.285,25.36L205.702,25.36L206.12,25.36L206.537,25.36L206.954,25.36L207.371,25.36L207.789,25.36L208.206,25.358L208.623,25.356L209.04,25.354L209.458,25.352L209.875,25.35L210.292,25.349L210.709,25.263L211.127,25.177L211.544,25.091L211.961,25.006L212.378,24.92L212.796,24.834L213.213,24.749L213.63,24.663L214.047,24.577L214.465,24.491L214.882,24.406L215.299,24.318L215.716,24.23L216.134,24.143L216.551,24.055L216.968,23.97L217.385,23.884L217.803,23.798L218.22,23.712L218.637,23.627L219.054,23.541L219.471,23.539L219.889,23.537L220.306,23.535L220.723,23.533L221.14,23.531L221.558,23.53L221.975,23.528L222.392,23.526L222.809,23.524L223.227,23.522L223.644,23.52L224.061,23.52L224.478,23.52L224.896,23.52L225.313,23.52L225.73,23.52L226.147,23.52L226.565,23.52L226.982,23.52L227.399,23.52L227.816,23.52L228.234,23.52L228.651,23.52L229.068,23.52L229.485,23.52L229.903,23.52L230.32,23.52L230.737,23.52L231.154,23.52L231.572,23.52L231.989,23.52L232.406,23.52L232.823,23.52L233.241,23.52L233.658,23.52L234.075,23.52L234.492,23.52L234.91,23.52L235.327,23.52L235.744,23.52L236.161,23.52L236.579,23.516L236.996,23.512L237.413,23.509L237.83,23.505L238.248,23.501L238.665,23.497L239.082,23.493L239.499,23.49L239.917,23.486L240.334,23.482L240.751,23.478L241.168,23.474L241.586,23.47L242.003,23.465L242.42,23.459L242.837,23.453L243.255,23.448L243.672,23.442L244.089,23.436L244.506,23.43L244.924,23.425L245.341,23.421L245.758,23.417L246.175,23.413L246.592,23.41L247.01,23.406L247.427,23.402L247.844,23.398L248.261,23.394L248.679,23.39L249.096,23.387L249.513,23.383L249.93,23.379L250.348,23.375L250.765,23.373L251.182,23.371L251.599,23.37L252.017,23.368L252.434,23.366L252.851,23.364L253.268,23.362L253.686,23.36L254.103,23.36L254.52,23.36L254.937,23.36L255.355,23.36L255.772,23.36L256.189,23.36L256.606,23.36L257.024,23.36L257.441,23.36L257.858,23.36L258.275,23.36L258.693,23.36L259.11,23.36L259.527,23.36L259.944,23.36L260.362,23.36L260.779,23.358L261.196,23.356L261.613,23.354L262.031,23.352L262.448,23.35L262.865,23.349L263.282,23.347L263.7,23.345L264.117,23.343L264.534,23.341L264.951,23.339L265.369,23.337L265.786,23.335L266.203,23.333L266.62,23.331L267.038,23.33L267.455,23.328L267.872,23.326L268.289,23.324L268.707,23.322L269.124,23.32L269.541,23.32L269.958,23.32L270.376,23.32L270.793,23.32L271.21,23.32L271.627,23.32L272.045,23.32L272.462,23.32L272.879,23.318L273.296,23.316L273.713,23.314L274.131,23.312L274.548,23.31L274.965,23.309L275.382,23.307L275.8,23.305L276.217,23.303L276.634,23.301L277.051,23.299L277.469,23.297L277.886,23.295L278.303,23.293L278.72,23.291L279.138,23.29L279.555,23.288L279.972,23.286L280.389,23.282L280.807,23.278L281.224,23.274L281.641,23.272L282.058,23.27L282.476,23.269L282.893,23.267L283.31,23.265L283.727,23.259L284.145,23.253L284.562,23.248L284.979,23.242L285.396,23.236L285.814,23.23L286.231,23.225L286.648,23.219L287.065,23.213L287.483,23.206L287.9,23.198L288.317,23.19L288.734,23.183L289.152,23.177L289.569,23.171L289.986,23.166L290.403,23.16L290.821,23.154L291.238,23.149L291.655,23.143L292.072,23.137L292.49,23.135L292.907,23.133L293.324,23.131L293.741,23.13L294.159,23.128L294.576,23.126L294.993,23.124L295.41,23.122L295.828,23.12L296.245,23.12L296.662,23.12L297.079,23.12L297.497,23.12L297.914,23.12L298.331,23.12L298.748,23.12L299.166,23.12L299.583,23.112L300,23.105L300,23.105L299.583,23.112L299.166,23.12L298.748,23.12L298.331,23.12L297.914,23.12L297.497,23.12L297.079,23.12L296.662,23.12L296.245,23.12L295.828,23.12L295.41,23.122L294.993,23.124L294.576,23.126L294.159,23.128L293.741,23.13L293.324,23.131L292.907,23.133L292.49,23.135L292.072,23.137L291.655,23.143L291.238,23.149L290.821,23.154L290.403,23.16L289.986,23.166L289.569,23.171L289.152,23.177L288.734,23.183L288.317,23.19L287.9,23.198L287.483,23.206L287.065,23.213L286.648,23.219L286.231,23.225L285.814,23.23L285.396,23.236L284.979,23.242L284.562,23.248L284.145,23.253L283.727,23.259L283.31,23.265L282.893,23.267L282.476,23.269L282.058,23.27L281.641,23.272L281.224,23.274L280.807,23.278L280.389,23.282L279.972,23.286L279.555,23.288L279.138,23.29L278.72,23.291L278.303,23.293L277.886,23.295L277.469,23.297L277.051,23.299L276.634,23.301L276.217,23.303L275.8,23.305L275.382,23.307L274.965,23.309L274.548,23.31L274.131,23.312L273.713,23.314L273.296,23.316L272.879,23.318L272.462,23.32L272.045,23.32L271.627,23.32L271.21,23.32L270.793,23.32L270.376,23.32L269.958,23.32L269.541,23.32L269.124,23.32L268.707,23.322L268.289,23.324L267.872,23.326L267.455,23.328L267.038,23.33L266.62,23.331L266.203,23.333L265.786,23.335L265.369,23.337L264.951,23.339L264.534,23.341L264.117,23.343L263.7,23.345L263.282,23.347L262.865,23.349L262.448,23.35L262.031,23.352L261.613,23.354L261.196,23.356L260.779,23.358L260.362,23.36L259.944,23.36L259.527,23.36L259.11,23.36L258.693,23.36L258.275,23.36L257.858,23.36L257.441,23.36L257.024,23.36L256.606,23.36L256.189,23.36L255.772,23.36L255.355,23.36L254.937,23.36L254.52,23.36L254.103,23.36L253.686,23.36L253.268,23.362L252.851,23.364L252.434,23.366L252.017,23.368L251.599,23.37L251.182,23.371L250.765,23.373L250.348,23.375L249.93,23.379L249.513,23.383L249.096,23.387L248.679,23.39L248.261,23.394L247.844,23.398L247.427,23.402L247.01,23.406L246.592,23.41L246.175,23.413L245.758,23.417L245.341,23.421L244.924,23.425L244.506,23.43L244.089,23.436L243.672,23.442L243.255,23.448L242.837,23.453L242.42,23.459L242.003,23.465L241.586,23.47L241.168,23.474L240.751,23.478L240.334,23.482L239.917,23.486L239.499,23.49L239.082,23.493L238.665,23.497L238.248,23.501L237.83,23.505L237.413,23.509L236.996,23.512L236.579,23.516L236.161,23.52L235.744,23.52L235.327,23.52L234.91,23.52L234.492,23.52L234.075,23.52L233.658,23.52L233.241,23.52L232.823,23.52L232.406,23.52L231.989,23.52L231.572,23.52L231.154,23.52L230.737,23.52L230.32,23.52L229.903,23.52L229.485,23.52L229.068,23.52L228.651,23.52L228.234,23.52L227.816,23.52L227.399,23.52L226.982,23.52L226.565,23.52L226.147,23.52L225.73,23.52L225.313,23.52L224.896,23.52L224.478,23.52L224.061,23.52L223.644,23.52L223.227,23.522L222.809,23.524L222.392,23.526L221.975,23.528L221.558,23.53L221.14,23.531L220.723,23.533L220.306,23.535L219.889,23.537L219.471,23.539L219.054,23.541L218.637,23.627L218.22,23.712L217.803,23.798L217.385,23.884L216.968,23.97L216.551,24.055L216.134,24.143L215.716,24.23L215.299,24.318L214.882,24.406L214.465,24.491L214.047,24.577L213.63,24.663L213.213,24.749L212.796,24.834L212.378,24.92L211.961,25.006L211.544,25.091L211.127,25.177L210.709,25.263L210.292,25.349L209.875,25.35L209.458,25.352L209.04,25.354L208.623,25.356L208.206,25.358L207.789,25.36L207.371,25.36L206.954,25.36L206.537,25.36L206.12,25.36L205.702,25.36L205.285,25.36L204.868,25.36L204.451,25.36L204.033,25.36L203.616,25.36L203.199,25.36L202.782,25.36L202.364,25.36L201.947,25.36L201.53,25.36L201.113,25.364L200.695,25.368L200.278,25.371L199.861,25.375L199.444,25.379L199.026,25.383L198.609,25.387L198.192,25.39L197.775,25.394L197.357,25.398L196.94,25.402L196.523,25.406L196.106,25.41L195.688,25.413L195.271,25.417L194.854,25.421L194.437,25.425L194.019,25.429L193.602,25.432L193.185,25.436L192.768,25.44L192.35,25.44L191.933,25.44L191.516,25.444L191.099,25.448L190.682,25.455L190.264,25.463L189.847,25.47L189.43,25.478L189.013,25.497L188.595,25.516L188.178,25.535L187.761,25.554L187.344,25.573L186.926,25.592L186.509,25.611L186.092,25.63L185.675,25.65L185.257,25.669L184.84,25.688L184.423,25.707L184.006,25.726L183.588,25.745L183.171,25.764L182.754,25.779L182.337,25.794L181.919,25.806L181.502,25.817L181.085,25.829L180.668,25.84L180.25,25.84L179.833,25.848L179.416,25.855L178.999,25.863L178.581,25.87L178.164,25.878L177.747,25.886L177.33,25.893L176.912,25.901L176.495,25.91L176.078,25.92L175.661,25.93L175.243,25.939L174.826,25.949L174.409,25.958L173.992,25.968L173.574,25.977L173.157,25.987L172.74,25.996L172.323,26.006L171.905,26.015L171.488,26.025L171.071,26.027L170.654,26.029L170.236,26.03L169.819,26.032L169.402,26.034L168.985,26.036L168.567,26.038L168.15,26.04L167.733,26.04L167.316,26.04L166.898,26.057L166.481,26.074L166.064,26.091L165.647,26.11L165.229,26.13L164.812,26.149L164.395,26.168L163.978,26.2L163.561,26.232L163.143,26.265L162.726,26.297L162.309,26.33L161.892,26.362L161.474,26.394L161.057,26.427L160.64,26.459L160.223,26.491L159.805,26.524L159.388,26.556L158.971,26.589L158.554,26.621L158.136,26.636L157.719,26.651L157.302,26.667L156.885,26.68L156.467,26.693L156.05,26.707L155.633,26.72L155.216,26.724L154.798,26.728L154.381,26.731L153.964,26.735L153.547,26.739L153.129,26.743L152.712,26.749L152.295,26.754L151.878,26.76L151.46,26.766L151.043,26.771L150.626,26.777L150.209,26.783L149.791,26.789L149.374,26.794L148.957,26.8L148.54,26.806L148.122,26.811L147.705,26.817L147.288,26.823L146.871,26.829L146.453,26.83L146.036,26.832L145.619,26.834L145.202,26.836L144.784,26.838L144.367,26.84L143.95,26.84L143.533,26.84L143.115,26.84L142.698,26.84L142.281,26.84L141.864,26.84L141.446,26.84L141.029,26.84L140.612,26.84L140.195,26.84L139.777,26.84L139.36,26.84L138.943,26.844L138.526,26.848L138.108,26.851L137.691,26.855L137.274,26.859L136.857,26.863L136.439,26.867L136.022,26.87L135.605,26.874L135.188,26.893L134.771,26.912L134.353,26.971L133.936,27.03L133.519,27.124L133.102,27.217L132.684,27.31L132.267,27.404L131.85,27.497L131.433,27.59L131.015,27.684L130.598,27.777L130.181,27.867L129.764,27.956L129.346,28.046L128.929,28.135L128.512,28.225L128.095,28.314L127.677,28.404L127.26,28.493L126.843,28.587L126.426,28.665L126.008,28.743L125.591,28.781L125.174,28.823L124.757,28.83L124.339,28.838L123.922,28.846L123.505,28.853L123.088,28.861L122.67,28.869L122.253,28.876L121.836,28.884L121.419,28.912L121.001,28.941L120.584,28.97L120.167,28.998L119.75,29.027L119.332,29.055L118.915,29.084L118.498,29.112L118.081,29.137L117.663,29.162L117.246,29.187L116.829,29.211L116.412,29.232L115.994,29.253L115.577,29.276L115.16,29.299L114.743,29.322L114.325,29.345L113.908,29.368L113.491,29.39L113.074,29.413L112.656,29.415L112.239,29.417L111.822,29.419L111.405,29.421L110.987,29.425L110.57,29.429L110.153,29.432L109.736,29.436L109.318,29.44L108.901,29.444L108.484,29.448L108.067,29.453L107.65,29.459L107.232,29.465L106.815,29.469L106.398,29.472L105.981,29.478L105.563,29.484L105.146,29.49L104.729,29.495L104.312,29.501L103.894,29.507L103.477,29.512L103.06,29.524L102.643,29.535L102.225,29.545L101.808,29.554L101.391,29.564L100.974,29.573L100.556,29.583L100.139,29.592L99.722,29.602L99.305,29.61L98.887,29.617L98.47,29.625L98.053,29.632L97.636,29.642L97.218,29.65L96.801,29.657L96.384,29.665L95.967,29.672L95.549,29.682L95.132,29.691L94.715,29.701L94.298,29.709L93.88,29.716L93.463,29.724L93.046,29.731L92.629,29.745L92.211,29.758L91.794,29.771L91.377,29.785L90.96,30.427L90.542,31.069L90.125,31.71L89.708,32.352L89.291,32.994L88.873,33.634L88.456,34.274L88.039,34.914L87.622,35.556L87.204,36.198L86.787,36.838L86.37,37.478L85.953,38.118L85.535,38.754L85.118,39.39L84.701,40.027L84.284,40.663L83.866,41.295L83.449,41.928L83.032,42.56L82.615,43.196L82.197,43.204L81.78,43.221L81.363,43.248L80.946,43.274L80.529,43.301L80.111,43.328L79.694,43.354L79.277,43.381L78.86,43.406L78.442,43.43L78.025,43.455L77.608,43.48L77.191,43.505L76.773,43.53L76.356,43.554L75.939,43.579L75.522,43.604L75.104,43.627L74.687,43.65L74.27,43.672L73.853,43.691L73.435,43.722L73.018,43.743L72.601,43.754L72.184,43.77L71.766,43.785L71.349,43.8L70.932,43.815L70.515,43.83L70.097,43.846L69.68,43.861L69.263,43.876L68.846,43.891L68.428,43.907L68.011,43.922L67.594,43.937L67.177,43.952L66.759,43.968L66.342,43.983L65.925,44.004L65.508,44.025L65.09,44.046L64.673,44.055L64.256,44.065L63.839,44.074L63.421,44.08L63.004,44.088L62.587,44.095L62.17,44.105L61.752,44.114L61.335,44.124L60.918,44.133L60.501,44.143L60.083,44.152L59.666,44.162L59.249,44.171L58.832,44.181L58.414,44.19L57.997,44.2L57.58,44.21L57.163,44.213L56.745,44.217L56.328,44.221L55.911,44.225L55.494,44.229L55.076,44.232L54.659,44.236L54.242,44.24L53.825,44.244L53.408,44.251L52.99,44.259L52.573,44.267L52.156,44.274L51.739,44.282L51.321,44.29L50.904,44.314L50.487,44.339L50.07,44.373L49.652,44.408L49.235,44.48L48.818,44.552L48.401,44.625L47.983,44.697L47.566,44.77L47.149,44.842L46.732,44.926L46.314,45.011L45.897,45.101L45.48,45.189L45.063,45.276L44.645,45.358L44.228,45.44L43.811,45.522L43.394,45.611L42.976,45.701L42.559,45.79L42.142,45.863L41.725,45.935L41.307,45.998L40.89,46.061L40.473,46.086L40.056,46.11L39.638,46.181L39.221,46.251L38.804,46.324L38.387,46.396L37.969,46.457L37.552,46.518L37.135,46.575L36.718,46.632L36.3,46.69L35.883,46.747L35.466,46.804L35.049,46.861L34.631,46.91L34.214,46.96L33.797,47.01L33.38,47.059L32.962,47.109L32.545,47.158L32.128,47.21L31.711,47.328L31.293,47.446L30.876,47.539L30.459,47.636L30.042,47.743L29.624,47.853L29.207,47.971L28.79,48.091L28.373,48.215L27.955,48.339L27.538,48.469L27.121,48.598L26.704,48.728L26.287,48.857L25.869,48.987L25.452,49.116L25.035,49.274L24.618,49.432L24.2,49.59L23.783,49.815L23.366,50.055L22.949,50.229L22.531,50.402L22.114,50.554L21.697,50.703L21.28,50.861L20.862,51.015L20.445,51.162L20.028,51.31L19.611,51.474L19.193,51.638L18.776,51.796L18.359,51.954L17.942,52.13L17.524,52.341L17.107,52.552L16.69,52.798L16.273,53.057L15.855,53.316L15.438,53.619L15.021,53.909L14.604,54.181L14.186,54.457L13.769,54.733L13.352,55.01L12.935,55.286L12.517,55.543L12.1,55.817L11.683,56.267L11.266,56.71L10.848,57.135L10.431,57.56L10.014,57.985L9.597,58.41L9.179,58.96L8.762,59.484L8.345,66.413L7.928,67.701L7.51,68.947L7.093,70.192L6.676,71.394L6.259,72.543L5.841,73.691L5.424,74.836L5.007,75.981L4.59,77.126L4.172,78.27L3.755,79.413L3.338,80.539L2.921,81.49L2.503,82.44L2.086,83.39L1.669,84.341L1.252,85.291L0.834,86.242L0.417,87.05L0,87.848Z" fill="#d66368" opacity="0.2"/></g></g><path class="foreground" aria-hidden="true" d="" display="none"/></g></g><g class="mark-group role-legend" role="graphics-symbol" aria-roledescription="legend" aria-label="Symbol legend titled 'Fuzzer' for shape, fill color and stroke color with 4 values: ft, aflnet, stateafl, sgfuzz"><g transform="translate(0,-47)"><path class="background" aria-hidden="true" d="M0,0h190v29h-190Z" pointer-events="none"/><g><g class="mark-group role-legend-entry"><g transform="translate(0,16)"><path class="background" aria-hidden="true" d="M0,0h0v0h0Z" pointer-events="none"/><g><g class="mark-group role-scope" role="graphics-object" aria-roledescription="group mark container"><g transform="translate(0,0.25)"><path class="background" aria-hidden="true" d="M0,0h21.556640625v12.5h-21.556640625Z" pointer-events="none" opacity="1"/><g><g class="mark-symbol role-legend-symbol" pointer-events="none"><path transform="translate(6,6)" d="M5,0A5,5,0,1,1,-5,0A5,5,0,1,1,5,0" fill="#d66368" fill-opacity="1" stroke="#d66368" stroke-width="1.5" opacity="1"/></g><g class="mark-text role-legend-label" pointer-events="none"><text text-anchor="start" transform="translate(16,9)" font-family="sans-serif" font-size="10px" fill="#000" opacity="1">ft</text></g></g><path class="foreground" aria-hidden="true" d="" pointer-events="none" display="none"/></g><g transform="translate(33,0.25)"><path class="background" aria-hidden="true" d="M0,0h40.462890625v12.5h-40.462890625Z" pointer-events="none" opacity="1"/><g><g class="mark-symbol role-legend-symbol" pointer-events="none"><path transform="translate(6,6)" d="M-5,-5h10v10h-10Z" fill="#f59c0c" fill-opacity="1" stroke="#f59c0c" stroke-width="1.5" opacity="1"/></g><g class="mark-text role-legend-label" pointer-events="none"><text text-anchor="start" transform="translate(16,9)" font-family="sans-serif" font-size="10px" fill="#000" opacity="1">aflnet</text></g></g><path class="foreground" aria-hidden="true" d="" pointer-events="none" display="none"/></g><g transform="translate(85,0.5849364905389036)"><path class="background" aria-hidden="true" d="M0,0h48.2412109375v11.830127018922191h-48.2412109375Z" pointer-events="none" opacity="1"/><g><g class="mark-symbol role-legend-symbol" pointer-events="none"><path transform="translate(6,6)" d="M0,-4.33L-5,4.33L5,4.33Z" fill="#109426" fill-opacity="1" stroke="#109426" stroke-width="1.5" opacity="1"/></g><g class="mark-text role-legend-label" pointer-events="none"><text text-anchor="start" transform="translate(16,9)" font-family="sans-serif" font-size="10px" fill="#000" opacity="1">stateafl</text></g></g><path class="foreground" aria-hidden="true" d="" pointer-events="none" display="none"/></g><g transform="translate(145,0.25)"><path class="background" aria-hidden="true" d="M0,0h44.9013671875v12.5h-44.9013671875Z" pointer-events="none" opacity="1"/><g><g class="mark-symbol role-legend-symbol" pointer-events="none"><path transform="translate(6,6)" d="M-5,-2L-5,2L-2,2L-2,5L2,5L2,2L5,2L5,-2L2,-2L2,-5L-2,-5L-2,-2Z" fill="#808b88" fill-opacity="1" stroke="#808b88" stroke-width="1.5" opacity="1"/></g><g class="mark-text role-legend-label" pointer-events="none"><text text-anchor="start" transform="translate(16,9)" font-family="sans-serif" font-size="10px" fill="#000" opacity="1">sgfuzz</text></g></g><path class="foreground" aria-hidden="true" d="" pointer-events="none" display="none"/></g></g></g><path class="foreground" aria-hidden="true" d="" pointer-events="none" display="none"/></g></g><g class="mark-text role-legend-title" pointer-events="none"><text text-anchor="start" transform="translate(0,9)" font-family="sans-serif" font-size="11px" font-weight="bold" fill="#000" opacity="1">Fuzzer</text></g></g><path class="foreground" aria-hidden="true" d="" pointer-events="none" display="none"/></g></g><g class="mark-group role-title"><g transform="translate(150,-64)"><path class="background" aria-hidden="true" d="M0,0h0v0h0Z" pointer-events="none"/><g><g class="mark-text role-title-text" role="graphics-symbol" aria-roledescription="title" aria-label="Title text 'target:ngtcp2_client_nginx_server,cores:4,timeout:43200s'" pointer-events="none"><text text-anchor="middle" transform="translate(0,10)" font-family="sans-serif" font-size="13px" font-weight="bold" fill="#000" opacity="1">target:ngtcp2_client_nginx_server,cores:4,timeout:43200s</text></g></g><path class="foreground" aria-hidden="true" d="" pointer-events="none" display="none"/></g></g></g><path class="foreground" aria-hidden="true" d="" display="none"/></g></g></g></svg>