<svg xmlns="http://www.w3.org/2000/svg" xmlns:xlink="http://www.w3.org/1999/xlink" version="1.1" class="marks" width="401" height="306" viewBox="0 0 401 306"><rect width="401" height="306" fill="white"/><g fill="none" stroke-miterlimit="10" transform="translate(53,69)"><g class="mark-group role-frame root" role="graphics-object" aria-roledescription="group mark container"><g transform="translate(0,0)"><path class="background" aria-hidden="true" d="M0.5,0.5h300v200h-300Z" stroke="#ddd"/><g><g class="mark-group role-axis" aria-hidden="true"><g transform="translate(0.5,200.5)"><path class="background" aria-hidden="true" d="M0,0h0v0h0Z" pointer-events="none"/><g><g class="mark-rule role-axis-grid" pointer-events="none"><line transform="translate(0,-200)" x2="0" y2="200" stroke="#ddd" stroke-width="1" opacity="1"/><line transform="translate(25,-200)" x2="0" y2="200" stroke="#ddd" stroke-width="1" opacity="1"/><line transform="translate(50,-200)" x2="0" y2="200" stroke="#ddd" stroke-width="1" opacity="1"/><line transform="translate(75,-200)" x2="0" y2="200" stroke="#ddd" stroke-width="1" opacity="1"/><line transform="translate(100,-200)" x2="0" y2="200" stroke="#ddd" stroke-width="1" opacity="1"/><line transform="translate(125,-200)" x2="0" y2="200" stroke="#ddd" stroke-width="1" opacity="1"/><line transform="translate(150,-200)" x2="0" y2="200" stroke="#ddd" stroke-width="1" opacity="1"/><line transform="translate(175,-200)" x2="0" y2="200" stroke="#ddd" stroke-width="1" opacity="1"/><line transform="translate(200,-200)" x2="0" y2="200" stroke="#ddd" stroke-width="1" opacity="1"/><line transform="translate(225,-200)" x2="0" y2="200" stroke="#ddd" stroke-width="1" opacity="1"/><line transform="translate(250,-200)" x2="0" y2="200" stroke="#ddd" stroke-width="1" opacity="1"/><line transform="translate(275,-200)" x2="0" y2="200" stroke="#ddd" stroke-width="1" opacity="1"/></g></g><path class="foreground" aria-hidden="true" d="" pointer-events="none" display="none"/></g></g><g class="mark-group role-axis" aria-hidden="true"><g transform="translate(0.5,0.5)"><path class="background" aria-hidden="true" d="M0,0h0v0h0Z" pointer-events="none"/><g><g class="mark-rule role-axis-grid" pointer-events="none"><line transform="translate(0,200)" x2="300" y2="0" stroke="#ddd" stroke-width="1" opacity="1"/><line transform="translate(0,171)" x2="300" y2="0" stroke="#ddd" stroke-width="1" opacity="1"/><line transform="translate(0,143)" x2="300" y2="0" stroke="#ddd" stroke-width="1" opacity="1"/><line transform="translate(0,114)" x2="300" y2="0" stroke="#ddd" stroke-width="1" opacity="1"/><line transform="translate(0,86)" x2="300" y2="0" stroke="#ddd" stroke-width="1" opacity="1"/><line transform="translate(0,57)" x2="300" y2="0" stroke="#ddd" stroke-width="1" opacity="1"/><line transform="translate(0,29)" x2="300" y2="0" stroke="#ddd" stroke-width="1" opacity="1"/><line transform="translate(0,0)" x2="300" y2="0" stroke="#ddd" stroke-width="1" opacity="1"/></g></g><path class="foreground" aria-hidden="true" d="" pointer-events="none" display="none"/></g></g><g class="mark-group role-axis" role="graphics-symbol" aria-roledescription="axis" aria-label="X-axis titled 'Time [hh:mm]' for a time scale with values from 00:00 to 11:59"><g transform="translate(0.5,200.5)"><path class="background" aria-hidden="true" d="M0,0h0v0h0Z" pointer-events="none"/><g><g class="mark-rule role-axis-tick" pointer-events="none"><line transform="translate(0,0)" x2="0" y2="5" stroke="#888" stroke-width="1" opacity="1"/><line transform="translate(25,0)" x2="0" y2="5" stroke="#888" stroke-width="1" opacity="1"/><line transform="translate(50,0)" x2="0" y2="5" stroke="#888" stroke-width="1" opacity="1"/><line transform="translate(75,0)" x2="0" y2="5" stroke="#888" stroke-width="1" opacity="1"/><line transform="translate(100,0)" x2="0" y2="5" stroke="#888" stroke-width="1" opacity="1"/><line transform="translate(125,0)" x2="0" y2="5" stroke="#888" stroke-width="1" opacity="1"/><line transform="translate(150,0)" x2="0" y2="5" stroke="#888" stroke-width="1" opacity="1"/><line transform="translate(175,0)" x2="0" y2="5" stroke="#888" stroke-width="1" opacity="1"/><line transform="translate(200,0)" x2="0" y2="5" stroke="#888" stroke-width="1" opacity="1"/><line transform="translate(225,0)" x2="0" y2="5" stroke="#888" stroke-width="1" opacity="1"/><line transform="translate(250,0)" x2="0" y2="5" stroke="#888" stroke-width="1" opacity="1"/><line transform="translate(275,0)" x2="0" y2="5" stroke="#888" stroke-width="1" opacity="1"/></g><g class="mark-text role-axis-label" pointer-events="none"><text text-anchor="start" transform="translate(0,15)" font-family="sans-serif" font-size="10px" fill="#000" opacity="1">00:00</text><text text-anchor="middle" transform="translate(25.03477051460362,15)" font-family="sans-serif" font-size="10px" fill="#000" opacity="0">01:00</text><text text-anchor="middle" transform="translate(50.06954102920724,15)" font-family="sans-serif" font-size="10px" fill="#000" opacity="1">02:00</text><text text-anchor="middle" transform="translate(75.10431154381085,15)" font-family="sans-serif" font-size="10px" fill="#000" opacity="0">03:00</text><text text-anchor="middle" transform="translate(100.13908205841447,15)" font-family="sans-serif" font-size="10px" fill="#000" opacity="1">04:00</text><text text-anchor="middle" transform="translate(125.17385257301808,15)" font-family="sans-serif" font-size="10px" fill="#000" opacity="0">05:00</text><text text-anchor="middle" transform="translate(150.2086230876217,15)" font-family="sans-serif" font-size="10px" fill="#000" opacity="1">06:00</text><text text-anchor="middle" transform="translate(175.24339360222532,15)" font-family="sans-serif" font-size="10px" fill="#000" opacity="0">07:00</text><text text-anchor="middle" transform="translate(200.27816411682895,15)" font-family="sans-serif" font-size="10px" fill="#000" opacity="1">08:00</text><text text-anchor="middle" transform="translate(225.31293463143257,15)" font-family="sans-serif" font-size="10px" fill="#000" opacity="0">09:00</text><text text-anchor="middle" transform="translate(250.34770514603616,15)" font-family="sans-serif" font-size="10px" fill="#000" opacity="1">10:00</text><text text-anchor="middle" transform="translate(275.3824756606398,15)" font-family="sans-serif" font-size="10px" fill="#000" opacity="0">11:00</text></g><g class="mark-rule role-axis-domain" pointer-events="none"><line transform="translate(0,0)" x2="300" y2="0" stroke="#888" stroke-width="1" opacity="1"/></g><g class="mark-text role-axis-title" pointer-events="none"><text text-anchor="middle" transform="translate(150,30)" font-family="sans-serif" font-size="11px" font-weight="bold" fill="#000" opacity="1">Time [hh:mm]</text></g></g><path class="foreground" aria-hidden="true" d="" pointer-events="none" display="none"/></g></g><g class="mark-group role-axis" role="graphics-symbol" aria-roledescription="axis" aria-label="Y-axis titled '#Covered Branches' for a linear scale with values from 0 to 1,400"><g transform="translate(0.5,0.5)"><path class="background" aria-hidden="true" d="M0,0h0v0h0Z" pointer-events="none"/><g><g class="mark-rule role-axis-tick" pointer-events="none"><line transform="translate(0,200)" x2="-5" y2="0" stroke="#888" stroke-width="1" opacity="1"/><line transform="translate(0,171)" x2="-5" y2="0" stroke="#888" stroke-width="1" opacity="1"/><line transform="translate(0,143)" x2="-5" y2="0" stroke="#888" stroke-width="1" opacity="1"/><line transform="translate(0,114)" x2="-5" y2="0" stroke="#888" stroke-width="1" opacity="1"/><line transform="translate(0,86)" x2="-5" y2="0" stroke="#888" stroke-width="1" opacity="1"/><line transform="translate(0,57)" x2="-5" y2="0" stroke="#888" stroke-width="1" opacity="1"/><line transform="translate(0,29)" x2="-5" y2="0" stroke="#888" stroke-width="1" opacity="1"/><line transform="translate(0,0)" x2="-5" y2="0" stroke="#888" stroke-width="1" opacity="1"/></g><g class="mark-text role-axis-label" pointer-events="none"><text text-anchor="end" transform="translate(-7,203)" font-family="sans-serif" font-size="10px" fill="#000" opacity="1">0</text><text text-anchor="end" transform="translate(-7,174.42857142857144)" font-family="sans-serif" font-size="10px" fill="#000" opacity="1">200</text><text text-anchor="end" transform="translate(-7,145.85714285714286)" font-family="sans-serif" font-size="10px" fill="#000" opacity="1">400</text><text text-anchor="end" transform="translate(-7,117.28571428571428)" font-family="sans-serif" font-size="10px" fill="#000" opacity="1">600</text><text text-anchor="end" transform="translate(-7,88.71428571428572)" font-family="sans-serif" font-size="10px" fill="#000" opacity="1">800</text><text text-anchor="end" transform="translate(-7,60.14285714285714)" font-family="sans-serif" font-size="10px" fill="#000" opacity="1">1,000</text><text text-anchor="end" transform="translate(-7,31.57142857142858)" font-family="sans-serif" font-size="10px" fill="#000" opacity="1">1,200</text><text text-anchor="end" transform="translate(-7,3)" font-family="sans-serif" font-size="10px" fill="#000" opacity="1">1,400</text></g><g class="mark-rule role-axis-domain" pointer-events="none"><line transform="translate(0,200)" x2="0" y2="-200" stroke="#888" stroke-width="1" opacity="1"/></g><g class="mark-text role-axis-title" pointer-events="none"><text text-anchor="middle" transform="translate(-36.0244140625,100) rotate(-90) translate(0,-2)" font-family="sans-serif" font-size="11px" font-weight="bold" fill="#000" opacity="1">#Covered Branches</text></g></g><path class="foreground" aria-hidden="true" d="" pointer-events="none" display="none"/></g></g><g class="mark-group role-scope layer_0_pathgroup" role="graphics-object" aria-roledescription="group mark container"><g transform="translate(0,0)"><path class="background" aria-hidden="true" d="M0,0h300v200h-300Z"/><g><g class="mark-line role-mark layer_0_marks" role="graphics-symbol" aria-roledescription="line mark container"><path d="M0,200L0.417,34L0.834,32.286L1.252,30.286L1.669,30.143L2.086,29.714L2.503,29.429L2.921,27.857L3.338,25.857L3.755,25.857L4.172,25.857L4.59,25.857L5.007,25.857L5.424,25.857L5.841,25.571L6.259,24.857L6.676,24.857L7.093,24.857L7.51,24.714L7.928,24.714L8.345,24.714L8.762,24.429L9.179,24.429L9.597,24.429L10.014,24.429L10.431,24L10.848,24L11.266,24L11.683,24L12.1,24L12.517,22.571L12.935,22.571L13.352,22.571L13.769,22.571L14.186,22.571L14.604,22.571L15.021,22.571L15.438,22.571L15.855,22.571L16.273,22.571L16.69,22.571L17.107,22.571L17.524,22.571L17.942,22.571L18.359,22.571L18.776,22.571L19.193,22.571L19.611,22.571L20.028,22.571L20.445,22.571L20.862,22.571L21.28,22.571L21.697,22.571L22.114,22.571L22.531,22.571L22.949,22L23.366,22L23.783,22L24.2,22L24.618,22L25.035,22L25.452,22L25.869,22L26.287,22L26.704,22L27.121,22L27.538,22L27.955,22L28.373,22L28.79,22L29.207,22L29.624,22L30.042,22L30.459,22L30.876,22L31.293,22L31.711,22L32.128,22L32.545,22L32.962,21.857L33.38,21.857L33.797,21.857L34.214,21.857L34.631,21.857L35.049,21.857L35.466,21.857L35.883,21.857L36.3,21.857L36.718,21.571L37.135,21.571L37.552,21.571L37.969,21.286L38.387,21.286L38.804,21.286L39.221,21.286L39.638,21.286L40.056,21.286L40.473,21.286L40.89,21.286L41.307,21.286L41.725,21.286L42.142,21.286L42.559,21.286L42.976,21.286L43.394,21.286L43.811,21.286L44.228,21.286L44.645,21.286L45.063,21.286L45.48,21.286L45.897,21.143L46.314,21.143L46.732,21.143L47.149,21.143L47.566,21.143L47.983,21.143L48.401,21.143L48.818,21.143L49.235,21.143L49.652,21.143L50.07,21.143L50.487,21.143L50.904,21.143L51.321,21.143L51.739,21.143L52.156,21.143L52.573,21.143L52.99,21.143L53.408,21.143L53.825,21.143L54.242,21.143L54.659,21.143L55.076,21L55.494,21L55.911,21L56.328,21L56.745,21L57.163,21L57.58,21L57.997,21L58.414,21L58.832,21L59.249,21L59.666,21L60.083,21L60.501,21L60.918,21L61.335,21L61.752,21L62.17,21L62.587,21L63.004,21L63.421,21L63.839,21L64.256,21L64.673,21L65.09,21L65.508,21L65.925,21L66.342,21L66.759,21L67.177,21L67.594,21L68.011,21L68.428,21L68.846,21L69.263,21L69.68,21L70.097,21L70.515,21L70.932,21L71.349,21L71.766,21L72.184,21L72.601,21L73.018,21L73.435,21L73.853,21L74.27,21L74.687,21L75.104,21L75.522,21L75.939,21L76.356,20.429L76.773,20.429L77.191,20.429L77.608,20.429L78.025,20.429L78.442,20.429L78.86,20.429L79.277,20.429L79.694,20.429L80.111,20.429L80.529,20.429L80.946,20.429L81.363,20.429L81.78,20.429L82.197,20.429L82.615,20.429L83.032,20.429L83.449,20.429L83.866,20.143L84.284,20.143L84.701,20.143L85.118,20.143L85.535,20.143L85.953,20.143L86.37,20.143L86.787,20.143L87.204,20.143L87.622,20.143L88.039,20.143L88.456,20.143L88.873,20.143L89.291,20.143L89.708,20.143L90.125,20.143L90.542,20.143L90.96,20.143L91.377,20.143L91.794,20.143L92.211,20.143L92.629,20.143L93.046,20.143L93.463,20.143L93.88,20.143L94.298,20.143L94.715,20.143L95.132,20.143L95.549,20.143L95.967,20.143L96.384,20.143L96.801,20.143L97.218,20.143L97.636,19.714L98.053,19.714L98.47,19.714L98.887,19.714L99.305,19.714L99.722,19.714L100.139,19.714L100.556,19.714L100.974,19.714L101.391,19.714L101.808,19.714L102.225,19.714L102.643,19.714L103.06,19.571L103.477,19.571L103.894,19.571L104.312,19.571L104.729,19.571L105.146,19.429L105.563,19.429L105.981,19.429L106.398,19.429L106.815,19.429L107.232,19.429L107.65,19.429L108.067,19.429L108.484,19.429L108.901,19.429L109.318,19.429L109.736,19.429L110.153,19.429L110.57,19.429L110.987,19.429L111.405,19.429L111.822,19.429L112.239,19.429L112.656,19.429L113.074,19.429L113.491,19.429L113.908,19.429L114.325,19.429L114.743,19.429L115.16,19.429L115.577,19.429L115.994,19.429L116.412,19.429L116.829,19.429L117.246,19.429L117.663,19.429L118.081,19.429L118.498,19.429L118.915,19.429L119.332,19.429L119.75,19.429L120.167,19.429L120.584,19.429L121.001,19.429L121.419,19.429L121.836,19.429L122.253,19.429L122.67,19.429L123.088,19.429L123.505,19.429L123.922,19.429L124.339,19.429L124.757,19.429L125.174,19.429L125.591,19.429L126.008,19.429L126.426,19.429L126.843,19.429L127.26,19.429L127.677,19.429L128.095,18.714L128.512,18.714L128.929,18.714L129.346,18.714L129.764,18.714L130.181,18.714L130.598,18.714L131.015,18.714L131.433,18.714L131.85,18.714L132.267,18.714L132.684,18.714L133.102,18.714L133.519,18.714L133.936,18.714L134.353,18.714L134.771,18.714L135.188,18.714L135.605,18.714L136.022,18.714L136.439,18.714L136.857,18.714L137.274,18.429L137.691,18.429L138.108,18.429L138.526,18.429L138.943,18.429L139.36,18.429L139.777,18.429L140.195,18.429L140.612,18.429L141.029,18.429L141.446,18.429L141.864,18.429L142.281,18.429L142.698,18.429L143.115,18.429L143.533,18.429L143.95,18.429L144.367,18.429L144.784,18.429L145.202,18.429L145.619,18.429L146.036,18.429L146.453,18.429L146.871,18.429L147.288,18.429L147.705,18.429L148.122,18.429L148.54,18.429L148.957,18.429L149.374,18.429L149.791,18.429L150.209,18.429L150.626,18.429L151.043,18.429L151.46,18.429L151.878,18.429L152.295,18.429L152.712,18.429L153.129,18.429L153.547,18.429L153.964,18.429L154.381,18.429L154.798,18.429L155.216,18.429L155.633,18.429L156.05,18.429L156.467,18.429L156.885,18.429L157.302,18.429L157.719,18.429L158.136,18.429L158.554,18.429L158.971,18.429L159.388,18.429L159.805,18.429L160.223,18.429L160.64,18.429L161.057,18.429L161.474,18.429L161.892,18.429L162.309,18.429L162.726,18.429L163.143,18.429L163.561,18.429L163.978,18.429L164.395,18.429L164.812,18.429L165.229,18.429L165.647,18.429L166.064,18.429L166.481,18.429L166.898,18.429L167.316,18.429L167.733,18.429L168.15,18.429L168.567,18.429L168.985,18.429L169.402,18.429L169.819,18.429L170.236,18.429L170.654,18.429L171.071,18.429L171.488,18.429L171.905,18.429L172.323,18.429L172.74,18.429L173.157,18.429L173.574,18.429L173.992,18.429L174.409,18.429L174.826,18.429L175.243,18.429L175.661,18.429L176.078,18.429L176.495,18.429L176.912,18.429L177.33,18.429L177.747,18.429L178.164,18.429L178.581,18.429L178.999,18.429L179.416,18.429L179.833,18.429L180.25,18.429L180.668,18.429L181.085,18.429L181.502,18.429L181.919,18.429L182.337,18.429L182.754,18.429L183.171,18.429L183.588,18.429L184.006,18.429L184.423,18.429L184.84,18.429L185.257,18.429L185.675,18.429L186.092,18.429L186.509,18.429L186.926,18.429L187.344,18.429L187.761,18.429L188.178,18.429L188.595,18.429L189.013,18.429L189.43,18.429L189.847,18.429L190.264,18.429L190.682,18.429L191.099,18.429L191.516,18.429L191.933,18.429L192.35,18.429L192.768,18.429L193.185,18.429L193.602,18.429L194.019,18.429L194.437,18.429L194.854,18.429L195.271,18.429L195.688,18.429L196.106,18.429L196.523,18.429L196.94,18.429L197.357,18.429L197.775,18.429L198.192,18.429L198.609,18.429L199.026,18.429L199.444,18.429L199.861,18.429L200.278,18.429L200.695,18.429L201.113,18.429L201.53,18.429L201.947,18.429L202.364,18.429L202.782,18.429L203.199,18.429L203.616,18.429L204.033,18.429L204.451,18.429L204.868,18.429L205.285,18.429L205.702,18.429L206.12,18.429L206.537,18.429L206.954,18.429L207.371,18.429L207.789,18.429L208.206,18.429L208.623,18.429L209.04,18.429L209.458,18.429L209.875,18.429L210.292,18.429L210.709,18.429L211.127,18.429L211.544,18.429L211.961,18.429L212.378,18.429L212.796,18.429L213.213,18.429L213.63,18.429L214.047,18.429L214.465,18.429L214.882,18.429L215.299,18.429L215.716,18.429L216.134,18.429L216.551,18.429L216.968,18.429L217.385,18.429L217.803,18.429L218.22,18.429L218.637,18.429L219.054,18.429L219.471,18.429L219.889,18.429L220.306,18.429L220.723,18.429L221.14,18.429L221.558,18.429L221.975,18.429L222.392,18.429L222.809,18.429L223.227,18.429L223.644,18.429L224.061,18.429L224.478,18.429L224.896,18.429L225.313,18.429L225.73,18.429L226.147,18.429L226.565,18.429L226.982,18.429L227.399,18.429L227.816,18.429L228.234,18.429L228.651,18.429L229.068,18.429L229.485,18.429L229.903,18.429L230.32,18.429L230.737,18.429L231.154,18.429L231.572,18.429L231.989,18.429L232.406,18.429L232.823,18.429L233.241,18.429L233.658,18.429L234.075,18.429L234.492,18.429L234.91,18.429L235.327,18.429L235.744,18.429L236.161,18.429L236.579,18.429L236.996,18.429L237.413,18.429L237.83,18.429L238.248,18.429L238.665,18.429L239.082,18.429L239.499,18.429L239.917,18.429L240.334,18.429L240.751,18.429L241.168,18.143L241.586,18.143L242.003,18.143L242.42,18.143L242.837,18.143L243.255,18.143L243.672,18.143L244.089,18.143L244.506,18.143L244.924,18.143L245.341,18.143L245.758,18.143L246.175,18.143L246.592,18.143L247.01,18.143L247.427,18.143L247.844,18.143L248.261,18.143L248.679,18.143L249.096,18.143L249.513,18.143L249.93,18.143L250.348,18.143L250.765,18.143L251.182,18.143L251.599,18.143L252.017,18.143L252.434,18.143L252.851,18.143L253.268,18.143L253.686,18.143L254.103,18.143L254.52,18.143L254.937,18.143L255.355,18.143L255.772,18.143L256.189,18.143L256.606,18.143L257.024,18.143L257.441,18.143L257.858,18.143L258.275,18.143L258.693,18.143L259.11,18.143L259.527,18.143L259.944,18.143L260.362,18.143L260.779,18.143L261.196,18.143L261.613,18.143L262.031,18.143L262.448,18.143L262.865,18.143L263.282,18.143L263.7,18.143L264.117,18.143L264.534,18.143L264.951,18.143L265.369,18.143L265.786,18.143L266.203,18.143L266.62,18.143L267.038,18.143L267.455,18.143L267.872,18.143L268.289,18.143L268.707,18.143L269.124,18.143L269.541,18.143L269.958,18.143L270.376,18.143L270.793,18.143L271.21,18.143L271.627,18.143L272.045,18.143L272.462,18.143L272.879,18.143L273.296,18.143L273.713,18.143L274.131,18.143L274.548,18.143L274.965,18.143L275.382,18.143L275.8,18.143L276.217,18.143L276.634,18.143L277.051,18.143L277.469,18.143L277.886,18.143L278.303,18.143L278.72,18.143L279.138,18.143L279.555,18.143L279.972,18.143L280.389,18.143L280.807,18.143L281.224,18.143L281.641,18.143L282.058,18.143L282.476,18.143L282.893,18.143L283.31,18.143L283.727,18.143L284.145,18.143L284.562,18.143L284.979,18.143L285.396,18.143L285.814,18.143L286.231,18.143L286.648,18.143L287.065,18.143L287.483,18.143L287.9,18.143L288.317,18.143L288.734,18.143L289.152,18.143L289.569,18.143L289.986,18.143L290.403,18.143L290.821,18.143L291.238,18.143L291.655,18.143L292.072,18.143L292.49,18.143L292.907,18.143L293.324,18.143L293.741,18.143L294.159,18.143L294.576,18.143L294.993,18.143L295.41,18.143L295.828,18.143L296.245,18.143L296.662,18.143L297.079,18.143L297.497,18.143L297.914,18.143L298.331,18.143L298.748,18.143L299.166,18.143L299.583,18.143L300,18.143" stroke="#f59c0c" stroke-width="2"/></g></g><path class="foreground" aria-hidden="true" d="" display="none"/></g></g><g class="mark-symbol role-mark layer_1_marks" role="graphics-symbol" aria-roledescription="symbol mark container"/><g class="mark-symbol role-mark layer_2_marks" role="graphics-symbol" aria-roledescription="symbol mark container"><path transform="translate(0,200)" d="M-3.873,-3.873h7.746v7.746h-7.746Z" fill="#f59c0c" stroke-width="2"/><path transform="translate(125.17385257301808,19.428571428571438)" d="M-3.873,-3.873h7.746v7.746h-7.746Z" fill="#f59c0c" stroke-width="2"/><path transform="translate(250.34770514603616,18.14285714285715)" d="M-3.873,-3.873h7.746v7.746h-7.746Z" fill="#f59c0c" stroke-width="2"/></g><g class="mark-symbol role-mark layer_3_marks" role="graphics-symbol" aria-roledescription="symbol mark container"/><g class="mark-symbol role-mark layer_4_marks" role="graphics-symbol" aria-roledescription="symbol mark container"/><g class="mark-group role-scope layer_5_pathgroup" role="graphics-object" aria-roledescription="group mark container"><g transform="translate(0,0)"><path class="background" aria-hidden="true" d="M0,0h300v200h-300Z"/><g><g class="mark-area role-mark layer_5_marks" role="graphics-symbol" aria-roledescription="area mark container"><path d="M0,200L0.417,117L0.834,88.762L1.252,74.143L1.669,65.343L2.086,59.405L2.503,55.122L2.921,51.714L3.338,48.841L3.755,46.543L4.172,44.662L4.59,43.095L5.007,41.769L5.424,40.633L5.841,39.629L6.259,38.705L6.676,37.891L7.093,37.167L7.51,36.511L7.928,35.921L8.345,35.388L8.762,27.027L9.179,26.571L9.597,26.197L10.014,25.918L10.431,25.626L10.848,25.354L11.266,25.095L11.683,24.912L12.1,24.823L12.517,24.667L12.935,24.51L13.352,24.354L13.769,24.197L14.186,24.041L14.604,23.898L15.021,23.789L15.438,23.68L15.855,23.571L16.273,23.469L16.69,23.367L17.107,23.265L17.524,23.177L17.942,23.088L18.359,23L18.776,22.912L19.193,22.844L19.611,22.776L20.028,22.707L20.445,22.639L20.862,22.571L21.28,22.571L21.697,22.571L22.114,22.571L22.531,22.571L22.949,22.544L23.366,22.517L23.783,22.49L24.2,22.463L24.618,22.435L25.035,22.408L25.452,22.381L25.869,22.354L26.287,22.327L26.704,22.299L27.121,22.272L27.538,22.245L27.955,22.218L28.373,22.19L28.79,22.163L29.207,22.136L29.624,22.109L30.042,22.082L30.459,22.054L30.876,22.027L31.293,22L31.711,22L32.128,22L32.545,22L32.962,21.993L33.38,21.986L33.797,21.98L34.214,21.973L34.631,21.966L35.049,21.959L35.466,21.952L35.883,21.946L36.3,21.939L36.718,21.918L37.135,21.898L37.552,21.878L37.969,21.844L38.387,21.81L38.804,21.776L39.221,21.741L39.638,21.707L40.056,21.673L40.473,21.639L40.89,21.605L41.307,21.571L41.725,21.544L42.142,21.517L42.559,21.49L42.976,21.463L43.394,21.435L43.811,21.408L44.228,21.381L44.645,21.354L45.063,21.327L45.48,21.313L45.897,21.293L46.314,21.272L46.732,21.265L47.149,21.259L47.566,21.252L47.983,21.245L48.401,21.238L48.818,21.231L49.235,21.224L49.652,21.218L50.07,21.211L50.487,21.204L50.904,21.197L51.321,21.19L51.739,21.184L52.156,21.177L52.573,21.17L52.99,21.163L53.408,21.156L53.825,21.15L54.242,21.143L54.659,21.143L55.076,21.136L55.494,21.129L55.911,21.122L56.328,21.116L56.745,21.109L57.163,21.102L57.58,21.095L57.997,21.088L58.414,21.082L58.832,21.075L59.249,21.068L59.666,21.061L60.083,21.054L60.501,21.048L60.918,21.041L61.335,21.034L61.752,21.027L62.17,21.02L62.587,21.014L63.004,21.007L63.421,21L63.839,21L64.256,21L64.673,21L65.09,21L65.508,21L65.925,21L66.342,21L66.759,21L67.177,21L67.594,21L68.011,21L68.428,21L68.846,21L69.263,21L69.68,21L70.097,21L70.515,21L70.932,21L71.349,21L71.766,21L72.184,21L72.601,21L73.018,21L73.435,21L73.853,21L74.27,21L74.687,21L75.104,21L75.522,21L75.939,21L76.356,20.973L76.773,20.946L77.191,20.918L77.608,20.891L78.025,20.864L78.442,20.837L78.86,20.81L79.277,20.782L79.694,20.755L80.111,20.728L80.529,20.701L80.946,20.673L81.363,20.646L81.78,20.619L82.197,20.592L82.615,20.565L83.032,20.537L83.449,20.51L83.866,20.469L84.284,20.429L84.701,20.388L85.118,20.374L85.535,20.361L85.953,20.347L86.37,20.333L86.787,20.32L87.204,20.306L87.622,20.293L88.039,20.279L88.456,20.265L88.873,20.252L89.291,20.238L89.708,20.224L90.125,20.211L90.542,20.197L90.96,20.184L91.377,20.17L91.794,20.156L92.211,20.143L92.629,20.143L93.046,20.143L93.463,20.143L93.88,20.143L94.298,20.143L94.715,20.143L95.132,20.143L95.549,20.143L95.967,20.143L96.384,20.143L96.801,20.143L97.218,20.143L97.636,20.122L98.053,20.102L98.47,20.082L98.887,20.061L99.305,20.041L99.722,20.02L100.139,20L100.556,19.98L100.974,19.959L101.391,19.939L101.808,19.918L102.225,19.898L102.643,19.878L103.06,19.85L103.477,19.823L103.894,19.796L104.312,19.769L104.729,19.741L105.146,19.707L105.563,19.673L105.981,19.639L106.398,19.626L106.815,19.612L107.232,19.599L107.65,19.585L108.067,19.571L108.484,19.558L108.901,19.544L109.318,19.531L109.736,19.517L110.153,19.503L110.57,19.49L110.987,19.476L111.405,19.463L111.822,19.456L112.239,19.449L112.656,19.442L113.074,19.435L113.491,19.429L113.908,19.429L114.325,19.429L114.743,19.429L115.16,19.429L115.577,19.429L115.994,19.429L116.412,19.429L116.829,19.429L117.246,19.429L117.663,19.429L118.081,19.429L118.498,19.429L118.915,19.429L119.332,19.429L119.75,19.429L120.167,19.429L120.584,19.429L121.001,19.429L121.419,19.429L121.836,19.429L122.253,19.429L122.67,19.429L123.088,19.429L123.505,19.429L123.922,19.429L124.339,19.429L124.757,19.429L125.174,19.429L125.591,19.429L126.008,19.429L126.426,19.429L126.843,19.429L127.26,19.429L127.677,19.429L128.095,19.395L128.512,19.361L128.929,19.327L129.346,19.293L129.764,19.259L130.181,19.224L130.598,19.19L131.015,19.156L131.433,19.122L131.85,19.088L132.267,19.054L132.684,19.02L133.102,18.986L133.519,18.952L133.936,18.918L134.353,18.884L134.771,18.85L135.188,18.816L135.605,18.782L136.022,18.748L136.439,18.714L136.857,18.714L137.274,18.701L137.691,18.687L138.108,18.673L138.526,18.66L138.943,18.646L139.36,18.633L139.777,18.619L140.195,18.605L140.612,18.592L141.029,18.578L141.446,18.565L141.864,18.551L142.281,18.537L142.698,18.524L143.115,18.51L143.533,18.497L143.95,18.483L144.367,18.469L144.784,18.456L145.202,18.442L145.619,18.429L146.036,18.429L146.453,18.429L146.871,18.429L147.288,18.429L147.705,18.429L148.122,18.429L148.54,18.429L148.957,18.429L149.374,18.429L149.791,18.429L150.209,18.429L150.626,18.429L151.043,18.429L151.46,18.429L151.878,18.429L152.295,18.429L152.712,18.429L153.129,18.429L153.547,18.429L153.964,18.429L154.381,18.429L154.798,18.429L155.216,18.429L155.633,18.429L156.05,18.429L156.467,18.429L156.885,18.429L157.302,18.429L157.719,18.429L158.136,18.429L158.554,18.429L158.971,18.429L159.388,18.429L159.805,18.429L160.223,18.429L160.64,18.429L161.057,18.429L161.474,18.429L161.892,18.429L162.309,18.429L162.726,18.429L163.143,18.429L163.561,18.429L163.978,18.429L164.395,18.429L164.812,18.429L165.229,18.429L165.647,18.429L166.064,18.429L166.481,18.429L166.898,18.429L167.316,18.429L167.733,18.429L168.15,18.429L168.567,18.429L168.985,18.429L169.402,18.429L169.819,18.429L170.236,18.429L170.654,18.429L171.071,18.429L171.488,18.429L171.905,18.429L172.323,18.429L172.74,18.429L173.157,18.429L173.574,18.429L173.992,18.429L174.409,18.429L174.826,18.429L175.243,18.429L175.661,18.429L176.078,18.429L176.495,18.429L176.912,18.429L177.33,18.429L177.747,18.429L178.164,18.429L178.581,18.429L178.999,18.429L179.416,18.429L179.833,18.429L180.25,18.429L180.668,18.429L181.085,18.429L181.502,18.429L181.919,18.429L182.337,18.429L182.754,18.429L183.171,18.429L183.588,18.429L184.006,18.429L184.423,18.429L184.84,18.429L185.257,18.429L185.675,18.429L186.092,18.429L186.509,18.429L186.926,18.429L187.344,18.429L187.761,18.429L188.178,18.429L188.595,18.429L189.013,18.429L189.43,18.429L189.847,18.429L190.264,18.429L190.682,18.429L191.099,18.429L191.516,18.429L191.933,18.429L192.35,18.429L192.768,18.429L193.185,18.429L193.602,18.429L194.019,18.429L194.437,18.429L194.854,18.429L195.271,18.429L195.688,18.429L196.106,18.429L196.523,18.429L196.94,18.429L197.357,18.429L197.775,18.429L198.192,18.429L198.609,18.429L199.026,18.429L199.444,18.429L199.861,18.429L200.278,18.429L200.695,18.429L201.113,18.429L201.53,18.429L201.947,18.429L202.364,18.429L202.782,18.429L203.199,18.429L203.616,18.429L204.033,18.429L204.451,18.429L204.868,18.429L205.285,18.429L205.702,18.429L206.12,18.429L206.537,18.429L206.954,18.429L207.371,18.429L207.789,18.429L208.206,18.429L208.623,18.429L209.04,18.429L209.458,18.429L209.875,18.429L210.292,18.429L210.709,18.429L211.127,18.429L211.544,18.429L211.961,18.429L212.378,18.429L212.796,18.429L213.213,18.429L213.63,18.429L214.047,18.429L214.465,18.429L214.882,18.429L215.299,18.429L215.716,18.429L216.134,18.429L216.551,18.429L216.968,18.429L217.385,18.429L217.803,18.429L218.22,18.429L218.637,18.429L219.054,18.429L219.471,18.429L219.889,18.429L220.306,18.429L220.723,18.429L221.14,18.429L221.558,18.429L221.975,18.429L222.392,18.429L222.809,18.429L223.227,18.429L223.644,18.429L224.061,18.429L224.478,18.429L224.896,18.429L225.313,18.429L225.73,18.429L226.147,18.429L226.565,18.429L226.982,18.429L227.399,18.429L227.816,18.429L228.234,18.429L228.651,18.429L229.068,18.429L229.485,18.429L229.903,18.429L230.32,18.429L230.737,18.429L231.154,18.429L231.572,18.429L231.989,18.429L232.406,18.429L232.823,18.429L233.241,18.429L233.658,18.429L234.075,18.429L234.492,18.429L234.91,18.429L235.327,18.429L235.744,18.429L236.161,18.429L236.579,18.429L236.996,18.429L237.413,18.429L237.83,18.429L238.248,18.429L238.665,18.429L239.082,18.429L239.499,18.429L239.917,18.429L240.334,18.429L240.751,18.429L241.168,18.415L241.586,18.401L242.003,18.388L242.42,18.374L242.837,18.361L243.255,18.347L243.672,18.333L244.089,18.32L244.506,18.306L244.924,18.293L245.341,18.279L245.758,18.265L246.175,18.252L246.592,18.238L247.01,18.224L247.427,18.211L247.844,18.197L248.261,18.184L248.679,18.17L249.096,18.156L249.513,18.143L249.93,18.143L250.348,18.143L250.765,18.143L251.182,18.143L251.599,18.143L252.017,18.143L252.434,18.143L252.851,18.143L253.268,18.143L253.686,18.143L254.103,18.143L254.52,18.143L254.937,18.143L255.355,18.143L255.772,18.143L256.189,18.143L256.606,18.143L257.024,18.143L257.441,18.143L257.858,18.143L258.275,18.143L258.693,18.143L259.11,18.143L259.527,18.143L259.944,18.143L260.362,18.143L260.779,18.143L261.196,18.143L261.613,18.143L262.031,18.143L262.448,18.143L262.865,18.143L263.282,18.143L263.7,18.143L264.117,18.143L264.534,18.143L264.951,18.143L265.369,18.143L265.786,18.143L266.203,18.143L266.62,18.143L267.038,18.143L267.455,18.143L267.872,18.143L268.289,18.143L268.707,18.143L269.124,18.143L269.541,18.143L269.958,18.143L270.376,18.143L270.793,18.143L271.21,18.143L271.627,18.143L272.045,18.143L272.462,18.143L272.879,18.143L273.296,18.143L273.713,18.143L274.131,18.143L274.548,18.143L274.965,18.143L275.382,18.143L275.8,18.143L276.217,18.143L276.634,18.143L277.051,18.143L277.469,18.143L277.886,18.143L278.303,18.143L278.72,18.143L279.138,18.143L279.555,18.143L279.972,18.143L280.389,18.143L280.807,18.143L281.224,18.143L281.641,18.143L282.058,18.143L282.476,18.143L282.893,18.143L283.31,18.143L283.727,18.143L284.145,18.143L284.562,18.143L284.979,18.143L285.396,18.143L285.814,18.143L286.231,18.143L286.648,18.143L287.065,18.143L287.483,18.143L287.9,18.143L288.317,18.143L288.734,18.143L289.152,18.143L289.569,18.143L289.986,18.143L290.403,18.143L290.821,18.143L291.238,18.143L291.655,18.143L292.072,18.143L292.49,18.143L292.907,18.143L293.324,18.143L293.741,18.143L294.159,18.143L294.576,18.143L294.993,18.143L295.41,18.143L295.828,18.143L296.245,18.143L296.662,18.143L297.079,18.143L297.497,18.143L297.914,18.143L298.331,18.143L298.748,18.143L299.166,18.143L299.583,18.143L300,18.143L300,18.143L299.583,18.143L299.166,18.143L298.748,18.143L298.331,18.143L297.914,18.143L297.497,18.143L297.079,18.143L296.662,18.143L296.245,18.143L295.828,18.143L295.41,18.143L294.993,18.143L294.576,18.143L294.159,18.143L293.741,18.143L293.324,18.143L292.907,18.143L292.49,18.143L292.072,18.143L291.655,18.143L291.238,18.143L290.821,18.143L290.403,18.143L289.986,18.143L289.569,18.143L289.152,18.143L288.734,18.143L288.317,18.143L287.9,18.143L287.483,18.143L287.065,18.143L286.648,18.143L286.231,18.143L285.814,18.143L285.396,18.143L284.979,18.143L284.562,18.143L284.145,18.143L283.727,18.143L283.31,18.143L282.893,18.143L282.476,18.143L282.058,18.143L281.641,18.143L281.224,18.143L280.807,18.143L280.389,18.143L279.972,18.143L279.555,18.143L279.138,18.143L278.72,18.143L278.303,18.143L277.886,18.143L277.469,18.143L277.051,18.143L276.634,18.143L276.217,18.143L275.8,18.143L275.382,18.143L274.965,18.143L274.548,18.143L274.131,18.143L273.713,18.143L273.296,18.143L272.879,18.143L272.462,18.143L272.045,18.143L271.627,18.143L271.21,18.143L270.793,18.143L270.376,18.143L269.958,18.143L269.541,18.143L269.124,18.143L268.707,18.143L268.289,18.143L267.872,18.143L267.455,18.143L267.038,18.143L266.62,18.143L266.203,18.143L265.786,18.143L265.369,18.143L264.951,18.143L264.534,18.143L264.117,18.143L263.7,18.143L263.282,18.143L262.865,18.143L262.448,18.143L262.031,18.143L261.613,18.143L261.196,18.143L260.779,18.143L260.362,18.143L259.944,18.143L259.527,18.143L259.11,18.143L258.693,18.143L258.275,18.143L257.858,18.143L257.441,18.143L257.024,18.143L256.606,18.143L256.189,18.143L255.772,18.143L255.355,18.143L254.937,18.143L254.52,18.143L254.103,18.143L253.686,18.143L253.268,18.143L252.851,18.143L252.434,18.143L252.017,18.143L251.599,18.143L251.182,18.143L250.765,18.143L250.348,18.143L249.93,18.143L249.513,18.143L249.096,18.156L248.679,18.17L248.261,18.184L247.844,18.197L247.427,18.211L247.01,18.224L246.592,18.238L246.175,18.252L245.758,18.265L245.341,18.279L244.924,18.293L244.506,18.306L244.089,18.32L243.672,18.333L243.255,18.347L242.837,18.361L242.42,18.374L242.003,18.388L241.586,18.401L241.168,18.415L240.751,18.429L240.334,18.429L239.917,18.429L239.499,18.429L239.082,18.429L238.665,18.429L238.248,18.429L237.83,18.429L237.413,18.429L236.996,18.429L236.579,18.429L236.161,18.429L235.744,18.429L235.327,18.429L234.91,18.429L234.492,18.429L234.075,18.429L233.658,18.429L233.241,18.429L232.823,18.429L232.406,18.429L231.989,18.429L231.572,18.429L231.154,18.429L230.737,18.429L230.32,18.429L229.903,18.429L229.485,18.429L229.068,18.429L228.651,18.429L228.234,18.429L227.816,18.429L227.399,18.429L226.982,18.429L226.565,18.429L226.147,18.429L225.73,18.429L225.313,18.429L224.896,18.429L224.478,18.429L224.061,18.429L223.644,18.429L223.227,18.429L222.809,18.429L222.392,18.429L221.975,18.429L221.558,18.429L221.14,18.429L220.723,18.429L220.306,18.429L219.889,18.429L219.471,18.429L219.054,18.429L218.637,18.429L218.22,18.429L217.803,18.429L217.385,18.429L216.968,18.429L216.551,18.429L216.134,18.429L215.716,18.429L215.299,18.429L214.882,18.429L214.465,18.429L214.047,18.429L213.63,18.429L213.213,18.429L212.796,18.429L212.378,18.429L211.961,18.429L211.544,18.429L211.127,18.429L210.709,18.429L210.292,18.429L209.875,18.429L209.458,18.429L209.04,18.429L208.623,18.429L208.206,18.429L207.789,18.429L207.371,18.429L206.954,18.429L206.537,18.429L206.12,18.429L205.702,18.429L205.285,18.429L204.868,18.429L204.451,18.429L204.033,18.429L203.616,18.429L203.199,18.429L202.782,18.429L202.364,18.429L201.947,18.429L201.53,18.429L201.113,18.429L200.695,18.429L200.278,18.429L199.861,18.429L199.444,18.429L199.026,18.429L198.609,18.429L198.192,18.429L197.775,18.429L197.357,18.429L196.94,18.429L196.523,18.429L196.106,18.429L195.688,18.429L195.271,18.429L194.854,18.429L194.437,18.429L194.019,18.429L193.602,18.429L193.185,18.429L192.768,18.429L192.35,18.429L191.933,18.429L191.516,18.429L191.099,18.429L190.682,18.429L190.264,18.429L189.847,18.429L189.43,18.429L189.013,18.429L188.595,18.429L188.178,18.429L187.761,18.429L187.344,18.429L186.926,18.429L186.509,18.429L186.092,18.429L185.675,18.429L185.257,18.429L184.84,18.429L184.423,18.429L184.006,18.429L183.588,18.429L183.171,18.429L182.754,18.429L182.337,18.429L181.919,18.429L181.502,18.429L181.085,18.429L180.668,18.429L180.25,18.429L179.833,18.429L179.416,18.429L178.999,18.429L178.581,18.429L178.164,18.429L177.747,18.429L177.33,18.429L176.912,18.429L176.495,18.429L176.078,18.429L175.661,18.429L175.243,18.429L174.826,18.429L174.409,18.429L173.992,18.429L173.574,18.429L173.157,18.429L172.74,18.429L172.323,18.429L171.905,18.429L171.488,18.429L171.071,18.429L170.654,18.429L170.236,18.429L169.819,18.429L169.402,18.429L168.985,18.429L168.567,18.429L168.15,18.429L167.733,18.429L167.316,18.429L166.898,18.429L166.481,18.429L166.064,18.429L165.647,18.429L165.229,18.429L164.812,18.429L164.395,18.429L163.978,18.429L163.561,18.429L163.143,18.429L162.726,18.429L162.309,18.429L161.892,18.429L161.474,18.429L161.057,18.429L160.64,18.429L160.223,18.429L159.805,18.429L159.388,18.429L158.971,18.429L158.554,18.429L158.136,18.429L157.719,18.429L157.302,18.429L156.885,18.429L156.467,18.429L156.05,18.429L155.633,18.429L155.216,18.429L154.798,18.429L154.381,18.429L153.964,18.429L153.547,18.429L153.129,18.429L152.712,18.429L152.295,18.429L151.878,18.429L151.46,18.429L151.043,18.429L150.626,18.429L150.209,18.429L149.791,18.429L149.374,18.429L148.957,18.429L148.54,18.429L148.122,18.429L147.705,18.429L147.288,18.429L146.871,18.429L146.453,18.429L146.036,18.429L145.619,18.429L145.202,18.442L144.784,18.456L144.367,18.469L143.95,18.483L143.533,18.497L143.115,18.51L142.698,18.524L142.281,18.537L141.864,18.551L141.446,18.565L141.029,18.578L140.612,18.592L140.195,18.605L139.777,18.619L139.36,18.633L138.943,18.646L138.526,18.66L138.108,18.673L137.691,18.687L137.274,18.701L136.857,18.714L136.439,18.714L136.022,18.748L135.605,18.782L135.188,18.816L134.771,18.85L134.353,18.884L133.936,18.918L133.519,18.952L133.102,18.986L132.684,19.02L132.267,19.054L131.85,19.088L131.433,19.122L131.015,19.156L130.598,19.19L130.181,19.224L129.764,19.259L129.346,19.293L128.929,19.327L128.512,19.361L128.095,19.395L127.677,19.429L127.26,19.429L126.843,19.429L126.426,19.429L126.008,19.429L125.591,19.429L125.174,19.429L124.757,19.429L124.339,19.429L123.922,19.429L123.505,19.429L123.088,19.429L122.67,19.429L122.253,19.429L121.836,19.429L121.419,19.429L121.001,19.429L120.584,19.429L120.167,19.429L119.75,19.429L119.332,19.429L118.915,19.429L118.498,19.429L118.081,19.429L117.663,19.429L117.246,19.429L116.829,19.429L116.412,19.429L115.994,19.429L115.577,19.429L115.16,19.429L114.743,19.429L114.325,19.429L113.908,19.429L113.491,19.429L113.074,19.435L112.656,19.442L112.239,19.449L111.822,19.456L111.405,19.463L110.987,19.476L110.57,19.49L110.153,19.503L109.736,19.517L109.318,19.531L108.901,19.544L108.484,19.558L108.067,19.571L107.65,19.585L107.232,19.599L106.815,19.612L106.398,19.626L105.981,19.639L105.563,19.673L105.146,19.707L104.729,19.741L104.312,19.769L103.894,19.796L103.477,19.823L103.06,19.85L102.643,19.878L102.225,19.898L101.808,19.918L101.391,19.939L100.974,19.959L100.556,19.98L100.139,20L99.722,20.02L99.305,20.041L98.887,20.061L98.47,20.082L98.053,20.102L97.636,20.122L97.218,20.143L96.801,20.143L96.384,20.143L95.967,20.143L95.549,20.143L95.132,20.143L94.715,20.143L94.298,20.143L93.88,20.143L93.463,20.143L93.046,20.143L92.629,20.143L92.211,20.143L91.794,20.156L91.377,20.17L90.96,20.184L90.542,20.197L90.125,20.211L89.708,20.224L89.291,20.238L88.873,20.252L88.456,20.265L88.039,20.279L87.622,20.293L87.204,20.306L86.787,20.32L86.37,20.333L85.953,20.347L85.535,20.361L85.118,20.374L84.701,20.388L84.284,20.429L83.866,20.469L83.449,20.51L83.032,20.537L82.615,20.565L82.197,20.592L81.78,20.619L81.363,20.646L80.946,20.673L80.529,20.701L80.111,20.728L79.694,20.755L79.277,20.782L78.86,20.81L78.442,20.837L78.025,20.864L77.608,20.891L77.191,20.918L76.773,20.946L76.356,20.973L75.939,21L75.522,21L75.104,21L74.687,21L74.27,21L73.853,21L73.435,21L73.018,21L72.601,21L72.184,21L71.766,21L71.349,21L70.932,21L70.515,21L70.097,21L69.68,21L69.263,21L68.846,21L68.428,21L68.011,21L67.594,21L67.177,21L66.759,21L66.342,21L65.925,21L65.508,21L65.09,21L64.673,21L64.256,21L63.839,21L63.421,21L63.004,21.007L62.587,21.014L62.17,21.02L61.752,21.027L61.335,21.034L60.918,21.041L60.501,21.048L60.083,21.054L59.666,21.061L59.249,21.068L58.832,21.075L58.414,21.082L57.997,21.088L57.58,21.095L57.163,21.102L56.745,21.109L56.328,21.116L55.911,21.122L55.494,21.129L55.076,21.136L54.659,21.143L54.242,21.143L53.825,21.15L53.408,21.156L52.99,21.163L52.573,21.17L52.156,21.177L51.739,21.184L51.321,21.19L50.904,21.197L50.487,21.204L50.07,21.211L49.652,21.218L49.235,21.224L48.818,21.231L48.401,21.238L47.983,21.245L47.566,21.252L47.149,21.259L46.732,21.265L46.314,21.272L45.897,21.293L45.48,21.313L45.063,21.327L44.645,21.354L44.228,21.381L43.811,21.408L43.394,21.435L42.976,21.463L42.559,21.49L42.142,21.517L41.725,21.544L41.307,21.571L40.89,21.605L40.473,21.639L40.056,21.673L39.638,21.707L39.221,21.741L38.804,21.776L38.387,21.81L37.969,21.844L37.552,21.878L37.135,21.898L36.718,21.918L36.3,21.939L35.883,21.946L35.466,21.952L35.049,21.959L34.631,21.966L34.214,21.973L33.797,21.98L33.38,21.986L32.962,21.993L32.545,22L32.128,22L31.711,22L31.293,22L30.876,22.027L30.459,22.054L30.042,22.082L29.624,22.109L29.207,22.136L28.79,22.163L28.373,22.19L27.955,22.218L27.538,22.245L27.121,22.272L26.704,22.299L26.287,22.327L25.869,22.354L25.452,22.381L25.035,22.408L24.618,22.435L24.2,22.463L23.783,22.49L23.366,22.517L22.949,22.544L22.531,22.571L22.114,22.571L21.697,22.571L21.28,22.571L20.862,22.571L20.445,22.639L20.028,22.707L19.611,22.776L19.193,22.844L18.776,22.912L18.359,23L17.942,23.088L17.524,23.177L17.107,23.265L16.69,23.367L16.273,23.469L15.855,23.571L15.438,23.68L15.021,23.789L14.604,23.898L14.186,24.041L13.769,24.197L13.352,24.354L12.935,24.51L12.517,24.667L12.1,24.823L11.683,24.912L11.266,25.095L10.848,25.354L10.431,25.626L10.014,25.918L9.597,26.197L9.179,26.571L8.762,27.027L8.345,35.388L7.928,35.921L7.51,36.511L7.093,37.167L6.676,37.891L6.259,38.705L5.841,39.629L5.424,40.633L5.007,41.769L4.59,43.095L4.172,44.662L3.755,46.543L3.338,48.841L2.921,51.714L2.503,55.122L2.086,59.405L1.669,65.343L1.252,74.143L0.834,88.762L0.417,117L0,200Z" fill="#f59c0c" opacity="0.2"/></g></g><path class="foreground" aria-hidden="true" d="" display="none"/></g></g><g class="mark-group role-legend" role="graphics-symbol" aria-roledescription="legend" aria-label="Symbol legend titled 'Fuzzer' for shape, fill color and stroke color with 4 values: ft, aflnet, stateafl, sgfuzz"><g transform="translate(0,-47)"><path class="background" aria-hidden="true" d="M0,0h190v29h-190Z" pointer-events="none"/><g><g class="mark-group role-legend-entry"><g transform="translate(0,16)"><path class="background" aria-hidden="true" d="M0,0h0v0h0Z" pointer-events="none"/><g><g class="mark-group role-scope" role="graphics-object" aria-roledescription="group mark container"><g transform="translate(0,0.25)"><path class="background" aria-hidden="true" d="M0,0h21.556640625v12.5h-21.556640625Z" pointer-events="none" opacity="1"/><g><g class="mark-symbol role-legend-symbol" pointer-events="none"><path transform="translate(6,6)" d="M5,0A5,5,0,1,1,-5,0A5,5,0,1,1,5,0" fill="#d66368" fill-opacity="1" stroke="#d66368" stroke-width="1.5" opacity="1"/></g><g class="mark-text role-legend-label" pointer-events="none"><text text-anchor="start" transform="translate(16,9)" font-family="sans-serif" font-size="10px" fill="#000" opacity="1">ft</text></g></g><path class="foreground" aria-hidden="true" d="" pointer-events="none" display="none"/></g><g transform="translate(33,0.25)"><path class="background" aria-hidden="true" d="M0,0h40.462890625v12.5h-40.462890625Z" pointer-events="none" opacity="1"/><g><g class="mark-symbol role-legend-symbol" pointer-events="none"><path transform="translate(6,6)" d="M-5,-5h10v10h-10Z" fill="#f59c0c" fill-opacity="1" stroke="#f59c0c" stroke-width="1.5" opacity="1"/></g><g class="mark-text role-legend-label" pointer-events="none"><text text-anchor="start" transform="translate(16,9)" font-family="sans-serif" font-size="10px" fill="#000" opacity="1">aflnet</text></g></g><path class="foreground" aria-hidden="true" d="" pointer-events="none" display="none"/></g><g transform="translate(85,0.5849364905389036)"><path class="background" aria-hidden="true" d="M0,0h48.2412109375v11.830127018922191h-48.2412109375Z" pointer-events="none" opacity="1"/><g><g class="mark-symbol role-legend-symbol" pointer-events="none"><path transform="translate(6,6)" d="M0,-4.33L-5,4.33L5,4.33Z" fill="#109426" fill-opacity="1" stroke="#109426" stroke-width="1.5" opacity="1"/></g><g class="mark-text role-legend-label" pointer-events="none"><text text-anchor="start" transform="translate(16,9)" font-family="sans-serif" font-size="10px" fill="#000" opacity="1">stateafl</text></g></g><path class="foreground" aria-hidden="true" d="" pointer-events="none" display="none"/></g><g transform="translate(145,0.25)"><path class="background" aria-hidden="true" d="M0,0h44.9013671875v12.5h-44.9013671875Z" pointer-events="none" opacity="1"/><g><g class="mark-symbol role-legend-symbol" pointer-events="none"><path transform="translate(6,6)" d="M-5,-2L-5,2L-2,2L-2,5L2,5L2,2L5,2L5,-2L2,-2L2,-5L-2,-5L-2,-2Z" fill="#808b88" fill-opacity="1" stroke="#808b88" stroke-width="1.5" opacity="1"/></g><g class="mark-text role-legend-label" pointer-events="none"><text text-anchor="start" transform="translate(16,9)" font-family="sans-serif" font-size="10px" fill="#000" opacity="1">sgfuzz</text></g></g><path class="foreground" aria-hidden="true" d="" pointer-events="none" display="none"/></g></g></g><path class="foreground" aria-hidden="true" d="" pointer-events="none" display="none"/></g></g><g class="mark-text role-legend-title" pointer-events="none"><text text-anchor="start" transform="translate(0,9)" font-family="sans-serif" font-size="11px" font-weight="bold" fill="#000" opacity="1">Fuzzer</text></g></g><path class="foreground" aria-hidden="true" d="" pointer-events="none" display="none"/></g></g><g class="mark-group role-title"><g transform="translate(150,-64)"><path class="background" aria-hidden="true" d="M0,0h0v0h0Z" pointer-events="none"/><g><g class="mark-text role-title-text" role="graphics-symbol" aria-roledescription="title" aria-label="Title text 'target:artifact_live555_client_server_1,cores:4,timeout:43200s'" pointer-events="none"><text text-anchor="middle" transform="translate(0,10)" font-family="sans-serif" font-size="13px" font-weight="bold" fill="#000" opacity="1">target:artifact_live555_client_server_1,cores:4,timeout:43200s</text></g></g><path class="foreground" aria-hidden="true" d="" pointer-events="none" display="none"/></g></g></g><path class="foreground" aria-hidden="true" d="" display="none"/></g></g></g></svg>