<svg xmlns="http://www.w3.org/2000/svg" xmlns:xlink="http://www.w3.org/1999/xlink" version="1.1" class="marks" width="394" height="306" viewBox="0 0 394 306"><rect width="394" height="306" fill="white"/><g fill="none" stroke-miterlimit="10" transform="translate(53,69)"><g class="mark-group role-frame root" role="graphics-object" aria-roledescription="group mark container"><g transform="translate(0,0)"><path class="background" aria-hidden="true" d="M0.5,0.5h300v200h-300Z" stroke="#ddd"/><g><g class="mark-group role-axis" aria-hidden="true"><g transform="translate(0.5,200.5)"><path class="background" aria-hidden="true" d="M0,0h0v0h0Z" pointer-events="none"/><g><g class="mark-rule role-axis-grid" pointer-events="none"><line transform="translate(0,-200)" x2="0" y2="200" stroke="#ddd" stroke-width="1" opacity="1"/><line transform="translate(25,-200)" x2="0" y2="200" stroke="#ddd" stroke-width="1" opacity="1"/><line transform="translate(50,-200)" x2="0" y2="200" stroke="#ddd" stroke-width="1" opacity="1"/><line transform="translate(75,-200)" x2="0" y2="200" stroke="#ddd" stroke-width="1" opacity="1"/><line transform="translate(100,-200)" x2="0" y2="200" stroke="#ddd" stroke-width="1" opacity="1"/><line transform="translate(125,-200)" x2="0" y2="200" stroke="#ddd" stroke-width="1" opacity="1"/><line transform="translate(150,-200)" x2="0" y2="200" stroke="#ddd" stroke-width="1" opacity="1"/><line transform="translate(175,-200)" x2="0" y2="200" stroke="#ddd" stroke-width="1" opacity="1"/><line transform="translate(200,-200)" x2="0" y2="200" stroke="#ddd" stroke-width="1" opacity="1"/><line transform="translate(225,-200)" x2="0" y2="200" stroke="#ddd" stroke-width="1" opacity="1"/><line transform="translate(250,-200)" x2="0" y2="200" stroke="#ddd" stroke-width="1" opacity="1"/><line transform="translate(275,-200)" x2="0" y2="200" stroke="#ddd" stroke-width="1" opacity="1"/></g></g><path class="foreground" aria-hidden="true" d="" pointer-events="none" display="none"/></g></g><g class="mark-group role-axis" aria-hidden="true"><g transform="translate(0.5,0.5)"><path class="background" aria-hidden="true" d="M0,0h0v0h0Z" pointer-events="none"/><g><g class="mark-rule role-axis-grid" pointer-events="none"><line transform="translate(0,200)" x2="300" y2="0" stroke="#ddd" stroke-width="1" opacity="1"/><line transform="translate(0,150)" x2="300" y2="0" stroke="#ddd" stroke-width="1" opacity="1"/><line transform="translate(0,100)" x2="300" y2="0" stroke="#ddd" stroke-width="1" opacity="1"/><line transform="translate(0,50)" x2="300" y2="0" stroke="#ddd" stroke-width="1" opacity="1"/><line transform="translate(0,0)" x2="300" y2="0" stroke="#ddd" stroke-width="1" opacity="1"/></g></g><path class="foreground" aria-hidden="true" d="" pointer-events="none" display="none"/></g></g><g class="mark-group role-axis" role="graphics-symbol" aria-roledescription="axis" aria-label="X-axis titled 'Time [hh:mm]' for a time scale with values from 00:00 to 11:59"><g transform="translate(0.5,200.5)"><path class="background" aria-hidden="true" d="M0,0h0v0h0Z" pointer-events="none"/><g><g class="mark-rule role-axis-tick" pointer-events="none"><line transform="translate(0,0)" x2="0" y2="5" stroke="#888" stroke-width="1" opacity="1"/><line transform="translate(25,0)" x2="0" y2="5" stroke="#888" stroke-width="1" opacity="1"/><line transform="translate(50,0)" x2="0" y2="5" stroke="#888" stroke-width="1" opacity="1"/><line transform="translate(75,0)" x2="0" y2="5" stroke="#888" stroke-width="1" opacity="1"/><line transform="translate(100,0)" x2="0" y2="5" stroke="#888" stroke-width="1" opacity="1"/><line transform="translate(125,0)" x2="0" y2="5" stroke="#888" stroke-width="1" opacity="1"/><line transform="translate(150,0)" x2="0" y2="5" stroke="#888" stroke-width="1" opacity="1"/><line transform="translate(175,0)" x2="0" y2="5" stroke="#888" stroke-width="1" opacity="1"/><line transform="translate(200,0)" x2="0" y2="5" stroke="#888" stroke-width="1" opacity="1"/><line transform="translate(225,0)" x2="0" y2="5" stroke="#888" stroke-width="1" opacity="1"/><line transform="translate(250,0)" x2="0" y2="5" stroke="#888" stroke-width="1" opacity="1"/><line transform="translate(275,0)" x2="0" y2="5" stroke="#888" stroke-width="1" opacity="1"/></g><g class="mark-text role-axis-label" pointer-events="none"><text text-anchor="start" transform="translate(0,15)" font-family="sans-serif" font-size="10px" fill="#000" opacity="1">00:00</text><text text-anchor="middle" transform="translate(25.03477051460362,15)" font-family="sans-serif" font-size="10px" fill="#000" opacity="0">01:00</text><text text-anchor="middle" transform="translate(50.06954102920724,15)" font-family="sans-serif" font-size="10px" fill="#000" opacity="1">02:00</text><text text-anchor="middle" transform="translate(75.10431154381085,15)" font-family="sans-serif" font-size="10px" fill="#000" opacity="0">03:00</text><text text-anchor="middle" transform="translate(100.13908205841447,15)" font-family="sans-serif" font-size="10px" fill="#000" opacity="1">04:00</text><text text-anchor="middle" transform="translate(125.17385257301808,15)" font-family="sans-serif" font-size="10px" fill="#000" opacity="0">05:00</text><text text-anchor="middle" transform="translate(150.2086230876217,15)" font-family="sans-serif" font-size="10px" fill="#000" opacity="1">06:00</text><text text-anchor="middle" transform="translate(175.24339360222532,15)" font-family="sans-serif" font-size="10px" fill="#000" opacity="0">07:00</text><text text-anchor="middle" transform="translate(200.27816411682895,15)" font-family="sans-serif" font-size="10px" fill="#000" opacity="1">08:00</text><text text-anchor="middle" transform="translate(225.31293463143257,15)" font-family="sans-serif" font-size="10px" fill="#000" opacity="0">09:00</text><text text-anchor="middle" transform="translate(250.34770514603616,15)" font-family="sans-serif" font-size="10px" fill="#000" opacity="1">10:00</text><text text-anchor="middle" transform="translate(275.3824756606398,15)" font-family="sans-serif" font-size="10px" fill="#000" opacity="0">11:00</text></g><g class="mark-rule role-axis-domain" pointer-events="none"><line transform="translate(0,0)" x2="300" y2="0" stroke="#888" stroke-width="1" opacity="1"/></g><g class="mark-text role-axis-title" pointer-events="none"><text text-anchor="middle" transform="translate(150,30)" font-family="sans-serif" font-size="11px" font-weight="bold" fill="#000" opacity="1">Time [hh:mm]</text></g></g><path class="foreground" aria-hidden="true" d="" pointer-events="none" display="none"/></g></g><g class="mark-group role-axis" role="graphics-symbol" aria-roledescription="axis" aria-label="Y-axis titled '#Covered Branches' for a linear scale with values from 0 to 4,000"><g transform="translate(0.5,0.5)"><path class="background" aria-hidden="true" d="M0,0h0v0h0Z" pointer-events="none"/><g><g class="mark-rule role-axis-tick" pointer-events="none"><line transform="translate(0,200)" x2="-5" y2="0" stroke="#888" stroke-width="1" opacity="1"/><line transform="translate(0,150)" x2="-5" y2="0" stroke="#888" stroke-width="1" opacity="1"/><line transform="translate(0,100)" x2="-5" y2="0" stroke="#888" stroke-width="1" opacity="1"/><line transform="translate(0,50)" x2="-5" y2="0" stroke="#888" stroke-width="1" opacity="1"/><line transform="translate(0,0)" x2="-5" y2="0" stroke="#888" stroke-width="1" opacity="1"/></g><g class="mark-text role-axis-label" pointer-events="none"><text text-anchor="end" transform="translate(-7,203)" font-family="sans-serif" font-size="10px" fill="#000" opacity="1">0</text><text text-anchor="end" transform="translate(-7,153)" font-family="sans-serif" font-size="10px" fill="#000" opacity="1">1,000</text><text text-anchor="end" transform="translate(-7,103)" font-family="sans-serif" font-size="10px" fill="#000" opacity="1">2,000</text><text text-anchor="end" transform="translate(-7,53)" font-family="sans-serif" font-size="10px" fill="#000" opacity="1">3,000</text><text text-anchor="end" transform="translate(-7,3)" font-family="sans-serif" font-size="10px" fill="#000" opacity="1">4,000</text></g><g class="mark-rule role-axis-domain" pointer-events="none"><line transform="translate(0,200)" x2="0" y2="-200" stroke="#888" stroke-width="1" opacity="1"/></g><g class="mark-text role-axis-title" pointer-events="none"><text text-anchor="middle" transform="translate(-36.0244140625,100) rotate(-90) translate(0,-2)" font-family="sans-serif" font-size="11px" font-weight="bold" fill="#000" opacity="1">#Covered Branches</text></g></g><path class="foreground" aria-hidden="true" d="" pointer-events="none" display="none"/></g></g><g class="mark-group role-scope layer_0_pathgroup" role="graphics-object" aria-roledescription="group mark container"><g transform="translate(0,0)"><path class="background" aria-hidden="true" d="M0,0h300v200h-300Z"/><g><g class="mark-line role-mark layer_0_marks" role="graphics-symbol" aria-roledescription="line mark container"><path d="M0,200L0.417,71.8L0.834,71.55L1.252,70.75L1.669,70.6L2.086,70.05L2.503,69.8L2.921,69.35L3.338,68.35L3.755,67.95L4.172,66.65L4.59,66.3L5.007,66.25L5.424,66.25L5.841,66.15L6.259,66.15L6.676,66.15L7.093,66.15L7.51,66.15L7.928,66.15L8.345,65.9L8.762,40.75L9.179,40.75L9.597,40.75L10.014,40.75L10.431,40.65L10.848,40.65L11.266,40.65L11.683,39.4L12.1,39.4L12.517,39.3L12.935,39.15L13.352,39.1L13.769,39.05L14.186,39L14.604,38.15L15.021,38.1L15.438,38.1L15.855,38.05L16.273,37.75L16.69,37.65L17.107,37.65L17.524,37.65L17.942,37.65L18.359,37.65L18.776,37.65L19.193,37.65L19.611,37.6L20.028,37.6L20.445,37.6L20.862,37.6L21.28,37.6L21.697,37.6L22.114,37.6L22.531,37.6L22.949,37.6L23.366,37.6L23.783,37.6L24.2,37.6L24.618,37.6L25.035,37.6L25.452,37.6L25.869,37.6L26.287,37.6L26.704,37.6L27.121,37.6L27.538,37.55L27.955,37.55L28.373,37.55L28.79,37.55L29.207,37.55L29.624,37.55L30.042,37.55L30.459,37.55L30.876,37.55L31.293,37.55L31.711,37.55L32.128,37.55L32.545,37.55L32.962,37.55L33.38,37.55L33.797,37.55L34.214,37.55L34.631,37.55L35.049,37.1L35.466,36.9L35.883,36.9L36.3,36.9L36.718,36.9L37.135,36.9L37.552,36.9L37.969,36.9L38.387,36.9L38.804,36.9L39.221,36.9L39.638,36.9L40.056,36.9L40.473,36.9L40.89,36.9L41.307,36.9L41.725,36.9L42.142,36.9L42.559,36.9L42.976,36.9L43.394,36.9L43.811,36.9L44.228,36.55L44.645,36.55L45.063,36.55L45.48,36.55L45.897,36.55L46.314,36.55L46.732,36.55L47.149,36.55L47.566,36.55L47.983,36.55L48.401,36.55L48.818,36.55L49.235,36.55L49.652,36.55L50.07,36.55L50.487,36.55L50.904,36.55L51.321,36.55L51.739,36.55L52.156,36.35L52.573,36.35L52.99,36.35L53.408,36.35L53.825,36.35L54.242,36.35L54.659,36.35L55.076,36.35L55.494,36.3L55.911,36.3L56.328,36.3L56.745,36.3L57.163,36.3L57.58,36.3L57.997,36.3L58.414,36.3L58.832,36.3L59.249,36.3L59.666,36.3L60.083,36.3L60.501,36.3L60.918,36.3L61.335,34.4L61.752,34.4L62.17,34.4L62.587,34.4L63.004,34.4L63.421,34.4L63.839,34.35L64.256,34.35L64.673,34.35L65.09,34.35L65.508,34.35L65.925,34.35L66.342,34.35L66.759,34.25L67.177,34.25L67.594,34.25L68.011,34.25L68.428,34.25L68.846,34.25L69.263,34.25L69.68,34.25L70.097,34.25L70.515,34.2L70.932,34.2L71.349,34.2L71.766,34.2L72.184,34.2L72.601,34.2L73.018,34.2L73.435,34.2L73.853,34.2L74.27,34.2L74.687,34.2L75.104,34.2L75.522,34.2L75.939,34.2L76.356,34.2L76.773,34.2L77.191,34.2L77.608,34.2L78.025,34.2L78.442,34.2L78.86,34.2L79.277,34.2L79.694,34.2L80.111,34.2L80.529,34.2L80.946,34.2L81.363,34.2L81.78,34.2L82.197,34.2L82.615,34.2L83.032,34.2L83.449,34.2L83.866,34.2L84.284,34.2L84.701,34.2L85.118,34.2L85.535,34.2L85.953,34.2L86.37,34.2L86.787,34.2L87.204,34.2L87.622,34.2L88.039,34.2L88.456,34.2L88.873,34.15L89.291,34.15L89.708,34.15L90.125,34.15L90.542,34.15L90.96,34.15L91.377,34.15L91.794,34.15L92.211,34.1L92.629,34.1L93.046,34.1L93.463,34.1L93.88,34.1L94.298,34.1L94.715,34.1L95.132,34.1L95.549,34.1L95.967,34.1L96.384,33.95L96.801,33.95L97.218,33.9L97.636,33.9L98.053,33.9L98.47,33.9L98.887,33.9L99.305,33.9L99.722,33.9L100.139,33.9L100.556,33.9L100.974,33.9L101.391,33.9L101.808,33.9L102.225,33.9L102.643,33.9L103.06,33.9L103.477,33.9L103.894,33.75L104.312,33.75L104.729,33.75L105.146,33.75L105.563,33.7L105.981,33.7L106.398,33.7L106.815,33.7L107.232,33.7L107.65,33.7L108.067,33.7L108.484,33.7L108.901,33.7L109.318,33.7L109.736,33.7L110.153,33.7L110.57,33.7L110.987,33.7L111.405,33.7L111.822,33.7L112.239,33.7L112.656,33.7L113.074,33.7L113.491,33.7L113.908,33.7L114.325,33.7L114.743,33.7L115.16,33.7L115.577,33.7L115.994,33.7L116.412,33.7L116.829,33.7L117.246,33.7L117.663,33.7L118.081,33.7L118.498,33.7L118.915,33.7L119.332,33.7L119.75,33.7L120.167,33.7L120.584,33.7L121.001,33.7L121.419,33.7L121.836,33.7L122.253,33.7L122.67,33.7L123.088,33.7L123.505,33.7L123.922,33.7L124.339,33.7L124.757,33.7L125.174,33.3L125.591,33.3L126.008,33.25L126.426,33.25L126.843,33.25L127.26,33.25L127.677,33.25L128.095,33.25L128.512,33.25L128.929,33.25L129.346,33.25L129.764,33.25L130.181,33.25L130.598,33.25L131.015,33.25L131.433,33.25L131.85,33.25L132.267,33.25L132.684,33.25L133.102,33.25L133.519,33.25L133.936,33.25L134.353,33.25L134.771,33.25L135.188,33.25L135.605,33.25L136.022,33.25L136.439,33.25L136.857,33.25L137.274,33.25L137.691,33.25L138.108,33.25L138.526,33.25L138.943,33.25L139.36,33.25L139.777,33.25L140.195,33.25L140.612,33.25L141.029,33.1L141.446,33L141.864,33L142.281,33L142.698,33L143.115,33L143.533,33L143.95,33L144.367,33L144.784,33L145.202,33L145.619,33L146.036,33L146.453,33L146.871,33L147.288,33L147.705,33L148.122,33L148.54,33L148.957,33L149.374,33L149.791,33L150.209,33L150.626,33L151.043,33L151.46,33L151.878,33L152.295,33L152.712,33L153.129,33L153.547,33L153.964,33L154.381,33L154.798,33L155.216,33L155.633,33L156.05,33L156.467,33L156.885,33L157.302,33L157.719,33L158.136,33L158.554,33L158.971,33L159.388,33L159.805,33L160.223,33L160.64,33L161.057,33L161.474,33L161.892,32.9L162.309,32.9L162.726,32.9L163.143,32.9L163.561,32.9L163.978,32.9L164.395,32.9L164.812,32.9L165.229,32.9L165.647,32.9L166.064,32.9L166.481,32.9L166.898,32.9L167.316,32.9L167.733,32.9L168.15,32.9L168.567,32.9L168.985,32.9L169.402,32.9L169.819,32.9L170.236,32.9L170.654,32.9L171.071,32.9L171.488,32.9L171.905,32.9L172.323,32.9L172.74,32.9L173.157,32.8L173.574,32.8L173.992,32.8L174.409,32.8L174.826,32.8L175.243,32.8L175.661,32.8L176.078,32.8L176.495,32.8L176.912,32.8L177.33,32.8L177.747,32.8L178.164,32.8L178.581,32.8L178.999,32.8L179.416,32.8L179.833,32.8L180.25,32.8L180.668,32.8L181.085,32.8L181.502,32.8L181.919,32.8L182.337,32.8L182.754,32.8L183.171,32.8L183.588,32.8L184.006,32.8L184.423,32.8L184.84,32.8L185.257,32.8L185.675,32.7L186.092,32.7L186.509,32.7L186.926,32.7L187.344,32.7L187.761,32.7L188.178,32.7L188.595,32.7L189.013,32.7L189.43,32.7L189.847,32.7L190.264,32.7L190.682,32.7L191.099,32.7L191.516,32.7L191.933,32.7L192.35,32.7L192.768,32.7L193.185,32.7L193.602,32.7L194.019,32.7L194.437,32.7L194.854,32.7L195.271,32.7L195.688,32.7L196.106,32.7L196.523,32.7L196.94,32.7L197.357,32.7L197.775,32.7L198.192,32.7L198.609,32.7L199.026,32.7L199.444,32.7L199.861,32.7L200.278,32.7L200.695,32.7L201.113,32.7L201.53,32.7L201.947,32.7L202.364,32.6L202.782,32.6L203.199,32.6L203.616,32.6L204.033,32.6L204.451,32.6L204.868,32.6L205.285,32.6L205.702,32.6L206.12,32.6L206.537,32.6L206.954,32.6L207.371,32.6L207.789,32.6L208.206,32.6L208.623,32.6L209.04,32.6L209.458,32.6L209.875,32.6L210.292,32.6L210.709,32.6L211.127,32.6L211.544,32.6L211.961,32.6L212.378,32.6L212.796,32.6L213.213,32.6L213.63,32.6L214.047,32.6L214.465,32.6L214.882,32.6L215.299,32.6L215.716,32.6L216.134,32.6L216.551,32.6L216.968,32.6L217.385,32.6L217.803,32.6L218.22,32.6L218.637,32.6L219.054,32.6L219.471,32.6L219.889,32.6L220.306,32.6L220.723,32.6L221.14,32.6L221.558,32.6L221.975,32.6L222.392,32.6L222.809,32.6L223.227,32.6L223.644,32.6L224.061,32.6L224.478,32.6L224.896,32.6L225.313,32.6L225.73,32.6L226.147,32.6L226.565,32.6L226.982,32.6L227.399,32.6L227.816,32.6L228.234,32.6L228.651,32.6L229.068,32.6L229.485,32.6L229.903,32.5L230.32,32.5L230.737,32.5L231.154,32.5L231.572,32.1L231.989,32.1L232.406,32.1L232.823,32.1L233.241,32.1L233.658,32.1L234.075,32.1L234.492,32.1L234.91,32.1L235.327,32.1L235.744,32.1L236.161,32.1L236.579,32.1L236.996,32.1L237.413,32.1L237.83,32.1L238.248,32.1L238.665,32.1L239.082,32.1L239.499,32.1L239.917,32.1L240.334,32.1L240.751,32.1L241.168,31.15L241.586,31.15L242.003,31.15L242.42,31.15L242.837,31.15L243.255,31.15L243.672,31.15L244.089,31.15L244.506,31.15L244.924,31.15L245.341,31.15L245.758,31.15L246.175,31.15L246.592,31.15L247.01,31.15L247.427,31.15L247.844,30.15L248.261,30.15L248.679,30.15L249.096,30.15L249.513,30.15L249.93,30.15L250.348,30.15L250.765,30.15L251.182,30.15L251.599,30.15L252.017,30.15L252.434,30.15L252.851,30.15L253.268,30.15L253.686,30.15L254.103,30.15L254.52,30.15L254.937,30.15L255.355,30.15L255.772,30.15L256.189,30.15L256.606,30.15L257.024,30.15L257.441,30.15L257.858,30.15L258.275,30.15L258.693,30.15L259.11,30.15L259.527,30.15L259.944,30.15L260.362,30.15L260.779,29.95L261.196,29.95L261.613,29.95L262.031,29.95L262.448,29.95L262.865,29.95L263.282,29.95L263.7,29.95L264.117,29.95L264.534,29.95L264.951,29.95L265.369,29.95L265.786,29.95L266.203,29.95L266.62,29.95L267.038,29.95L267.455,29.95L267.872,29.95L268.289,29.95L268.707,29.95L269.124,29.95L269.541,29.95L269.958,29.95L270.376,29.95L270.793,29.95L271.21,29.95L271.627,29.95L272.045,29.95L272.462,29.95L272.879,29.95L273.296,29.95L273.713,29.95L274.131,29.95L274.548,29.95L274.965,29.95L275.382,29.95L275.8,29.95L276.217,29.95L276.634,29.95L277.051,29.95L277.469,29.95L277.886,29.95L278.303,29.95L278.72,29.95L279.138,29.9L279.555,29.9L279.972,29.9L280.389,29.9L280.807,29.9L281.224,29.9L281.641,29.9L282.058,29.9L282.476,29.9L282.893,29.9L283.31,29.9L283.727,29.9L284.145,29.9L284.562,29.9L284.979,29.9L285.396,29.9L285.814,29.9L286.231,29.9L286.648,29.9L287.065,29.9L287.483,29.9L287.9,29.9L288.317,29.9L288.734,29.9L289.152,29.9L289.569,29.9L289.986,29.9L290.403,29.9L290.821,29.9L291.238,29.9L291.655,29.9L292.072,29.9L292.49,29.9L292.907,29.9L293.324,29.9L293.741,29.9L294.159,29.9L294.576,29.9L294.993,29.9L295.41,29.9L295.828,29.9L296.245,29.9L296.662,29.9L297.079,29.9L297.497,29.9L297.914,29.9L298.331,29.9L298.748,29.9L299.166,29.9L299.583,29.9L300,29.9" stroke="#f59c0c" stroke-width="2"/></g></g><path class="foreground" aria-hidden="true" d="" display="none"/></g><g transform="translate(0,0)"><path class="background" aria-hidden="true" d="M0,0h300v200h-300Z"/><g><g class="mark-line role-mark layer_0_marks" role="graphics-symbol" aria-roledescription="line mark container"><path d="M0,200L0.417,83.3L0.834,83.3L1.252,83.3L1.669,83.3L2.086,78.3L2.503,75.5L2.921,75.4L3.338,72.85L3.755,72.55L4.172,72.05L4.59,70.8L5.007,69.1L5.424,68.45L5.841,67.1L6.259,66.3L6.676,65L7.093,64.05L7.51,63.85L7.928,63.45L8.345,63.2L8.762,63.15L9.179,63.15L9.597,62.7L10.014,62.7L10.431,62.7L10.848,62.7L11.266,62.65L11.683,62L12.1,61.8L12.517,61.65L12.935,61.4L13.352,61.15L13.769,61.15L14.186,60.95L14.604,60.6L15.021,59.4L15.438,59.4L15.855,59.3L16.273,59.15L16.69,59.15L17.107,59.1L17.524,59.1L17.942,59.1L18.359,59.1L18.776,59.1L19.193,59.1L19.611,58.9L20.028,58.9L20.445,58.8L20.862,58.8L21.28,58.8L21.697,58.8L22.114,58.8L22.531,58.8L22.949,58.2L23.366,58.05L23.783,58L24.2,58L24.618,58L25.035,57.95L25.452,57.75L25.869,57.75L26.287,57.75L26.704,57.7L27.121,57.7L27.538,57.6L27.955,57.6L28.373,57.6L28.79,57.6L29.207,57.4L29.624,57.4L30.042,57.4L30.459,57.4L30.876,57.4L31.293,57.4L31.711,57.2L32.128,57.15L32.545,57.15L32.962,57.15L33.38,57.15L33.797,57.15L34.214,57.15L34.631,57.15L35.049,57.1L35.466,57.1L35.883,57.1L36.3,57.1L36.718,57.1L37.135,57.1L37.552,57.1L37.969,57.1L38.387,57.1L38.804,57.05L39.221,57L39.638,57L40.056,57L40.473,56.9L40.89,56.9L41.307,56.9L41.725,56.9L42.142,56.9L42.559,56.9L42.976,56.9L43.394,56.8L43.811,56.8L44.228,56.8L44.645,56.8L45.063,56.8L45.48,56.8L45.897,56.8L46.314,56.75L46.732,56.75L47.149,56.75L47.566,56.75L47.983,56.75L48.401,56.6L48.818,56.6L49.235,56.6L49.652,56.6L50.07,56.6L50.487,56.6L50.904,56.6L51.321,56.45L51.739,56.45L52.156,56.45L52.573,56.4L52.99,56.4L53.408,56.4L53.825,56.4L54.242,56.4L54.659,56.35L55.076,56.35L55.494,56.35L55.911,56.35L56.328,56.35L56.745,56.35L57.163,56.35L57.58,56.35L57.997,56.35L58.414,56.35L58.832,56.35L59.249,56.3L59.666,56.3L60.083,56.3L60.501,56.25L60.918,56.25L61.335,56.25L61.752,56.25L62.17,56.25L62.587,56.25L63.004,56.25L63.421,56.25L63.839,56.25L64.256,56.25L64.673,56.15L65.09,56.15L65.508,56.15L65.925,56.15L66.342,56.15L66.759,56.15L67.177,56.15L67.594,56.15L68.011,56.15L68.428,56.15L68.846,56.15L69.263,56.15L69.68,56.1L70.097,56.1L70.515,56.1L70.932,56.1L71.349,56.1L71.766,56.1L72.184,56.1L72.601,56.1L73.018,56.1L73.435,56.1L73.853,56.1L74.27,56.1L74.687,56.1L75.104,56.05L75.522,56.05L75.939,56.05L76.356,56.05L76.773,56.05L77.191,56.05L77.608,56.05L78.025,56.05L78.442,56.05L78.86,56.05L79.277,56L79.694,55.95L80.111,55.95L80.529,55.95L80.946,55.7L81.363,55.7L81.78,55.5L82.197,55.5L82.615,55.5L83.032,55.5L83.449,55.5L83.866,55.5L84.284,55.5L84.701,55.5L85.118,55.5L85.535,55.5L85.953,55.5L86.37,55.5L86.787,55.45L87.204,55.45L87.622,55.4L88.039,54.9L88.456,54.9L88.873,54.9L89.291,54.9L89.708,54.9L90.125,54.9L90.542,54.9L90.96,54.9L91.377,54.9L91.794,54.9L92.211,54.9L92.629,54.9L93.046,54.9L93.463,54.9L93.88,54.9L94.298,54.9L94.715,54.9L95.132,54.9L95.549,54.9L95.967,54.85L96.384,54.85L96.801,54.25L97.218,54.25L97.636,54.25L98.053,54.25L98.47,54.25L98.887,54L99.305,54L99.722,54L100.139,54L100.556,54L100.974,54L101.391,54L101.808,54L102.225,54L102.643,54L103.06,54L103.477,54L103.894,54L104.312,54L104.729,54L105.146,54L105.563,54L105.981,54L106.398,54L106.815,54L107.232,54L107.65,54L108.067,54L108.484,53.95L108.901,53.95L109.318,53.95L109.736,53.95L110.153,53.95L110.57,53.95L110.987,53.95L111.405,53.95L111.822,53.95L112.239,53.95L112.656,53.95L113.074,53.95L113.491,53.95L113.908,53.95L114.325,53.95L114.743,53.95L115.16,53.95L115.577,53.95L115.994,53.95L116.412,53.95L116.829,53.95L117.246,53.95L117.663,28.3L118.081,28.3L118.498,28.3L118.915,28.3L119.332,28.3L119.75,28.3L120.167,28.25L120.584,28.25L121.001,28.25L121.419,28.25L121.836,28.25L122.253,28.25L122.67,28.25L123.088,28.25L123.505,28.25L123.922,28.2L124.339,28.2L124.757,28.2L125.174,28.15L125.591,28.05L126.008,28.05L126.426,28.05L126.843,28.05L127.26,28.05L127.677,28.05L128.095,28.05L128.512,27.85L128.929,27.85L129.346,27.85L129.764,27.85L130.181,27.85L130.598,27.85L131.015,27.85L131.433,27.85L131.85,27.85L132.267,27.85L132.684,27.85L133.102,27.85L133.519,27.85L133.936,27.85L134.353,27.85L134.771,27.85L135.188,27.85L135.605,27.85L136.022,27.85L136.439,27.85L136.857,27.85L137.274,27.85L137.691,27.85L138.108,27.85L138.526,27.85L138.943,27.85L139.36,27.85L139.777,27.85L140.195,27.85L140.612,27.8L141.029,27.8L141.446,27.8L141.864,27.8L142.281,27.7L142.698,27.7L143.115,27.7L143.533,27.7L143.95,27.7L144.367,27.7L144.784,27.7L145.202,27.7L145.619,27.7L146.036,27.7L146.453,27.7L146.871,27.7L147.288,27.7L147.705,27.7L148.122,27.7L148.54,27.7L148.957,27.7L149.374,27.65L149.791,27.65L150.209,27.6L150.626,27.6L151.043,27.6L151.46,27.55L151.878,27.55L152.295,27.55L152.712,27.55L153.129,27.55L153.547,27.55L153.964,27.55L154.381,27.3L154.798,27.3L155.216,27.3L155.633,26.8L156.05,26.8L156.467,26.8L156.885,26.8L157.302,26.8L157.719,26.8L158.136,26.8L158.554,26.8L158.971,26.8L159.388,26.8L159.805,26.8L160.223,26.8L160.64,26.8L161.057,26.8L161.474,26.8L161.892,26.65L162.309,26.65L162.726,26.65L163.143,26.65L163.561,26.65L163.978,26.65L164.395,26.65L164.812,26.65L165.229,26.65L165.647,26.6L166.064,26.6L166.481,26.6L166.898,26.55L167.316,26.55L167.733,26.55L168.15,26.4L168.567,26.4L168.985,26.4L169.402,26.4L169.819,26.4L170.236,26.4L170.654,26.25L171.071,26.25L171.488,26.25L171.905,26.25L172.323,26.25L172.74,26.25L173.157,26.25L173.574,26.25L173.992,26.25L174.409,26.25L174.826,26.25L175.243,26.25L175.661,26.25L176.078,26.25L176.495,26.25L176.912,26.25L177.33,26.25L177.747,26.25L178.164,26.25L178.581,26.25L178.999,26.25L179.416,26.25L179.833,26.25L180.25,26.25L180.668,26.25L181.085,26.25L181.502,25.45L181.919,25.45L182.337,25.45L182.754,25.45L183.171,25.45L183.588,25.45L184.006,25.45L184.423,25.45L184.84,25.45L185.257,25.45L185.675,25.45L186.092,25.45L186.509,25.45L186.926,25.45L187.344,25.45L187.761,25.45L188.178,25.45L188.595,25.45L189.013,25.45L189.43,25.45L189.847,25.45L190.264,25.45L190.682,25.45L191.099,25.45L191.516,25.45L191.933,25.45L192.35,25.45L192.768,25.45L193.185,25.45L193.602,25.45L194.019,25.45L194.437,25.45L194.854,25.45L195.271,25.45L195.688,25.45L196.106,25.45L196.523,25.45L196.94,25.45L197.357,25.45L197.775,25.45L198.192,25.45L198.609,25.45L199.026,25.45L199.444,25.45L199.861,25.45L200.278,25.45L200.695,25.45L201.113,25.45L201.53,25.45L201.947,25.45L202.364,25.45L202.782,25.45L203.199,25.45L203.616,25.45L204.033,25.45L204.451,24.5L204.868,24.5L205.285,24.5L205.702,24.5L206.12,24.5L206.537,24.5L206.954,24.5L207.371,24.5L207.789,24.5L208.206,24.5L208.623,24.4L209.04,24.4L209.458,24.4L209.875,24.4L210.292,24.4L210.709,24.35L211.127,24.35L211.544,24.3L211.961,24.3L212.378,24.3L212.796,24.3L213.213,24.3L213.63,24.3L214.047,24.3L214.465,24.3L214.882,24.3L215.299,24.3L215.716,24.2L216.134,24.2L216.551,24.2L216.968,24.2L217.385,24.2L217.803,24.2L218.22,24.2L218.637,24.2L219.054,24.2L219.471,24.2L219.889,24.2L220.306,24.2L220.723,24.2L221.14,24.15L221.558,24.15L221.975,24.15L222.392,24.15L222.809,24.15L223.227,24.15L223.644,24.15L224.061,24.15L224.478,24.15L224.896,24.15L225.313,24.15L225.73,24.15L226.147,24.15L226.565,24.15L226.982,24.15L227.399,24.15L227.816,24.1L228.234,24.1L228.651,24.1L229.068,24.1L229.485,24.1L229.903,24.1L230.32,24.1L230.737,24.1L231.154,24.1L231.572,24.1L231.989,24.1L232.406,24.05L232.823,24.05L233.241,24.05L233.658,24.05L234.075,24.05L234.492,24.05L234.91,24.05L235.327,24.05L235.744,24.05L236.161,24.05L236.579,24.05L236.996,24.05L237.413,24.05L237.83,24.05L238.248,24.05L238.665,24.05L239.082,24.05L239.499,24.05L239.917,24.05L240.334,24.05L240.751,24.05L241.168,23.95L241.586,23.95L242.003,23.95L242.42,23.95L242.837,23.95L243.255,23.95L243.672,23.95L244.089,23.95L244.506,23.95L244.924,23.95L245.341,23.9L245.758,23.9L246.175,23.9L246.592,23.9L247.01,23.9L247.427,23.9L247.844,23.9L248.261,23.9L248.679,23.9L249.096,23.9L249.513,23.9L249.93,23.9L250.348,23.9L250.765,23.9L251.182,23.9L251.599,23.9L252.017,23.9L252.434,23.9L252.851,23.9L253.268,23.9L253.686,23.9L254.103,23.9L254.52,23.9L254.937,23.9L255.355,23.9L255.772,23.9L256.189,23.9L256.606,23.9L257.024,23.9L257.441,23.9L257.858,23.9L258.275,23.9L258.693,23.9L259.11,23.9L259.527,23.9L259.944,23.9L260.362,23.9L260.779,23.9L261.196,23.9L261.613,23.9L262.031,23.9L262.448,23.9L262.865,23.9L263.282,23.9L263.7,23.9L264.117,23.9L264.534,23.9L264.951,23.9L265.369,23.9L265.786,23.9L266.203,23.9L266.62,23.9L267.038,23.9L267.455,23.9L267.872,23.9L268.289,23.9L268.707,23.9L269.124,23.9L269.541,23.9L269.958,23.9L270.376,23.9L270.793,23.9L271.21,23.9L271.627,23.9L272.045,23.9L272.462,23.9L272.879,23.9L273.296,23.9L273.713,23.9L274.131,23.9L274.548,23.9L274.965,23.9L275.382,23.9L275.8,23.9L276.217,23.9L276.634,23.75L277.051,23.7L277.469,23.7L277.886,23.7L278.303,23.7L278.72,23.65L279.138,23.65L279.555,23.65L279.972,23.65L280.389,23.65L280.807,23.65L281.224,23.65L281.641,23.65L282.058,23.65L282.476,23.6L282.893,23.6L283.31,23.6L283.727,23.6L284.145,23.6L284.562,23.6L284.979,23.6L285.396,23.6L285.814,23.6L286.231,23.6L286.648,23.6L287.065,23.6L287.483,23.6L287.9,23.6L288.317,23.6L288.734,23.6L289.152,23.6L289.569,23.6L289.986,23.6L290.403,23.6L290.821,23.6L291.238,23.6L291.655,23.6L292.072,23.6L292.49,23.6L292.907,23.6L293.324,23.6L293.741,23.6L294.159,23.6L294.576,23.6L294.993,23.6L295.41,23.6L295.828,23.6L296.245,23.6L296.662,23.6L297.079,23.6L297.497,23.6L297.914,23.6L298.331,23.6L298.748,23.6L299.166,23.6L299.583,23.6L300,23.6" stroke="#808b88" stroke-width="2"/></g></g><path class="foreground" aria-hidden="true" d="" display="none"/></g></g><g class="mark-symbol role-mark layer_1_marks" role="graphics-symbol" aria-roledescription="symbol mark container"/><g class="mark-symbol role-mark layer_2_marks" role="graphics-symbol" aria-roledescription="symbol mark container"><path transform="translate(0,200)" d="M-3.873,-3.873h7.746v7.746h-7.746Z" fill="#f59c0c" stroke-width="2"/><path transform="translate(125.17385257301808,33.3)" d="M-3.873,-3.873h7.746v7.746h-7.746Z" fill="#f59c0c" stroke-width="2"/><path transform="translate(250.34770514603616,30.15000000000001)" d="M-3.873,-3.873h7.746v7.746h-7.746Z" fill="#f59c0c" stroke-width="2"/></g><g class="mark-symbol role-mark layer_3_marks" role="graphics-symbol" aria-roledescription="symbol mark container"/><g class="mark-symbol role-mark layer_4_marks" role="graphics-symbol" aria-roledescription="symbol mark container"><path transform="translate(0,200)" d="M-3.873,-1.549L-3.873,1.549L-1.549,1.549L-1.549,3.873L1.549,3.873L1.549,1.549L3.873,1.549L3.873,-1.549L1.549,-1.549L1.549,-3.873L-1.549,-3.873L-1.549,-1.549Z" fill="#808b88" stroke-width="2"/><path transform="translate(175.24339360222532,26.249999999999996)" d="M-3.873,-1.549L-3.873,1.549L-1.549,1.549L-1.549,3.873L1.549,3.873L1.549,1.549L3.873,1.549L3.873,-1.549L1.549,-1.549L1.549,-3.873L-1.549,-3.873L-1.549,-1.549Z" fill="#808b88" stroke-width="2"/></g><g class="mark-group role-scope layer_5_pathgroup" role="graphics-object" aria-roledescription="group mark container"><g transform="translate(0,0)"><path class="background" aria-hidden="true" d="M0,0h300v200h-300Z"/><g><g class="mark-area role-mark layer_5_marks" role="graphics-symbol" aria-roledescription="area mark container"><path d="M0,200L0.417,135.9L0.834,114.45L1.252,103.525L1.669,96.94L2.086,92.458L2.503,89.221L2.921,86.738L3.338,84.694L3.755,83.02L4.172,81.532L4.59,80.262L5.007,79.185L5.424,78.261L5.841,77.453L6.259,76.747L6.676,76.124L7.093,75.569L7.51,75.074L7.928,74.628L8.345,74.212L8.762,66.629L9.179,65.15L9.597,63.683L10.014,62.255L10.431,60.829L10.848,59.429L11.266,58.04L11.683,56.614L12.1,55.236L12.517,53.871L12.935,52.562L13.352,51.267L13.769,49.971L14.186,48.674L14.604,47.34L15.021,46.005L15.438,44.669L15.855,43.331L16.273,41.979L16.69,40.621L17.107,39.276L17.524,39.129L17.942,38.981L18.359,38.833L18.776,38.686L19.193,38.543L19.611,38.398L20.028,38.252L20.445,38.167L20.862,38.081L21.28,38L21.697,37.926L22.114,37.855L22.531,37.786L22.949,37.719L23.366,37.693L23.783,37.669L24.2,37.645L24.618,37.624L25.035,37.617L25.452,37.614L25.869,37.612L26.287,37.61L26.704,37.607L27.121,37.605L27.538,37.6L27.955,37.595L28.373,37.593L28.79,37.59L29.207,37.588L29.624,37.586L30.042,37.583L30.459,37.581L30.876,37.579L31.293,37.576L31.711,37.574L32.128,37.571L32.545,37.569L32.962,37.567L33.38,37.564L33.797,37.562L34.214,37.56L34.631,37.557L35.049,37.533L35.466,37.5L35.883,37.467L36.3,37.436L36.718,37.405L37.135,37.374L37.552,37.343L37.969,37.312L38.387,37.281L38.804,37.25L39.221,37.219L39.638,37.188L40.056,37.157L40.473,37.126L40.89,37.095L41.307,37.064L41.725,37.033L42.142,37.002L42.559,36.971L42.976,36.94L43.394,36.91L43.811,36.9L44.228,36.883L44.645,36.867L45.063,36.85L45.48,36.833L45.897,36.817L46.314,36.8L46.732,36.783L47.149,36.767L47.566,36.75L47.983,36.733L48.401,36.717L48.818,36.7L49.235,36.683L49.652,36.667L50.07,36.65L50.487,36.633L50.904,36.617L51.321,36.6L51.739,36.583L52.156,36.557L52.573,36.531L52.99,36.521L53.408,36.512L53.825,36.502L54.242,36.493L54.659,36.483L55.076,36.474L55.494,36.462L55.911,36.45L56.328,36.438L56.745,36.426L57.163,36.414L57.58,36.402L57.997,36.39L58.414,36.379L58.832,36.367L59.249,36.355L59.666,36.343L60.083,36.331L60.501,36.319L60.918,36.317L61.335,36.224L61.752,36.131L62.17,36.038L62.587,35.945L63.004,35.852L63.421,35.76L63.839,35.664L64.256,35.571L64.673,35.479L65.09,35.386L65.508,35.293L65.925,35.2L66.342,35.107L66.759,35.01L67.177,34.912L67.594,34.814L68.011,34.717L68.428,34.619L68.846,34.521L69.263,34.424L69.68,34.326L70.097,34.319L70.515,34.31L70.932,34.3L71.349,34.29L71.766,34.281L72.184,34.271L72.601,34.264L73.018,34.257L73.435,34.25L73.853,34.243L74.27,34.236L74.687,34.229L75.104,34.221L75.522,34.219L75.939,34.217L76.356,34.214L76.773,34.212L77.191,34.21L77.608,34.207L78.025,34.205L78.442,34.202L78.86,34.2L79.277,34.2L79.694,34.2L80.111,34.2L80.529,34.2L80.946,34.2L81.363,34.2L81.78,34.2L82.197,34.2L82.615,34.2L83.032,34.2L83.449,34.2L83.866,34.2L84.284,34.2L84.701,34.2L85.118,34.2L85.535,34.2L85.953,34.2L86.37,34.2L86.787,34.2L87.204,34.2L87.622,34.2L88.039,34.2L88.456,34.2L88.873,34.198L89.291,34.195L89.708,34.193L90.125,34.19L90.542,34.188L90.96,34.186L91.377,34.183L91.794,34.181L92.211,34.176L92.629,34.171L93.046,34.167L93.463,34.162L93.88,34.157L94.298,34.152L94.715,34.148L95.132,34.143L95.549,34.138L95.967,34.133L96.384,34.121L96.801,34.11L97.218,34.095L97.636,34.083L98.053,34.071L98.47,34.06L98.887,34.048L99.305,34.036L99.722,34.024L100.139,34.012L100.556,34L100.974,33.99L101.391,33.981L101.808,33.971L102.225,33.962L102.643,33.952L103.06,33.943L103.477,33.933L103.894,33.917L104.312,33.9L104.729,33.883L105.146,33.874L105.563,33.862L105.981,33.852L106.398,33.843L106.815,33.833L107.232,33.824L107.65,33.814L108.067,33.805L108.484,33.795L108.901,33.786L109.318,33.776L109.736,33.767L110.153,33.757L110.57,33.748L110.987,33.738L111.405,33.729L111.822,33.719L112.239,33.71L112.656,33.707L113.074,33.705L113.491,33.702L113.908,33.7L114.325,33.7L114.743,33.7L115.16,33.7L115.577,33.7L115.994,33.7L116.412,33.7L116.829,33.7L117.246,33.7L117.663,33.7L118.081,33.7L118.498,33.7L118.915,33.7L119.332,33.7L119.75,33.7L120.167,33.7L120.584,33.7L121.001,33.7L121.419,33.7L121.836,33.7L122.253,33.7L122.67,33.7L123.088,33.7L123.505,33.7L123.922,33.7L124.339,33.7L124.757,33.7L125.174,33.681L125.591,33.662L126.008,33.64L126.426,33.619L126.843,33.598L127.26,33.576L127.677,33.555L128.095,33.533L128.512,33.512L128.929,33.49L129.346,33.469L129.764,33.448L130.181,33.426L130.598,33.405L131.015,33.383L131.433,33.362L131.85,33.34L132.267,33.319L132.684,33.298L133.102,33.276L133.519,33.255L133.936,33.252L134.353,33.25L134.771,33.25L135.188,33.25L135.605,33.25L136.022,33.25L136.439,33.25L136.857,33.25L137.274,33.25L137.691,33.25L138.108,33.25L138.526,33.25L138.943,33.25L139.36,33.25L139.777,33.25L140.195,33.25L140.612,33.25L141.029,33.243L141.446,33.231L141.864,33.219L142.281,33.207L142.698,33.195L143.115,33.183L143.533,33.171L143.95,33.16L144.367,33.148L144.784,33.136L145.202,33.124L145.619,33.112L146.036,33.1L146.453,33.088L146.871,33.076L147.288,33.064L147.705,33.052L148.122,33.04L148.54,33.029L148.957,33.017L149.374,33.005L149.791,33L150.209,33L150.626,33L151.043,33L151.46,33L151.878,33L152.295,33L152.712,33L153.129,33L153.547,33L153.964,33L154.381,33L154.798,33L155.216,33L155.633,33L156.05,33L156.467,33L156.885,33L157.302,33L157.719,33L158.136,33L158.554,33L158.971,33L159.388,33L159.805,33L160.223,33L160.64,33L161.057,33L161.474,33L161.892,32.995L162.309,32.99L162.726,32.986L163.143,32.981L163.561,32.976L163.978,32.971L164.395,32.967L164.812,32.962L165.229,32.957L165.647,32.952L166.064,32.948L166.481,32.943L166.898,32.938L167.316,32.933L167.733,32.929L168.15,32.924L168.567,32.919L168.985,32.914L169.402,32.91L169.819,32.905L170.236,32.9L170.654,32.9L171.071,32.9L171.488,32.9L171.905,32.9L172.323,32.9L172.74,32.9L173.157,32.895L173.574,32.89L173.992,32.886L174.409,32.881L174.826,32.876L175.243,32.871L175.661,32.867L176.078,32.862L176.495,32.857L176.912,32.852L177.33,32.848L177.747,32.843L178.164,32.838L178.581,32.833L178.999,32.829L179.416,32.824L179.833,32.819L180.25,32.814L180.668,32.81L181.085,32.805L181.502,32.8L181.919,32.8L182.337,32.8L182.754,32.8L183.171,32.8L183.588,32.8L184.006,32.8L184.423,32.8L184.84,32.8L185.257,32.8L185.675,32.795L186.092,32.79L186.509,32.786L186.926,32.781L187.344,32.776L187.761,32.771L188.178,32.767L188.595,32.762L189.013,32.757L189.43,32.752L189.847,32.748L190.264,32.743L190.682,32.738L191.099,32.733L191.516,32.729L191.933,32.724L192.35,32.719L192.768,32.714L193.185,32.71L193.602,32.705L194.019,32.7L194.437,32.7L194.854,32.7L195.271,32.7L195.688,32.7L196.106,32.7L196.523,32.7L196.94,32.7L197.357,32.7L197.775,32.7L198.192,32.7L198.609,32.7L199.026,32.7L199.444,32.7L199.861,32.7L200.278,32.7L200.695,32.7L201.113,32.7L201.53,32.7L201.947,32.7L202.364,32.695L202.782,32.69L203.199,32.686L203.616,32.681L204.033,32.676L204.451,32.671L204.868,32.667L205.285,32.662L205.702,32.657L206.12,32.652L206.537,32.648L206.954,32.643L207.371,32.638L207.789,32.633L208.206,32.629L208.623,32.624L209.04,32.619L209.458,32.614L209.875,32.61L210.292,32.605L210.709,32.6L211.127,32.6L211.544,32.6L211.961,32.6L212.378,32.6L212.796,32.6L213.213,32.6L213.63,32.6L214.047,32.6L214.465,32.6L214.882,32.6L215.299,32.6L215.716,32.6L216.134,32.6L216.551,32.6L216.968,32.6L217.385,32.6L217.803,32.6L218.22,32.6L218.637,32.6L219.054,32.6L219.471,32.6L219.889,32.6L220.306,32.6L220.723,32.6L221.14,32.6L221.558,32.6L221.975,32.6L222.392,32.6L222.809,32.6L223.227,32.6L223.644,32.6L224.061,32.6L224.478,32.6L224.896,32.6L225.313,32.6L225.73,32.6L226.147,32.6L226.565,32.6L226.982,32.6L227.399,32.6L227.816,32.6L228.234,32.6L228.651,32.6L229.068,32.6L229.485,32.6L229.903,32.595L230.32,32.59L230.737,32.586L231.154,32.581L231.572,32.557L231.989,32.533L232.406,32.51L232.823,32.486L233.241,32.462L233.658,32.438L234.075,32.414L234.492,32.39L234.91,32.367L235.327,32.343L235.744,32.319L236.161,32.295L236.579,32.271L236.996,32.248L237.413,32.224L237.83,32.2L238.248,32.176L238.665,32.157L239.082,32.138L239.499,32.119L239.917,32.1L240.334,32.1L240.751,32.1L241.168,32.055L241.586,32.01L242.003,31.964L242.42,31.919L242.837,31.874L243.255,31.829L243.672,31.783L244.089,31.738L244.506,31.693L244.924,31.648L245.341,31.602L245.758,31.557L246.175,31.512L246.592,31.467L247.01,31.421L247.427,31.376L247.844,31.283L248.261,31.19L248.679,31.098L249.096,31.005L249.513,30.912L249.93,30.864L250.348,30.817L250.765,30.769L251.182,30.721L251.599,30.674L252.017,30.626L252.434,30.579L252.851,30.531L253.268,30.483L253.686,30.436L254.103,30.388L254.52,30.34L254.937,30.293L255.355,30.245L255.772,30.198L256.189,30.15L256.606,30.15L257.024,30.15L257.441,30.15L257.858,30.15L258.275,30.15L258.693,30.15L259.11,30.15L259.527,30.15L259.944,30.15L260.362,30.15L260.779,30.14L261.196,30.131L261.613,30.121L262.031,30.112L262.448,30.102L262.865,30.093L263.282,30.083L263.7,30.074L264.117,30.064L264.534,30.055L264.951,30.045L265.369,30.036L265.786,30.026L266.203,30.017L266.62,30.007L267.038,29.998L267.455,29.988L267.872,29.979L268.289,29.969L268.707,29.96L269.124,29.95L269.541,29.95L269.958,29.95L270.376,29.95L270.793,29.95L271.21,29.95L271.627,29.95L272.045,29.95L272.462,29.95L272.879,29.95L273.296,29.95L273.713,29.95L274.131,29.95L274.548,29.95L274.965,29.95L275.382,29.95L275.8,29.95L276.217,29.95L276.634,29.95L277.051,29.95L277.469,29.95L277.886,29.95L278.303,29.95L278.72,29.95L279.138,29.948L279.555,29.945L279.972,29.943L280.389,29.94L280.807,29.938L281.224,29.936L281.641,29.933L282.058,29.931L282.476,29.929L282.893,29.926L283.31,29.924L283.727,29.921L284.145,29.919L284.562,29.917L284.979,29.914L285.396,29.912L285.814,29.91L286.231,29.907L286.648,29.905L287.065,29.902L287.483,29.9L287.9,29.9L288.317,29.9L288.734,29.9L289.152,29.9L289.569,29.9L289.986,29.9L290.403,29.9L290.821,29.9L291.238,29.9L291.655,29.9L292.072,29.9L292.49,29.9L292.907,29.9L293.324,29.9L293.741,29.9L294.159,29.9L294.576,29.9L294.993,29.9L295.41,29.9L295.828,29.9L296.245,29.9L296.662,29.9L297.079,29.9L297.497,29.9L297.914,29.9L298.331,29.9L298.748,29.9L299.166,29.9L299.583,29.9L300,29.9L300,29.9L299.583,29.9L299.166,29.9L298.748,29.9L298.331,29.9L297.914,29.9L297.497,29.9L297.079,29.9L296.662,29.9L296.245,29.9L295.828,29.9L295.41,29.9L294.993,29.9L294.576,29.9L294.159,29.9L293.741,29.9L293.324,29.9L292.907,29.9L292.49,29.9L292.072,29.9L291.655,29.9L291.238,29.9L290.821,29.9L290.403,29.9L289.986,29.9L289.569,29.9L289.152,29.9L288.734,29.9L288.317,29.9L287.9,29.9L287.483,29.9L287.065,29.902L286.648,29.905L286.231,29.907L285.814,29.91L285.396,29.912L284.979,29.914L284.562,29.917L284.145,29.919L283.727,29.921L283.31,29.924L282.893,29.926L282.476,29.929L282.058,29.931L281.641,29.933L281.224,29.936L280.807,29.938L280.389,29.94L279.972,29.943L279.555,29.945L279.138,29.948L278.72,29.95L278.303,29.95L277.886,29.95L277.469,29.95L277.051,29.95L276.634,29.95L276.217,29.95L275.8,29.95L275.382,29.95L274.965,29.95L274.548,29.95L274.131,29.95L273.713,29.95L273.296,29.95L272.879,29.95L272.462,29.95L272.045,29.95L271.627,29.95L271.21,29.95L270.793,29.95L270.376,29.95L269.958,29.95L269.541,29.95L269.124,29.95L268.707,29.96L268.289,29.969L267.872,29.979L267.455,29.988L267.038,29.998L266.62,30.007L266.203,30.017L265.786,30.026L265.369,30.036L264.951,30.045L264.534,30.055L264.117,30.064L263.7,30.074L263.282,30.083L262.865,30.093L262.448,30.102L262.031,30.112L261.613,30.121L261.196,30.131L260.779,30.14L260.362,30.15L259.944,30.15L259.527,30.15L259.11,30.15L258.693,30.15L258.275,30.15L257.858,30.15L257.441,30.15L257.024,30.15L256.606,30.15L256.189,30.15L255.772,30.198L255.355,30.245L254.937,30.293L254.52,30.34L254.103,30.388L253.686,30.436L253.268,30.483L252.851,30.531L252.434,30.579L252.017,30.626L251.599,30.674L251.182,30.721L250.765,30.769L250.348,30.817L249.93,30.864L249.513,30.912L249.096,31.005L248.679,31.098L248.261,31.19L247.844,31.283L247.427,31.376L247.01,31.421L246.592,31.467L246.175,31.512L245.758,31.557L245.341,31.602L244.924,31.648L244.506,31.693L244.089,31.738L243.672,31.783L243.255,31.829L242.837,31.874L242.42,31.919L242.003,31.964L241.586,32.01L241.168,32.055L240.751,32.1L240.334,32.1L239.917,32.1L239.499,32.119L239.082,32.138L238.665,32.157L238.248,32.176L237.83,32.2L237.413,32.224L236.996,32.248L236.579,32.271L236.161,32.295L235.744,32.319L235.327,32.343L234.91,32.367L234.492,32.39L234.075,32.414L233.658,32.438L233.241,32.462L232.823,32.486L232.406,32.51L231.989,32.533L231.572,32.557L231.154,32.581L230.737,32.586L230.32,32.59L229.903,32.595L229.485,32.6L229.068,32.6L228.651,32.6L228.234,32.6L227.816,32.6L227.399,32.6L226.982,32.6L226.565,32.6L226.147,32.6L225.73,32.6L225.313,32.6L224.896,32.6L224.478,32.6L224.061,32.6L223.644,32.6L223.227,32.6L222.809,32.6L222.392,32.6L221.975,32.6L221.558,32.6L221.14,32.6L220.723,32.6L220.306,32.6L219.889,32.6L219.471,32.6L219.054,32.6L218.637,32.6L218.22,32.6L217.803,32.6L217.385,32.6L216.968,32.6L216.551,32.6L216.134,32.6L215.716,32.6L215.299,32.6L214.882,32.6L214.465,32.6L214.047,32.6L213.63,32.6L213.213,32.6L212.796,32.6L212.378,32.6L211.961,32.6L211.544,32.6L211.127,32.6L210.709,32.6L210.292,32.605L209.875,32.61L209.458,32.614L209.04,32.619L208.623,32.624L208.206,32.629L207.789,32.633L207.371,32.638L206.954,32.643L206.537,32.648L206.12,32.652L205.702,32.657L205.285,32.662L204.868,32.667L204.451,32.671L204.033,32.676L203.616,32.681L203.199,32.686L202.782,32.69L202.364,32.695L201.947,32.7L201.53,32.7L201.113,32.7L200.695,32.7L200.278,32.7L199.861,32.7L199.444,32.7L199.026,32.7L198.609,32.7L198.192,32.7L197.775,32.7L197.357,32.7L196.94,32.7L196.523,32.7L196.106,32.7L195.688,32.7L195.271,32.7L194.854,32.7L194.437,32.7L194.019,32.7L193.602,32.705L193.185,32.71L192.768,32.714L192.35,32.719L191.933,32.724L191.516,32.729L191.099,32.733L190.682,32.738L190.264,32.743L189.847,32.748L189.43,32.752L189.013,32.757L188.595,32.762L188.178,32.767L187.761,32.771L187.344,32.776L186.926,32.781L186.509,32.786L186.092,32.79L185.675,32.795L185.257,32.8L184.84,32.8L184.423,32.8L184.006,32.8L183.588,32.8L183.171,32.8L182.754,32.8L182.337,32.8L181.919,32.8L181.502,32.8L181.085,32.805L180.668,32.81L180.25,32.814L179.833,32.819L179.416,32.824L178.999,32.829L178.581,32.833L178.164,32.838L177.747,32.843L177.33,32.848L176.912,32.852L176.495,32.857L176.078,32.862L175.661,32.867L175.243,32.871L174.826,32.876L174.409,32.881L173.992,32.886L173.574,32.89L173.157,32.895L172.74,32.9L172.323,32.9L171.905,32.9L171.488,32.9L171.071,32.9L170.654,32.9L170.236,32.9L169.819,32.905L169.402,32.91L168.985,32.914L168.567,32.919L168.15,32.924L167.733,32.929L167.316,32.933L166.898,32.938L166.481,32.943L166.064,32.948L165.647,32.952L165.229,32.957L164.812,32.962L164.395,32.967L163.978,32.971L163.561,32.976L163.143,32.981L162.726,32.986L162.309,32.99L161.892,32.995L161.474,33L161.057,33L160.64,33L160.223,33L159.805,33L159.388,33L158.971,33L158.554,33L158.136,33L157.719,33L157.302,33L156.885,33L156.467,33L156.05,33L155.633,33L155.216,33L154.798,33L154.381,33L153.964,33L153.547,33L153.129,33L152.712,33L152.295,33L151.878,33L151.46,33L151.043,33L150.626,33L150.209,33L149.791,33L149.374,33.005L148.957,33.017L148.54,33.029L148.122,33.04L147.705,33.052L147.288,33.064L146.871,33.076L146.453,33.088L146.036,33.1L145.619,33.112L145.202,33.124L144.784,33.136L144.367,33.148L143.95,33.16L143.533,33.171L143.115,33.183L142.698,33.195L142.281,33.207L141.864,33.219L141.446,33.231L141.029,33.243L140.612,33.25L140.195,33.25L139.777,33.25L139.36,33.25L138.943,33.25L138.526,33.25L138.108,33.25L137.691,33.25L137.274,33.25L136.857,33.25L136.439,33.25L136.022,33.25L135.605,33.25L135.188,33.25L134.771,33.25L134.353,33.25L133.936,33.252L133.519,33.255L133.102,33.276L132.684,33.298L132.267,33.319L131.85,33.34L131.433,33.362L131.015,33.383L130.598,33.405L130.181,33.426L129.764,33.448L129.346,33.469L128.929,33.49L128.512,33.512L128.095,33.533L127.677,33.555L127.26,33.576L126.843,33.598L126.426,33.619L126.008,33.64L125.591,33.662L125.174,33.681L124.757,33.7L124.339,33.7L123.922,33.7L123.505,33.7L123.088,33.7L122.67,33.7L122.253,33.7L121.836,33.7L121.419,33.7L121.001,33.7L120.584,33.7L120.167,33.7L119.75,33.7L119.332,33.7L118.915,33.7L118.498,33.7L118.081,33.7L117.663,33.7L117.246,33.7L116.829,33.7L116.412,33.7L115.994,33.7L115.577,33.7L115.16,33.7L114.743,33.7L114.325,33.7L113.908,33.7L113.491,33.702L113.074,33.705L112.656,33.707L112.239,33.71L111.822,33.719L111.405,33.729L110.987,33.738L110.57,33.748L110.153,33.757L109.736,33.767L109.318,33.776L108.901,33.786L108.484,33.795L108.067,33.805L107.65,33.814L107.232,33.824L106.815,33.833L106.398,33.843L105.981,33.852L105.563,33.862L105.146,33.874L104.729,33.883L104.312,33.9L103.894,33.917L103.477,33.933L103.06,33.943L102.643,33.952L102.225,33.962L101.808,33.971L101.391,33.981L100.974,33.99L100.556,34L100.139,34.012L99.722,34.024L99.305,34.036L98.887,34.048L98.47,34.06L98.053,34.071L97.636,34.083L97.218,34.095L96.801,34.11L96.384,34.121L95.967,34.133L95.549,34.138L95.132,34.143L94.715,34.148L94.298,34.152L93.88,34.157L93.463,34.162L93.046,34.167L92.629,34.171L92.211,34.176L91.794,34.181L91.377,34.183L90.96,34.186L90.542,34.188L90.125,34.19L89.708,34.193L89.291,34.195L88.873,34.198L88.456,34.2L88.039,34.2L87.622,34.2L87.204,34.2L86.787,34.2L86.37,34.2L85.953,34.2L85.535,34.2L85.118,34.2L84.701,34.2L84.284,34.2L83.866,34.2L83.449,34.2L83.032,34.2L82.615,34.2L82.197,34.2L81.78,34.2L81.363,34.2L80.946,34.2L80.529,34.2L80.111,34.2L79.694,34.2L79.277,34.2L78.86,34.2L78.442,34.202L78.025,34.205L77.608,34.207L77.191,34.21L76.773,34.212L76.356,34.214L75.939,34.217L75.522,34.219L75.104,34.221L74.687,34.229L74.27,34.236L73.853,34.243L73.435,34.25L73.018,34.257L72.601,34.264L72.184,34.271L71.766,34.281L71.349,34.29L70.932,34.3L70.515,34.31L70.097,34.319L69.68,34.326L69.263,34.424L68.846,34.521L68.428,34.619L68.011,34.717L67.594,34.814L67.177,34.912L66.759,35.01L66.342,35.107L65.925,35.2L65.508,35.293L65.09,35.386L64.673,35.479L64.256,35.571L63.839,35.664L63.421,35.76L63.004,35.852L62.587,35.945L62.17,36.038L61.752,36.131L61.335,36.224L60.918,36.317L60.501,36.319L60.083,36.331L59.666,36.343L59.249,36.355L58.832,36.367L58.414,36.379L57.997,36.39L57.58,36.402L57.163,36.414L56.745,36.426L56.328,36.438L55.911,36.45L55.494,36.462L55.076,36.474L54.659,36.483L54.242,36.493L53.825,36.502L53.408,36.512L52.99,36.521L52.573,36.531L52.156,36.557L51.739,36.583L51.321,36.6L50.904,36.617L50.487,36.633L50.07,36.65L49.652,36.667L49.235,36.683L48.818,36.7L48.401,36.717L47.983,36.733L47.566,36.75L47.149,36.767L46.732,36.783L46.314,36.8L45.897,36.817L45.48,36.833L45.063,36.85L44.645,36.867L44.228,36.883L43.811,36.9L43.394,36.91L42.976,36.94L42.559,36.971L42.142,37.002L41.725,37.033L41.307,37.064L40.89,37.095L40.473,37.126L40.056,37.157L39.638,37.188L39.221,37.219L38.804,37.25L38.387,37.281L37.969,37.312L37.552,37.343L37.135,37.374L36.718,37.405L36.3,37.436L35.883,37.467L35.466,37.5L35.049,37.533L34.631,37.557L34.214,37.56L33.797,37.562L33.38,37.564L32.962,37.567L32.545,37.569L32.128,37.571L31.711,37.574L31.293,37.576L30.876,37.579L30.459,37.581L30.042,37.583L29.624,37.586L29.207,37.588L28.79,37.59L28.373,37.593L27.955,37.595L27.538,37.6L27.121,37.605L26.704,37.607L26.287,37.61L25.869,37.612L25.452,37.614L25.035,37.617L24.618,37.624L24.2,37.645L23.783,37.669L23.366,37.693L22.949,37.719L22.531,37.786L22.114,37.855L21.697,37.926L21.28,38L20.862,38.081L20.445,38.167L20.028,38.252L19.611,38.398L19.193,38.543L18.776,38.686L18.359,38.833L17.942,38.981L17.524,39.129L17.107,39.276L16.69,40.621L16.273,41.979L15.855,43.331L15.438,44.669L15.021,46.005L14.604,47.34L14.186,48.674L13.769,49.971L13.352,51.267L12.935,52.562L12.517,53.871L12.1,55.236L11.683,56.614L11.266,58.04L10.848,59.429L10.431,60.829L10.014,62.255L9.597,63.683L9.179,65.15L8.762,66.629L8.345,74.212L7.928,74.628L7.51,75.074L7.093,75.569L6.676,76.124L6.259,76.747L5.841,77.453L5.424,78.261L5.007,79.185L4.59,80.262L4.172,81.532L3.755,83.02L3.338,84.694L2.921,86.738L2.503,89.221L2.086,92.458L1.669,96.94L1.252,103.525L0.834,114.45L0.417,135.9L0,200Z" fill="#f59c0c" opacity="0.2"/></g></g><path class="foreground" aria-hidden="true" d="" display="none"/></g><g transform="translate(0,0)"><path class="background" aria-hidden="true" d="M0,0h300v200h-300Z"/><g><g class="mark-area role-mark layer_5_marks" role="graphics-symbol" aria-roledescription="area mark container"><path d="M0,38L0.417,40.543L0.834,43.086L1.252,45.629L1.669,48.171L2.086,50.476L2.503,52.648L2.921,54.814L3.338,56.86L3.755,58.89L4.172,60.898L4.59,62.845L5.007,64.712L5.424,66.548L5.841,68.319L6.259,70.052L6.676,71.724L7.093,73.35L7.51,74.967L7.928,76.564L8.345,78.15L8.762,71.633L9.179,70.674L9.597,69.693L10.014,68.712L10.431,67.731L10.848,66.988L11.266,66.376L11.683,65.738L12.1,65.212L12.517,64.693L12.935,64.186L13.352,63.726L13.769,63.348L14.186,62.99L14.604,62.681L15.021,62.352L15.438,62.086L15.855,61.86L16.273,61.636L16.69,61.431L17.107,61.236L17.524,61.043L17.942,60.85L18.359,60.679L18.776,60.507L19.193,60.336L19.611,60.155L20.028,59.976L20.445,59.824L20.862,59.681L21.28,59.545L21.697,59.421L22.114,59.31L22.531,59.198L22.949,59.067L23.366,58.945L23.783,58.879L24.2,58.812L24.618,58.75L25.035,58.693L25.452,58.626L25.869,58.562L26.287,58.498L26.704,58.431L27.121,58.364L27.538,58.293L27.955,58.221L28.373,58.16L28.79,58.098L29.207,58.031L29.624,57.964L30.042,57.898L30.459,57.831L30.876,57.764L31.293,57.698L31.711,57.65L32.128,57.607L32.545,57.567L32.962,57.526L33.38,57.486L33.797,57.448L34.214,57.419L34.631,57.39L35.049,57.36L35.466,57.331L35.883,57.302L36.3,57.279L36.718,57.255L37.135,57.231L37.552,57.207L37.969,57.193L38.387,57.179L38.804,57.162L39.221,57.143L39.638,57.124L40.056,57.105L40.473,57.09L40.89,57.079L41.307,57.067L41.725,57.055L42.142,57.043L42.559,57.031L42.976,57.019L43.394,57.002L43.811,56.988L44.228,56.974L44.645,56.96L45.063,56.945L45.48,56.931L45.897,56.917L46.314,56.9L46.732,56.883L47.149,56.867L47.566,56.852L47.983,56.84L48.401,56.821L48.818,56.802L49.235,56.788L49.652,56.774L50.07,56.76L50.487,56.745L50.904,56.731L51.321,56.71L51.739,56.688L52.156,56.671L52.573,56.652L52.99,56.633L53.408,56.614L53.825,56.595L54.242,56.576L54.659,56.555L55.076,56.536L55.494,56.517L55.911,56.498L56.328,56.479L56.745,56.46L57.163,56.448L57.58,56.436L57.997,56.424L58.414,56.412L58.832,56.4L59.249,56.386L59.666,56.371L60.083,56.364L60.501,56.355L60.918,56.345L61.335,56.338L61.752,56.331L62.17,56.324L62.587,56.317L63.004,56.31L63.421,56.305L63.839,56.3L64.256,56.295L64.673,56.286L65.09,56.276L65.508,56.267L65.925,56.257L66.342,56.248L66.759,56.238L67.177,56.229L67.594,56.219L68.011,56.212L68.428,56.205L68.846,56.198L69.263,56.193L69.68,56.186L70.097,56.179L70.515,56.171L70.932,56.164L71.349,56.157L71.766,56.15L72.184,56.143L72.601,56.136L73.018,56.129L73.435,56.126L73.853,56.124L74.27,56.121L74.687,56.119L75.104,56.114L75.522,56.11L75.939,56.105L76.356,56.1L76.773,56.095L77.191,56.09L77.608,56.086L78.025,56.081L78.442,56.079L78.86,56.076L79.277,56.071L79.694,56.064L80.111,56.057L80.529,56.05L80.946,56.031L81.363,56.012L81.78,55.983L82.197,55.955L82.615,55.926L83.032,55.898L83.449,55.869L83.866,55.843L84.284,55.817L84.701,55.79L85.118,55.764L85.535,55.738L85.953,55.712L86.37,55.686L86.787,55.657L87.204,55.629L87.622,55.598L88.039,55.545L88.456,55.495L88.873,55.445L89.291,55.395L89.708,55.357L90.125,55.319L90.542,55.29L90.96,55.262L91.377,55.233L91.794,55.205L92.211,55.176L92.629,55.148L93.046,55.119L93.463,55.09L93.88,55.062L94.298,55.033L94.715,55.005L95.132,54.976L95.549,54.95L95.967,54.921L96.384,54.895L96.801,54.864L97.218,54.833L97.636,54.802L98.053,54.771L98.47,54.74L98.887,54.698L99.305,54.655L99.722,54.612L100.139,54.569L100.556,54.526L100.974,54.483L101.391,54.44L101.808,54.398L102.225,54.355L102.643,54.312L103.06,54.269L103.477,54.226L103.894,54.183L104.312,54.14L104.729,54.1L105.146,54.06L105.563,54.048L105.981,54.036L106.398,54.024L106.815,54.012L107.232,54L107.65,54L108.067,54L108.484,53.998L108.901,53.995L109.318,53.993L109.736,53.99L110.153,53.988L110.57,53.986L110.987,53.983L111.405,53.981L111.822,53.979L112.239,53.976L112.656,53.974L113.074,53.971L113.491,53.969L113.908,53.967L114.325,53.964L114.743,53.962L115.16,53.96L115.577,53.957L115.994,53.955L116.412,53.952L116.829,53.95L117.246,53.95L117.663,52.729L118.081,51.507L118.498,50.286L118.915,49.064L119.332,47.843L119.75,46.621L120.167,45.398L120.584,44.174L121.001,42.95L121.419,41.726L121.836,40.502L122.253,39.279L122.67,38.055L123.088,36.831L123.505,35.607L123.922,34.381L124.339,33.155L124.757,31.929L125.174,30.7L125.591,29.467L126.008,28.233L126.426,28.221L126.843,28.21L127.26,28.198L127.677,28.186L128.095,28.174L128.512,28.152L128.929,28.133L129.346,28.114L129.764,28.095L130.181,28.076L130.598,28.057L131.015,28.038L131.433,28.019L131.85,28L132.267,27.981L132.684,27.964L133.102,27.948L133.519,27.931L133.936,27.917L134.353,27.907L134.771,27.898L135.188,27.888L135.605,27.879L136.022,27.869L136.439,27.86L136.857,27.85L137.274,27.85L137.691,27.85L138.108,27.85L138.526,27.85L138.943,27.85L139.36,27.85L139.777,27.85L140.195,27.85L140.612,27.848L141.029,27.845L141.446,27.843L141.864,27.84L142.281,27.833L142.698,27.826L143.115,27.819L143.533,27.812L143.95,27.805L144.367,27.798L144.784,27.79L145.202,27.783L145.619,27.776L146.036,27.769L146.453,27.762L146.871,27.755L147.288,27.748L147.705,27.74L148.122,27.733L148.54,27.726L148.957,27.719L149.374,27.712L149.791,27.705L150.209,27.695L150.626,27.686L151.043,27.681L151.46,27.674L151.878,27.667L152.295,27.66L152.712,27.652L153.129,27.645L153.547,27.638L153.964,27.631L154.381,27.612L154.798,27.593L155.216,27.574L155.633,27.531L156.05,27.488L156.467,27.445L156.885,27.402L157.302,27.36L157.719,27.317L158.136,27.276L158.554,27.236L158.971,27.198L159.388,27.16L159.805,27.121L160.223,27.086L160.64,27.05L161.057,27.014L161.474,26.979L161.892,26.936L162.309,26.893L162.726,26.85L163.143,26.819L163.561,26.788L163.978,26.757L164.395,26.75L164.812,26.743L165.229,26.736L165.647,26.726L166.064,26.717L166.481,26.707L166.898,26.695L167.316,26.683L167.733,26.671L168.15,26.652L168.567,26.633L168.985,26.614L169.402,26.595L169.819,26.576L170.236,26.557L170.654,26.538L171.071,26.519L171.488,26.5L171.905,26.481L172.323,26.462L172.74,26.443L173.157,26.424L173.574,26.405L173.992,26.386L174.409,26.369L174.826,26.352L175.243,26.336L175.661,26.321L176.078,26.307L176.495,26.293L176.912,26.286L177.33,26.279L177.747,26.271L178.164,26.264L178.581,26.257L178.999,26.25L179.416,26.25L179.833,26.25L180.25,26.25L180.668,26.25L181.085,26.25L181.502,26.212L181.919,26.174L182.337,26.136L182.754,26.098L183.171,26.06L183.588,26.021L184.006,25.983L184.423,25.945L184.84,25.907L185.257,25.869L185.675,25.831L186.092,25.793L186.509,25.755L186.926,25.717L187.344,25.679L187.761,25.64L188.178,25.602L188.595,25.564L189.013,25.526L189.43,25.488L189.847,25.45L190.264,25.45L190.682,25.45L191.099,25.45L191.516,25.45L191.933,25.45L192.35,25.45L192.768,25.45L193.185,25.45L193.602,25.45L194.019,25.45L194.437,25.45L194.854,25.45L195.271,25.45L195.688,25.45L196.106,25.45L196.523,25.45L196.94,25.45L197.357,25.45L197.775,25.45L198.192,25.45L198.609,25.45L199.026,25.45L199.444,25.45L199.861,25.45L200.278,25.45L200.695,25.45L201.113,25.45L201.53,25.45L201.947,25.45L202.364,25.45L202.782,25.45L203.199,25.45L203.616,25.45L204.033,25.45L204.451,25.405L204.868,25.36L205.285,25.314L205.702,25.269L206.12,25.224L206.537,25.179L206.954,25.133L207.371,25.088L207.789,25.043L208.206,24.998L208.623,24.948L209.04,24.898L209.458,24.848L209.875,24.798L210.292,24.748L210.709,24.695L211.127,24.643L211.544,24.588L211.961,24.533L212.378,24.479L212.796,24.424L213.213,24.414L213.63,24.405L214.047,24.395L214.465,24.386L214.882,24.376L215.299,24.367L215.716,24.352L216.134,24.338L216.551,24.324L216.968,24.31L217.385,24.3L217.803,24.29L218.22,24.281L218.637,24.271L219.054,24.262L219.471,24.255L219.889,24.248L220.306,24.243L220.723,24.238L221.14,24.231L221.558,24.224L221.975,24.217L222.392,24.21L222.809,24.202L223.227,24.195L223.644,24.188L224.061,24.181L224.478,24.179L224.896,24.176L225.313,24.174L225.73,24.171L226.147,24.169L226.565,24.167L226.982,24.164L227.399,24.162L227.816,24.157L228.234,24.152L228.651,24.148L229.068,24.143L229.485,24.138L229.903,24.136L230.32,24.133L230.737,24.131L231.154,24.129L231.572,24.126L231.989,24.124L232.406,24.119L232.823,24.114L233.241,24.11L233.658,24.105L234.075,24.1L234.492,24.095L234.91,24.09L235.327,24.086L235.744,24.081L236.161,24.076L236.579,24.074L236.996,24.071L237.413,24.069L237.83,24.067L238.248,24.064L238.665,24.062L239.082,24.06L239.499,24.057L239.917,24.055L240.334,24.052L240.751,24.05L241.168,24.045L241.586,24.04L242.003,24.036L242.42,24.031L242.837,24.026L243.255,24.021L243.672,24.017L244.089,24.012L244.506,24.007L244.924,24.002L245.341,23.995L245.758,23.988L246.175,23.981L246.592,23.974L247.01,23.967L247.427,23.96L247.844,23.952L248.261,23.945L248.679,23.938L249.096,23.931L249.513,23.924L249.93,23.921L250.348,23.919L250.765,23.917L251.182,23.914L251.599,23.912L252.017,23.91L252.434,23.907L252.851,23.905L253.268,23.902L253.686,23.9L254.103,23.9L254.52,23.9L254.937,23.9L255.355,23.9L255.772,23.9L256.189,23.9L256.606,23.9L257.024,23.9L257.441,23.9L257.858,23.9L258.275,23.9L258.693,23.9L259.11,23.9L259.527,23.9L259.944,23.9L260.362,23.9L260.779,23.9L261.196,23.9L261.613,23.9L262.031,23.9L262.448,23.9L262.865,23.9L263.282,23.9L263.7,23.9L264.117,23.9L264.534,23.9L264.951,23.9L265.369,23.9L265.786,23.9L266.203,23.9L266.62,23.9L267.038,23.9L267.455,23.9L267.872,23.9L268.289,23.9L268.707,23.9L269.124,23.9L269.541,23.9L269.958,23.9L270.376,23.9L270.793,23.9L271.21,23.9L271.627,23.9L272.045,23.9L272.462,23.9L272.879,23.9L273.296,23.9L273.713,23.9L274.131,23.9L274.548,23.9L274.965,23.9L275.382,23.9L275.8,23.9L276.217,23.9L276.634,23.893L277.051,23.883L277.469,23.874L277.886,23.864L278.303,23.855L278.72,23.843L279.138,23.831L279.555,23.819L279.972,23.807L280.389,23.795L280.807,23.783L281.224,23.771L281.641,23.76L282.058,23.748L282.476,23.733L282.893,23.719L283.31,23.705L283.727,23.69L284.145,23.676L284.562,23.662L284.979,23.648L285.396,23.64L285.814,23.636L286.231,23.631L286.648,23.626L287.065,23.621L287.483,23.619L287.9,23.617L288.317,23.614L288.734,23.612L289.152,23.61L289.569,23.607L289.986,23.605L290.403,23.602L290.821,23.6L291.238,23.6L291.655,23.6L292.072,23.6L292.49,23.6L292.907,23.6L293.324,23.6L293.741,23.6L294.159,23.6L294.576,23.6L294.993,23.6L295.41,23.6L295.828,23.6L296.245,23.6L296.662,23.6L297.079,23.6L297.497,23.6L297.914,23.6L298.331,23.6L298.748,23.6L299.166,23.6L299.583,23.6L300,23.6L300,23.6L299.583,23.6L299.166,23.6L298.748,23.6L298.331,23.6L297.914,23.6L297.497,23.6L297.079,23.6L296.662,23.6L296.245,23.6L295.828,23.6L295.41,23.6L294.993,23.6L294.576,23.6L294.159,23.6L293.741,23.6L293.324,23.6L292.907,23.6L292.49,23.6L292.072,23.6L291.655,23.6L291.238,23.6L290.821,23.6L290.403,23.602L289.986,23.605L289.569,23.607L289.152,23.61L288.734,23.612L288.317,23.614L287.9,23.617L287.483,23.619L287.065,23.621L286.648,23.626L286.231,23.631L285.814,23.636L285.396,23.64L284.979,23.648L284.562,23.662L284.145,23.676L283.727,23.69L283.31,23.705L282.893,23.719L282.476,23.733L282.058,23.748L281.641,23.76L281.224,23.771L280.807,23.783L280.389,23.795L279.972,23.807L279.555,23.819L279.138,23.831L278.72,23.843L278.303,23.855L277.886,23.864L277.469,23.874L277.051,23.883L276.634,23.893L276.217,23.9L275.8,23.9L275.382,23.9L274.965,23.9L274.548,23.9L274.131,23.9L273.713,23.9L273.296,23.9L272.879,23.9L272.462,23.9L272.045,23.9L271.627,23.9L271.21,23.9L270.793,23.9L270.376,23.9L269.958,23.9L269.541,23.9L269.124,23.9L268.707,23.9L268.289,23.9L267.872,23.9L267.455,23.9L267.038,23.9L266.62,23.9L266.203,23.9L265.786,23.9L265.369,23.9L264.951,23.9L264.534,23.9L264.117,23.9L263.7,23.9L263.282,23.9L262.865,23.9L262.448,23.9L262.031,23.9L261.613,23.9L261.196,23.9L260.779,23.9L260.362,23.9L259.944,23.9L259.527,23.9L259.11,23.9L258.693,23.9L258.275,23.9L257.858,23.9L257.441,23.9L257.024,23.9L256.606,23.9L256.189,23.9L255.772,23.9L255.355,23.9L254.937,23.9L254.52,23.9L254.103,23.9L253.686,23.9L253.268,23.902L252.851,23.905L252.434,23.907L252.017,23.91L251.599,23.912L251.182,23.914L250.765,23.917L250.348,23.919L249.93,23.921L249.513,23.924L249.096,23.931L248.679,23.938L248.261,23.945L247.844,23.952L247.427,23.96L247.01,23.967L246.592,23.974L246.175,23.981L245.758,23.988L245.341,23.995L244.924,24.002L244.506,24.007L244.089,24.012L243.672,24.017L243.255,24.021L242.837,24.026L242.42,24.031L242.003,24.036L241.586,24.04L241.168,24.045L240.751,24.05L240.334,24.052L239.917,24.055L239.499,24.057L239.082,24.06L238.665,24.062L238.248,24.064L237.83,24.067L237.413,24.069L236.996,24.071L236.579,24.074L236.161,24.076L235.744,24.081L235.327,24.086L234.91,24.09L234.492,24.095L234.075,24.1L233.658,24.105L233.241,24.11L232.823,24.114L232.406,24.119L231.989,24.124L231.572,24.126L231.154,24.129L230.737,24.131L230.32,24.133L229.903,24.136L229.485,24.138L229.068,24.143L228.651,24.148L228.234,24.152L227.816,24.157L227.399,24.162L226.982,24.164L226.565,24.167L226.147,24.169L225.73,24.171L225.313,24.174L224.896,24.176L224.478,24.179L224.061,24.181L223.644,24.188L223.227,24.195L222.809,24.202L222.392,24.21L221.975,24.217L221.558,24.224L221.14,24.231L220.723,24.238L220.306,24.243L219.889,24.248L219.471,24.255L219.054,24.262L218.637,24.271L218.22,24.281L217.803,24.29L217.385,24.3L216.968,24.31L216.551,24.324L216.134,24.338L215.716,24.352L215.299,24.367L214.882,24.376L214.465,24.386L214.047,24.395L213.63,24.405L213.213,24.414L212.796,24.424L212.378,24.479L211.961,24.533L211.544,24.588L211.127,24.643L210.709,24.695L210.292,24.748L209.875,24.798L209.458,24.848L209.04,24.898L208.623,24.948L208.206,24.998L207.789,25.043L207.371,25.088L206.954,25.133L206.537,25.179L206.12,25.224L205.702,25.269L205.285,25.314L204.868,25.36L204.451,25.405L204.033,25.45L203.616,25.45L203.199,25.45L202.782,25.45L202.364,25.45L201.947,25.45L201.53,25.45L201.113,25.45L200.695,25.45L200.278,25.45L199.861,25.45L199.444,25.45L199.026,25.45L198.609,25.45L198.192,25.45L197.775,25.45L197.357,25.45L196.94,25.45L196.523,25.45L196.106,25.45L195.688,25.45L195.271,25.45L194.854,25.45L194.437,25.45L194.019,25.45L193.602,25.45L193.185,25.45L192.768,25.45L192.35,25.45L191.933,25.45L191.516,25.45L191.099,25.45L190.682,25.45L190.264,25.45L189.847,25.45L189.43,25.488L189.013,25.526L188.595,25.564L188.178,25.602L187.761,25.64L187.344,25.679L186.926,25.717L186.509,25.755L186.092,25.793L185.675,25.831L185.257,25.869L184.84,25.907L184.423,25.945L184.006,25.983L183.588,26.021L183.171,26.06L182.754,26.098L182.337,26.136L181.919,26.174L181.502,26.212L181.085,26.25L180.668,26.25L180.25,26.25L179.833,26.25L179.416,26.25L178.999,26.25L178.581,26.257L178.164,26.264L177.747,26.271L177.33,26.279L176.912,26.286L176.495,26.293L176.078,26.307L175.661,26.321L175.243,26.336L174.826,26.352L174.409,26.369L173.992,26.386L173.574,26.405L173.157,26.424L172.74,26.443L172.323,26.462L171.905,26.481L171.488,26.5L171.071,26.519L170.654,26.538L170.236,26.557L169.819,26.576L169.402,26.595L168.985,26.614L168.567,26.633L168.15,26.652L167.733,26.671L167.316,26.683L166.898,26.695L166.481,26.707L166.064,26.717L165.647,26.726L165.229,26.736L164.812,26.743L164.395,26.75L163.978,26.757L163.561,26.788L163.143,26.819L162.726,26.85L162.309,26.893L161.892,26.936L161.474,26.979L161.057,27.014L160.64,27.05L160.223,27.086L159.805,27.121L159.388,27.16L158.971,27.198L158.554,27.236L158.136,27.276L157.719,27.317L157.302,27.36L156.885,27.402L156.467,27.445L156.05,27.488L155.633,27.531L155.216,27.574L154.798,27.593L154.381,27.612L153.964,27.631L153.547,27.638L153.129,27.645L152.712,27.652L152.295,27.66L151.878,27.667L151.46,27.674L151.043,27.681L150.626,27.686L150.209,27.695L149.791,27.705L149.374,27.712L148.957,27.719L148.54,27.726L148.122,27.733L147.705,27.74L147.288,27.748L146.871,27.755L146.453,27.762L146.036,27.769L145.619,27.776L145.202,27.783L144.784,27.79L144.367,27.798L143.95,27.805L143.533,27.812L143.115,27.819L142.698,27.826L142.281,27.833L141.864,27.84L141.446,27.843L141.029,27.845L140.612,27.848L140.195,27.85L139.777,27.85L139.36,27.85L138.943,27.85L138.526,27.85L138.108,27.85L137.691,27.85L137.274,27.85L136.857,27.85L136.439,27.86L136.022,27.869L135.605,27.879L135.188,27.888L134.771,27.898L134.353,27.907L133.936,27.917L133.519,27.931L133.102,27.948L132.684,27.964L132.267,27.981L131.85,28L131.433,28.019L131.015,28.038L130.598,28.057L130.181,28.076L129.764,28.095L129.346,28.114L128.929,28.133L128.512,28.152L128.095,28.174L127.677,28.186L127.26,28.198L126.843,28.21L126.426,28.221L126.008,28.233L125.591,29.467L125.174,30.7L124.757,31.929L124.339,33.155L123.922,34.381L123.505,35.607L123.088,36.831L122.67,38.055L122.253,39.279L121.836,40.502L121.419,41.726L121.001,42.95L120.584,44.174L120.167,45.398L119.75,46.621L119.332,47.843L118.915,49.064L118.498,50.286L118.081,51.507L117.663,52.729L117.246,53.95L116.829,53.95L116.412,53.952L115.994,53.955L115.577,53.957L115.16,53.96L114.743,53.962L114.325,53.964L113.908,53.967L113.491,53.969L113.074,53.971L112.656,53.974L112.239,53.976L111.822,53.979L111.405,53.981L110.987,53.983L110.57,53.986L110.153,53.988L109.736,53.99L109.318,53.993L108.901,53.995L108.484,53.998L108.067,54L107.65,54L107.232,54L106.815,54.012L106.398,54.024L105.981,54.036L105.563,54.048L105.146,54.06L104.729,54.1L104.312,54.14L103.894,54.183L103.477,54.226L103.06,54.269L102.643,54.312L102.225,54.355L101.808,54.398L101.391,54.44L100.974,54.483L100.556,54.526L100.139,54.569L99.722,54.612L99.305,54.655L98.887,54.698L98.47,54.74L98.053,54.771L97.636,54.802L97.218,54.833L96.801,54.864L96.384,54.895L95.967,54.921L95.549,54.95L95.132,54.976L94.715,55.005L94.298,55.033L93.88,55.062L93.463,55.09L93.046,55.119L92.629,55.148L92.211,55.176L91.794,55.205L91.377,55.233L90.96,55.262L90.542,55.29L90.125,55.319L89.708,55.357L89.291,55.395L88.873,55.445L88.456,55.495L88.039,55.545L87.622,55.598L87.204,55.629L86.787,55.657L86.37,55.686L85.953,55.712L85.535,55.738L85.118,55.764L84.701,55.79L84.284,55.817L83.866,55.843L83.449,55.869L83.032,55.898L82.615,55.926L82.197,55.955L81.78,55.983L81.363,56.012L80.946,56.031L80.529,56.05L80.111,56.057L79.694,56.064L79.277,56.071L78.86,56.076L78.442,56.079L78.025,56.081L77.608,56.086L77.191,56.09L76.773,56.095L76.356,56.1L75.939,56.105L75.522,56.11L75.104,56.114L74.687,56.119L74.27,56.121L73.853,56.124L73.435,56.126L73.018,56.129L72.601,56.136L72.184,56.143L71.766,56.15L71.349,56.157L70.932,56.164L70.515,56.171L70.097,56.179L69.68,56.186L69.263,56.193L68.846,56.198L68.428,56.205L68.011,56.212L67.594,56.219L67.177,56.229L66.759,56.238L66.342,56.248L65.925,56.257L65.508,56.267L65.09,56.276L64.673,56.286L64.256,56.295L63.839,56.3L63.421,56.305L63.004,56.31L62.587,56.317L62.17,56.324L61.752,56.331L61.335,56.338L60.918,56.345L60.501,56.355L60.083,56.364L59.666,56.371L59.249,56.386L58.832,56.4L58.414,56.412L57.997,56.424L57.58,56.436L57.163,56.448L56.745,56.46L56.328,56.479L55.911,56.498L55.494,56.517L55.076,56.536L54.659,56.555L54.242,56.576L53.825,56.595L53.408,56.614L52.99,56.633L52.573,56.652L52.156,56.671L51.739,56.688L51.321,56.71L50.904,56.731L50.487,56.745L50.07,56.76L49.652,56.774L49.235,56.788L48.818,56.802L48.401,56.821L47.983,56.84L47.566,56.852L47.149,56.867L46.732,56.883L46.314,56.9L45.897,56.917L45.48,56.931L45.063,56.945L44.645,56.96L44.228,56.974L43.811,56.988L43.394,57.002L42.976,57.019L42.559,57.031L42.142,57.043L41.725,57.055L41.307,57.067L40.89,57.079L40.473,57.09L40.056,57.105L39.638,57.124L39.221,57.143L38.804,57.162L38.387,57.179L37.969,57.193L37.552,57.207L37.135,57.231L36.718,57.255L36.3,57.279L35.883,57.302L35.466,57.331L35.049,57.36L34.631,57.39L34.214,57.419L33.797,57.448L33.38,57.486L32.962,57.526L32.545,57.567L32.128,57.607L31.711,57.65L31.293,57.698L30.876,57.764L30.459,57.831L30.042,57.898L29.624,57.964L29.207,58.031L28.79,58.098L28.373,58.16L27.955,58.221L27.538,58.293L27.121,58.364L26.704,58.431L26.287,58.498L25.869,58.562L25.452,58.626L25.035,58.693L24.618,58.75L24.2,58.812L23.783,58.879L23.366,58.945L22.949,59.067L22.531,59.198L22.114,59.31L21.697,59.421L21.28,59.545L20.862,59.681L20.445,59.824L20.028,59.976L19.611,60.155L19.193,60.336L18.776,60.507L18.359,60.679L17.942,60.85L17.524,61.043L17.107,61.236L16.69,61.431L16.273,61.636L15.855,61.86L15.438,62.086L15.021,62.352L14.604,62.681L14.186,62.99L13.769,63.348L13.352,63.726L12.935,64.186L12.517,64.693L12.1,65.212L11.683,65.738L11.266,66.376L10.848,66.988L10.431,67.731L10.014,68.712L9.597,69.693L9.179,70.674L8.762,71.633L8.345,78.15L7.928,76.564L7.51,74.967L7.093,73.35L6.676,71.724L6.259,70.052L5.841,68.319L5.424,66.548L5.007,64.712L4.59,62.845L4.172,60.898L3.755,58.89L3.338,56.86L2.921,54.814L2.503,52.648L2.086,50.476L1.669,48.171L1.252,45.629L0.834,43.086L0.417,40.543L0,38Z" fill="#808b88" opacity="0.2"/></g></g><path class="foreground" aria-hidden="true" d="" display="none"/></g></g><g class="mark-group role-legend" role="graphics-symbol" aria-roledescription="legend" aria-label="Symbol legend titled 'Fuzzer' for shape, fill color and stroke color with 4 values: ft, aflnet, stateafl, sgfuzz"><g transform="translate(0,-47)"><path class="background" aria-hidden="true" d="M0,0h190v29h-190Z" pointer-events="none"/><g><g class="mark-group role-legend-entry"><g transform="translate(0,16)"><path class="background" aria-hidden="true" d="M0,0h0v0h0Z" pointer-events="none"/><g><g class="mark-group role-scope" role="graphics-object" aria-roledescription="group mark container"><g transform="translate(0,0.25)"><path class="background" aria-hidden="true" d="M0,0h21.556640625v12.5h-21.556640625Z" pointer-events="none" opacity="1"/><g><g class="mark-symbol role-legend-symbol" pointer-events="none"><path transform="translate(6,6)" d="M5,0A5,5,0,1,1,-5,0A5,5,0,1,1,5,0" fill="#d66368" fill-opacity="1" stroke="#d66368" stroke-width="1.5" opacity="1"/></g><g class="mark-text role-legend-label" pointer-events="none"><text text-anchor="start" transform="translate(16,9)" font-family="sans-serif" font-size="10px" fill="#000" opacity="1">ft</text></g></g><path class="foreground" aria-hidden="true" d="" pointer-events="none" display="none"/></g><g transform="translate(33,0.25)"><path class="background" aria-hidden="true" d="M0,0h40.462890625v12.5h-40.462890625Z" pointer-events="none" opacity="1"/><g><g class="mark-symbol role-legend-symbol" pointer-events="none"><path transform="translate(6,6)" d="M-5,-5h10v10h-10Z" fill="#f59c0c" fill-opacity="1" stroke="#f59c0c" stroke-width="1.5" opacity="1"/></g><g class="mark-text role-legend-label" pointer-events="none"><text text-anchor="start" transform="translate(16,9)" font-family="sans-serif" font-size="10px" fill="#000" opacity="1">aflnet</text></g></g><path class="foreground" aria-hidden="true" d="" pointer-events="none" display="none"/></g><g transform="translate(85,0.5849364905389036)"><path class="background" aria-hidden="true" d="M0,0h48.2412109375v11.830127018922191h-48.2412109375Z" pointer-events="none" opacity="1"/><g><g class="mark-symbol role-legend-symbol" pointer-events="none"><path transform="translate(6,6)" d="M0,-4.33L-5,4.33L5,4.33Z" fill="#109426" fill-opacity="1" stroke="#109426" stroke-width="1.5" opacity="1"/></g><g class="mark-text role-legend-label" pointer-events="none"><text text-anchor="start" transform="translate(16,9)" font-family="sans-serif" font-size="10px" fill="#000" opacity="1">stateafl</text></g></g><path class="foreground" aria-hidden="true" d="" pointer-events="none" display="none"/></g><g transform="translate(145,0.25)"><path class="background" aria-hidden="true" d="M0,0h44.9013671875v12.5h-44.9013671875Z" pointer-events="none" opacity="1"/><g><g class="mark-symbol role-legend-symbol" pointer-events="none"><path transform="translate(6,6)" d="M-5,-2L-5,2L-2,2L-2,5L2,5L2,2L5,2L5,-2L2,-2L2,-5L-2,-5L-2,-2Z" fill="#808b88" fill-opacity="1" stroke="#808b88" stroke-width="1.5" opacity="1"/></g><g class="mark-text role-legend-label" pointer-events="none"><text text-anchor="start" transform="translate(16,9)" font-family="sans-serif" font-size="10px" fill="#000" opacity="1">sgfuzz</text></g></g><path class="foreground" aria-hidden="true" d="" pointer-events="none" display="none"/></g></g></g><path class="foreground" aria-hidden="true" d="" pointer-events="none" display="none"/></g></g><g class="mark-text role-legend-title" pointer-events="none"><text text-anchor="start" transform="translate(0,9)" font-family="sans-serif" font-size="11px" font-weight="bold" fill="#000" opacity="1">Fuzzer</text></g></g><path class="foreground" aria-hidden="true" d="" pointer-events="none" display="none"/></g></g><g class="mark-group role-title"><g transform="translate(150,-64)"><path class="background" aria-hidden="true" d="M0,0h0v0h0Z" pointer-events="none"/><g><g class="mark-text role-title-text" role="graphics-symbol" aria-roledescription="title" aria-label="Title text 'target:artifact_dcmsend_dcmrecv_1,cores:4,timeout:43200s'" pointer-events="none"><text text-anchor="middle" transform="translate(0,10)" font-family="sans-serif" font-size="13px" font-weight="bold" fill="#000" opacity="1">target:artifact_dcmsend_dcmrecv_1,cores:4,timeout:43200s</text></g></g><path class="foreground" aria-hidden="true" d="" pointer-events="none" display="none"/></g></g></g><path class="foreground" aria-hidden="true" d="" display="none"/></g></g></g></svg>