<svg xmlns="http://www.w3.org/2000/svg" xmlns:xlink="http://www.w3.org/1999/xlink" version="1.1" class="marks" width="394" height="306" viewBox="0 0 394 306"><rect width="394" height="306" fill="white"/><g fill="none" stroke-miterlimit="10" transform="translate(53,69)"><g class="mark-group role-frame root" role="graphics-object" aria-roledescription="group mark container"><g transform="translate(0,0)"><path class="background" aria-hidden="true" d="M0.5,0.5h300v200h-300Z" stroke="#ddd"/><g><g class="mark-group role-axis" aria-hidden="true"><g transform="translate(0.5,200.5)"><path class="background" aria-hidden="true" d="M0,0h0v0h0Z" pointer-events="none"/><g><g class="mark-rule role-axis-grid" pointer-events="none"><line transform="translate(0,-200)" x2="0" y2="200" stroke="#ddd" stroke-width="1" opacity="1"/><line transform="translate(25,-200)" x2="0" y2="200" stroke="#ddd" stroke-width="1" opacity="1"/><line transform="translate(50,-200)" x2="0" y2="200" stroke="#ddd" stroke-width="1" opacity="1"/><line transform="translate(75,-200)" x2="0" y2="200" stroke="#ddd" stroke-width="1" opacity="1"/><line transform="translate(100,-200)" x2="0" y2="200" stroke="#ddd" stroke-width="1" opacity="1"/><line transform="translate(125,-200)" x2="0" y2="200" stroke="#ddd" stroke-width="1" opacity="1"/><line transform="translate(150,-200)" x2="0" y2="200" stroke="#ddd" stroke-width="1" opacity="1"/><line transform="translate(175,-200)" x2="0" y2="200" stroke="#ddd" stroke-width="1" opacity="1"/><line transform="translate(200,-200)" x2="0" y2="200" stroke="#ddd" stroke-width="1" opacity="1"/><line transform="translate(225,-200)" x2="0" y2="200" stroke="#ddd" stroke-width="1" opacity="1"/><line transform="translate(250,-200)" x2="0" y2="200" stroke="#ddd" stroke-width="1" opacity="1"/><line transform="translate(275,-200)" x2="0" y2="200" stroke="#ddd" stroke-width="1" opacity="1"/></g></g><path class="foreground" aria-hidden="true" d="" pointer-events="none" display="none"/></g></g><g class="mark-group role-axis" aria-hidden="true"><g transform="translate(0.5,0.5)"><path class="background" aria-hidden="true" d="M0,0h0v0h0Z" pointer-events="none"/><g><g class="mark-rule role-axis-grid" pointer-events="none"><line transform="translate(0,200)" x2="300" y2="0" stroke="#ddd" stroke-width="1" opacity="1"/><line transform="translate(0,150)" x2="300" y2="0" stroke="#ddd" stroke-width="1" opacity="1"/><line transform="translate(0,100)" x2="300" y2="0" stroke="#ddd" stroke-width="1" opacity="1"/><line transform="translate(0,50)" x2="300" y2="0" stroke="#ddd" stroke-width="1" opacity="1"/><line transform="translate(0,0)" x2="300" y2="0" stroke="#ddd" stroke-width="1" opacity="1"/></g></g><path class="foreground" aria-hidden="true" d="" pointer-events="none" display="none"/></g></g><g class="mark-group role-axis" role="graphics-symbol" aria-roledescription="axis" aria-label="X-axis titled 'Time [hh:mm]' for a time scale with values from 00:00 to 11:59"><g transform="translate(0.5,200.5)"><path class="background" aria-hidden="true" d="M0,0h0v0h0Z" pointer-events="none"/><g><g class="mark-rule role-axis-tick" pointer-events="none"><line transform="translate(0,0)" x2="0" y2="5" stroke="#888" stroke-width="1" opacity="1"/><line transform="translate(25,0)" x2="0" y2="5" stroke="#888" stroke-width="1" opacity="1"/><line transform="translate(50,0)" x2="0" y2="5" stroke="#888" stroke-width="1" opacity="1"/><line transform="translate(75,0)" x2="0" y2="5" stroke="#888" stroke-width="1" opacity="1"/><line transform="translate(100,0)" x2="0" y2="5" stroke="#888" stroke-width="1" opacity="1"/><line transform="translate(125,0)" x2="0" y2="5" stroke="#888" stroke-width="1" opacity="1"/><line transform="translate(150,0)" x2="0" y2="5" stroke="#888" stroke-width="1" opacity="1"/><line transform="translate(175,0)" x2="0" y2="5" stroke="#888" stroke-width="1" opacity="1"/><line transform="translate(200,0)" x2="0" y2="5" stroke="#888" stroke-width="1" opacity="1"/><line transform="translate(225,0)" x2="0" y2="5" stroke="#888" stroke-width="1" opacity="1"/><line transform="translate(250,0)" x2="0" y2="5" stroke="#888" stroke-width="1" opacity="1"/><line transform="translate(275,0)" x2="0" y2="5" stroke="#888" stroke-width="1" opacity="1"/></g><g class="mark-text role-axis-label" pointer-events="none"><text text-anchor="start" transform="translate(0,15)" font-family="sans-serif" font-size="10px" fill="#000" opacity="1">00:00</text><text text-anchor="middle" transform="translate(25.03477051460362,15)" font-family="sans-serif" font-size="10px" fill="#000" opacity="0">01:00</text><text text-anchor="middle" transform="translate(50.06954102920724,15)" font-family="sans-serif" font-size="10px" fill="#000" opacity="1">02:00</text><text text-anchor="middle" transform="translate(75.10431154381085,15)" font-family="sans-serif" font-size="10px" fill="#000" opacity="0">03:00</text><text text-anchor="middle" transform="translate(100.13908205841447,15)" font-family="sans-serif" font-size="10px" fill="#000" opacity="1">04:00</text><text text-anchor="middle" transform="translate(125.17385257301808,15)" font-family="sans-serif" font-size="10px" fill="#000" opacity="0">05:00</text><text text-anchor="middle" transform="translate(150.2086230876217,15)" font-family="sans-serif" font-size="10px" fill="#000" opacity="1">06:00</text><text text-anchor="middle" transform="translate(175.24339360222532,15)" font-family="sans-serif" font-size="10px" fill="#000" opacity="0">07:00</text><text text-anchor="middle" transform="translate(200.27816411682895,15)" font-family="sans-serif" font-size="10px" fill="#000" opacity="1">08:00</text><text text-anchor="middle" transform="translate(225.31293463143257,15)" font-family="sans-serif" font-size="10px" fill="#000" opacity="0">09:00</text><text text-anchor="middle" transform="translate(250.34770514603616,15)" font-family="sans-serif" font-size="10px" fill="#000" opacity="1">10:00</text><text text-anchor="middle" transform="translate(275.3824756606398,15)" font-family="sans-serif" font-size="10px" fill="#000" opacity="0">11:00</text></g><g class="mark-rule role-axis-domain" pointer-events="none"><line transform="translate(0,0)" x2="300" y2="0" stroke="#888" stroke-width="1" opacity="1"/></g><g class="mark-text role-axis-title" pointer-events="none"><text text-anchor="middle" transform="translate(150,30)" font-family="sans-serif" font-size="11px" font-weight="bold" fill="#000" opacity="1">Time [hh:mm]</text></g></g><path class="foreground" aria-hidden="true" d="" pointer-events="none" display="none"/></g></g><g class="mark-group role-axis" role="graphics-symbol" aria-roledescription="axis" aria-label="Y-axis titled '#Covered Branches' for a linear scale with values from 0 to 4,000"><g transform="translate(0.5,0.5)"><path class="background" aria-hidden="true" d="M0,0h0v0h0Z" pointer-events="none"/><g><g class="mark-rule role-axis-tick" pointer-events="none"><line transform="translate(0,200)" x2="-5" y2="0" stroke="#888" stroke-width="1" opacity="1"/><line transform="translate(0,150)" x2="-5" y2="0" stroke="#888" stroke-width="1" opacity="1"/><line transform="translate(0,100)" x2="-5" y2="0" stroke="#888" stroke-width="1" opacity="1"/><line transform="translate(0,50)" x2="-5" y2="0" stroke="#888" stroke-width="1" opacity="1"/><line transform="translate(0,0)" x2="-5" y2="0" stroke="#888" stroke-width="1" opacity="1"/></g><g class="mark-text role-axis-label" pointer-events="none"><text text-anchor="end" transform="translate(-7,203)" font-family="sans-serif" font-size="10px" fill="#000" opacity="1">0</text><text text-anchor="end" transform="translate(-7,153)" font-family="sans-serif" font-size="10px" fill="#000" opacity="1">1,000</text><text text-anchor="end" transform="translate(-7,103)" font-family="sans-serif" font-size="10px" fill="#000" opacity="1">2,000</text><text text-anchor="end" transform="translate(-7,53)" font-family="sans-serif" font-size="10px" fill="#000" opacity="1">3,000</text><text text-anchor="end" transform="translate(-7,3)" font-family="sans-serif" font-size="10px" fill="#000" opacity="1">4,000</text></g><g class="mark-rule role-axis-domain" pointer-events="none"><line transform="translate(0,200)" x2="0" y2="-200" stroke="#888" stroke-width="1" opacity="1"/></g><g class="mark-text role-axis-title" pointer-events="none"><text text-anchor="middle" transform="translate(-36.0244140625,100) rotate(-90) translate(0,-2)" font-family="sans-serif" font-size="11px" font-weight="bold" fill="#000" opacity="1">#Covered Branches</text></g></g><path class="foreground" aria-hidden="true" d="" pointer-events="none" display="none"/></g></g><g class="mark-group role-scope layer_0_pathgroup" role="graphics-object" aria-roledescription="group mark container"><g transform="translate(0,0)"><path class="background" aria-hidden="true" d="M0,0h300v200h-300Z"/><g><g class="mark-line role-mark layer_0_marks" role="graphics-symbol" aria-roledescription="line mark container"><path d="M0,200L0.417,71.8L0.834,71.55L1.252,70.75L1.669,70.6L2.086,70.05L2.503,69.8L2.921,69.35L3.338,68.35L3.755,67.95L4.172,66.65L4.59,66.3L5.007,66.25L5.424,66.25L5.841,66.15L6.259,66.15L6.676,66.15L7.093,66.15L7.51,66.15L7.928,66.15L8.345,65.9L8.762,40.75L9.179,40.75L9.597,40.75L10.014,40.75L10.431,40.65L10.848,40.65L11.266,40.65L11.683,39.4L12.1,39.4L12.517,39.3L12.935,39.15L13.352,39.1L13.769,39.05L14.186,39L14.604,38.15L15.021,38.1L15.438,38.1L15.855,38.05L16.273,37.75L16.69,37.65L17.107,37.65L17.524,37.65L17.942,37.65L18.359,37.65L18.776,37.65L19.193,37.65L19.611,37.6L20.028,37.6L20.445,37.6L20.862,37.6L21.28,37.6L21.697,37.6L22.114,37.6L22.531,37.6L22.949,37.6L23.366,37.6L23.783,37.6L24.2,37.6L24.618,37.6L25.035,37.6L25.452,37.6L25.869,37.6L26.287,37.6L26.704,37.6L27.121,37.6L27.538,37.55L27.955,37.55L28.373,37.55L28.79,37.55L29.207,37.55L29.624,37.55L30.042,37.55L30.459,37.55L30.876,37.55L31.293,37.55L31.711,37.55L32.128,37.55L32.545,37.55L32.962,37.55L33.38,37.55L33.797,37.55L34.214,37.55L34.631,37.55L35.049,37.1L35.466,36.9L35.883,36.9L36.3,36.9L36.718,36.9L37.135,36.9L37.552,36.9L37.969,36.9L38.387,36.9L38.804,36.9L39.221,36.9L39.638,36.9L40.056,36.9L40.473,36.9L40.89,36.9L41.307,36.9L41.725,36.9L42.142,36.9L42.559,36.9L42.976,36.9L43.394,36.9L43.811,36.9L44.228,36.55L44.645,36.55L45.063,36.55L45.48,36.55L45.897,36.55L46.314,36.55L46.732,36.55L47.149,36.55L47.566,36.55L47.983,36.55L48.401,36.55L48.818,36.55L49.235,36.55L49.652,36.55L50.07,36.55L50.487,36.55L50.904,36.55L51.321,36.55L51.739,36.55L52.156,36.35L52.573,36.35L52.99,36.35L53.408,36.35L53.825,36.35L54.242,36.35L54.659,36.35L55.076,36.35L55.494,36.3L55.911,36.3L56.328,36.3L56.745,36.3L57.163,36.3L57.58,36.3L57.997,36.3L58.414,36.3L58.832,36.3L59.249,36.3L59.666,36.3L60.083,36.3L60.501,36.3L60.918,36.3L61.335,34.4L61.752,34.4L62.17,34.4L62.587,34.4L63.004,34.4L63.421,34.4L63.839,34.35L64.256,34.35L64.673,34.35L65.09,34.35L65.508,34.35L65.925,34.35L66.342,34.35L66.759,34.25L67.177,34.25L67.594,34.25L68.011,34.25L68.428,34.25L68.846,34.25L69.263,34.25L69.68,34.25L70.097,34.25L70.515,34.2L70.932,34.2L71.349,34.2L71.766,34.2L72.184,34.2L72.601,34.2L73.018,34.2L73.435,34.2L73.853,34.2L74.27,34.2L74.687,34.2L75.104,34.2L75.522,34.2L75.939,34.2L76.356,34.2L76.773,34.2L77.191,34.2L77.608,34.2L78.025,34.2L78.442,34.2L78.86,34.2L79.277,34.2L79.694,34.2L80.111,34.2L80.529,34.2L80.946,34.2L81.363,34.2L81.78,34.2L82.197,34.2L82.615,34.2L83.032,34.2L83.449,34.2L83.866,34.2L84.284,34.2L84.701,34.2L85.118,34.2L85.535,34.2L85.953,34.2L86.37,34.2L86.787,34.2L87.204,34.2L87.622,34.2L88.039,34.2L88.456,34.2L88.873,34.15L89.291,34.15L89.708,34.15L90.125,34.15L90.542,34.15L90.96,34.15L91.377,34.15L91.794,34.15L92.211,34.1L92.629,34.1L93.046,34.1L93.463,34.1L93.88,34.1L94.298,34.1L94.715,34.1L95.132,34.1L95.549,34.1L95.967,34.1L96.384,33.95L96.801,33.95L97.218,33.9L97.636,33.9L98.053,33.9L98.47,33.9L98.887,33.9L99.305,33.9L99.722,33.9L100.139,33.9L100.556,33.9L100.974,33.9L101.391,33.9L101.808,33.9L102.225,33.9L102.643,33.9L103.06,33.9L103.477,33.9L103.894,33.75L104.312,33.75L104.729,33.75L105.146,33.75L105.563,33.7L105.981,33.7L106.398,33.7L106.815,33.7L107.232,33.7L107.65,33.7L108.067,33.7L108.484,33.7L108.901,33.7L109.318,33.7L109.736,33.7L110.153,33.7L110.57,33.7L110.987,33.7L111.405,33.7L111.822,33.7L112.239,33.7L112.656,33.7L113.074,33.7L113.491,33.7L113.908,33.7L114.325,33.7L114.743,33.7L115.16,33.7L115.577,33.7L115.994,33.7L116.412,33.7L116.829,33.7L117.246,33.7L117.663,33.7L118.081,33.7L118.498,33.7L118.915,33.7L119.332,33.7L119.75,33.7L120.167,33.7L120.584,33.7L121.001,33.7L121.419,33.7L121.836,33.7L122.253,33.7L122.67,33.7L123.088,33.7L123.505,33.7L123.922,33.7L124.339,33.7L124.757,33.7L125.174,33.3L125.591,33.3L126.008,33.25L126.426,33.25L126.843,33.25L127.26,33.25L127.677,33.25L128.095,33.25L128.512,33.25L128.929,33.25L129.346,33.25L129.764,33.25L130.181,33.25L130.598,33.25L131.015,33.25L131.433,33.25L131.85,33.25L132.267,33.25L132.684,33.25L133.102,33.25L133.519,33.25L133.936,33.25L134.353,33.25L134.771,33.25L135.188,33.25L135.605,33.25L136.022,33.25L136.439,33.25L136.857,33.25L137.274,33.25L137.691,33.25L138.108,33.25L138.526,33.25L138.943,33.25L139.36,33.25L139.777,33.25L140.195,33.25L140.612,33.25L141.029,33.1L141.446,33L141.864,33L142.281,33L142.698,33L143.115,33L143.533,33L143.95,33L144.367,33L144.784,33L145.202,33L145.619,33L146.036,33L146.453,33L146.871,33L147.288,33L147.705,33L148.122,33L148.54,33L148.957,33L149.374,33L149.791,33L150.209,33L150.626,33L151.043,33L151.46,33L151.878,33L152.295,33L152.712,33L153.129,33L153.547,33L153.964,33L154.381,33L154.798,33L155.216,33L155.633,33L156.05,33L156.467,33L156.885,33L157.302,33L157.719,33L158.136,33L158.554,33L158.971,33L159.388,33L159.805,33L160.223,33L160.64,33L161.057,33L161.474,33L161.892,32.9L162.309,32.9L162.726,32.9L163.143,32.9L163.561,32.9L163.978,32.9L164.395,32.9L164.812,32.9L165.229,32.9L165.647,32.9L166.064,32.9L166.481,32.9L166.898,32.9L167.316,32.9L167.733,32.9L168.15,32.9L168.567,32.9L168.985,32.9L169.402,32.9L169.819,32.9L170.236,32.9L170.654,32.9L171.071,32.9L171.488,32.9L171.905,32.9L172.323,32.9L172.74,32.9L173.157,32.8L173.574,32.8L173.992,32.8L174.409,32.8L174.826,32.8L175.243,32.8L175.661,32.8L176.078,32.8L176.495,32.8L176.912,32.8L177.33,32.8L177.747,32.8L178.164,32.8L178.581,32.8L178.999,32.8L179.416,32.8L179.833,32.8L180.25,32.8L180.668,32.8L181.085,32.8L181.502,32.8L181.919,32.8L182.337,32.8L182.754,32.8L183.171,32.8L183.588,32.8L184.006,32.8L184.423,32.8L184.84,32.8L185.257,32.8L185.675,32.7L186.092,32.7L186.509,32.7L186.926,32.7L187.344,32.7L187.761,32.7L188.178,32.7L188.595,32.7L189.013,32.7L189.43,32.7L189.847,32.7L190.264,32.7L190.682,32.7L191.099,32.7L191.516,32.7L191.933,32.7L192.35,32.7L192.768,32.7L193.185,32.7L193.602,32.7L194.019,32.7L194.437,32.7L194.854,32.7L195.271,32.7L195.688,32.7L196.106,32.7L196.523,32.7L196.94,32.7L197.357,32.7L197.775,32.7L198.192,32.7L198.609,32.7L199.026,32.7L199.444,32.7L199.861,32.7L200.278,32.7L200.695,32.7L201.113,32.7L201.53,32.7L201.947,32.7L202.364,32.6L202.782,32.6L203.199,32.6L203.616,32.6L204.033,32.6L204.451,32.6L204.868,32.6L205.285,32.6L205.702,32.6L206.12,32.6L206.537,32.6L206.954,32.6L207.371,32.6L207.789,32.6L208.206,32.6L208.623,32.6L209.04,32.6L209.458,32.6L209.875,32.6L210.292,32.6L210.709,32.6L211.127,32.6L211.544,32.6L211.961,32.6L212.378,32.6L212.796,32.6L213.213,32.6L213.63,32.6L214.047,32.6L214.465,32.6L214.882,32.6L215.299,32.6L215.716,32.6L216.134,32.6L216.551,32.6L216.968,32.6L217.385,32.6L217.803,32.6L218.22,32.6L218.637,32.6L219.054,32.6L219.471,32.6L219.889,32.6L220.306,32.6L220.723,32.6L221.14,32.6L221.558,32.6L221.975,32.6L222.392,32.6L222.809,32.6L223.227,32.6L223.644,32.6L224.061,32.6L224.478,32.6L224.896,32.6L225.313,32.6L225.73,32.6L226.147,32.6L226.565,32.6L226.982,32.6L227.399,32.6L227.816,32.6L228.234,32.6L228.651,32.6L229.068,32.6L229.485,32.6L229.903,32.5L230.32,32.5L230.737,32.5L231.154,32.5L231.572,32.1L231.989,32.1L232.406,32.1L232.823,32.1L233.241,32.1L233.658,32.1L234.075,32.1L234.492,32.1L234.91,32.1L235.327,32.1L235.744,32.1L236.161,32.1L236.579,32.1L236.996,32.1L237.413,32.1L237.83,32.1L238.248,32.1L238.665,32.1L239.082,32.1L239.499,32.1L239.917,32.1L240.334,32.1L240.751,32.1L241.168,31.15L241.586,31.15L242.003,31.15L242.42,31.15L242.837,31.15L243.255,31.15L243.672,31.15L244.089,31.15L244.506,31.15L244.924,31.15L245.341,31.15L245.758,31.15L246.175,31.15L246.592,31.15L247.01,31.15L247.427,31.15L247.844,30.15L248.261,30.15L248.679,30.15L249.096,30.15L249.513,30.15L249.93,30.15L250.348,30.15L250.765,30.15L251.182,30.15L251.599,30.15L252.017,30.15L252.434,30.15L252.851,30.15L253.268,30.15L253.686,30.15L254.103,30.15L254.52,30.15L254.937,30.15L255.355,30.15L255.772,30.15L256.189,30.15L256.606,30.15L257.024,30.15L257.441,30.15L257.858,30.15L258.275,30.15L258.693,30.15L259.11,30.15L259.527,30.15L259.944,30.15L260.362,30.15L260.779,29.95L261.196,29.95L261.613,29.95L262.031,29.95L262.448,29.95L262.865,29.95L263.282,29.95L263.7,29.95L264.117,29.95L264.534,29.95L264.951,29.95L265.369,29.95L265.786,29.95L266.203,29.95L266.62,29.95L267.038,29.95L267.455,29.95L267.872,29.95L268.289,29.95L268.707,29.95L269.124,29.95L269.541,29.95L269.958,29.95L270.376,29.95L270.793,29.95L271.21,29.95L271.627,29.95L272.045,29.95L272.462,29.95L272.879,29.95L273.296,29.95L273.713,29.95L274.131,29.95L274.548,29.95L274.965,29.95L275.382,29.95L275.8,29.95L276.217,29.95L276.634,29.95L277.051,29.95L277.469,29.95L277.886,29.95L278.303,29.95L278.72,29.95L279.138,29.9L279.555,29.9L279.972,29.9L280.389,29.9L280.807,29.9L281.224,29.9L281.641,29.9L282.058,29.9L282.476,29.9L282.893,29.9L283.31,29.9L283.727,29.9L284.145,29.9L284.562,29.9L284.979,29.9L285.396,29.9L285.814,29.9L286.231,29.9L286.648,29.9L287.065,29.9L287.483,29.9L287.9,29.9L288.317,29.9L288.734,29.9L289.152,29.9L289.569,29.9L289.986,29.9L290.403,29.9L290.821,29.9L291.238,29.9L291.655,29.9L292.072,29.9L292.49,29.9L292.907,29.9L293.324,29.9L293.741,29.9L294.159,29.9L294.576,29.9L294.993,29.9L295.41,29.9L295.828,29.9L296.245,29.9L296.662,29.9L297.079,29.9L297.497,29.9L297.914,29.9L298.331,29.9L298.748,29.9L299.166,29.9L299.583,29.9L300,29.9" stroke="#f59c0c" stroke-width="2"/></g></g><path class="foreground" aria-hidden="true" d="" display="none"/></g></g><g class="mark-symbol role-mark layer_1_marks" role="graphics-symbol" aria-roledescription="symbol mark container"/><g class="mark-symbol role-mark layer_2_marks" role="graphics-symbol" aria-roledescription="symbol mark container"><path transform="translate(0,200)" d="M-3.873,-3.873h7.746v7.746h-7.746Z" fill="#f59c0c" stroke-width="2"/><path transform="translate(125.17385257301808,33.3)" d="M-3.873,-3.873h7.746v7.746h-7.746Z" fill="#f59c0c" stroke-width="2"/><path transform="translate(250.34770514603616,30.15000000000001)" d="M-3.873,-3.873h7.746v7.746h-7.746Z" fill="#f59c0c" stroke-width="2"/></g><g class="mark-symbol role-mark layer_3_marks" role="graphics-symbol" aria-roledescription="symbol mark container"/><g class="mark-symbol role-mark layer_4_marks" role="graphics-symbol" aria-roledescription="symbol mark container"/><g class="mark-group role-scope layer_5_pathgroup" role="graphics-object" aria-roledescription="group mark container"><g transform="translate(0,0)"><path class="background" aria-hidden="true" d="M0,0h300v200h-300Z"/><g><g class="mark-area role-mark layer_5_marks" role="graphics-symbol" aria-roledescription="area mark container"><path d="M0,200L0.417,135.9L0.834,114.45L1.252,103.525L1.669,96.94L2.086,92.458L2.503,89.221L2.921,86.738L3.338,84.694L3.755,83.02L4.172,81.532L4.59,80.262L5.007,79.185L5.424,78.261L5.841,77.453L6.259,76.747L6.676,76.124L7.093,75.569L7.51,75.074L7.928,74.628L8.345,74.212L8.762,66.629L9.179,65.15L9.597,63.683L10.014,62.255L10.431,60.829L10.848,59.429L11.266,58.04L11.683,56.614L12.1,55.236L12.517,53.871L12.935,52.562L13.352,51.267L13.769,49.971L14.186,48.674L14.604,47.34L15.021,46.005L15.438,44.669L15.855,43.331L16.273,41.979L16.69,40.621L17.107,39.276L17.524,39.129L17.942,38.981L18.359,38.833L18.776,38.686L19.193,38.543L19.611,38.398L20.028,38.252L20.445,38.167L20.862,38.081L21.28,38L21.697,37.926L22.114,37.855L22.531,37.786L22.949,37.719L23.366,37.693L23.783,37.669L24.2,37.645L24.618,37.624L25.035,37.617L25.452,37.614L25.869,37.612L26.287,37.61L26.704,37.607L27.121,37.605L27.538,37.6L27.955,37.595L28.373,37.593L28.79,37.59L29.207,37.588L29.624,37.586L30.042,37.583L30.459,37.581L30.876,37.579L31.293,37.576L31.711,37.574L32.128,37.571L32.545,37.569L32.962,37.567L33.38,37.564L33.797,37.562L34.214,37.56L34.631,37.557L35.049,37.533L35.466,37.5L35.883,37.467L36.3,37.436L36.718,37.405L37.135,37.374L37.552,37.343L37.969,37.312L38.387,37.281L38.804,37.25L39.221,37.219L39.638,37.188L40.056,37.157L40.473,37.126L40.89,37.095L41.307,37.064L41.725,37.033L42.142,37.002L42.559,36.971L42.976,36.94L43.394,36.91L43.811,36.9L44.228,36.883L44.645,36.867L45.063,36.85L45.48,36.833L45.897,36.817L46.314,36.8L46.732,36.783L47.149,36.767L47.566,36.75L47.983,36.733L48.401,36.717L48.818,36.7L49.235,36.683L49.652,36.667L50.07,36.65L50.487,36.633L50.904,36.617L51.321,36.6L51.739,36.583L52.156,36.557L52.573,36.531L52.99,36.521L53.408,36.512L53.825,36.502L54.242,36.493L54.659,36.483L55.076,36.474L55.494,36.462L55.911,36.45L56.328,36.438L56.745,36.426L57.163,36.414L57.58,36.402L57.997,36.39L58.414,36.379L58.832,36.367L59.249,36.355L59.666,36.343L60.083,36.331L60.501,36.319L60.918,36.317L61.335,36.224L61.752,36.131L62.17,36.038L62.587,35.945L63.004,35.852L63.421,35.76L63.839,35.664L64.256,35.571L64.673,35.479L65.09,35.386L65.508,35.293L65.925,35.2L66.342,35.107L66.759,35.01L67.177,34.912L67.594,34.814L68.011,34.717L68.428,34.619L68.846,34.521L69.263,34.424L69.68,34.326L70.097,34.319L70.515,34.31L70.932,34.3L71.349,34.29L71.766,34.281L72.184,34.271L72.601,34.264L73.018,34.257L73.435,34.25L73.853,34.243L74.27,34.236L74.687,34.229L75.104,34.221L75.522,34.219L75.939,34.217L76.356,34.214L76.773,34.212L77.191,34.21L77.608,34.207L78.025,34.205L78.442,34.202L78.86,34.2L79.277,34.2L79.694,34.2L80.111,34.2L80.529,34.2L80.946,34.2L81.363,34.2L81.78,34.2L82.197,34.2L82.615,34.2L83.032,34.2L83.449,34.2L83.866,34.2L84.284,34.2L84.701,34.2L85.118,34.2L85.535,34.2L85.953,34.2L86.37,34.2L86.787,34.2L87.204,34.2L87.622,34.2L88.039,34.2L88.456,34.2L88.873,34.198L89.291,34.195L89.708,34.193L90.125,34.19L90.542,34.188L90.96,34.186L91.377,34.183L91.794,34.181L92.211,34.176L92.629,34.171L93.046,34.167L93.463,34.162L93.88,34.157L94.298,34.152L94.715,34.148L95.132,34.143L95.549,34.138L95.967,34.133L96.384,34.121L96.801,34.11L97.218,34.095L97.636,34.083L98.053,34.071L98.47,34.06L98.887,34.048L99.305,34.036L99.722,34.024L100.139,34.012L100.556,34L100.974,33.99L101.391,33.981L101.808,33.971L102.225,33.962L102.643,33.952L103.06,33.943L103.477,33.933L103.894,33.917L104.312,33.9L104.729,33.883L105.146,33.874L105.563,33.862L105.981,33.852L106.398,33.843L106.815,33.833L107.232,33.824L107.65,33.814L108.067,33.805L108.484,33.795L108.901,33.786L109.318,33.776L109.736,33.767L110.153,33.757L110.57,33.748L110.987,33.738L111.405,33.729L111.822,33.719L112.239,33.71L112.656,33.707L113.074,33.705L113.491,33.702L113.908,33.7L114.325,33.7L114.743,33.7L115.16,33.7L115.577,33.7L115.994,33.7L116.412,33.7L116.829,33.7L117.246,33.7L117.663,33.7L118.081,33.7L118.498,33.7L118.915,33.7L119.332,33.7L119.75,33.7L120.167,33.7L120.584,33.7L121.001,33.7L121.419,33.7L121.836,33.7L122.253,33.7L122.67,33.7L123.088,33.7L123.505,33.7L123.922,33.7L124.339,33.7L124.757,33.7L125.174,33.681L125.591,33.662L126.008,33.64L126.426,33.619L126.843,33.598L127.26,33.576L127.677,33.555L128.095,33.533L128.512,33.512L128.929,33.49L129.346,33.469L129.764,33.448L130.181,33.426L130.598,33.405L131.015,33.383L131.433,33.362L131.85,33.34L132.267,33.319L132.684,33.298L133.102,33.276L133.519,33.255L133.936,33.252L134.353,33.25L134.771,33.25L135.188,33.25L135.605,33.25L136.022,33.25L136.439,33.25L136.857,33.25L137.274,33.25L137.691,33.25L138.108,33.25L138.526,33.25L138.943,33.25L139.36,33.25L139.777,33.25L140.195,33.25L140.612,33.25L141.029,33.243L141.446,33.231L141.864,33.219L142.281,33.207L142.698,33.195L143.115,33.183L143.533,33.171L143.95,33.16L144.367,33.148L144.784,33.136L145.202,33.124L145.619,33.112L146.036,33.1L146.453,33.088L146.871,33.076L147.288,33.064L147.705,33.052L148.122,33.04L148.54,33.029L148.957,33.017L149.374,33.005L149.791,33L150.209,33L150.626,33L151.043,33L151.46,33L151.878,33L152.295,33L152.712,33L153.129,33L153.547,33L153.964,33L154.381,33L154.798,33L155.216,33L155.633,33L156.05,33L156.467,33L156.885,33L157.302,33L157.719,33L158.136,33L158.554,33L158.971,33L159.388,33L159.805,33L160.223,33L160.64,33L161.057,33L161.474,33L161.892,32.995L162.309,32.99L162.726,32.986L163.143,32.981L163.561,32.976L163.978,32.971L164.395,32.967L164.812,32.962L165.229,32.957L165.647,32.952L166.064,32.948L166.481,32.943L166.898,32.938L167.316,32.933L167.733,32.929L168.15,32.924L168.567,32.919L168.985,32.914L169.402,32.91L169.819,32.905L170.236,32.9L170.654,32.9L171.071,32.9L171.488,32.9L171.905,32.9L172.323,32.9L172.74,32.9L173.157,32.895L173.574,32.89L173.992,32.886L174.409,32.881L174.826,32.876L175.243,32.871L175.661,32.867L176.078,32.862L176.495,32.857L176.912,32.852L177.33,32.848L177.747,32.843L178.164,32.838L178.581,32.833L178.999,32.829L179.416,32.824L179.833,32.819L180.25,32.814L180.668,32.81L181.085,32.805L181.502,32.8L181.919,32.8L182.337,32.8L182.754,32.8L183.171,32.8L183.588,32.8L184.006,32.8L184.423,32.8L184.84,32.8L185.257,32.8L185.675,32.795L186.092,32.79L186.509,32.786L186.926,32.781L187.344,32.776L187.761,32.771L188.178,32.767L188.595,32.762L189.013,32.757L189.43,32.752L189.847,32.748L190.264,32.743L190.682,32.738L191.099,32.733L191.516,32.729L191.933,32.724L192.35,32.719L192.768,32.714L193.185,32.71L193.602,32.705L194.019,32.7L194.437,32.7L194.854,32.7L195.271,32.7L195.688,32.7L196.106,32.7L196.523,32.7L196.94,32.7L197.357,32.7L197.775,32.7L198.192,32.7L198.609,32.7L199.026,32.7L199.444,32.7L199.861,32.7L200.278,32.7L200.695,32.7L201.113,32.7L201.53,32.7L201.947,32.7L202.364,32.695L202.782,32.69L203.199,32.686L203.616,32.681L204.033,32.676L204.451,32.671L204.868,32.667L205.285,32.662L205.702,32.657L206.12,32.652L206.537,32.648L206.954,32.643L207.371,32.638L207.789,32.633L208.206,32.629L208.623,32.624L209.04,32.619L209.458,32.614L209.875,32.61L210.292,32.605L210.709,32.6L211.127,32.6L211.544,32.6L211.961,32.6L212.378,32.6L212.796,32.6L213.213,32.6L213.63,32.6L214.047,32.6L214.465,32.6L214.882,32.6L215.299,32.6L215.716,32.6L216.134,32.6L216.551,32.6L216.968,32.6L217.385,32.6L217.803,32.6L218.22,32.6L218.637,32.6L219.054,32.6L219.471,32.6L219.889,32.6L220.306,32.6L220.723,32.6L221.14,32.6L221.558,32.6L221.975,32.6L222.392,32.6L222.809,32.6L223.227,32.6L223.644,32.6L224.061,32.6L224.478,32.6L224.896,32.6L225.313,32.6L225.73,32.6L226.147,32.6L226.565,32.6L226.982,32.6L227.399,32.6L227.816,32.6L228.234,32.6L228.651,32.6L229.068,32.6L229.485,32.6L229.903,32.595L230.32,32.59L230.737,32.586L231.154,32.581L231.572,32.557L231.989,32.533L232.406,32.51L232.823,32.486L233.241,32.462L233.658,32.438L234.075,32.414L234.492,32.39L234.91,32.367L235.327,32.343L235.744,32.319L236.161,32.295L236.579,32.271L236.996,32.248L237.413,32.224L237.83,32.2L238.248,32.176L238.665,32.157L239.082,32.138L239.499,32.119L239.917,32.1L240.334,32.1L240.751,32.1L241.168,32.055L241.586,32.01L242.003,31.964L242.42,31.919L242.837,31.874L243.255,31.829L243.672,31.783L244.089,31.738L244.506,31.693L244.924,31.648L245.341,31.602L245.758,31.557L246.175,31.512L246.592,31.467L247.01,31.421L247.427,31.376L247.844,31.283L248.261,31.19L248.679,31.098L249.096,31.005L249.513,30.912L249.93,30.864L250.348,30.817L250.765,30.769L251.182,30.721L251.599,30.674L252.017,30.626L252.434,30.579L252.851,30.531L253.268,30.483L253.686,30.436L254.103,30.388L254.52,30.34L254.937,30.293L255.355,30.245L255.772,30.198L256.189,30.15L256.606,30.15L257.024,30.15L257.441,30.15L257.858,30.15L258.275,30.15L258.693,30.15L259.11,30.15L259.527,30.15L259.944,30.15L260.362,30.15L260.779,30.14L261.196,30.131L261.613,30.121L262.031,30.112L262.448,30.102L262.865,30.093L263.282,30.083L263.7,30.074L264.117,30.064L264.534,30.055L264.951,30.045L265.369,30.036L265.786,30.026L266.203,30.017L266.62,30.007L267.038,29.998L267.455,29.988L267.872,29.979L268.289,29.969L268.707,29.96L269.124,29.95L269.541,29.95L269.958,29.95L270.376,29.95L270.793,29.95L271.21,29.95L271.627,29.95L272.045,29.95L272.462,29.95L272.879,29.95L273.296,29.95L273.713,29.95L274.131,29.95L274.548,29.95L274.965,29.95L275.382,29.95L275.8,29.95L276.217,29.95L276.634,29.95L277.051,29.95L277.469,29.95L277.886,29.95L278.303,29.95L278.72,29.95L279.138,29.948L279.555,29.945L279.972,29.943L280.389,29.94L280.807,29.938L281.224,29.936L281.641,29.933L282.058,29.931L282.476,29.929L282.893,29.926L283.31,29.924L283.727,29.921L284.145,29.919L284.562,29.917L284.979,29.914L285.396,29.912L285.814,29.91L286.231,29.907L286.648,29.905L287.065,29.902L287.483,29.9L287.9,29.9L288.317,29.9L288.734,29.9L289.152,29.9L289.569,29.9L289.986,29.9L290.403,29.9L290.821,29.9L291.238,29.9L291.655,29.9L292.072,29.9L292.49,29.9L292.907,29.9L293.324,29.9L293.741,29.9L294.159,29.9L294.576,29.9L294.993,29.9L295.41,29.9L295.828,29.9L296.245,29.9L296.662,29.9L297.079,29.9L297.497,29.9L297.914,29.9L298.331,29.9L298.748,29.9L299.166,29.9L299.583,29.9L300,29.9L300,29.9L299.583,29.9L299.166,29.9L298.748,29.9L298.331,29.9L297.914,29.9L297.497,29.9L297.079,29.9L296.662,29.9L296.245,29.9L295.828,29.9L295.41,29.9L294.993,29.9L294.576,29.9L294.159,29.9L293.741,29.9L293.324,29.9L292.907,29.9L292.49,29.9L292.072,29.9L291.655,29.9L291.238,29.9L290.821,29.9L290.403,29.9L289.986,29.9L289.569,29.9L289.152,29.9L288.734,29.9L288.317,29.9L287.9,29.9L287.483,29.9L287.065,29.902L286.648,29.905L286.231,29.907L285.814,29.91L285.396,29.912L284.979,29.914L284.562,29.917L284.145,29.919L283.727,29.921L283.31,29.924L282.893,29.926L282.476,29.929L282.058,29.931L281.641,29.933L281.224,29.936L280.807,29.938L280.389,29.94L279.972,29.943L279.555,29.945L279.138,29.948L278.72,29.95L278.303,29.95L277.886,29.95L277.469,29.95L277.051,29.95L276.634,29.95L276.217,29.95L275.8,29.95L275.382,29.95L274.965,29.95L274.548,29.95L274.131,29.95L273.713,29.95L273.296,29.95L272.879,29.95L272.462,29.95L272.045,29.95L271.627,29.95L271.21,29.95L270.793,29.95L270.376,29.95L269.958,29.95L269.541,29.95L269.124,29.95L268.707,29.96L268.289,29.969L267.872,29.979L267.455,29.988L267.038,29.998L266.62,30.007L266.203,30.017L265.786,30.026L265.369,30.036L264.951,30.045L264.534,30.055L264.117,30.064L263.7,30.074L263.282,30.083L262.865,30.093L262.448,30.102L262.031,30.112L261.613,30.121L261.196,30.131L260.779,30.14L260.362,30.15L259.944,30.15L259.527,30.15L259.11,30.15L258.693,30.15L258.275,30.15L257.858,30.15L257.441,30.15L257.024,30.15L256.606,30.15L256.189,30.15L255.772,30.198L255.355,30.245L254.937,30.293L254.52,30.34L254.103,30.388L253.686,30.436L253.268,30.483L252.851,30.531L252.434,30.579L252.017,30.626L251.599,30.674L251.182,30.721L250.765,30.769L250.348,30.817L249.93,30.864L249.513,30.912L249.096,31.005L248.679,31.098L248.261,31.19L247.844,31.283L247.427,31.376L247.01,31.421L246.592,31.467L246.175,31.512L245.758,31.557L245.341,31.602L244.924,31.648L244.506,31.693L244.089,31.738L243.672,31.783L243.255,31.829L242.837,31.874L242.42,31.919L242.003,31.964L241.586,32.01L241.168,32.055L240.751,32.1L240.334,32.1L239.917,32.1L239.499,32.119L239.082,32.138L238.665,32.157L238.248,32.176L237.83,32.2L237.413,32.224L236.996,32.248L236.579,32.271L236.161,32.295L235.744,32.319L235.327,32.343L234.91,32.367L234.492,32.39L234.075,32.414L233.658,32.438L233.241,32.462L232.823,32.486L232.406,32.51L231.989,32.533L231.572,32.557L231.154,32.581L230.737,32.586L230.32,32.59L229.903,32.595L229.485,32.6L229.068,32.6L228.651,32.6L228.234,32.6L227.816,32.6L227.399,32.6L226.982,32.6L226.565,32.6L226.147,32.6L225.73,32.6L225.313,32.6L224.896,32.6L224.478,32.6L224.061,32.6L223.644,32.6L223.227,32.6L222.809,32.6L222.392,32.6L221.975,32.6L221.558,32.6L221.14,32.6L220.723,32.6L220.306,32.6L219.889,32.6L219.471,32.6L219.054,32.6L218.637,32.6L218.22,32.6L217.803,32.6L217.385,32.6L216.968,32.6L216.551,32.6L216.134,32.6L215.716,32.6L215.299,32.6L214.882,32.6L214.465,32.6L214.047,32.6L213.63,32.6L213.213,32.6L212.796,32.6L212.378,32.6L211.961,32.6L211.544,32.6L211.127,32.6L210.709,32.6L210.292,32.605L209.875,32.61L209.458,32.614L209.04,32.619L208.623,32.624L208.206,32.629L207.789,32.633L207.371,32.638L206.954,32.643L206.537,32.648L206.12,32.652L205.702,32.657L205.285,32.662L204.868,32.667L204.451,32.671L204.033,32.676L203.616,32.681L203.199,32.686L202.782,32.69L202.364,32.695L201.947,32.7L201.53,32.7L201.113,32.7L200.695,32.7L200.278,32.7L199.861,32.7L199.444,32.7L199.026,32.7L198.609,32.7L198.192,32.7L197.775,32.7L197.357,32.7L196.94,32.7L196.523,32.7L196.106,32.7L195.688,32.7L195.271,32.7L194.854,32.7L194.437,32.7L194.019,32.7L193.602,32.705L193.185,32.71L192.768,32.714L192.35,32.719L191.933,32.724L191.516,32.729L191.099,32.733L190.682,32.738L190.264,32.743L189.847,32.748L189.43,32.752L189.013,32.757L188.595,32.762L188.178,32.767L187.761,32.771L187.344,32.776L186.926,32.781L186.509,32.786L186.092,32.79L185.675,32.795L185.257,32.8L184.84,32.8L184.423,32.8L184.006,32.8L183.588,32.8L183.171,32.8L182.754,32.8L182.337,32.8L181.919,32.8L181.502,32.8L181.085,32.805L180.668,32.81L180.25,32.814L179.833,32.819L179.416,32.824L178.999,32.829L178.581,32.833L178.164,32.838L177.747,32.843L177.33,32.848L176.912,32.852L176.495,32.857L176.078,32.862L175.661,32.867L175.243,32.871L174.826,32.876L174.409,32.881L173.992,32.886L173.574,32.89L173.157,32.895L172.74,32.9L172.323,32.9L171.905,32.9L171.488,32.9L171.071,32.9L170.654,32.9L170.236,32.9L169.819,32.905L169.402,32.91L168.985,32.914L168.567,32.919L168.15,32.924L167.733,32.929L167.316,32.933L166.898,32.938L166.481,32.943L166.064,32.948L165.647,32.952L165.229,32.957L164.812,32.962L164.395,32.967L163.978,32.971L163.561,32.976L163.143,32.981L162.726,32.986L162.309,32.99L161.892,32.995L161.474,33L161.057,33L160.64,33L160.223,33L159.805,33L159.388,33L158.971,33L158.554,33L158.136,33L157.719,33L157.302,33L156.885,33L156.467,33L156.05,33L155.633,33L155.216,33L154.798,33L154.381,33L153.964,33L153.547,33L153.129,33L152.712,33L152.295,33L151.878,33L151.46,33L151.043,33L150.626,33L150.209,33L149.791,33L149.374,33.005L148.957,33.017L148.54,33.029L148.122,33.04L147.705,33.052L147.288,33.064L146.871,33.076L146.453,33.088L146.036,33.1L145.619,33.112L145.202,33.124L144.784,33.136L144.367,33.148L143.95,33.16L143.533,33.171L143.115,33.183L142.698,33.195L142.281,33.207L141.864,33.219L141.446,33.231L141.029,33.243L140.612,33.25L140.195,33.25L139.777,33.25L139.36,33.25L138.943,33.25L138.526,33.25L138.108,33.25L137.691,33.25L137.274,33.25L136.857,33.25L136.439,33.25L136.022,33.25L135.605,33.25L135.188,33.25L134.771,33.25L134.353,33.25L133.936,33.252L133.519,33.255L133.102,33.276L132.684,33.298L132.267,33.319L131.85,33.34L131.433,33.362L131.015,33.383L130.598,33.405L130.181,33.426L129.764,33.448L129.346,33.469L128.929,33.49L128.512,33.512L128.095,33.533L127.677,33.555L127.26,33.576L126.843,33.598L126.426,33.619L126.008,33.64L125.591,33.662L125.174,33.681L124.757,33.7L124.339,33.7L123.922,33.7L123.505,33.7L123.088,33.7L122.67,33.7L122.253,33.7L121.836,33.7L121.419,33.7L121.001,33.7L120.584,33.7L120.167,33.7L119.75,33.7L119.332,33.7L118.915,33.7L118.498,33.7L118.081,33.7L117.663,33.7L117.246,33.7L116.829,33.7L116.412,33.7L115.994,33.7L115.577,33.7L115.16,33.7L114.743,33.7L114.325,33.7L113.908,33.7L113.491,33.702L113.074,33.705L112.656,33.707L112.239,33.71L111.822,33.719L111.405,33.729L110.987,33.738L110.57,33.748L110.153,33.757L109.736,33.767L109.318,33.776L108.901,33.786L108.484,33.795L108.067,33.805L107.65,33.814L107.232,33.824L106.815,33.833L106.398,33.843L105.981,33.852L105.563,33.862L105.146,33.874L104.729,33.883L104.312,33.9L103.894,33.917L103.477,33.933L103.06,33.943L102.643,33.952L102.225,33.962L101.808,33.971L101.391,33.981L100.974,33.99L100.556,34L100.139,34.012L99.722,34.024L99.305,34.036L98.887,34.048L98.47,34.06L98.053,34.071L97.636,34.083L97.218,34.095L96.801,34.11L96.384,34.121L95.967,34.133L95.549,34.138L95.132,34.143L94.715,34.148L94.298,34.152L93.88,34.157L93.463,34.162L93.046,34.167L92.629,34.171L92.211,34.176L91.794,34.181L91.377,34.183L90.96,34.186L90.542,34.188L90.125,34.19L89.708,34.193L89.291,34.195L88.873,34.198L88.456,34.2L88.039,34.2L87.622,34.2L87.204,34.2L86.787,34.2L86.37,34.2L85.953,34.2L85.535,34.2L85.118,34.2L84.701,34.2L84.284,34.2L83.866,34.2L83.449,34.2L83.032,34.2L82.615,34.2L82.197,34.2L81.78,34.2L81.363,34.2L80.946,34.2L80.529,34.2L80.111,34.2L79.694,34.2L79.277,34.2L78.86,34.2L78.442,34.202L78.025,34.205L77.608,34.207L77.191,34.21L76.773,34.212L76.356,34.214L75.939,34.217L75.522,34.219L75.104,34.221L74.687,34.229L74.27,34.236L73.853,34.243L73.435,34.25L73.018,34.257L72.601,34.264L72.184,34.271L71.766,34.281L71.349,34.29L70.932,34.3L70.515,34.31L70.097,34.319L69.68,34.326L69.263,34.424L68.846,34.521L68.428,34.619L68.011,34.717L67.594,34.814L67.177,34.912L66.759,35.01L66.342,35.107L65.925,35.2L65.508,35.293L65.09,35.386L64.673,35.479L64.256,35.571L63.839,35.664L63.421,35.76L63.004,35.852L62.587,35.945L62.17,36.038L61.752,36.131L61.335,36.224L60.918,36.317L60.501,36.319L60.083,36.331L59.666,36.343L59.249,36.355L58.832,36.367L58.414,36.379L57.997,36.39L57.58,36.402L57.163,36.414L56.745,36.426L56.328,36.438L55.911,36.45L55.494,36.462L55.076,36.474L54.659,36.483L54.242,36.493L53.825,36.502L53.408,36.512L52.99,36.521L52.573,36.531L52.156,36.557L51.739,36.583L51.321,36.6L50.904,36.617L50.487,36.633L50.07,36.65L49.652,36.667L49.235,36.683L48.818,36.7L48.401,36.717L47.983,36.733L47.566,36.75L47.149,36.767L46.732,36.783L46.314,36.8L45.897,36.817L45.48,36.833L45.063,36.85L44.645,36.867L44.228,36.883L43.811,36.9L43.394,36.91L42.976,36.94L42.559,36.971L42.142,37.002L41.725,37.033L41.307,37.064L40.89,37.095L40.473,37.126L40.056,37.157L39.638,37.188L39.221,37.219L38.804,37.25L38.387,37.281L37.969,37.312L37.552,37.343L37.135,37.374L36.718,37.405L36.3,37.436L35.883,37.467L35.466,37.5L35.049,37.533L34.631,37.557L34.214,37.56L33.797,37.562L33.38,37.564L32.962,37.567L32.545,37.569L32.128,37.571L31.711,37.574L31.293,37.576L30.876,37.579L30.459,37.581L30.042,37.583L29.624,37.586L29.207,37.588L28.79,37.59L28.373,37.593L27.955,37.595L27.538,37.6L27.121,37.605L26.704,37.607L26.287,37.61L25.869,37.612L25.452,37.614L25.035,37.617L24.618,37.624L24.2,37.645L23.783,37.669L23.366,37.693L22.949,37.719L22.531,37.786L22.114,37.855L21.697,37.926L21.28,38L20.862,38.081L20.445,38.167L20.028,38.252L19.611,38.398L19.193,38.543L18.776,38.686L18.359,38.833L17.942,38.981L17.524,39.129L17.107,39.276L16.69,40.621L16.273,41.979L15.855,43.331L15.438,44.669L15.021,46.005L14.604,47.34L14.186,48.674L13.769,49.971L13.352,51.267L12.935,52.562L12.517,53.871L12.1,55.236L11.683,56.614L11.266,58.04L10.848,59.429L10.431,60.829L10.014,62.255L9.597,63.683L9.179,65.15L8.762,66.629L8.345,74.212L7.928,74.628L7.51,75.074L7.093,75.569L6.676,76.124L6.259,76.747L5.841,77.453L5.424,78.261L5.007,79.185L4.59,80.262L4.172,81.532L3.755,83.02L3.338,84.694L2.921,86.738L2.503,89.221L2.086,92.458L1.669,96.94L1.252,103.525L0.834,114.45L0.417,135.9L0,200Z" fill="#f59c0c" opacity="0.2"/></g></g><path class="foreground" aria-hidden="true" d="" display="none"/></g></g><g class="mark-group role-legend" role="graphics-symbol" aria-roledescription="legend" aria-label="Symbol legend titled 'Fuzzer' for shape, fill color and stroke color with 4 values: ft, aflnet, stateafl, sgfuzz"><g transform="translate(0,-47)"><path class="background" aria-hidden="true" d="M0,0h190v29h-190Z" pointer-events="none"/><g><g class="mark-group role-legend-entry"><g transform="translate(0,16)"><path class="background" aria-hidden="true" d="M0,0h0v0h0Z" pointer-events="none"/><g><g class="mark-group role-scope" role="graphics-object" aria-roledescription="group mark container"><g transform="translate(0,0.25)"><path class="background" aria-hidden="true" d="M0,0h21.556640625v12.5h-21.556640625Z" pointer-events="none" opacity="1"/><g><g class="mark-symbol role-legend-symbol" pointer-events="none"><path transform="translate(6,6)" d="M5,0A5,5,0,1,1,-5,0A5,5,0,1,1,5,0" fill="#d66368" fill-opacity="1" stroke="#d66368" stroke-width="1.5" opacity="1"/></g><g class="mark-text role-legend-label" pointer-events="none"><text text-anchor="start" transform="translate(16,9)" font-family="sans-serif" font-size="10px" fill="#000" opacity="1">ft</text></g></g><path class="foreground" aria-hidden="true" d="" pointer-events="none" display="none"/></g><g transform="translate(33,0.25)"><path class="background" aria-hidden="true" d="M0,0h40.462890625v12.5h-40.462890625Z" pointer-events="none" opacity="1"/><g><g class="mark-symbol role-legend-symbol" pointer-events="none"><path transform="translate(6,6)" d="M-5,-5h10v10h-10Z" fill="#f59c0c" fill-opacity="1" stroke="#f59c0c" stroke-width="1.5" opacity="1"/></g><g class="mark-text role-legend-label" pointer-events="none"><text text-anchor="start" transform="translate(16,9)" font-family="sans-serif" font-size="10px" fill="#000" opacity="1">aflnet</text></g></g><path class="foreground" aria-hidden="true" d="" pointer-events="none" display="none"/></g><g transform="translate(85,0.5849364905389036)"><path class="background" aria-hidden="true" d="M0,0h48.2412109375v11.830127018922191h-48.2412109375Z" pointer-events="none" opacity="1"/><g><g class="mark-symbol role-legend-symbol" pointer-events="none"><path transform="translate(6,6)" d="M0,-4.33L-5,4.33L5,4.33Z" fill="#109426" fill-opacity="1" stroke="#109426" stroke-width="1.5" opacity="1"/></g><g class="mark-text role-legend-label" pointer-events="none"><text text-anchor="start" transform="translate(16,9)" font-family="sans-serif" font-size="10px" fill="#000" opacity="1">stateafl</text></g></g><path class="foreground" aria-hidden="true" d="" pointer-events="none" display="none"/></g><g transform="translate(145,0.25)"><path class="background" aria-hidden="true" d="M0,0h44.9013671875v12.5h-44.9013671875Z" pointer-events="none" opacity="1"/><g><g class="mark-symbol role-legend-symbol" pointer-events="none"><path transform="translate(6,6)" d="M-5,-2L-5,2L-2,2L-2,5L2,5L2,2L5,2L5,-2L2,-2L2,-5L-2,-5L-2,-2Z" fill="#808b88" fill-opacity="1" stroke="#808b88" stroke-width="1.5" opacity="1"/></g><g class="mark-text role-legend-label" pointer-events="none"><text text-anchor="start" transform="translate(16,9)" font-family="sans-serif" font-size="10px" fill="#000" opacity="1">sgfuzz</text></g></g><path class="foreground" aria-hidden="true" d="" pointer-events="none" display="none"/></g></g></g><path class="foreground" aria-hidden="true" d="" pointer-events="none" display="none"/></g></g><g class="mark-text role-legend-title" pointer-events="none"><text text-anchor="start" transform="translate(0,9)" font-family="sans-serif" font-size="11px" font-weight="bold" fill="#000" opacity="1">Fuzzer</text></g></g><path class="foreground" aria-hidden="true" d="" pointer-events="none" display="none"/></g></g><g class="mark-group role-title"><g transform="translate(150,-64)"><path class="background" aria-hidden="true" d="M0,0h0v0h0Z" pointer-events="none"/><g><g class="mark-text role-title-text" role="graphics-symbol" aria-roledescription="title" aria-label="Title text 'target:artifact_dcmsend_dcmrecv_1,cores:4,timeout:43200s'" pointer-events="none"><text text-anchor="middle" transform="translate(0,10)" font-family="sans-serif" font-size="13px" font-weight="bold" fill="#000" opacity="1">target:artifact_dcmsend_dcmrecv_1,cores:4,timeout:43200s</text></g></g><path class="foreground" aria-hidden="true" d="" pointer-events="none" display="none"/></g></g></g><path class="foreground" aria-hidden="true" d="" display="none"/></g></g></g></svg>