<svg xmlns="http://www.w3.org/2000/svg" xmlns:xlink="http://www.w3.org/1999/xlink" version="1.1" class="marks" width="388" height="306" viewBox="0 0 388 306"><rect width="388" height="306" fill="white"/><g fill="none" stroke-miterlimit="10" transform="translate(53,69)"><g class="mark-group role-frame root" role="graphics-object" aria-roledescription="group mark container"><g transform="translate(0,0)"><path class="background" aria-hidden="true" d="M0.5,0.5h300v200h-300Z" stroke="#ddd"/><g><g class="mark-group role-axis" aria-hidden="true"><g transform="translate(0.5,200.5)"><path class="background" aria-hidden="true" d="M0,0h0v0h0Z" pointer-events="none"/><g><g class="mark-rule role-axis-grid" pointer-events="none"><line transform="translate(0,-200)" x2="0" y2="200" stroke="#ddd" stroke-width="1" opacity="1"/><line transform="translate(25,-200)" x2="0" y2="200" stroke="#ddd" stroke-width="1" opacity="1"/><line transform="translate(50,-200)" x2="0" y2="200" stroke="#ddd" stroke-width="1" opacity="1"/><line transform="translate(75,-200)" x2="0" y2="200" stroke="#ddd" stroke-width="1" opacity="1"/><line transform="translate(100,-200)" x2="0" y2="200" stroke="#ddd" stroke-width="1" opacity="1"/><line transform="translate(125,-200)" x2="0" y2="200" stroke="#ddd" stroke-width="1" opacity="1"/><line transform="translate(150,-200)" x2="0" y2="200" stroke="#ddd" stroke-width="1" opacity="1"/><line transform="translate(175,-200)" x2="0" y2="200" stroke="#ddd" stroke-width="1" opacity="1"/><line transform="translate(200,-200)" x2="0" y2="200" stroke="#ddd" stroke-width="1" opacity="1"/><line transform="translate(225,-200)" x2="0" y2="200" stroke="#ddd" stroke-width="1" opacity="1"/><line transform="translate(250,-200)" x2="0" y2="200" stroke="#ddd" stroke-width="1" opacity="1"/><line transform="translate(275,-200)" x2="0" y2="200" stroke="#ddd" stroke-width="1" opacity="1"/></g></g><path class="foreground" aria-hidden="true" d="" pointer-events="none" display="none"/></g></g><g class="mark-group role-axis" aria-hidden="true"><g transform="translate(0.5,0.5)"><path class="background" aria-hidden="true" d="M0,0h0v0h0Z" pointer-events="none"/><g><g class="mark-rule role-axis-grid" pointer-events="none"><line transform="translate(0,200)" x2="300" y2="0" stroke="#ddd" stroke-width="1" opacity="1"/><line transform="translate(0,171)" x2="300" y2="0" stroke="#ddd" stroke-width="1" opacity="1"/><line transform="translate(0,143)" x2="300" y2="0" stroke="#ddd" stroke-width="1" opacity="1"/><line transform="translate(0,114)" x2="300" y2="0" stroke="#ddd" stroke-width="1" opacity="1"/><line transform="translate(0,86)" x2="300" y2="0" stroke="#ddd" stroke-width="1" opacity="1"/><line transform="translate(0,57)" x2="300" y2="0" stroke="#ddd" stroke-width="1" opacity="1"/><line transform="translate(0,29)" x2="300" y2="0" stroke="#ddd" stroke-width="1" opacity="1"/><line transform="translate(0,0)" x2="300" y2="0" stroke="#ddd" stroke-width="1" opacity="1"/></g></g><path class="foreground" aria-hidden="true" d="" pointer-events="none" display="none"/></g></g><g class="mark-group role-axis" role="graphics-symbol" aria-roledescription="axis" aria-label="X-axis titled 'Time [hh:mm]' for a time scale with values from 00:00 to 11:59"><g transform="translate(0.5,200.5)"><path class="background" aria-hidden="true" d="M0,0h0v0h0Z" pointer-events="none"/><g><g class="mark-rule role-axis-tick" pointer-events="none"><line transform="translate(0,0)" x2="0" y2="5" stroke="#888" stroke-width="1" opacity="1"/><line transform="translate(25,0)" x2="0" y2="5" stroke="#888" stroke-width="1" opacity="1"/><line transform="translate(50,0)" x2="0" y2="5" stroke="#888" stroke-width="1" opacity="1"/><line transform="translate(75,0)" x2="0" y2="5" stroke="#888" stroke-width="1" opacity="1"/><line transform="translate(100,0)" x2="0" y2="5" stroke="#888" stroke-width="1" opacity="1"/><line transform="translate(125,0)" x2="0" y2="5" stroke="#888" stroke-width="1" opacity="1"/><line transform="translate(150,0)" x2="0" y2="5" stroke="#888" stroke-width="1" opacity="1"/><line transform="translate(175,0)" x2="0" y2="5" stroke="#888" stroke-width="1" opacity="1"/><line transform="translate(200,0)" x2="0" y2="5" stroke="#888" stroke-width="1" opacity="1"/><line transform="translate(225,0)" x2="0" y2="5" stroke="#888" stroke-width="1" opacity="1"/><line transform="translate(250,0)" x2="0" y2="5" stroke="#888" stroke-width="1" opacity="1"/><line transform="translate(275,0)" x2="0" y2="5" stroke="#888" stroke-width="1" opacity="1"/></g><g class="mark-text role-axis-label" pointer-events="none"><text text-anchor="start" transform="translate(0,15)" font-family="sans-serif" font-size="10px" fill="#000" opacity="1">00:00</text><text text-anchor="middle" transform="translate(25.03477051460362,15)" font-family="sans-serif" font-size="10px" fill="#000" opacity="0">01:00</text><text text-anchor="middle" transform="translate(50.06954102920724,15)" font-family="sans-serif" font-size="10px" fill="#000" opacity="1">02:00</text><text text-anchor="middle" transform="translate(75.10431154381085,15)" font-family="sans-serif" font-size="10px" fill="#000" opacity="0">03:00</text><text text-anchor="middle" transform="translate(100.13908205841447,15)" font-family="sans-serif" font-size="10px" fill="#000" opacity="1">04:00</text><text text-anchor="middle" transform="translate(125.17385257301808,15)" font-family="sans-serif" font-size="10px" fill="#000" opacity="0">05:00</text><text text-anchor="middle" transform="translate(150.2086230876217,15)" font-family="sans-serif" font-size="10px" fill="#000" opacity="1">06:00</text><text text-anchor="middle" transform="translate(175.24339360222532,15)" font-family="sans-serif" font-size="10px" fill="#000" opacity="0">07:00</text><text text-anchor="middle" transform="translate(200.27816411682895,15)" font-family="sans-serif" font-size="10px" fill="#000" opacity="1">08:00</text><text text-anchor="middle" transform="translate(225.31293463143257,15)" font-family="sans-serif" font-size="10px" fill="#000" opacity="0">09:00</text><text text-anchor="middle" transform="translate(250.34770514603616,15)" font-family="sans-serif" font-size="10px" fill="#000" opacity="1">10:00</text><text text-anchor="middle" transform="translate(275.3824756606398,15)" font-family="sans-serif" font-size="10px" fill="#000" opacity="0">11:00</text></g><g class="mark-rule role-axis-domain" pointer-events="none"><line transform="translate(0,0)" x2="300" y2="0" stroke="#888" stroke-width="1" opacity="1"/></g><g class="mark-text role-axis-title" pointer-events="none"><text text-anchor="middle" transform="translate(150,30)" font-family="sans-serif" font-size="11px" font-weight="bold" fill="#000" opacity="1">Time [hh:mm]</text></g></g><path class="foreground" aria-hidden="true" d="" pointer-events="none" display="none"/></g></g><g class="mark-group role-axis" role="graphics-symbol" aria-roledescription="axis" aria-label="Y-axis titled '#Covered Branches' for a linear scale with values from 0 to 3,500"><g transform="translate(0.5,0.5)"><path class="background" aria-hidden="true" d="M0,0h0v0h0Z" pointer-events="none"/><g><g class="mark-rule role-axis-tick" pointer-events="none"><line transform="translate(0,200)" x2="-5" y2="0" stroke="#888" stroke-width="1" opacity="1"/><line transform="translate(0,171)" x2="-5" y2="0" stroke="#888" stroke-width="1" opacity="1"/><line transform="translate(0,143)" x2="-5" y2="0" stroke="#888" stroke-width="1" opacity="1"/><line transform="translate(0,114)" x2="-5" y2="0" stroke="#888" stroke-width="1" opacity="1"/><line transform="translate(0,86)" x2="-5" y2="0" stroke="#888" stroke-width="1" opacity="1"/><line transform="translate(0,57)" x2="-5" y2="0" stroke="#888" stroke-width="1" opacity="1"/><line transform="translate(0,29)" x2="-5" y2="0" stroke="#888" stroke-width="1" opacity="1"/><line transform="translate(0,0)" x2="-5" y2="0" stroke="#888" stroke-width="1" opacity="1"/></g><g class="mark-text role-axis-label" pointer-events="none"><text text-anchor="end" transform="translate(-7,203)" font-family="sans-serif" font-size="10px" fill="#000" opacity="1">0</text><text text-anchor="end" transform="translate(-7,174.42857142857144)" font-family="sans-serif" font-size="10px" fill="#000" opacity="1">500</text><text text-anchor="end" transform="translate(-7,145.85714285714286)" font-family="sans-serif" font-size="10px" fill="#000" opacity="1">1,000</text><text text-anchor="end" transform="translate(-7,117.28571428571428)" font-family="sans-serif" font-size="10px" fill="#000" opacity="1">1,500</text><text text-anchor="end" transform="translate(-7,88.71428571428572)" font-family="sans-serif" font-size="10px" fill="#000" opacity="1">2,000</text><text text-anchor="end" transform="translate(-7,60.14285714285714)" font-family="sans-serif" font-size="10px" fill="#000" opacity="1">2,500</text><text text-anchor="end" transform="translate(-7,31.57142857142858)" font-family="sans-serif" font-size="10px" fill="#000" opacity="1">3,000</text><text text-anchor="end" transform="translate(-7,3)" font-family="sans-serif" font-size="10px" fill="#000" opacity="1">3,500</text></g><g class="mark-rule role-axis-domain" pointer-events="none"><line transform="translate(0,200)" x2="0" y2="-200" stroke="#888" stroke-width="1" opacity="1"/></g><g class="mark-text role-axis-title" pointer-events="none"><text text-anchor="middle" transform="translate(-36.0244140625,100) rotate(-90) translate(0,-2)" font-family="sans-serif" font-size="11px" font-weight="bold" fill="#000" opacity="1">#Covered Branches</text></g></g><path class="foreground" aria-hidden="true" d="" pointer-events="none" display="none"/></g></g><g class="mark-group role-scope layer_0_pathgroup" role="graphics-object" aria-roledescription="group mark container"><g transform="translate(0,0)"><path class="background" aria-hidden="true" d="M0,0h300v200h-300Z"/><g><g class="mark-line role-mark layer_0_marks" role="graphics-symbol" aria-roledescription="line mark container"><path d="M0,200L0.417,33.943L0.834,33.943L1.252,33.943L1.669,33.943L2.086,33.943L2.503,33.943L2.921,33.943L3.338,33.943L3.755,33.943L4.172,33.943L4.59,33.943L5.007,33.943L5.424,33.943L5.841,33.943L6.259,33.943L6.676,33.943L7.093,33.943L7.51,33.943L7.928,33.943L8.345,33.943L8.762,33.943L9.179,33.943L9.597,33.943L10.014,33.943L10.431,33.943L10.848,33.943L11.266,33.943L11.683,33.943L12.1,33.943L12.517,33.943L12.935,33.943L13.352,33.943L13.769,33.943L14.186,33.943L14.604,33.943L15.021,33.943L15.438,33.943L15.855,33.943L16.273,33.943L16.69,33.943L17.107,33.943L17.524,33.943L17.942,33.943L18.359,33.943L18.776,33.943L19.193,33.943L19.611,33.943L20.028,33.943L20.445,33.943L20.862,33.943L21.28,33.943L21.697,33.943L22.114,33.943L22.531,33.943L22.949,33.943L23.366,33.943L23.783,33.943L24.2,33.943L24.618,33.943L25.035,33.943L25.452,33.943L25.869,33.943L26.287,33.943L26.704,33.943L27.121,33.943L27.538,33.943L27.955,33.943L28.373,33.943L28.79,33.943L29.207,33.943L29.624,33.943L30.042,33.943L30.459,33.943L30.876,33.943L31.293,33.943L31.711,33.943L32.128,33.943L32.545,33.943L32.962,33.943L33.38,33.943L33.797,33.943L34.214,33.943L34.631,33.943L35.049,33.943L35.466,33.943L35.883,33.943L36.3,33.943L36.718,33.829L37.135,33.829L37.552,33.829L37.969,33.829L38.387,33.829L38.804,33.829L39.221,33.429L39.638,33.429L40.056,33.429L40.473,33.429L40.89,33.429L41.307,33.371L41.725,33.371L42.142,33.371L42.559,33.371L42.976,32.514L43.394,32.514L43.811,32.514L44.228,32.514L44.645,32.514L45.063,32.514L45.48,32.514L45.897,32.514L46.314,32.514L46.732,32.514L47.149,32.514L47.566,32.514L47.983,32.514L48.401,32.514L48.818,32.514L49.235,32.514L49.652,32.514L50.07,32.514L50.487,32.514L50.904,32.514L51.321,32.514L51.739,32.514L52.156,32.514L52.573,32.514L52.99,32.514L53.408,32.514L53.825,32.514L54.242,32.514L54.659,32.514L55.076,32.514L55.494,32.514L55.911,32.514L56.328,32.514L56.745,32.514L57.163,32.514L57.58,32.514L57.997,32.514L58.414,32.514L58.832,32.514L59.249,32.514L59.666,32.514L60.083,32.514L60.501,32.514L60.918,32.514L61.335,32.514L61.752,32.514L62.17,32.514L62.587,32.514L63.004,32.514L63.421,32.514L63.839,32.514L64.256,32.514L64.673,32.514L65.09,32.514L65.508,32.514L65.925,32.514L66.342,32.514L66.759,32.514L67.177,32.514L67.594,32.514L68.011,32.514L68.428,32.514L68.846,32.514L69.263,32.514L69.68,32.514L70.097,32.514L70.515,32.514L70.932,32.514L71.349,32.514L71.766,32.514L72.184,32.514L72.601,32.514L73.018,32.514L73.435,32.514L73.853,32.514L74.27,32.514L74.687,32.514L75.104,32.514L75.522,32.514L75.939,32.514L76.356,32.514L76.773,32.514L77.191,32.514L77.608,32.514L78.025,32.514L78.442,32.514L78.86,32.514L79.277,32.457L79.694,32.457L80.111,32.457L80.529,32.457L80.946,32.457L81.363,32.457L81.78,32.457L82.197,32.457L82.615,32.457L83.032,32.457L83.449,32.457L83.866,32.457L84.284,32.457L84.701,32.4L85.118,32.4L85.535,32.4L85.953,32.4L86.37,32.4L86.787,32.4L87.204,32.4L87.622,32.4L88.039,32.4L88.456,32.4L88.873,32.4L89.291,32.4L89.708,32.4L90.125,32.4L90.542,32.4L90.96,32.4L91.377,32.4L91.794,32.4L92.211,32.4L92.629,32.4L93.046,32.4L93.463,32.4L93.88,32.4L94.298,32.4L94.715,32.4L95.132,32.4L95.549,32.4L95.967,32.4L96.384,32.4L96.801,32.4L97.218,32.4L97.636,32.4L98.053,32.4L98.47,32.4L98.887,32.4L99.305,32.4L99.722,32.4L100.139,32.4L100.556,32.4L100.974,32.4L101.391,32.4L101.808,32.4L102.225,32.4L102.643,32.4L103.06,32.4L103.477,32.4L103.894,32.4L104.312,32.4L104.729,32.4L105.146,32.4L105.563,32.4L105.981,32.4L106.398,32.4L106.815,32.4L107.232,32.4L107.65,32.4L108.067,32.4L108.484,32.4L108.901,32.4L109.318,32.4L109.736,32.4L110.153,32.4L110.57,32.4L110.987,32.4L111.405,32.4L111.822,32.4L112.239,32.4L112.656,32.4L113.074,32.4L113.491,32.057L113.908,32.057L114.325,32.057L114.743,32.057L115.16,32.057L115.577,32.057L115.994,32.057L116.412,32.057L116.829,32.057L117.246,32.057L117.663,32.057L118.081,32.057L118.498,32.057L118.915,32.057L119.332,32.057L119.75,32.057L120.167,32.057L120.584,32.057L121.001,32.057L121.419,32.057L121.836,32.057L122.253,32.057L122.67,32.057L123.088,32.057L123.505,32.057L123.922,32.057L124.339,32.057L124.757,32.057L125.174,32.057L125.591,32.057L126.008,32.057L126.426,32.057L126.843,32.057L127.26,32.057L127.677,32.057L128.095,32.057L128.512,32.057L128.929,32.057L129.346,32.057L129.764,32.057L130.181,32.057L130.598,32.057L131.015,32.057L131.433,32.057L131.85,32.057L132.267,32.057L132.684,32.057L133.102,32.057L133.519,32.057L133.936,32.057L134.353,32.057L134.771,32.057L135.188,32.057L135.605,32.057L136.022,32.057L136.439,32.057L136.857,32.057L137.274,32.057L137.691,32.057L138.108,32.057L138.526,32.057L138.943,32.057L139.36,32.057L139.777,32.057L140.195,32.057L140.612,32.057L141.029,32.057L141.446,32.057L141.864,32.057L142.281,32.057L142.698,32.057L143.115,32.057L143.533,32.057L143.95,32.057L144.367,32.057L144.784,32.057L145.202,32.057L145.619,32.057L146.036,32.057L146.453,32.057L146.871,32.057L147.288,32.057L147.705,32.057L148.122,32.057L148.54,32.057L148.957,32.057L149.374,32.057L149.791,32.057L150.209,32.057L150.626,32.057L151.043,32.057L151.46,32.057L151.878,32.057L152.295,32.057L152.712,32.057L153.129,32.057L153.547,32.057L153.964,32.057L154.381,32.057L154.798,32.057L155.216,32.057L155.633,32.057L156.05,32.057L156.467,32.057L156.885,32.057L157.302,32.057L157.719,32.057L158.136,32.057L158.554,32.057L158.971,32.057L159.388,32.057L159.805,32.057L160.223,31.943L160.64,31.943L161.057,31.943L161.474,31.943L161.892,31.943L162.309,31.943L162.726,31.943L163.143,31.943L163.561,31.943L163.978,31.943L164.395,31.943L164.812,31.943L165.229,31.943L165.647,31.943L166.064,31.943L166.481,31.943L166.898,31.943L167.316,31.943L167.733,31.943L168.15,31.943L168.567,31.943L168.985,31.943L169.402,31.943L169.819,31.943L170.236,31.943L170.654,31.943L171.071,31.943L171.488,31.943L171.905,31.943L172.323,31.943L172.74,31.943L173.157,31.943L173.574,31.943L173.992,31.943L174.409,31.943L174.826,31.943L175.243,31.943L175.661,31.943L176.078,31.943L176.495,31.943L176.912,31.943L177.33,31.943L177.747,31.943L178.164,31.943L178.581,31.943L178.999,31.943L179.416,31.943L179.833,31.943L180.25,31.943L180.668,31.943L181.085,31.943L181.502,31.943L181.919,31.943L182.337,31.943L182.754,31.943L183.171,31.943L183.588,31.943L184.006,31.943L184.423,31.943L184.84,31.943L185.257,31.943L185.675,31.943L186.092,31.943L186.509,31.943L186.926,31.943L187.344,31.943L187.761,31.943L188.178,31.943L188.595,31.943L189.013,31.943L189.43,31.943L189.847,31.943L190.264,31.943L190.682,31.943L191.099,31.943L191.516,31.943L191.933,31.943L192.35,31.943L192.768,31.943L193.185,31.943L193.602,31.943L194.019,31.943L194.437,31.943L194.854,31.943L195.271,31.943L195.688,31.943L196.106,31.943L196.523,31.943L196.94,31.943L197.357,31.943L197.775,31.943L198.192,31.943L198.609,31.943L199.026,31.943L199.444,31.943L199.861,31.943L200.278,31.943L200.695,31.943L201.113,31.943L201.53,31.943L201.947,31.943L202.364,31.943L202.782,31.943L203.199,31.943L203.616,31.943L204.033,31.943L204.451,31.943L204.868,31.943L205.285,31.943L205.702,31.943L206.12,31.943L206.537,31.943L206.954,31.943L207.371,31.943L207.789,31.943L208.206,31.943L208.623,31.943L209.04,31.943L209.458,31.943L209.875,31.943L210.292,31.943L210.709,31.943L211.127,31.943L211.544,31.943L211.961,31.943L212.378,31.943L212.796,31.943L213.213,31.943L213.63,31.943L214.047,31.943L214.465,31.943L214.882,31.943L215.299,31.943L215.716,31.943L216.134,31.943L216.551,31.943L216.968,31.943L217.385,31.943L217.803,31.943L218.22,31.943L218.637,31.943L219.054,31.943L219.471,31.943L219.889,31.943L220.306,31.943L220.723,31.943L221.14,31.943L221.558,31.943L221.975,31.943L222.392,31.943L222.809,31.943L223.227,31.943L223.644,31.943L224.061,31.943L224.478,31.943L224.896,31.943L225.313,31.943L225.73,31.943L226.147,31.943L226.565,31.943L226.982,31.943L227.399,31.943L227.816,31.943L228.234,31.943L228.651,31.943L229.068,31.943L229.485,31.943L229.903,31.943L230.32,31.943L230.737,31.943L231.154,31.943L231.572,31.943L231.989,31.943L232.406,31.943L232.823,31.943L233.241,31.943L233.658,31.943L234.075,31.943L234.492,31.943L234.91,31.943L235.327,31.943L235.744,31.943L236.161,31.943L236.579,31.943L236.996,31.943L237.413,31.943L237.83,31.943L238.248,31.943L238.665,31.943L239.082,31.943L239.499,31.943L239.917,31.943L240.334,31.943L240.751,31.943L241.168,31.943L241.586,31.943L242.003,31.943L242.42,31.943L242.837,31.943L243.255,31.943L243.672,31.943L244.089,31.943L244.506,31.943L244.924,31.943L245.341,31.943L245.758,31.943L246.175,31.943L246.592,31.943L247.01,31.943L247.427,31.943L247.844,31.943L248.261,31.943L248.679,31.943L249.096,31.943L249.513,31.943L249.93,31.943L250.348,31.943L250.765,31.943L251.182,31.943L251.599,31.943L252.017,31.943L252.434,31.943L252.851,31.943L253.268,31.943L253.686,31.943L254.103,31.943L254.52,31.943L254.937,31.943L255.355,31.943L255.772,31.943L256.189,31.943L256.606,31.943L257.024,31.943L257.441,31.943L257.858,31.943L258.275,31.943L258.693,31.943L259.11,31.943L259.527,31.943L259.944,31.943L260.362,31.771L260.779,31.771L261.196,31.771L261.613,31.771L262.031,31.771L262.448,31.771L262.865,31.771L263.282,31.771L263.7,31.771L264.117,31.771L264.534,31.771L264.951,31.771L265.369,31.771L265.786,31.771L266.203,31.771L266.62,31.771L267.038,31.771L267.455,31.771L267.872,31.771L268.289,31.771L268.707,31.771L269.124,31.771L269.541,31.771L269.958,31.771L270.376,31.771L270.793,31.771L271.21,31.771L271.627,31.771L272.045,31.771L272.462,31.771L272.879,31.771L273.296,31.771L273.713,31.771L274.131,31.771L274.548,31.771L274.965,31.771L275.382,31.771L275.8,31.771L276.217,31.771L276.634,31.771L277.051,31.771L277.469,31.771L277.886,31.771L278.303,31.771L278.72,31.771L279.138,31.771L279.555,31.771L279.972,31.771L280.389,31.771L280.807,31.771L281.224,31.771L281.641,31.771L282.058,31.771L282.476,31.771L282.893,31.771L283.31,31.771L283.727,31.771L284.145,31.771L284.562,31.771L284.979,31.771L285.396,31.771L285.814,31.771L286.231,31.771L286.648,31.771L287.065,31.771L287.483,31.771L287.9,31.771L288.317,31.771L288.734,31.771L289.152,31.771L289.569,31.771L289.986,31.771L290.403,31.771L290.821,31.771L291.238,31.771L291.655,31.771L292.072,31.771L292.49,31.771L292.907,31.771L293.324,31.771L293.741,31.771L294.159,31.771L294.576,31.771L294.993,31.771L295.41,31.771L295.828,31.771L296.245,31.771L296.662,31.771L297.079,31.771L297.497,31.771L297.914,31.771L298.331,31.771L298.748,31.771L299.166,31.771L299.583,31.771L300,31.771" stroke="#f59c0c" stroke-width="2"/></g></g><path class="foreground" aria-hidden="true" d="" display="none"/></g></g><g class="mark-symbol role-mark layer_1_marks" role="graphics-symbol" aria-roledescription="symbol mark container"/><g class="mark-symbol role-mark layer_2_marks" role="graphics-symbol" aria-roledescription="symbol mark container"><path transform="translate(0,200)" d="M-3.873,-3.873h7.746v7.746h-7.746Z" fill="#f59c0c" stroke-width="2"/><path transform="translate(125.17385257301808,32.05714285714285)" d="M-3.873,-3.873h7.746v7.746h-7.746Z" fill="#f59c0c" stroke-width="2"/><path transform="translate(250.34770514603616,31.94285714285714)" d="M-3.873,-3.873h7.746v7.746h-7.746Z" fill="#f59c0c" stroke-width="2"/></g><g class="mark-symbol role-mark layer_3_marks" role="graphics-symbol" aria-roledescription="symbol mark container"/><g class="mark-symbol role-mark layer_4_marks" role="graphics-symbol" aria-roledescription="symbol mark container"/><g class="mark-group role-scope layer_5_pathgroup" role="graphics-object" aria-roledescription="group mark container"><g transform="translate(0,0)"><path class="background" aria-hidden="true" d="M0,0h300v200h-300Z"/><g><g class="mark-area role-mark layer_5_marks" role="graphics-symbol" aria-roledescription="area mark container"><path d="M0,200L0.417,116.971L0.834,89.295L1.252,75.457L1.669,67.154L2.086,61.619L2.503,57.665L2.921,54.7L3.338,52.394L3.755,50.549L4.172,49.039L4.59,47.781L5.007,46.716L5.424,45.804L5.841,45.013L6.259,44.321L6.676,43.711L7.093,43.168L7.51,42.683L7.928,42.246L8.345,41.85L8.762,33.943L9.179,33.943L9.597,33.943L10.014,33.943L10.431,33.943L10.848,33.943L11.266,33.943L11.683,33.943L12.1,33.943L12.517,33.943L12.935,33.943L13.352,33.943L13.769,33.943L14.186,33.943L14.604,33.943L15.021,33.943L15.438,33.943L15.855,33.943L16.273,33.943L16.69,33.943L17.107,33.943L17.524,33.943L17.942,33.943L18.359,33.943L18.776,33.943L19.193,33.943L19.611,33.943L20.028,33.943L20.445,33.943L20.862,33.943L21.28,33.943L21.697,33.943L22.114,33.943L22.531,33.943L22.949,33.943L23.366,33.943L23.783,33.943L24.2,33.943L24.618,33.943L25.035,33.943L25.452,33.943L25.869,33.943L26.287,33.943L26.704,33.943L27.121,33.943L27.538,33.943L27.955,33.943L28.373,33.943L28.79,33.943L29.207,33.943L29.624,33.943L30.042,33.943L30.459,33.943L30.876,33.943L31.293,33.943L31.711,33.943L32.128,33.943L32.545,33.943L32.962,33.943L33.38,33.943L33.797,33.943L34.214,33.943L34.631,33.943L35.049,33.943L35.466,33.943L35.883,33.943L36.3,33.943L36.718,33.937L37.135,33.932L37.552,33.927L37.969,33.921L38.387,33.916L38.804,33.91L39.221,33.886L39.638,33.861L40.056,33.837L40.473,33.812L40.89,33.788L41.307,33.761L41.725,33.733L42.142,33.706L42.559,33.679L42.976,33.611L43.394,33.543L43.811,33.475L44.228,33.407L44.645,33.339L45.063,33.271L45.48,33.208L45.897,33.146L46.314,33.083L46.732,33.02L47.149,32.958L47.566,32.895L47.983,32.852L48.401,32.808L48.818,32.765L49.235,32.721L49.652,32.678L50.07,32.637L50.487,32.596L50.904,32.555L51.321,32.514L51.739,32.514L52.156,32.514L52.573,32.514L52.99,32.514L53.408,32.514L53.825,32.514L54.242,32.514L54.659,32.514L55.076,32.514L55.494,32.514L55.911,32.514L56.328,32.514L56.745,32.514L57.163,32.514L57.58,32.514L57.997,32.514L58.414,32.514L58.832,32.514L59.249,32.514L59.666,32.514L60.083,32.514L60.501,32.514L60.918,32.514L61.335,32.514L61.752,32.514L62.17,32.514L62.587,32.514L63.004,32.514L63.421,32.514L63.839,32.514L64.256,32.514L64.673,32.514L65.09,32.514L65.508,32.514L65.925,32.514L66.342,32.514L66.759,32.514L67.177,32.514L67.594,32.514L68.011,32.514L68.428,32.514L68.846,32.514L69.263,32.514L69.68,32.514L70.097,32.514L70.515,32.514L70.932,32.514L71.349,32.514L71.766,32.514L72.184,32.514L72.601,32.514L73.018,32.514L73.435,32.514L73.853,32.514L74.27,32.514L74.687,32.514L75.104,32.514L75.522,32.514L75.939,32.514L76.356,32.514L76.773,32.514L77.191,32.514L77.608,32.514L78.025,32.514L78.442,32.514L78.86,32.514L79.277,32.512L79.694,32.509L80.111,32.506L80.529,32.503L80.946,32.501L81.363,32.498L81.78,32.495L82.197,32.493L82.615,32.49L83.032,32.487L83.449,32.484L83.866,32.482L84.284,32.479L84.701,32.473L85.118,32.468L85.535,32.463L85.953,32.457L86.37,32.452L86.787,32.446L87.204,32.441L87.622,32.435L88.039,32.433L88.456,32.43L88.873,32.427L89.291,32.424L89.708,32.422L90.125,32.419L90.542,32.416L90.96,32.414L91.377,32.411L91.794,32.408L92.211,32.405L92.629,32.403L93.046,32.4L93.463,32.4L93.88,32.4L94.298,32.4L94.715,32.4L95.132,32.4L95.549,32.4L95.967,32.4L96.384,32.4L96.801,32.4L97.218,32.4L97.636,32.4L98.053,32.4L98.47,32.4L98.887,32.4L99.305,32.4L99.722,32.4L100.139,32.4L100.556,32.4L100.974,32.4L101.391,32.4L101.808,32.4L102.225,32.4L102.643,32.4L103.06,32.4L103.477,32.4L103.894,32.4L104.312,32.4L104.729,32.4L105.146,32.4L105.563,32.4L105.981,32.4L106.398,32.4L106.815,32.4L107.232,32.4L107.65,32.4L108.067,32.4L108.484,32.4L108.901,32.4L109.318,32.4L109.736,32.4L110.153,32.4L110.57,32.4L110.987,32.4L111.405,32.4L111.822,32.4L112.239,32.4L112.656,32.4L113.074,32.4L113.491,32.384L113.908,32.367L114.325,32.351L114.743,32.335L115.16,32.318L115.577,32.302L115.994,32.286L116.412,32.269L116.829,32.253L117.246,32.237L117.663,32.22L118.081,32.204L118.498,32.188L118.915,32.171L119.332,32.155L119.75,32.139L120.167,32.122L120.584,32.106L121.001,32.09L121.419,32.073L121.836,32.057L122.253,32.057L122.67,32.057L123.088,32.057L123.505,32.057L123.922,32.057L124.339,32.057L124.757,32.057L125.174,32.057L125.591,32.057L126.008,32.057L126.426,32.057L126.843,32.057L127.26,32.057L127.677,32.057L128.095,32.057L128.512,32.057L128.929,32.057L129.346,32.057L129.764,32.057L130.181,32.057L130.598,32.057L131.015,32.057L131.433,32.057L131.85,32.057L132.267,32.057L132.684,32.057L133.102,32.057L133.519,32.057L133.936,32.057L134.353,32.057L134.771,32.057L135.188,32.057L135.605,32.057L136.022,32.057L136.439,32.057L136.857,32.057L137.274,32.057L137.691,32.057L138.108,32.057L138.526,32.057L138.943,32.057L139.36,32.057L139.777,32.057L140.195,32.057L140.612,32.057L141.029,32.057L141.446,32.057L141.864,32.057L142.281,32.057L142.698,32.057L143.115,32.057L143.533,32.057L143.95,32.057L144.367,32.057L144.784,32.057L145.202,32.057L145.619,32.057L146.036,32.057L146.453,32.057L146.871,32.057L147.288,32.057L147.705,32.057L148.122,32.057L148.54,32.057L148.957,32.057L149.374,32.057L149.791,32.057L150.209,32.057L150.626,32.057L151.043,32.057L151.46,32.057L151.878,32.057L152.295,32.057L152.712,32.057L153.129,32.057L153.547,32.057L153.964,32.057L154.381,32.057L154.798,32.057L155.216,32.057L155.633,32.057L156.05,32.057L156.467,32.057L156.885,32.057L157.302,32.057L157.719,32.057L158.136,32.057L158.554,32.057L158.971,32.057L159.388,32.057L159.805,32.057L160.223,32.052L160.64,32.046L161.057,32.041L161.474,32.035L161.892,32.03L162.309,32.024L162.726,32.019L163.143,32.014L163.561,32.008L163.978,32.003L164.395,31.997L164.812,31.992L165.229,31.986L165.647,31.981L166.064,31.976L166.481,31.97L166.898,31.965L167.316,31.959L167.733,31.954L168.15,31.948L168.567,31.943L168.985,31.943L169.402,31.943L169.819,31.943L170.236,31.943L170.654,31.943L171.071,31.943L171.488,31.943L171.905,31.943L172.323,31.943L172.74,31.943L173.157,31.943L173.574,31.943L173.992,31.943L174.409,31.943L174.826,31.943L175.243,31.943L175.661,31.943L176.078,31.943L176.495,31.943L176.912,31.943L177.33,31.943L177.747,31.943L178.164,31.943L178.581,31.943L178.999,31.943L179.416,31.943L179.833,31.943L180.25,31.943L180.668,31.943L181.085,31.943L181.502,31.943L181.919,31.943L182.337,31.943L182.754,31.943L183.171,31.943L183.588,31.943L184.006,31.943L184.423,31.943L184.84,31.943L185.257,31.943L185.675,31.943L186.092,31.943L186.509,31.943L186.926,31.943L187.344,31.943L187.761,31.943L188.178,31.943L188.595,31.943L189.013,31.943L189.43,31.943L189.847,31.943L190.264,31.943L190.682,31.943L191.099,31.943L191.516,31.943L191.933,31.943L192.35,31.943L192.768,31.943L193.185,31.943L193.602,31.943L194.019,31.943L194.437,31.943L194.854,31.943L195.271,31.943L195.688,31.943L196.106,31.943L196.523,31.943L196.94,31.943L197.357,31.943L197.775,31.943L198.192,31.943L198.609,31.943L199.026,31.943L199.444,31.943L199.861,31.943L200.278,31.943L200.695,31.943L201.113,31.943L201.53,31.943L201.947,31.943L202.364,31.943L202.782,31.943L203.199,31.943L203.616,31.943L204.033,31.943L204.451,31.943L204.868,31.943L205.285,31.943L205.702,31.943L206.12,31.943L206.537,31.943L206.954,31.943L207.371,31.943L207.789,31.943L208.206,31.943L208.623,31.943L209.04,31.943L209.458,31.943L209.875,31.943L210.292,31.943L210.709,31.943L211.127,31.943L211.544,31.943L211.961,31.943L212.378,31.943L212.796,31.943L213.213,31.943L213.63,31.943L214.047,31.943L214.465,31.943L214.882,31.943L215.299,31.943L215.716,31.943L216.134,31.943L216.551,31.943L216.968,31.943L217.385,31.943L217.803,31.943L218.22,31.943L218.637,31.943L219.054,31.943L219.471,31.943L219.889,31.943L220.306,31.943L220.723,31.943L221.14,31.943L221.558,31.943L221.975,31.943L222.392,31.943L222.809,31.943L223.227,31.943L223.644,31.943L224.061,31.943L224.478,31.943L224.896,31.943L225.313,31.943L225.73,31.943L226.147,31.943L226.565,31.943L226.982,31.943L227.399,31.943L227.816,31.943L228.234,31.943L228.651,31.943L229.068,31.943L229.485,31.943L229.903,31.943L230.32,31.943L230.737,31.943L231.154,31.943L231.572,31.943L231.989,31.943L232.406,31.943L232.823,31.943L233.241,31.943L233.658,31.943L234.075,31.943L234.492,31.943L234.91,31.943L235.327,31.943L235.744,31.943L236.161,31.943L236.579,31.943L236.996,31.943L237.413,31.943L237.83,31.943L238.248,31.943L238.665,31.943L239.082,31.943L239.499,31.943L239.917,31.943L240.334,31.943L240.751,31.943L241.168,31.943L241.586,31.943L242.003,31.943L242.42,31.943L242.837,31.943L243.255,31.943L243.672,31.943L244.089,31.943L244.506,31.943L244.924,31.943L245.341,31.943L245.758,31.943L246.175,31.943L246.592,31.943L247.01,31.943L247.427,31.943L247.844,31.943L248.261,31.943L248.679,31.943L249.096,31.943L249.513,31.943L249.93,31.943L250.348,31.943L250.765,31.943L251.182,31.943L251.599,31.943L252.017,31.943L252.434,31.943L252.851,31.943L253.268,31.943L253.686,31.943L254.103,31.943L254.52,31.943L254.937,31.943L255.355,31.943L255.772,31.943L256.189,31.943L256.606,31.943L257.024,31.943L257.441,31.943L257.858,31.943L258.275,31.943L258.693,31.943L259.11,31.943L259.527,31.943L259.944,31.943L260.362,31.935L260.779,31.927L261.196,31.918L261.613,31.91L262.031,31.902L262.448,31.894L262.865,31.886L263.282,31.878L263.7,31.869L264.117,31.861L264.534,31.853L264.951,31.845L265.369,31.837L265.786,31.829L266.203,31.82L266.62,31.812L267.038,31.804L267.455,31.796L267.872,31.788L268.289,31.78L268.707,31.771L269.124,31.771L269.541,31.771L269.958,31.771L270.376,31.771L270.793,31.771L271.21,31.771L271.627,31.771L272.045,31.771L272.462,31.771L272.879,31.771L273.296,31.771L273.713,31.771L274.131,31.771L274.548,31.771L274.965,31.771L275.382,31.771L275.8,31.771L276.217,31.771L276.634,31.771L277.051,31.771L277.469,31.771L277.886,31.771L278.303,31.771L278.72,31.771L279.138,31.771L279.555,31.771L279.972,31.771L280.389,31.771L280.807,31.771L281.224,31.771L281.641,31.771L282.058,31.771L282.476,31.771L282.893,31.771L283.31,31.771L283.727,31.771L284.145,31.771L284.562,31.771L284.979,31.771L285.396,31.771L285.814,31.771L286.231,31.771L286.648,31.771L287.065,31.771L287.483,31.771L287.9,31.771L288.317,31.771L288.734,31.771L289.152,31.771L289.569,31.771L289.986,31.771L290.403,31.771L290.821,31.771L291.238,31.771L291.655,31.771L292.072,31.771L292.49,31.771L292.907,31.771L293.324,31.771L293.741,31.771L294.159,31.771L294.576,31.771L294.993,31.771L295.41,31.771L295.828,31.771L296.245,31.771L296.662,31.771L297.079,31.771L297.497,31.771L297.914,31.771L298.331,31.771L298.748,31.771L299.166,31.771L299.583,31.771L300,31.771L300,31.771L299.583,31.771L299.166,31.771L298.748,31.771L298.331,31.771L297.914,31.771L297.497,31.771L297.079,31.771L296.662,31.771L296.245,31.771L295.828,31.771L295.41,31.771L294.993,31.771L294.576,31.771L294.159,31.771L293.741,31.771L293.324,31.771L292.907,31.771L292.49,31.771L292.072,31.771L291.655,31.771L291.238,31.771L290.821,31.771L290.403,31.771L289.986,31.771L289.569,31.771L289.152,31.771L288.734,31.771L288.317,31.771L287.9,31.771L287.483,31.771L287.065,31.771L286.648,31.771L286.231,31.771L285.814,31.771L285.396,31.771L284.979,31.771L284.562,31.771L284.145,31.771L283.727,31.771L283.31,31.771L282.893,31.771L282.476,31.771L282.058,31.771L281.641,31.771L281.224,31.771L280.807,31.771L280.389,31.771L279.972,31.771L279.555,31.771L279.138,31.771L278.72,31.771L278.303,31.771L277.886,31.771L277.469,31.771L277.051,31.771L276.634,31.771L276.217,31.771L275.8,31.771L275.382,31.771L274.965,31.771L274.548,31.771L274.131,31.771L273.713,31.771L273.296,31.771L272.879,31.771L272.462,31.771L272.045,31.771L271.627,31.771L271.21,31.771L270.793,31.771L270.376,31.771L269.958,31.771L269.541,31.771L269.124,31.771L268.707,31.771L268.289,31.78L267.872,31.788L267.455,31.796L267.038,31.804L266.62,31.812L266.203,31.82L265.786,31.829L265.369,31.837L264.951,31.845L264.534,31.853L264.117,31.861L263.7,31.869L263.282,31.878L262.865,31.886L262.448,31.894L262.031,31.902L261.613,31.91L261.196,31.918L260.779,31.927L260.362,31.935L259.944,31.943L259.527,31.943L259.11,31.943L258.693,31.943L258.275,31.943L257.858,31.943L257.441,31.943L257.024,31.943L256.606,31.943L256.189,31.943L255.772,31.943L255.355,31.943L254.937,31.943L254.52,31.943L254.103,31.943L253.686,31.943L253.268,31.943L252.851,31.943L252.434,31.943L252.017,31.943L251.599,31.943L251.182,31.943L250.765,31.943L250.348,31.943L249.93,31.943L249.513,31.943L249.096,31.943L248.679,31.943L248.261,31.943L247.844,31.943L247.427,31.943L247.01,31.943L246.592,31.943L246.175,31.943L245.758,31.943L245.341,31.943L244.924,31.943L244.506,31.943L244.089,31.943L243.672,31.943L243.255,31.943L242.837,31.943L242.42,31.943L242.003,31.943L241.586,31.943L241.168,31.943L240.751,31.943L240.334,31.943L239.917,31.943L239.499,31.943L239.082,31.943L238.665,31.943L238.248,31.943L237.83,31.943L237.413,31.943L236.996,31.943L236.579,31.943L236.161,31.943L235.744,31.943L235.327,31.943L234.91,31.943L234.492,31.943L234.075,31.943L233.658,31.943L233.241,31.943L232.823,31.943L232.406,31.943L231.989,31.943L231.572,31.943L231.154,31.943L230.737,31.943L230.32,31.943L229.903,31.943L229.485,31.943L229.068,31.943L228.651,31.943L228.234,31.943L227.816,31.943L227.399,31.943L226.982,31.943L226.565,31.943L226.147,31.943L225.73,31.943L225.313,31.943L224.896,31.943L224.478,31.943L224.061,31.943L223.644,31.943L223.227,31.943L222.809,31.943L222.392,31.943L221.975,31.943L221.558,31.943L221.14,31.943L220.723,31.943L220.306,31.943L219.889,31.943L219.471,31.943L219.054,31.943L218.637,31.943L218.22,31.943L217.803,31.943L217.385,31.943L216.968,31.943L216.551,31.943L216.134,31.943L215.716,31.943L215.299,31.943L214.882,31.943L214.465,31.943L214.047,31.943L213.63,31.943L213.213,31.943L212.796,31.943L212.378,31.943L211.961,31.943L211.544,31.943L211.127,31.943L210.709,31.943L210.292,31.943L209.875,31.943L209.458,31.943L209.04,31.943L208.623,31.943L208.206,31.943L207.789,31.943L207.371,31.943L206.954,31.943L206.537,31.943L206.12,31.943L205.702,31.943L205.285,31.943L204.868,31.943L204.451,31.943L204.033,31.943L203.616,31.943L203.199,31.943L202.782,31.943L202.364,31.943L201.947,31.943L201.53,31.943L201.113,31.943L200.695,31.943L200.278,31.943L199.861,31.943L199.444,31.943L199.026,31.943L198.609,31.943L198.192,31.943L197.775,31.943L197.357,31.943L196.94,31.943L196.523,31.943L196.106,31.943L195.688,31.943L195.271,31.943L194.854,31.943L194.437,31.943L194.019,31.943L193.602,31.943L193.185,31.943L192.768,31.943L192.35,31.943L191.933,31.943L191.516,31.943L191.099,31.943L190.682,31.943L190.264,31.943L189.847,31.943L189.43,31.943L189.013,31.943L188.595,31.943L188.178,31.943L187.761,31.943L187.344,31.943L186.926,31.943L186.509,31.943L186.092,31.943L185.675,31.943L185.257,31.943L184.84,31.943L184.423,31.943L184.006,31.943L183.588,31.943L183.171,31.943L182.754,31.943L182.337,31.943L181.919,31.943L181.502,31.943L181.085,31.943L180.668,31.943L180.25,31.943L179.833,31.943L179.416,31.943L178.999,31.943L178.581,31.943L178.164,31.943L177.747,31.943L177.33,31.943L176.912,31.943L176.495,31.943L176.078,31.943L175.661,31.943L175.243,31.943L174.826,31.943L174.409,31.943L173.992,31.943L173.574,31.943L173.157,31.943L172.74,31.943L172.323,31.943L171.905,31.943L171.488,31.943L171.071,31.943L170.654,31.943L170.236,31.943L169.819,31.943L169.402,31.943L168.985,31.943L168.567,31.943L168.15,31.948L167.733,31.954L167.316,31.959L166.898,31.965L166.481,31.97L166.064,31.976L165.647,31.981L165.229,31.986L164.812,31.992L164.395,31.997L163.978,32.003L163.561,32.008L163.143,32.014L162.726,32.019L162.309,32.024L161.892,32.03L161.474,32.035L161.057,32.041L160.64,32.046L160.223,32.052L159.805,32.057L159.388,32.057L158.971,32.057L158.554,32.057L158.136,32.057L157.719,32.057L157.302,32.057L156.885,32.057L156.467,32.057L156.05,32.057L155.633,32.057L155.216,32.057L154.798,32.057L154.381,32.057L153.964,32.057L153.547,32.057L153.129,32.057L152.712,32.057L152.295,32.057L151.878,32.057L151.46,32.057L151.043,32.057L150.626,32.057L150.209,32.057L149.791,32.057L149.374,32.057L148.957,32.057L148.54,32.057L148.122,32.057L147.705,32.057L147.288,32.057L146.871,32.057L146.453,32.057L146.036,32.057L145.619,32.057L145.202,32.057L144.784,32.057L144.367,32.057L143.95,32.057L143.533,32.057L143.115,32.057L142.698,32.057L142.281,32.057L141.864,32.057L141.446,32.057L141.029,32.057L140.612,32.057L140.195,32.057L139.777,32.057L139.36,32.057L138.943,32.057L138.526,32.057L138.108,32.057L137.691,32.057L137.274,32.057L136.857,32.057L136.439,32.057L136.022,32.057L135.605,32.057L135.188,32.057L134.771,32.057L134.353,32.057L133.936,32.057L133.519,32.057L133.102,32.057L132.684,32.057L132.267,32.057L131.85,32.057L131.433,32.057L131.015,32.057L130.598,32.057L130.181,32.057L129.764,32.057L129.346,32.057L128.929,32.057L128.512,32.057L128.095,32.057L127.677,32.057L127.26,32.057L126.843,32.057L126.426,32.057L126.008,32.057L125.591,32.057L125.174,32.057L124.757,32.057L124.339,32.057L123.922,32.057L123.505,32.057L123.088,32.057L122.67,32.057L122.253,32.057L121.836,32.057L121.419,32.073L121.001,32.09L120.584,32.106L120.167,32.122L119.75,32.139L119.332,32.155L118.915,32.171L118.498,32.188L118.081,32.204L117.663,32.22L117.246,32.237L116.829,32.253L116.412,32.269L115.994,32.286L115.577,32.302L115.16,32.318L114.743,32.335L114.325,32.351L113.908,32.367L113.491,32.384L113.074,32.4L112.656,32.4L112.239,32.4L111.822,32.4L111.405,32.4L110.987,32.4L110.57,32.4L110.153,32.4L109.736,32.4L109.318,32.4L108.901,32.4L108.484,32.4L108.067,32.4L107.65,32.4L107.232,32.4L106.815,32.4L106.398,32.4L105.981,32.4L105.563,32.4L105.146,32.4L104.729,32.4L104.312,32.4L103.894,32.4L103.477,32.4L103.06,32.4L102.643,32.4L102.225,32.4L101.808,32.4L101.391,32.4L100.974,32.4L100.556,32.4L100.139,32.4L99.722,32.4L99.305,32.4L98.887,32.4L98.47,32.4L98.053,32.4L97.636,32.4L97.218,32.4L96.801,32.4L96.384,32.4L95.967,32.4L95.549,32.4L95.132,32.4L94.715,32.4L94.298,32.4L93.88,32.4L93.463,32.4L93.046,32.4L92.629,32.403L92.211,32.405L91.794,32.408L91.377,32.411L90.96,32.414L90.542,32.416L90.125,32.419L89.708,32.422L89.291,32.424L88.873,32.427L88.456,32.43L88.039,32.433L87.622,32.435L87.204,32.441L86.787,32.446L86.37,32.452L85.953,32.457L85.535,32.463L85.118,32.468L84.701,32.473L84.284,32.479L83.866,32.482L83.449,32.484L83.032,32.487L82.615,32.49L82.197,32.493L81.78,32.495L81.363,32.498L80.946,32.501L80.529,32.503L80.111,32.506L79.694,32.509L79.277,32.512L78.86,32.514L78.442,32.514L78.025,32.514L77.608,32.514L77.191,32.514L76.773,32.514L76.356,32.514L75.939,32.514L75.522,32.514L75.104,32.514L74.687,32.514L74.27,32.514L73.853,32.514L73.435,32.514L73.018,32.514L72.601,32.514L72.184,32.514L71.766,32.514L71.349,32.514L70.932,32.514L70.515,32.514L70.097,32.514L69.68,32.514L69.263,32.514L68.846,32.514L68.428,32.514L68.011,32.514L67.594,32.514L67.177,32.514L66.759,32.514L66.342,32.514L65.925,32.514L65.508,32.514L65.09,32.514L64.673,32.514L64.256,32.514L63.839,32.514L63.421,32.514L63.004,32.514L62.587,32.514L62.17,32.514L61.752,32.514L61.335,32.514L60.918,32.514L60.501,32.514L60.083,32.514L59.666,32.514L59.249,32.514L58.832,32.514L58.414,32.514L57.997,32.514L57.58,32.514L57.163,32.514L56.745,32.514L56.328,32.514L55.911,32.514L55.494,32.514L55.076,32.514L54.659,32.514L54.242,32.514L53.825,32.514L53.408,32.514L52.99,32.514L52.573,32.514L52.156,32.514L51.739,32.514L51.321,32.514L50.904,32.555L50.487,32.596L50.07,32.637L49.652,32.678L49.235,32.721L48.818,32.765L48.401,32.808L47.983,32.852L47.566,32.895L47.149,32.958L46.732,33.02L46.314,33.083L45.897,33.146L45.48,33.208L45.063,33.271L44.645,33.339L44.228,33.407L43.811,33.475L43.394,33.543L42.976,33.611L42.559,33.679L42.142,33.706L41.725,33.733L41.307,33.761L40.89,33.788L40.473,33.812L40.056,33.837L39.638,33.861L39.221,33.886L38.804,33.91L38.387,33.916L37.969,33.921L37.552,33.927L37.135,33.932L36.718,33.937L36.3,33.943L35.883,33.943L35.466,33.943L35.049,33.943L34.631,33.943L34.214,33.943L33.797,33.943L33.38,33.943L32.962,33.943L32.545,33.943L32.128,33.943L31.711,33.943L31.293,33.943L30.876,33.943L30.459,33.943L30.042,33.943L29.624,33.943L29.207,33.943L28.79,33.943L28.373,33.943L27.955,33.943L27.538,33.943L27.121,33.943L26.704,33.943L26.287,33.943L25.869,33.943L25.452,33.943L25.035,33.943L24.618,33.943L24.2,33.943L23.783,33.943L23.366,33.943L22.949,33.943L22.531,33.943L22.114,33.943L21.697,33.943L21.28,33.943L20.862,33.943L20.445,33.943L20.028,33.943L19.611,33.943L19.193,33.943L18.776,33.943L18.359,33.943L17.942,33.943L17.524,33.943L17.107,33.943L16.69,33.943L16.273,33.943L15.855,33.943L15.438,33.943L15.021,33.943L14.604,33.943L14.186,33.943L13.769,33.943L13.352,33.943L12.935,33.943L12.517,33.943L12.1,33.943L11.683,33.943L11.266,33.943L10.848,33.943L10.431,33.943L10.014,33.943L9.597,33.943L9.179,33.943L8.762,33.943L8.345,41.85L7.928,42.246L7.51,42.683L7.093,43.168L6.676,43.711L6.259,44.321L5.841,45.013L5.424,45.804L5.007,46.716L4.59,47.781L4.172,49.039L3.755,50.549L3.338,52.394L2.921,54.7L2.503,57.665L2.086,61.619L1.669,67.154L1.252,75.457L0.834,89.295L0.417,116.971L0,200Z" fill="#f59c0c" opacity="0.2"/></g></g><path class="foreground" aria-hidden="true" d="" display="none"/></g></g><g class="mark-group role-legend" role="graphics-symbol" aria-roledescription="legend" aria-label="Symbol legend titled 'Fuzzer' for shape, fill color and stroke color with 4 values: ft, aflnet, stateafl, sgfuzz"><g transform="translate(0,-47)"><path class="background" aria-hidden="true" d="M0,0h190v29h-190Z" pointer-events="none"/><g><g class="mark-group role-legend-entry"><g transform="translate(0,16)"><path class="background" aria-hidden="true" d="M0,0h0v0h0Z" pointer-events="none"/><g><g class="mark-group role-scope" role="graphics-object" aria-roledescription="group mark container"><g transform="translate(0,0.25)"><path class="background" aria-hidden="true" d="M0,0h21.556640625v12.5h-21.556640625Z" pointer-events="none" opacity="1"/><g><g class="mark-symbol role-legend-symbol" pointer-events="none"><path transform="translate(6,6)" d="M5,0A5,5,0,1,1,-5,0A5,5,0,1,1,5,0" fill="#d66368" fill-opacity="1" stroke="#d66368" stroke-width="1.5" opacity="1"/></g><g class="mark-text role-legend-label" pointer-events="none"><text text-anchor="start" transform="translate(16,9)" font-family="sans-serif" font-size="10px" fill="#000" opacity="1">ft</text></g></g><path class="foreground" aria-hidden="true" d="" pointer-events="none" display="none"/></g><g transform="translate(33,0.25)"><path class="background" aria-hidden="true" d="M0,0h40.462890625v12.5h-40.462890625Z" pointer-events="none" opacity="1"/><g><g class="mark-symbol role-legend-symbol" pointer-events="none"><path transform="translate(6,6)" d="M-5,-5h10v10h-10Z" fill="#f59c0c" fill-opacity="1" stroke="#f59c0c" stroke-width="1.5" opacity="1"/></g><g class="mark-text role-legend-label" pointer-events="none"><text text-anchor="start" transform="translate(16,9)" font-family="sans-serif" font-size="10px" fill="#000" opacity="1">aflnet</text></g></g><path class="foreground" aria-hidden="true" d="" pointer-events="none" display="none"/></g><g transform="translate(85,0.5849364905389036)"><path class="background" aria-hidden="true" d="M0,0h48.2412109375v11.830127018922191h-48.2412109375Z" pointer-events="none" opacity="1"/><g><g class="mark-symbol role-legend-symbol" pointer-events="none"><path transform="translate(6,6)" d="M0,-4.33L-5,4.33L5,4.33Z" fill="#109426" fill-opacity="1" stroke="#109426" stroke-width="1.5" opacity="1"/></g><g class="mark-text role-legend-label" pointer-events="none"><text text-anchor="start" transform="translate(16,9)" font-family="sans-serif" font-size="10px" fill="#000" opacity="1">stateafl</text></g></g><path class="foreground" aria-hidden="true" d="" pointer-events="none" display="none"/></g><g transform="translate(145,0.25)"><path class="background" aria-hidden="true" d="M0,0h44.9013671875v12.5h-44.9013671875Z" pointer-events="none" opacity="1"/><g><g class="mark-symbol role-legend-symbol" pointer-events="none"><path transform="translate(6,6)" d="M-5,-2L-5,2L-2,2L-2,5L2,5L2,2L5,2L5,-2L2,-2L2,-5L-2,-5L-2,-2Z" fill="#808b88" fill-opacity="1" stroke="#808b88" stroke-width="1.5" opacity="1"/></g><g class="mark-text role-legend-label" pointer-events="none"><text text-anchor="start" transform="translate(16,9)" font-family="sans-serif" font-size="10px" fill="#000" opacity="1">sgfuzz</text></g></g><path class="foreground" aria-hidden="true" d="" pointer-events="none" display="none"/></g></g></g><path class="foreground" aria-hidden="true" d="" pointer-events="none" display="none"/></g></g><g class="mark-text role-legend-title" pointer-events="none"><text text-anchor="start" transform="translate(0,9)" font-family="sans-serif" font-size="11px" font-weight="bold" fill="#000" opacity="1">Fuzzer</text></g></g><path class="foreground" aria-hidden="true" d="" pointer-events="none" display="none"/></g></g><g class="mark-group role-title"><g transform="translate(150,-64)"><path class="background" aria-hidden="true" d="M0,0h0v0h0Z" pointer-events="none"/><g><g class="mark-text role-title-text" role="graphics-symbol" aria-roledescription="title" aria-label="Title text 'target:ngtcp2_client_nginx_server,cores:4,timeout:43200s'" pointer-events="none"><text text-anchor="middle" transform="translate(0,10)" font-family="sans-serif" font-size="13px" font-weight="bold" fill="#000" opacity="1">target:ngtcp2_client_nginx_server,cores:4,timeout:43200s</text></g></g><path class="foreground" aria-hidden="true" d="" pointer-events="none" display="none"/></g></g></g><path class="foreground" aria-hidden="true" d="" display="none"/></g></g></g></svg>