<svg xmlns="http://www.w3.org/2000/svg" xmlns:xlink="http://www.w3.org/1999/xlink" version="1.1" class="marks" width="392" height="306" viewBox="0 0 392 306"><rect width="392" height="306" fill="white"/><g fill="none" stroke-miterlimit="10" transform="translate(53,69)"><g class="mark-group role-frame root" role="graphics-object" aria-roledescription="group mark container"><g transform="translate(0,0)"><path class="background" aria-hidden="true" d="M0.5,0.5h300v200h-300Z" stroke="#ddd"/><g><g class="mark-group role-axis" aria-hidden="true"><g transform="translate(0.5,200.5)"><path class="background" aria-hidden="true" d="M0,0h0v0h0Z" pointer-events="none"/><g><g class="mark-rule role-axis-grid" pointer-events="none"><line transform="translate(0,-200)" x2="0" y2="200" stroke="#ddd" stroke-width="1" opacity="1"/><line transform="translate(25,-200)" x2="0" y2="200" stroke="#ddd" stroke-width="1" opacity="1"/><line transform="translate(50,-200)" x2="0" y2="200" stroke="#ddd" stroke-width="1" opacity="1"/><line transform="translate(75,-200)" x2="0" y2="200" stroke="#ddd" stroke-width="1" opacity="1"/><line transform="translate(100,-200)" x2="0" y2="200" stroke="#ddd" stroke-width="1" opacity="1"/><line transform="translate(125,-200)" x2="0" y2="200" stroke="#ddd" stroke-width="1" opacity="1"/><line transform="translate(150,-200)" x2="0" y2="200" stroke="#ddd" stroke-width="1" opacity="1"/><line transform="translate(175,-200)" x2="0" y2="200" stroke="#ddd" stroke-width="1" opacity="1"/><line transform="translate(200,-200)" x2="0" y2="200" stroke="#ddd" stroke-width="1" opacity="1"/><line transform="translate(225,-200)" x2="0" y2="200" stroke="#ddd" stroke-width="1" opacity="1"/><line transform="translate(250,-200)" x2="0" y2="200" stroke="#ddd" stroke-width="1" opacity="1"/><line transform="translate(275,-200)" x2="0" y2="200" stroke="#ddd" stroke-width="1" opacity="1"/></g></g><path class="foreground" aria-hidden="true" d="" pointer-events="none" display="none"/></g></g><g class="mark-group role-axis" aria-hidden="true"><g transform="translate(0.5,0.5)"><path class="background" aria-hidden="true" d="M0,0h0v0h0Z" pointer-events="none"/><g><g class="mark-rule role-axis-grid" pointer-events="none"><line transform="translate(0,200)" x2="300" y2="0" stroke="#ddd" stroke-width="1" opacity="1"/><line transform="translate(0,144)" x2="300" y2="0" stroke="#ddd" stroke-width="1" opacity="1"/><line transform="translate(0,89)" x2="300" y2="0" stroke="#ddd" stroke-width="1" opacity="1"/><line transform="translate(0,33)" x2="300" y2="0" stroke="#ddd" stroke-width="1" opacity="1"/></g></g><path class="foreground" aria-hidden="true" d="" pointer-events="none" display="none"/></g></g><g class="mark-group role-axis" role="graphics-symbol" aria-roledescription="axis" aria-label="X-axis titled 'Time [hh:mm]' for a time scale with values from 00:00 to 11:59"><g transform="translate(0.5,200.5)"><path class="background" aria-hidden="true" d="M0,0h0v0h0Z" pointer-events="none"/><g><g class="mark-rule role-axis-tick" pointer-events="none"><line transform="translate(0,0)" x2="0" y2="5" stroke="#888" stroke-width="1" opacity="1"/><line transform="translate(25,0)" x2="0" y2="5" stroke="#888" stroke-width="1" opacity="1"/><line transform="translate(50,0)" x2="0" y2="5" stroke="#888" stroke-width="1" opacity="1"/><line transform="translate(75,0)" x2="0" y2="5" stroke="#888" stroke-width="1" opacity="1"/><line transform="translate(100,0)" x2="0" y2="5" stroke="#888" stroke-width="1" opacity="1"/><line transform="translate(125,0)" x2="0" y2="5" stroke="#888" stroke-width="1" opacity="1"/><line transform="translate(150,0)" x2="0" y2="5" stroke="#888" stroke-width="1" opacity="1"/><line transform="translate(175,0)" x2="0" y2="5" stroke="#888" stroke-width="1" opacity="1"/><line transform="translate(200,0)" x2="0" y2="5" stroke="#888" stroke-width="1" opacity="1"/><line transform="translate(225,0)" x2="0" y2="5" stroke="#888" stroke-width="1" opacity="1"/><line transform="translate(250,0)" x2="0" y2="5" stroke="#888" stroke-width="1" opacity="1"/><line transform="translate(275,0)" x2="0" y2="5" stroke="#888" stroke-width="1" opacity="1"/></g><g class="mark-text role-axis-label" pointer-events="none"><text text-anchor="start" transform="translate(0,15)" font-family="sans-serif" font-size="10px" fill="#000" opacity="1">00:00</text><text text-anchor="middle" transform="translate(25.03477051460362,15)" font-family="sans-serif" font-size="10px" fill="#000" opacity="0">01:00</text><text text-anchor="middle" transform="translate(50.06954102920724,15)" font-family="sans-serif" font-size="10px" fill="#000" opacity="1">02:00</text><text text-anchor="middle" transform="translate(75.10431154381085,15)" font-family="sans-serif" font-size="10px" fill="#000" opacity="0">03:00</text><text text-anchor="middle" transform="translate(100.13908205841447,15)" font-family="sans-serif" font-size="10px" fill="#000" opacity="1">04:00</text><text text-anchor="middle" transform="translate(125.17385257301808,15)" font-family="sans-serif" font-size="10px" fill="#000" opacity="0">05:00</text><text text-anchor="middle" transform="translate(150.2086230876217,15)" font-family="sans-serif" font-size="10px" fill="#000" opacity="1">06:00</text><text text-anchor="middle" transform="translate(175.24339360222532,15)" font-family="sans-serif" font-size="10px" fill="#000" opacity="0">07:00</text><text text-anchor="middle" transform="translate(200.27816411682895,15)" font-family="sans-serif" font-size="10px" fill="#000" opacity="1">08:00</text><text text-anchor="middle" transform="translate(225.31293463143257,15)" font-family="sans-serif" font-size="10px" fill="#000" opacity="0">09:00</text><text text-anchor="middle" transform="translate(250.34770514603616,15)" font-family="sans-serif" font-size="10px" fill="#000" opacity="1">10:00</text><text text-anchor="middle" transform="translate(275.3824756606398,15)" font-family="sans-serif" font-size="10px" fill="#000" opacity="0">11:00</text></g><g class="mark-rule role-axis-domain" pointer-events="none"><line transform="translate(0,0)" x2="300" y2="0" stroke="#888" stroke-width="1" opacity="1"/></g><g class="mark-text role-axis-title" pointer-events="none"><text text-anchor="middle" transform="translate(150,30)" font-family="sans-serif" font-size="11px" font-weight="bold" fill="#000" opacity="1">Time [hh:mm]</text></g></g><path class="foreground" aria-hidden="true" d="" pointer-events="none" display="none"/></g></g><g class="mark-group role-axis" role="graphics-symbol" aria-roledescription="axis" aria-label="Y-axis titled '#Covered Branches' for a linear scale with values from 0 to 1,800"><g transform="translate(0.5,0.5)"><path class="background" aria-hidden="true" d="M0,0h0v0h0Z" pointer-events="none"/><g><g class="mark-rule role-axis-tick" pointer-events="none"><line transform="translate(0,200)" x2="-5" y2="0" stroke="#888" stroke-width="1" opacity="1"/><line transform="translate(0,144)" x2="-5" y2="0" stroke="#888" stroke-width="1" opacity="1"/><line transform="translate(0,89)" x2="-5" y2="0" stroke="#888" stroke-width="1" opacity="1"/><line transform="translate(0,33)" x2="-5" y2="0" stroke="#888" stroke-width="1" opacity="1"/></g><g class="mark-text role-axis-label" pointer-events="none"><text text-anchor="end" transform="translate(-7,203)" font-family="sans-serif" font-size="10px" fill="#000" opacity="1">0</text><text text-anchor="end" transform="translate(-7,147.44444444444443)" font-family="sans-serif" font-size="10px" fill="#000" opacity="1">500</text><text text-anchor="end" transform="translate(-7,91.88888888888889)" font-family="sans-serif" font-size="10px" fill="#000" opacity="1">1,000</text><text text-anchor="end" transform="translate(-7,36.33333333333333)" font-family="sans-serif" font-size="10px" fill="#000" opacity="1">1,500</text></g><g class="mark-rule role-axis-domain" pointer-events="none"><line transform="translate(0,200)" x2="0" y2="-200" stroke="#888" stroke-width="1" opacity="1"/></g><g class="mark-text role-axis-title" pointer-events="none"><text text-anchor="middle" transform="translate(-36.0244140625,100) rotate(-90) translate(0,-2)" font-family="sans-serif" font-size="11px" font-weight="bold" fill="#000" opacity="1">#Covered Branches</text></g></g><path class="foreground" aria-hidden="true" d="" pointer-events="none" display="none"/></g></g><g class="mark-group role-scope layer_0_pathgroup" role="graphics-object" aria-roledescription="group mark container"><g transform="translate(0,0)"><path class="background" aria-hidden="true" d="M0,0h300v200h-300Z"/><g><g class="mark-line role-mark layer_0_marks" role="graphics-symbol" aria-roledescription="line mark container"><path d="M0,200L0.417,95.778L0.834,94.889L1.252,94.333L1.669,94.222L2.086,94.222L2.503,94.222L2.921,94.222L3.338,94.222L3.755,40.556L4.172,40.556L4.59,40.444L5.007,40.444L5.424,40.444L5.841,40.444L6.259,40.444L6.676,40.444L7.093,40.444L7.51,40.444L7.928,40.444L8.345,40.444L8.762,39.889L9.179,39.889L9.597,39.889L10.014,39.889L10.431,39.889L10.848,39.778L11.266,39.778L11.683,39.778L12.1,39.667L12.517,39.667L12.935,39.667L13.352,39.667L13.769,39.667L14.186,39.667L14.604,39.667L15.021,39.667L15.438,39.667L15.855,39.667L16.273,39.667L16.69,39.667L17.107,39.667L17.524,39.667L17.942,39.667L18.359,39.667L18.776,39.667L19.193,39.667L19.611,39.667L20.028,39.667L20.445,39.667L20.862,39.667L21.28,39.667L21.697,39.667L22.114,39.667L22.531,39.667L22.949,39.667L23.366,39.667L23.783,39.667L24.2,39.667L24.618,39.556L25.035,39.556L25.452,39.556L25.869,39.556L26.287,39.556L26.704,39.556L27.121,39.556L27.538,39.556L27.955,39.556L28.373,39.556L28.79,39.556L29.207,39.556L29.624,39.556L30.042,39.556L30.459,39.556L30.876,39.556L31.293,39.556L31.711,39.556L32.128,39.556L32.545,39.556L32.962,39.556L33.38,39.556L33.797,39.556L34.214,39.556L34.631,39.556L35.049,39.444L35.466,39.444L35.883,39.444L36.3,39.444L36.718,39.444L37.135,39.444L37.552,39.444L37.969,39.444L38.387,39.444L38.804,39.444L39.221,39.444L39.638,39.444L40.056,39.444L40.473,39.444L40.89,39.444L41.307,39.444L41.725,39.444L42.142,39.444L42.559,39.444L42.976,39.444L43.394,39.444L43.811,39.444L44.228,39.444L44.645,39.444L45.063,39.444L45.48,39.444L45.897,39.444L46.314,39.444L46.732,39.444L47.149,39.444L47.566,39.444L47.983,39.444L48.401,39.444L48.818,39.444L49.235,39.444L49.652,39.444L50.07,39.444L50.487,39.444L50.904,39.444L51.321,39.444L51.739,39.444L52.156,39.444L52.573,39.444L52.99,39.444L53.408,39.444L53.825,39.444L54.242,39.444L54.659,39.444L55.076,39.444L55.494,39.444L55.911,39.444L56.328,39.444L56.745,39.444L57.163,39.444L57.58,39.444L57.997,39.444L58.414,39.444L58.832,39.444L59.249,39.444L59.666,39.444L60.083,39.444L60.501,39.444L60.918,39.444L61.335,39.444L61.752,39.444L62.17,39.444L62.587,39.444L63.004,39.444L63.421,39.444L63.839,38.778L64.256,38.778L64.673,38.778L65.09,38.778L65.508,38.778L65.925,38.778L66.342,38.778L66.759,38.778L67.177,38.778L67.594,38.778L68.011,38.778L68.428,38.778L68.846,38.667L69.263,38.667L69.68,38.667L70.097,38.667L70.515,38.667L70.932,38.667L71.349,38.667L71.766,38.667L72.184,38.667L72.601,38.667L73.018,38.667L73.435,38.667L73.853,38.667L74.27,38.667L74.687,38.667L75.104,38.667L75.522,38.667L75.939,38.667L76.356,38.667L76.773,38.667L77.191,38.667L77.608,38.667L78.025,38.667L78.442,38.667L78.86,38.667L79.277,38.667L79.694,38.667L80.111,38.667L80.529,38.667L80.946,38.667L81.363,38.667L81.78,38.667L82.197,38.667L82.615,38.667L83.032,38.667L83.449,38.667L83.866,38.667L84.284,38.667L84.701,38.667L85.118,38.667L85.535,38.667L85.953,38.667L86.37,38.667L86.787,38.667L87.204,38.667L87.622,38.667L88.039,38.667L88.456,38.667L88.873,38.667L89.291,38.667L89.708,38.667L90.125,38.667L90.542,38.667L90.96,38.667L91.377,38.667L91.794,38.667L92.211,38.667L92.629,38.667L93.046,38.667L93.463,38.667L93.88,38.667L94.298,38.667L94.715,38.667L95.132,38.667L95.549,38.667L95.967,38.667L96.384,38.667L96.801,38.667L97.218,38.667L97.636,38.667L98.053,38.667L98.47,38.667L98.887,38.667L99.305,38.667L99.722,38.667L100.139,38.667L100.556,38.667L100.974,38.667L101.391,38.667L101.808,38.667L102.225,38.667L102.643,38.667L103.06,38.667L103.477,38.667L103.894,38.667L104.312,38.667L104.729,38.667L105.146,38.667L105.563,38.667L105.981,38.667L106.398,38.667L106.815,38.667L107.232,38.667L107.65,38.667L108.067,38.667L108.484,38.667L108.901,38.667L109.318,38.667L109.736,38.667L110.153,38.667L110.57,38.667L110.987,38.667L111.405,38.667L111.822,38.667L112.239,38.667L112.656,38.667L113.074,38.667L113.491,38.667L113.908,38.667L114.325,38.667L114.743,38.667L115.16,38.667L115.577,38.667L115.994,38.667L116.412,38.667L116.829,38.667L117.246,38.667L117.663,38.667L118.081,38.667L118.498,38.667L118.915,38.667L119.332,38.667L119.75,38.667L120.167,38.667L120.584,38.667L121.001,38.667L121.419,38.111L121.836,38.111L122.253,38.111L122.67,38.111L123.088,38.111L123.505,38.111L123.922,38.111L124.339,38.111L124.757,38.111L125.174,38.111L125.591,38.111L126.008,38.111L126.426,38.111L126.843,38.111L127.26,38.111L127.677,38.111L128.095,38.111L128.512,38.111L128.929,38.111L129.346,38.111L129.764,38.111L130.181,38.111L130.598,38.111L131.015,38.111L131.433,38.111L131.85,38.111L132.267,38.111L132.684,38.111L133.102,38.111L133.519,38.111L133.936,38.111L134.353,38.111L134.771,38.111L135.188,38.111L135.605,38.111L136.022,38.111L136.439,38.111L136.857,38.111L137.274,38.111L137.691,38.111L138.108,38.111L138.526,38.111L138.943,38.111L139.36,38.111L139.777,38L140.195,38L140.612,38L141.029,38L141.446,38L141.864,38L142.281,38L142.698,38L143.115,38L143.533,38L143.95,38L144.367,38L144.784,38L145.202,38L145.619,38L146.036,38L146.453,38L146.871,38L147.288,38L147.705,38L148.122,38L148.54,38L148.957,38L149.374,38L149.791,38L150.209,38L150.626,38L151.043,38L151.46,38L151.878,38L152.295,38L152.712,38L153.129,38L153.547,38L153.964,38L154.381,38L154.798,38L155.216,38L155.633,38L156.05,38L156.467,38L156.885,38L157.302,38L157.719,38L158.136,38L158.554,38L158.971,38L159.388,38L159.805,38L160.223,38L160.64,38L161.057,38L161.474,38L161.892,38L162.309,38L162.726,38L163.143,38L163.561,38L163.978,38L164.395,38L164.812,38L165.229,38L165.647,38L166.064,38L166.481,38L166.898,38L167.316,38L167.733,38L168.15,38L168.567,38L168.985,38L169.402,38L169.819,38L170.236,38L170.654,38L171.071,38L171.488,38L171.905,38L172.323,38L172.74,38L173.157,38L173.574,38L173.992,38L174.409,38L174.826,38L175.243,38L175.661,38L176.078,38L176.495,38L176.912,38L177.33,38L177.747,38L178.164,38L178.581,38L178.999,38L179.416,38L179.833,38L180.25,38L180.668,38L181.085,38L181.502,38L181.919,38L182.337,38L182.754,38L183.171,38L183.588,38L184.006,38L184.423,38L184.84,38L185.257,38L185.675,38L186.092,38L186.509,38L186.926,38L187.344,38L187.761,38L188.178,38L188.595,38L189.013,38L189.43,38L189.847,38L190.264,38L190.682,38L191.099,38L191.516,38L191.933,38L192.35,38L192.768,38L193.185,38L193.602,38L194.019,38L194.437,38L194.854,38L195.271,38L195.688,38L196.106,38L196.523,38L196.94,38L197.357,38L197.775,38L198.192,38L198.609,38L199.026,38L199.444,38L199.861,38L200.278,38L200.695,38L201.113,38L201.53,38L201.947,38L202.364,38L202.782,38L203.199,38L203.616,38L204.033,38L204.451,38L204.868,38L205.285,38L205.702,38L206.12,38L206.537,38L206.954,38L207.371,38L207.789,38L208.206,38L208.623,38L209.04,38L209.458,38L209.875,38L210.292,38L210.709,38L211.127,38L211.544,38L211.961,38L212.378,38L212.796,38L213.213,38L213.63,38L214.047,38L214.465,38L214.882,38L215.299,38L215.716,38L216.134,38L216.551,38L216.968,38L217.385,38L217.803,38L218.22,38L218.637,38L219.054,38L219.471,38L219.889,38L220.306,38L220.723,38L221.14,38L221.558,38L221.975,38L222.392,38L222.809,38L223.227,38L223.644,38L224.061,38L224.478,38L224.896,38L225.313,38L225.73,38L226.147,38L226.565,38L226.982,38L227.399,38L227.816,38L228.234,38L228.651,38L229.068,38L229.485,38L229.903,38L230.32,38L230.737,38L231.154,38L231.572,38L231.989,38L232.406,38L232.823,38L233.241,38L233.658,38L234.075,38L234.492,38L234.91,38L235.327,38L235.744,38L236.161,38L236.579,38L236.996,38L237.413,38L237.83,38L238.248,38L238.665,38L239.082,38L239.499,38L239.917,38L240.334,38L240.751,38L241.168,38L241.586,38L242.003,38L242.42,38L242.837,38L243.255,38L243.672,38L244.089,38L244.506,38L244.924,38L245.341,38L245.758,38L246.175,38L246.592,38L247.01,38L247.427,38L247.844,38L248.261,38L248.679,38L249.096,38L249.513,37.889L249.93,37.889L250.348,37.889L250.765,37.889L251.182,37.889L251.599,37.889L252.017,37.889L252.434,37.889L252.851,37.889L253.268,37.889L253.686,37.889L254.103,37.889L254.52,37.889L254.937,37.889L255.355,37.889L255.772,37.889L256.189,37.889L256.606,37.889L257.024,37.889L257.441,37.889L257.858,37.889L258.275,37.889L258.693,25.111L259.11,25.111L259.527,25.111L259.944,25.111L260.362,25.111L260.779,25.111L261.196,25.111L261.613,25.111L262.031,25.111L262.448,25.111L262.865,25.111L263.282,25.111L263.7,25.111L264.117,25.111L264.534,25.111L264.951,25.111L265.369,25.111L265.786,25.111L266.203,25.111L266.62,25.111L267.038,25.111L267.455,25.111L267.872,25.111L268.289,25.111L268.707,25.111L269.124,25.111L269.541,25.111L269.958,25.111L270.376,25.111L270.793,25.111L271.21,25.111L271.627,25.111L272.045,25.111L272.462,25.111L272.879,25.111L273.296,25.111L273.713,25.111L274.131,25.111L274.548,25.111L274.965,25.111L275.382,25.111L275.8,25.111L276.217,25.111L276.634,25.111L277.051,25.111L277.469,25.111L277.886,25.111L278.303,25.111L278.72,25.111L279.138,25.111L279.555,25.111L279.972,25.111L280.389,25.111L280.807,25.111L281.224,25.111L281.641,25.111L282.058,25.111L282.476,25.111L282.893,25.111L283.31,25.111L283.727,25.111L284.145,25.111L284.562,25.111L284.979,25.111L285.396,25.111L285.814,25.111L286.231,25.111L286.648,25.111L287.065,25.111L287.483,25.111L287.9,25.111L288.317,25.111L288.734,25.111L289.152,25.111L289.569,25.111L289.986,25.111L290.403,25.111L290.821,25.111L291.238,25.111L291.655,25.111L292.072,25.111L292.49,25.111L292.907,25.111L293.324,25.111L293.741,25.111L294.159,25.111L294.576,25.111L294.993,25.111L295.41,25.111L295.828,25.111L296.245,25.111L296.662,25.111L297.079,25.111L297.497,25.111L297.914,25.111L298.331,25.111L298.748,25.111L299.166,25.111L299.583,25.111L300,25.111" stroke="#f59c0c" stroke-width="2"/></g></g><path class="foreground" aria-hidden="true" d="" display="none"/></g><g transform="translate(0,0)"><path class="background" aria-hidden="true" d="M0,0h300v200h-300Z"/><g><g class="mark-line role-mark layer_0_marks" role="graphics-symbol" aria-roledescription="line mark container"><path d="M0,200L0.417,71.444L0.834,71.444L1.252,71.444L1.669,71.222L2.086,71L2.503,71L2.921,71L3.338,71L3.755,71L4.172,71L4.59,71L5.007,71L5.424,71L5.841,71L6.259,71L6.676,71L7.093,71L7.51,71L7.928,71L8.345,71L8.762,71L9.179,71L9.597,71L10.014,71L10.431,71L10.848,71L11.266,71L11.683,71L12.1,71L12.517,71L12.935,71L13.352,71L13.769,71L14.186,71L14.604,71L15.021,71L15.438,71L15.855,71L16.273,71L16.69,71L17.107,71L17.524,71L17.942,71L18.359,71L18.776,71L19.193,71L19.611,71L20.028,71L20.445,71L20.862,71L21.28,71L21.697,71L22.114,71L22.531,71L22.949,71L23.366,71L23.783,71L24.2,71L24.618,71L25.035,71L25.452,71L25.869,71L26.287,71L26.704,71L27.121,71L27.538,71L27.955,71L28.373,71L28.79,71L29.207,71L29.624,71L30.042,71L30.459,71L30.876,71L31.293,71L31.711,71L32.128,71L32.545,71L32.962,71L33.38,71L33.797,71L34.214,71L34.631,71L35.049,71L35.466,71L35.883,71L36.3,71L36.718,71L37.135,71L37.552,71L37.969,71L38.387,71L38.804,71L39.221,71L39.638,71L40.056,71L40.473,71L40.89,71L41.307,71L41.725,71L42.142,71L42.559,71L42.976,71L43.394,71L43.811,71L44.228,71L44.645,71L45.063,71L45.48,71L45.897,71L46.314,71L46.732,71L47.149,71L47.566,71L47.983,71L48.401,71L48.818,71L49.235,71L49.652,71L50.07,71L50.487,71L50.904,71L51.321,71L51.739,71L52.156,71L52.573,71L52.99,71L53.408,71L53.825,71L54.242,71L54.659,71L55.076,71L55.494,71L55.911,71L56.328,71L56.745,71L57.163,71L57.58,71L57.997,71L58.414,71L58.832,71L59.249,71L59.666,71L60.083,71L60.501,71L60.918,71L61.335,71L61.752,71L62.17,71L62.587,71L63.004,71L63.421,71L63.839,71L64.256,71L64.673,71L65.09,71L65.508,71L65.925,71L66.342,71L66.759,71L67.177,71L67.594,71L68.011,71L68.428,71L68.846,71L69.263,71L69.68,71L70.097,71L70.515,71L70.932,71L71.349,71L71.766,71L72.184,71L72.601,71L73.018,71L73.435,71L73.853,71L74.27,71L74.687,71L75.104,71L75.522,71L75.939,71L76.356,71L76.773,71L77.191,71L77.608,71L78.025,71L78.442,71L78.86,71L79.277,71L79.694,71L80.111,71L80.529,71L80.946,71L81.363,71L81.78,71L82.197,71L82.615,71L83.032,71L83.449,71L83.866,71L84.284,71L84.701,71L85.118,71L85.535,71L85.953,71L86.37,71L86.787,71L87.204,71L87.622,71L88.039,71L88.456,71L88.873,71L89.291,71L89.708,71L90.125,71L90.542,71L90.96,71L91.377,71L91.794,71L92.211,71L92.629,71L93.046,71L93.463,71L93.88,71L94.298,71L94.715,71L95.132,71L95.549,71L95.967,71L96.384,71L96.801,71L97.218,71L97.636,71L98.053,71L98.47,71L98.887,71L99.305,71L99.722,71L100.139,71L100.556,71L100.974,71L101.391,71L101.808,71L102.225,71L102.643,71L103.06,71L103.477,71L103.894,71L104.312,71L104.729,71L105.146,71L105.563,71L105.981,71L106.398,71L106.815,71L107.232,71L107.65,71L108.067,71L108.484,71L108.901,71L109.318,71L109.736,71L110.153,71L110.57,71L110.987,71L111.405,71L111.822,71L112.239,71L112.656,71L113.074,71L113.491,71L113.908,71L114.325,71L114.743,71L115.16,71L115.577,71L115.994,71L116.412,71L116.829,71L117.246,71L117.663,71L118.081,71L118.498,71L118.915,71L119.332,71L119.75,71L120.167,71L120.584,71L121.001,71L121.419,71L121.836,71L122.253,71L122.67,71L123.088,71L123.505,71L123.922,71L124.339,71L124.757,71L125.174,71L125.591,71L126.008,71L126.426,71L126.843,71L127.26,71L127.677,71L128.095,71L128.512,71L128.929,71L129.346,71L129.764,71L130.181,71L130.598,71L131.015,71L131.433,71L131.85,71L132.267,71L132.684,71L133.102,71L133.519,71L133.936,71L134.353,71L134.771,71L135.188,71L135.605,71L136.022,71L136.439,71L136.857,71L137.274,71L137.691,71L138.108,71L138.526,71L138.943,71L139.36,71L139.777,71L140.195,71L140.612,71L141.029,71L141.446,71L141.864,71L142.281,71L142.698,71L143.115,71L143.533,71L143.95,71L144.367,71L144.784,71L145.202,71L145.619,71L146.036,71L146.453,71L146.871,71L147.288,71L147.705,71L148.122,71L148.54,71L148.957,71L149.374,71L149.791,71L150.209,71L150.626,71L151.043,71L151.46,71L151.878,71L152.295,71L152.712,71L153.129,71L153.547,71L153.964,71L154.381,71L154.798,71L155.216,71L155.633,71L156.05,71L156.467,71L156.885,71L157.302,71L157.719,71L158.136,71L158.554,71L158.971,71L159.388,71L159.805,71L160.223,71L160.64,71L161.057,71L161.474,71L161.892,71L162.309,71L162.726,71L163.143,71L163.561,71L163.978,71L164.395,71L164.812,71L165.229,71L165.647,71L166.064,71L166.481,71L166.898,71L167.316,71L167.733,71L168.15,71L168.567,71L168.985,71L169.402,71L169.819,71L170.236,71L170.654,71L171.071,71L171.488,71L171.905,71L172.323,71L172.74,71L173.157,71L173.574,71L173.992,71L174.409,71L174.826,71L175.243,71L175.661,71L176.078,71L176.495,71L176.912,71L177.33,71L177.747,71L178.164,71L178.581,71L178.999,71L179.416,71L179.833,71L180.25,71L180.668,71L181.085,71L181.502,71L181.919,71L182.337,71L182.754,71L183.171,71L183.588,71L184.006,71L184.423,71L184.84,71L185.257,71L185.675,71L186.092,71L186.509,71L186.926,71L187.344,71L187.761,71L188.178,71L188.595,71L189.013,71L189.43,71L189.847,71L190.264,71L190.682,71L191.099,71L191.516,71L191.933,71L192.35,71L192.768,71L193.185,71L193.602,71L194.019,71L194.437,71L194.854,71L195.271,71L195.688,71L196.106,71L196.523,71L196.94,71L197.357,71L197.775,71L198.192,71L198.609,71L199.026,71L199.444,71L199.861,71L200.278,71L200.695,71L201.113,71L201.53,71L201.947,71L202.364,71L202.782,71L203.199,71L203.616,71L204.033,71L204.451,71L204.868,71L205.285,71L205.702,71L206.12,71L206.537,71L206.954,71L207.371,71L207.789,69.444L208.206,68.667L208.623,68.111L209.04,67.778L209.458,67.444L209.875,67.333L210.292,67.333L210.709,64.333L211.127,64.333L211.544,64.333L211.961,64.333L212.378,63.556L212.796,63.556L213.213,63.556L213.63,63.556L214.047,63.556L214.465,63.556L214.882,63.556L215.299,63.556L215.716,63.556L216.134,63.556L216.551,63.556L216.968,63.556L217.385,63.556L217.803,63.333L218.22,63.333L218.637,63.333L219.054,63.333L219.471,63.333L219.889,63.333L220.306,63.333L220.723,63.333L221.14,63.333L221.558,63.333L221.975,63.333L222.392,63.333L222.809,63.333L223.227,63.333L223.644,62.889L224.061,62.889L224.478,62.889L224.896,62.889L225.313,62.889L225.73,62.889L226.147,62.889L226.565,62.889L226.982,62.889L227.399,62.889L227.816,62.889L228.234,62.889L228.651,62.889L229.068,62.889L229.485,62L229.903,62L230.32,62L230.737,62L231.154,62L231.572,62L231.989,62L232.406,62L232.823,62L233.241,62L233.658,62L234.075,62L234.492,62L234.91,62L235.327,62L235.744,61.778L236.161,61.778L236.579,61.778L236.996,61.778L237.413,61.778L237.83,61.778L238.248,61.778L238.665,61.778L239.082,61.778L239.499,61.778L239.917,61.778L240.334,61.778L240.751,61.778L241.168,61.778L241.586,61.778L242.003,61.778L242.42,61.778L242.837,61.778L243.255,61.778L243.672,61.778L244.089,61.778L244.506,61.778L244.924,61.778L245.341,61.778L245.758,61.778L246.175,61.778L246.592,61.778L247.01,61.778L247.427,61.222L247.844,61.222L248.261,61.222L248.679,61.222L249.096,61.222L249.513,61.222L249.93,61.222L250.348,61.222L250.765,61.222L251.182,61.222L251.599,61.222L252.017,61.222L252.434,61.222L252.851,61.222L253.268,61.222L253.686,61.222L254.103,61.222L254.52,61.222L254.937,61.222L255.355,61.222L255.772,61.222L256.189,61.222L256.606,61.222L257.024,61.222L257.441,61.222L257.858,61.222L258.275,61.222L258.693,61.222L259.11,61.222L259.527,59.444L259.944,59.444L260.362,59.444L260.779,59.444L261.196,59.444L261.613,59.444L262.031,59.444L262.448,59.444L262.865,59.444L263.282,59.444L263.7,59.444L264.117,59.444L264.534,59.222L264.951,59.222L265.369,59.222L265.786,59.222L266.203,59.222L266.62,59.222L267.038,59.222L267.455,59.222L267.872,59.222L268.289,59.222L268.707,59.222L269.124,59.222L269.541,59.222L269.958,59.222L270.376,59.222L270.793,59.222L271.21,59.222L271.627,59.222L272.045,59.222L272.462,59.222L272.879,59.222L273.296,59.222L273.713,59.222L274.131,59.222L274.548,59.222L274.965,59.222L275.382,59.222L275.8,59.222L276.217,59.222L276.634,59.222L277.051,59.222L277.469,59.222L277.886,59.222L278.303,59.222L278.72,59.222L279.138,59.222L279.555,59.222L279.972,59.222L280.389,59.222L280.807,59.222L281.224,59.222L281.641,59.222L282.058,59.222L282.476,59.222L282.893,59.222L283.31,59.222L283.727,59.222L284.145,59.222L284.562,59.222L284.979,59.222L285.396,59.222L285.814,59.222L286.231,59.222L286.648,59.222L287.065,58.889L287.483,58.889L287.9,58.889L288.317,58.889L288.734,58.889L289.152,58.889L289.569,58.889L289.986,58.889L290.403,58.889L290.821,58.889L291.238,58.889L291.655,58.889L292.072,58.889L292.49,58.889L292.907,58.889L293.324,58.889L293.741,58.889L294.159,58.889L294.576,58.889L294.993,58.889L295.41,58.889L295.828,58.889L296.245,58.889L296.662,58.889L297.079,58.889L297.497,58.889L297.914,58.889L298.331,58.889L298.748,58.889L299.166,58.889L299.583,58.889L300,58.889" stroke="#d66368" stroke-width="2"/></g></g><path class="foreground" aria-hidden="true" d="" display="none"/></g></g><g class="mark-symbol role-mark layer_1_marks" role="graphics-symbol" aria-roledescription="symbol mark container"><path transform="translate(0,200)" d="M3.873,0A3.873,3.873,0,1,1,-3.873,0A3.873,3.873,0,1,1,3.873,0" fill="#d66368" stroke-width="2"/><path transform="translate(100.13908205841447,71)" d="M3.873,0A3.873,3.873,0,1,1,-3.873,0A3.873,3.873,0,1,1,3.873,0" fill="#d66368" stroke-width="2"/><path transform="translate(200.27816411682895,71)" d="M3.873,0A3.873,3.873,0,1,1,-3.873,0A3.873,3.873,0,1,1,3.873,0" fill="#d66368" stroke-width="2"/></g><g class="mark-symbol role-mark layer_2_marks" role="graphics-symbol" aria-roledescription="symbol mark container"><path transform="translate(0,200)" d="M-3.873,-3.873h7.746v7.746h-7.746Z" fill="#f59c0c" stroke-width="2"/><path transform="translate(125.17385257301808,38.111111111111114)" d="M-3.873,-3.873h7.746v7.746h-7.746Z" fill="#f59c0c" stroke-width="2"/><path transform="translate(250.34770514603616,37.888888888888886)" d="M-3.873,-3.873h7.746v7.746h-7.746Z" fill="#f59c0c" stroke-width="2"/></g><g class="mark-symbol role-mark layer_3_marks" role="graphics-symbol" aria-roledescription="symbol mark container"/><g class="mark-symbol role-mark layer_4_marks" role="graphics-symbol" aria-roledescription="symbol mark container"/><g class="mark-group role-scope layer_5_pathgroup" role="graphics-object" aria-roledescription="group mark container"><g transform="translate(0,0)"><path class="background" aria-hidden="true" d="M0,0h300v200h-300Z"/><g><g class="mark-area role-mark layer_5_marks" role="graphics-symbol" aria-roledescription="area mark container"><path d="M0,200L0.417,147.889L0.834,130.222L1.252,121.25L1.669,115.844L2.086,112.241L2.503,109.667L2.921,107.736L3.338,106.235L3.755,99.667L4.172,94.293L4.59,89.806L5.007,86.009L5.424,82.754L5.841,79.933L6.259,77.465L6.676,75.288L7.093,73.352L7.51,71.62L7.928,70.061L8.345,68.651L8.762,61.026L9.179,58.365L9.597,55.746L10.014,53.153L10.431,50.566L10.848,47.974L11.266,45.381L11.683,42.788L12.1,40.19L12.517,40.148L12.935,40.106L13.352,40.069L13.769,40.032L14.186,39.995L14.604,39.958L15.021,39.921L15.438,39.884L15.855,39.847L16.273,39.81L16.69,39.772L17.107,39.735L17.524,39.725L17.942,39.714L18.359,39.704L18.776,39.693L19.193,39.683L19.611,39.677L20.028,39.672L20.445,39.667L20.862,39.667L21.28,39.667L21.697,39.667L22.114,39.667L22.531,39.667L22.949,39.667L23.366,39.667L23.783,39.667L24.2,39.667L24.618,39.661L25.035,39.656L25.452,39.651L25.869,39.646L26.287,39.64L26.704,39.635L27.121,39.63L27.538,39.624L27.955,39.619L28.373,39.614L28.79,39.608L29.207,39.603L29.624,39.598L30.042,39.593L30.459,39.587L30.876,39.582L31.293,39.577L31.711,39.571L32.128,39.566L32.545,39.561L32.962,39.556L33.38,39.556L33.797,39.556L34.214,39.556L34.631,39.556L35.049,39.55L35.466,39.545L35.883,39.54L36.3,39.534L36.718,39.529L37.135,39.524L37.552,39.519L37.969,39.513L38.387,39.508L38.804,39.503L39.221,39.497L39.638,39.492L40.056,39.487L40.473,39.481L40.89,39.476L41.307,39.471L41.725,39.466L42.142,39.46L42.559,39.455L42.976,39.45L43.394,39.444L43.811,39.444L44.228,39.444L44.645,39.444L45.063,39.444L45.48,39.444L45.897,39.444L46.314,39.444L46.732,39.444L47.149,39.444L47.566,39.444L47.983,39.444L48.401,39.444L48.818,39.444L49.235,39.444L49.652,39.444L50.07,39.444L50.487,39.444L50.904,39.444L51.321,39.444L51.739,39.444L52.156,39.444L52.573,39.444L52.99,39.444L53.408,39.444L53.825,39.444L54.242,39.444L54.659,39.444L55.076,39.444L55.494,39.444L55.911,39.444L56.328,39.444L56.745,39.444L57.163,39.444L57.58,39.444L57.997,39.444L58.414,39.444L58.832,39.444L59.249,39.444L59.666,39.444L60.083,39.444L60.501,39.444L60.918,39.444L61.335,39.444L61.752,39.444L62.17,39.444L62.587,39.444L63.004,39.444L63.421,39.444L63.839,39.413L64.256,39.381L64.673,39.349L65.09,39.317L65.508,39.286L65.925,39.254L66.342,39.222L66.759,39.19L67.177,39.159L67.594,39.127L68.011,39.095L68.428,39.063L68.846,39.026L69.263,38.989L69.68,38.952L70.097,38.915L70.515,38.878L70.932,38.841L71.349,38.804L71.766,38.767L72.184,38.73L72.601,38.725L73.018,38.72L73.435,38.714L73.853,38.709L74.27,38.704L74.687,38.698L75.104,38.693L75.522,38.688L75.939,38.683L76.356,38.677L76.773,38.672L77.191,38.667L77.608,38.667L78.025,38.667L78.442,38.667L78.86,38.667L79.277,38.667L79.694,38.667L80.111,38.667L80.529,38.667L80.946,38.667L81.363,38.667L81.78,38.667L82.197,38.667L82.615,38.667L83.032,38.667L83.449,38.667L83.866,38.667L84.284,38.667L84.701,38.667L85.118,38.667L85.535,38.667L85.953,38.667L86.37,38.667L86.787,38.667L87.204,38.667L87.622,38.667L88.039,38.667L88.456,38.667L88.873,38.667L89.291,38.667L89.708,38.667L90.125,38.667L90.542,38.667L90.96,38.667L91.377,38.667L91.794,38.667L92.211,38.667L92.629,38.667L93.046,38.667L93.463,38.667L93.88,38.667L94.298,38.667L94.715,38.667L95.132,38.667L95.549,38.667L95.967,38.667L96.384,38.667L96.801,38.667L97.218,38.667L97.636,38.667L98.053,38.667L98.47,38.667L98.887,38.667L99.305,38.667L99.722,38.667L100.139,38.667L100.556,38.667L100.974,38.667L101.391,38.667L101.808,38.667L102.225,38.667L102.643,38.667L103.06,38.667L103.477,38.667L103.894,38.667L104.312,38.667L104.729,38.667L105.146,38.667L105.563,38.667L105.981,38.667L106.398,38.667L106.815,38.667L107.232,38.667L107.65,38.667L108.067,38.667L108.484,38.667L108.901,38.667L109.318,38.667L109.736,38.667L110.153,38.667L110.57,38.667L110.987,38.667L111.405,38.667L111.822,38.667L112.239,38.667L112.656,38.667L113.074,38.667L113.491,38.667L113.908,38.667L114.325,38.667L114.743,38.667L115.16,38.667L115.577,38.667L115.994,38.667L116.412,38.667L116.829,38.667L117.246,38.667L117.663,38.667L118.081,38.667L118.498,38.667L118.915,38.667L119.332,38.667L119.75,38.667L120.167,38.667L120.584,38.667L121.001,38.667L121.419,38.64L121.836,38.614L122.253,38.587L122.67,38.561L123.088,38.534L123.505,38.508L123.922,38.481L124.339,38.455L124.757,38.429L125.174,38.402L125.591,38.376L126.008,38.349L126.426,38.323L126.843,38.296L127.26,38.27L127.677,38.243L128.095,38.217L128.512,38.19L128.929,38.164L129.346,38.138L129.764,38.111L130.181,38.111L130.598,38.111L131.015,38.111L131.433,38.111L131.85,38.111L132.267,38.111L132.684,38.111L133.102,38.111L133.519,38.111L133.936,38.111L134.353,38.111L134.771,38.111L135.188,38.111L135.605,38.111L136.022,38.111L136.439,38.111L136.857,38.111L137.274,38.111L137.691,38.111L138.108,38.111L138.526,38.111L138.943,38.111L139.36,38.111L139.777,38.106L140.195,38.101L140.612,38.095L141.029,38.09L141.446,38.085L141.864,38.079L142.281,38.074L142.698,38.069L143.115,38.063L143.533,38.058L143.95,38.053L144.367,38.048L144.784,38.042L145.202,38.037L145.619,38.032L146.036,38.026L146.453,38.021L146.871,38.016L147.288,38.011L147.705,38.005L148.122,38L148.54,38L148.957,38L149.374,38L149.791,38L150.209,38L150.626,38L151.043,38L151.46,38L151.878,38L152.295,38L152.712,38L153.129,38L153.547,38L153.964,38L154.381,38L154.798,38L155.216,38L155.633,38L156.05,38L156.467,38L156.885,38L157.302,38L157.719,38L158.136,38L158.554,38L158.971,38L159.388,38L159.805,38L160.223,38L160.64,38L161.057,38L161.474,38L161.892,38L162.309,38L162.726,38L163.143,38L163.561,38L163.978,38L164.395,38L164.812,38L165.229,38L165.647,38L166.064,38L166.481,38L166.898,38L167.316,38L167.733,38L168.15,38L168.567,38L168.985,38L169.402,38L169.819,38L170.236,38L170.654,38L171.071,38L171.488,38L171.905,38L172.323,38L172.74,38L173.157,38L173.574,38L173.992,38L174.409,38L174.826,38L175.243,38L175.661,38L176.078,38L176.495,38L176.912,38L177.33,38L177.747,38L178.164,38L178.581,38L178.999,38L179.416,38L179.833,38L180.25,38L180.668,38L181.085,38L181.502,38L181.919,38L182.337,38L182.754,38L183.171,38L183.588,38L184.006,38L184.423,38L184.84,38L185.257,38L185.675,38L186.092,38L186.509,38L186.926,38L187.344,38L187.761,38L188.178,38L188.595,38L189.013,38L189.43,38L189.847,38L190.264,38L190.682,38L191.099,38L191.516,38L191.933,38L192.35,38L192.768,38L193.185,38L193.602,38L194.019,38L194.437,38L194.854,38L195.271,38L195.688,38L196.106,38L196.523,38L196.94,38L197.357,38L197.775,38L198.192,38L198.609,38L199.026,38L199.444,38L199.861,38L200.278,38L200.695,38L201.113,38L201.53,38L201.947,38L202.364,38L202.782,38L203.199,38L203.616,38L204.033,38L204.451,38L204.868,38L205.285,38L205.702,38L206.12,38L206.537,38L206.954,38L207.371,38L207.789,38L208.206,38L208.623,38L209.04,38L209.458,38L209.875,38L210.292,38L210.709,38L211.127,38L211.544,38L211.961,38L212.378,38L212.796,38L213.213,38L213.63,38L214.047,38L214.465,38L214.882,38L215.299,38L215.716,38L216.134,38L216.551,38L216.968,38L217.385,38L217.803,38L218.22,38L218.637,38L219.054,38L219.471,38L219.889,38L220.306,38L220.723,38L221.14,38L221.558,38L221.975,38L222.392,38L222.809,38L223.227,38L223.644,38L224.061,38L224.478,38L224.896,38L225.313,38L225.73,38L226.147,38L226.565,38L226.982,38L227.399,38L227.816,38L228.234,38L228.651,38L229.068,38L229.485,38L229.903,38L230.32,38L230.737,38L231.154,38L231.572,38L231.989,38L232.406,38L232.823,38L233.241,38L233.658,38L234.075,38L234.492,38L234.91,38L235.327,38L235.744,38L236.161,38L236.579,38L236.996,38L237.413,38L237.83,38L238.248,38L238.665,38L239.082,38L239.499,38L239.917,38L240.334,38L240.751,38L241.168,38L241.586,38L242.003,38L242.42,38L242.837,38L243.255,38L243.672,38L244.089,38L244.506,38L244.924,38L245.341,38L245.758,38L246.175,38L246.592,38L247.01,38L247.427,38L247.844,38L248.261,38L248.679,38L249.096,38L249.513,37.995L249.93,37.989L250.348,37.984L250.765,37.979L251.182,37.974L251.599,37.968L252.017,37.963L252.434,37.958L252.851,37.952L253.268,37.947L253.686,37.942L254.103,37.937L254.52,37.931L254.937,37.926L255.355,37.921L255.772,37.915L256.189,37.91L256.606,37.905L257.024,37.899L257.441,37.894L257.858,37.889L258.275,37.889L258.693,37.28L259.11,36.672L259.527,36.063L259.944,35.455L260.362,34.847L260.779,34.238L261.196,33.63L261.613,33.021L262.031,32.413L262.448,31.804L262.865,31.196L263.282,30.587L263.7,29.979L264.117,29.37L264.534,28.762L264.951,28.153L265.369,27.545L265.786,26.937L266.203,26.328L266.62,25.72L267.038,25.111L267.455,25.111L267.872,25.111L268.289,25.111L268.707,25.111L269.124,25.111L269.541,25.111L269.958,25.111L270.376,25.111L270.793,25.111L271.21,25.111L271.627,25.111L272.045,25.111L272.462,25.111L272.879,25.111L273.296,25.111L273.713,25.111L274.131,25.111L274.548,25.111L274.965,25.111L275.382,25.111L275.8,25.111L276.217,25.111L276.634,25.111L277.051,25.111L277.469,25.111L277.886,25.111L278.303,25.111L278.72,25.111L279.138,25.111L279.555,25.111L279.972,25.111L280.389,25.111L280.807,25.111L281.224,25.111L281.641,25.111L282.058,25.111L282.476,25.111L282.893,25.111L283.31,25.111L283.727,25.111L284.145,25.111L284.562,25.111L284.979,25.111L285.396,25.111L285.814,25.111L286.231,25.111L286.648,25.111L287.065,25.111L287.483,25.111L287.9,25.111L288.317,25.111L288.734,25.111L289.152,25.111L289.569,25.111L289.986,25.111L290.403,25.111L290.821,25.111L291.238,25.111L291.655,25.111L292.072,25.111L292.49,25.111L292.907,25.111L293.324,25.111L293.741,25.111L294.159,25.111L294.576,25.111L294.993,25.111L295.41,25.111L295.828,25.111L296.245,25.111L296.662,25.111L297.079,25.111L297.497,25.111L297.914,25.111L298.331,25.111L298.748,25.111L299.166,25.111L299.583,25.111L300,25.111L300,25.111L299.583,25.111L299.166,25.111L298.748,25.111L298.331,25.111L297.914,25.111L297.497,25.111L297.079,25.111L296.662,25.111L296.245,25.111L295.828,25.111L295.41,25.111L294.993,25.111L294.576,25.111L294.159,25.111L293.741,25.111L293.324,25.111L292.907,25.111L292.49,25.111L292.072,25.111L291.655,25.111L291.238,25.111L290.821,25.111L290.403,25.111L289.986,25.111L289.569,25.111L289.152,25.111L288.734,25.111L288.317,25.111L287.9,25.111L287.483,25.111L287.065,25.111L286.648,25.111L286.231,25.111L285.814,25.111L285.396,25.111L284.979,25.111L284.562,25.111L284.145,25.111L283.727,25.111L283.31,25.111L282.893,25.111L282.476,25.111L282.058,25.111L281.641,25.111L281.224,25.111L280.807,25.111L280.389,25.111L279.972,25.111L279.555,25.111L279.138,25.111L278.72,25.111L278.303,25.111L277.886,25.111L277.469,25.111L277.051,25.111L276.634,25.111L276.217,25.111L275.8,25.111L275.382,25.111L274.965,25.111L274.548,25.111L274.131,25.111L273.713,25.111L273.296,25.111L272.879,25.111L272.462,25.111L272.045,25.111L271.627,25.111L271.21,25.111L270.793,25.111L270.376,25.111L269.958,25.111L269.541,25.111L269.124,25.111L268.707,25.111L268.289,25.111L267.872,25.111L267.455,25.111L267.038,25.111L266.62,25.72L266.203,26.328L265.786,26.937L265.369,27.545L264.951,28.153L264.534,28.762L264.117,29.37L263.7,29.979L263.282,30.587L262.865,31.196L262.448,31.804L262.031,32.413L261.613,33.021L261.196,33.63L260.779,34.238L260.362,34.847L259.944,35.455L259.527,36.063L259.11,36.672L258.693,37.28L258.275,37.889L257.858,37.889L257.441,37.894L257.024,37.899L256.606,37.905L256.189,37.91L255.772,37.915L255.355,37.921L254.937,37.926L254.52,37.931L254.103,37.937L253.686,37.942L253.268,37.947L252.851,37.952L252.434,37.958L252.017,37.963L251.599,37.968L251.182,37.974L250.765,37.979L250.348,37.984L249.93,37.989L249.513,37.995L249.096,38L248.679,38L248.261,38L247.844,38L247.427,38L247.01,38L246.592,38L246.175,38L245.758,38L245.341,38L244.924,38L244.506,38L244.089,38L243.672,38L243.255,38L242.837,38L242.42,38L242.003,38L241.586,38L241.168,38L240.751,38L240.334,38L239.917,38L239.499,38L239.082,38L238.665,38L238.248,38L237.83,38L237.413,38L236.996,38L236.579,38L236.161,38L235.744,38L235.327,38L234.91,38L234.492,38L234.075,38L233.658,38L233.241,38L232.823,38L232.406,38L231.989,38L231.572,38L231.154,38L230.737,38L230.32,38L229.903,38L229.485,38L229.068,38L228.651,38L228.234,38L227.816,38L227.399,38L226.982,38L226.565,38L226.147,38L225.73,38L225.313,38L224.896,38L224.478,38L224.061,38L223.644,38L223.227,38L222.809,38L222.392,38L221.975,38L221.558,38L221.14,38L220.723,38L220.306,38L219.889,38L219.471,38L219.054,38L218.637,38L218.22,38L217.803,38L217.385,38L216.968,38L216.551,38L216.134,38L215.716,38L215.299,38L214.882,38L214.465,38L214.047,38L213.63,38L213.213,38L212.796,38L212.378,38L211.961,38L211.544,38L211.127,38L210.709,38L210.292,38L209.875,38L209.458,38L209.04,38L208.623,38L208.206,38L207.789,38L207.371,38L206.954,38L206.537,38L206.12,38L205.702,38L205.285,38L204.868,38L204.451,38L204.033,38L203.616,38L203.199,38L202.782,38L202.364,38L201.947,38L201.53,38L201.113,38L200.695,38L200.278,38L199.861,38L199.444,38L199.026,38L198.609,38L198.192,38L197.775,38L197.357,38L196.94,38L196.523,38L196.106,38L195.688,38L195.271,38L194.854,38L194.437,38L194.019,38L193.602,38L193.185,38L192.768,38L192.35,38L191.933,38L191.516,38L191.099,38L190.682,38L190.264,38L189.847,38L189.43,38L189.013,38L188.595,38L188.178,38L187.761,38L187.344,38L186.926,38L186.509,38L186.092,38L185.675,38L185.257,38L184.84,38L184.423,38L184.006,38L183.588,38L183.171,38L182.754,38L182.337,38L181.919,38L181.502,38L181.085,38L180.668,38L180.25,38L179.833,38L179.416,38L178.999,38L178.581,38L178.164,38L177.747,38L177.33,38L176.912,38L176.495,38L176.078,38L175.661,38L175.243,38L174.826,38L174.409,38L173.992,38L173.574,38L173.157,38L172.74,38L172.323,38L171.905,38L171.488,38L171.071,38L170.654,38L170.236,38L169.819,38L169.402,38L168.985,38L168.567,38L168.15,38L167.733,38L167.316,38L166.898,38L166.481,38L166.064,38L165.647,38L165.229,38L164.812,38L164.395,38L163.978,38L163.561,38L163.143,38L162.726,38L162.309,38L161.892,38L161.474,38L161.057,38L160.64,38L160.223,38L159.805,38L159.388,38L158.971,38L158.554,38L158.136,38L157.719,38L157.302,38L156.885,38L156.467,38L156.05,38L155.633,38L155.216,38L154.798,38L154.381,38L153.964,38L153.547,38L153.129,38L152.712,38L152.295,38L151.878,38L151.46,38L151.043,38L150.626,38L150.209,38L149.791,38L149.374,38L148.957,38L148.54,38L148.122,38L147.705,38.005L147.288,38.011L146.871,38.016L146.453,38.021L146.036,38.026L145.619,38.032L145.202,38.037L144.784,38.042L144.367,38.048L143.95,38.053L143.533,38.058L143.115,38.063L142.698,38.069L142.281,38.074L141.864,38.079L141.446,38.085L141.029,38.09L140.612,38.095L140.195,38.101L139.777,38.106L139.36,38.111L138.943,38.111L138.526,38.111L138.108,38.111L137.691,38.111L137.274,38.111L136.857,38.111L136.439,38.111L136.022,38.111L135.605,38.111L135.188,38.111L134.771,38.111L134.353,38.111L133.936,38.111L133.519,38.111L133.102,38.111L132.684,38.111L132.267,38.111L131.85,38.111L131.433,38.111L131.015,38.111L130.598,38.111L130.181,38.111L129.764,38.111L129.346,38.138L128.929,38.164L128.512,38.19L128.095,38.217L127.677,38.243L127.26,38.27L126.843,38.296L126.426,38.323L126.008,38.349L125.591,38.376L125.174,38.402L124.757,38.429L124.339,38.455L123.922,38.481L123.505,38.508L123.088,38.534L122.67,38.561L122.253,38.587L121.836,38.614L121.419,38.64L121.001,38.667L120.584,38.667L120.167,38.667L119.75,38.667L119.332,38.667L118.915,38.667L118.498,38.667L118.081,38.667L117.663,38.667L117.246,38.667L116.829,38.667L116.412,38.667L115.994,38.667L115.577,38.667L115.16,38.667L114.743,38.667L114.325,38.667L113.908,38.667L113.491,38.667L113.074,38.667L112.656,38.667L112.239,38.667L111.822,38.667L111.405,38.667L110.987,38.667L110.57,38.667L110.153,38.667L109.736,38.667L109.318,38.667L108.901,38.667L108.484,38.667L108.067,38.667L107.65,38.667L107.232,38.667L106.815,38.667L106.398,38.667L105.981,38.667L105.563,38.667L105.146,38.667L104.729,38.667L104.312,38.667L103.894,38.667L103.477,38.667L103.06,38.667L102.643,38.667L102.225,38.667L101.808,38.667L101.391,38.667L100.974,38.667L100.556,38.667L100.139,38.667L99.722,38.667L99.305,38.667L98.887,38.667L98.47,38.667L98.053,38.667L97.636,38.667L97.218,38.667L96.801,38.667L96.384,38.667L95.967,38.667L95.549,38.667L95.132,38.667L94.715,38.667L94.298,38.667L93.88,38.667L93.463,38.667L93.046,38.667L92.629,38.667L92.211,38.667L91.794,38.667L91.377,38.667L90.96,38.667L90.542,38.667L90.125,38.667L89.708,38.667L89.291,38.667L88.873,38.667L88.456,38.667L88.039,38.667L87.622,38.667L87.204,38.667L86.787,38.667L86.37,38.667L85.953,38.667L85.535,38.667L85.118,38.667L84.701,38.667L84.284,38.667L83.866,38.667L83.449,38.667L83.032,38.667L82.615,38.667L82.197,38.667L81.78,38.667L81.363,38.667L80.946,38.667L80.529,38.667L80.111,38.667L79.694,38.667L79.277,38.667L78.86,38.667L78.442,38.667L78.025,38.667L77.608,38.667L77.191,38.667L76.773,38.672L76.356,38.677L75.939,38.683L75.522,38.688L75.104,38.693L74.687,38.698L74.27,38.704L73.853,38.709L73.435,38.714L73.018,38.72L72.601,38.725L72.184,38.73L71.766,38.767L71.349,38.804L70.932,38.841L70.515,38.878L70.097,38.915L69.68,38.952L69.263,38.989L68.846,39.026L68.428,39.063L68.011,39.095L67.594,39.127L67.177,39.159L66.759,39.19L66.342,39.222L65.925,39.254L65.508,39.286L65.09,39.317L64.673,39.349L64.256,39.381L63.839,39.413L63.421,39.444L63.004,39.444L62.587,39.444L62.17,39.444L61.752,39.444L61.335,39.444L60.918,39.444L60.501,39.444L60.083,39.444L59.666,39.444L59.249,39.444L58.832,39.444L58.414,39.444L57.997,39.444L57.58,39.444L57.163,39.444L56.745,39.444L56.328,39.444L55.911,39.444L55.494,39.444L55.076,39.444L54.659,39.444L54.242,39.444L53.825,39.444L53.408,39.444L52.99,39.444L52.573,39.444L52.156,39.444L51.739,39.444L51.321,39.444L50.904,39.444L50.487,39.444L50.07,39.444L49.652,39.444L49.235,39.444L48.818,39.444L48.401,39.444L47.983,39.444L47.566,39.444L47.149,39.444L46.732,39.444L46.314,39.444L45.897,39.444L45.48,39.444L45.063,39.444L44.645,39.444L44.228,39.444L43.811,39.444L43.394,39.444L42.976,39.45L42.559,39.455L42.142,39.46L41.725,39.466L41.307,39.471L40.89,39.476L40.473,39.481L40.056,39.487L39.638,39.492L39.221,39.497L38.804,39.503L38.387,39.508L37.969,39.513L37.552,39.519L37.135,39.524L36.718,39.529L36.3,39.534L35.883,39.54L35.466,39.545L35.049,39.55L34.631,39.556L34.214,39.556L33.797,39.556L33.38,39.556L32.962,39.556L32.545,39.561L32.128,39.566L31.711,39.571L31.293,39.577L30.876,39.582L30.459,39.587L30.042,39.593L29.624,39.598L29.207,39.603L28.79,39.608L28.373,39.614L27.955,39.619L27.538,39.624L27.121,39.63L26.704,39.635L26.287,39.64L25.869,39.646L25.452,39.651L25.035,39.656L24.618,39.661L24.2,39.667L23.783,39.667L23.366,39.667L22.949,39.667L22.531,39.667L22.114,39.667L21.697,39.667L21.28,39.667L20.862,39.667L20.445,39.667L20.028,39.672L19.611,39.677L19.193,39.683L18.776,39.693L18.359,39.704L17.942,39.714L17.524,39.725L17.107,39.735L16.69,39.772L16.273,39.81L15.855,39.847L15.438,39.884L15.021,39.921L14.604,39.958L14.186,39.995L13.769,40.032L13.352,40.069L12.935,40.106L12.517,40.148L12.1,40.19L11.683,42.788L11.266,45.381L10.848,47.974L10.431,50.566L10.014,53.153L9.597,55.746L9.179,58.365L8.762,61.026L8.345,68.651L7.928,70.061L7.51,71.62L7.093,73.352L6.676,75.288L6.259,77.465L5.841,79.933L5.424,82.754L5.007,86.009L4.59,89.806L4.172,94.293L3.755,99.667L3.338,106.235L2.921,107.736L2.503,109.667L2.086,112.241L1.669,115.844L1.252,121.25L0.834,130.222L0.417,147.889L0,200Z" fill="#f59c0c" opacity="0.2"/></g></g><path class="foreground" aria-hidden="true" d="" display="none"/></g><g transform="translate(0,0)"><path class="background" aria-hidden="true" d="M0,0h300v200h-300Z"/><g><g class="mark-area role-mark layer_5_marks" role="graphics-symbol" aria-roledescription="area mark container"><path d="M0,33.439L0.417,35.646L0.834,37.852L1.252,40.058L1.669,42.254L2.086,44.439L2.503,46.624L2.921,48.81L3.338,50.995L3.755,53.18L4.172,55.365L4.59,57.55L5.007,59.735L5.424,61.921L5.841,64.106L6.259,66.291L6.676,68.476L7.093,70.661L7.51,72.847L7.928,75.032L8.345,77.217L8.762,71.074L9.179,71.053L9.597,71.032L10.014,71.011L10.431,71L10.848,71L11.266,71L11.683,71L12.1,71L12.517,71L12.935,71L13.352,71L13.769,71L14.186,71L14.604,71L15.021,71L15.438,71L15.855,71L16.273,71L16.69,71L17.107,71L17.524,71L17.942,71L18.359,71L18.776,71L19.193,71L19.611,71L20.028,71L20.445,71L20.862,71L21.28,71L21.697,71L22.114,71L22.531,71L22.949,71L23.366,71L23.783,71L24.2,71L24.618,71L25.035,71L25.452,71L25.869,71L26.287,71L26.704,71L27.121,71L27.538,71L27.955,71L28.373,71L28.79,71L29.207,71L29.624,71L30.042,71L30.459,71L30.876,71L31.293,71L31.711,71L32.128,71L32.545,71L32.962,71L33.38,71L33.797,71L34.214,71L34.631,71L35.049,71L35.466,71L35.883,71L36.3,71L36.718,71L37.135,71L37.552,71L37.969,71L38.387,71L38.804,71L39.221,71L39.638,71L40.056,71L40.473,71L40.89,71L41.307,71L41.725,71L42.142,71L42.559,71L42.976,71L43.394,71L43.811,71L44.228,71L44.645,71L45.063,71L45.48,71L45.897,71L46.314,71L46.732,71L47.149,71L47.566,71L47.983,71L48.401,71L48.818,71L49.235,71L49.652,71L50.07,71L50.487,71L50.904,71L51.321,71L51.739,71L52.156,71L52.573,71L52.99,71L53.408,71L53.825,71L54.242,71L54.659,71L55.076,71L55.494,71L55.911,71L56.328,71L56.745,71L57.163,71L57.58,71L57.997,71L58.414,71L58.832,71L59.249,71L59.666,71L60.083,71L60.501,71L60.918,71L61.335,71L61.752,71L62.17,71L62.587,71L63.004,71L63.421,71L63.839,71L64.256,71L64.673,71L65.09,71L65.508,71L65.925,71L66.342,71L66.759,71L67.177,71L67.594,71L68.011,71L68.428,71L68.846,71L69.263,71L69.68,71L70.097,71L70.515,71L70.932,71L71.349,71L71.766,71L72.184,71L72.601,71L73.018,71L73.435,71L73.853,71L74.27,71L74.687,71L75.104,71L75.522,71L75.939,71L76.356,71L76.773,71L77.191,71L77.608,71L78.025,71L78.442,71L78.86,71L79.277,71L79.694,71L80.111,71L80.529,71L80.946,71L81.363,71L81.78,71L82.197,71L82.615,71L83.032,71L83.449,71L83.866,71L84.284,71L84.701,71L85.118,71L85.535,71L85.953,71L86.37,71L86.787,71L87.204,71L87.622,71L88.039,71L88.456,71L88.873,71L89.291,71L89.708,71L90.125,71L90.542,71L90.96,71L91.377,71L91.794,71L92.211,71L92.629,71L93.046,71L93.463,71L93.88,71L94.298,71L94.715,71L95.132,71L95.549,71L95.967,71L96.384,71L96.801,71L97.218,71L97.636,71L98.053,71L98.47,71L98.887,71L99.305,71L99.722,71L100.139,71L100.556,71L100.974,71L101.391,71L101.808,71L102.225,71L102.643,71L103.06,71L103.477,71L103.894,71L104.312,71L104.729,71L105.146,71L105.563,71L105.981,71L106.398,71L106.815,71L107.232,71L107.65,71L108.067,71L108.484,71L108.901,71L109.318,71L109.736,71L110.153,71L110.57,71L110.987,71L111.405,71L111.822,71L112.239,71L112.656,71L113.074,71L113.491,71L113.908,71L114.325,71L114.743,71L115.16,71L115.577,71L115.994,71L116.412,71L116.829,71L117.246,71L117.663,71L118.081,71L118.498,71L118.915,71L119.332,71L119.75,71L120.167,71L120.584,71L121.001,71L121.419,71L121.836,71L122.253,71L122.67,71L123.088,71L123.505,71L123.922,71L124.339,71L124.757,71L125.174,71L125.591,71L126.008,71L126.426,71L126.843,71L127.26,71L127.677,71L128.095,71L128.512,71L128.929,71L129.346,71L129.764,71L130.181,71L130.598,71L131.015,71L131.433,71L131.85,71L132.267,71L132.684,71L133.102,71L133.519,71L133.936,71L134.353,71L134.771,71L135.188,71L135.605,71L136.022,71L136.439,71L136.857,71L137.274,71L137.691,71L138.108,71L138.526,71L138.943,71L139.36,71L139.777,71L140.195,71L140.612,71L141.029,71L141.446,71L141.864,71L142.281,71L142.698,71L143.115,71L143.533,71L143.95,71L144.367,71L144.784,71L145.202,71L145.619,71L146.036,71L146.453,71L146.871,71L147.288,71L147.705,71L148.122,71L148.54,71L148.957,71L149.374,71L149.791,71L150.209,71L150.626,71L151.043,71L151.46,71L151.878,71L152.295,71L152.712,71L153.129,71L153.547,71L153.964,71L154.381,71L154.798,71L155.216,71L155.633,71L156.05,71L156.467,71L156.885,71L157.302,71L157.719,71L158.136,71L158.554,71L158.971,71L159.388,71L159.805,71L160.223,71L160.64,71L161.057,71L161.474,71L161.892,71L162.309,71L162.726,71L163.143,71L163.561,71L163.978,71L164.395,71L164.812,71L165.229,71L165.647,71L166.064,71L166.481,71L166.898,71L167.316,71L167.733,71L168.15,71L168.567,71L168.985,71L169.402,71L169.819,71L170.236,71L170.654,71L171.071,71L171.488,71L171.905,71L172.323,71L172.74,71L173.157,71L173.574,71L173.992,71L174.409,71L174.826,71L175.243,71L175.661,71L176.078,71L176.495,71L176.912,71L177.33,71L177.747,71L178.164,71L178.581,71L178.999,71L179.416,71L179.833,71L180.25,71L180.668,71L181.085,71L181.502,71L181.919,71L182.337,71L182.754,71L183.171,71L183.588,71L184.006,71L184.423,71L184.84,71L185.257,71L185.675,71L186.092,71L186.509,71L186.926,71L187.344,71L187.761,71L188.178,71L188.595,71L189.013,71L189.43,71L189.847,71L190.264,71L190.682,71L191.099,71L191.516,71L191.933,71L192.35,71L192.768,71L193.185,71L193.602,71L194.019,71L194.437,71L194.854,71L195.271,71L195.688,71L196.106,71L196.523,71L196.94,71L197.357,71L197.775,71L198.192,71L198.609,71L199.026,71L199.444,71L199.861,71L200.278,71L200.695,71L201.113,71L201.53,71L201.947,71L202.364,71L202.782,71L203.199,71L203.616,71L204.033,71L204.451,71L204.868,71L205.285,71L205.702,71L206.12,71L206.537,71L206.954,71L207.371,71L207.789,70.926L208.206,70.815L208.623,70.677L209.04,70.524L209.458,70.354L209.875,70.18L210.292,70.005L210.709,69.688L211.127,69.37L211.544,69.053L211.961,68.735L212.378,68.381L212.796,68.026L213.213,67.672L213.63,67.317L214.047,66.963L214.465,66.608L214.882,66.254L215.299,65.899L215.716,65.545L216.134,65.19L216.551,64.91L216.968,64.667L217.385,64.45L217.803,64.238L218.22,64.042L218.637,63.852L219.054,63.661L219.471,63.614L219.889,63.566L220.306,63.519L220.723,63.471L221.14,63.46L221.558,63.45L221.975,63.439L222.392,63.429L222.809,63.418L223.227,63.407L223.644,63.376L224.061,63.344L224.478,63.312L224.896,63.28L225.313,63.249L225.73,63.217L226.147,63.185L226.565,63.164L226.982,63.143L227.399,63.122L227.816,63.101L228.234,63.079L228.651,63.058L229.068,63.037L229.485,62.974L229.903,62.91L230.32,62.847L230.737,62.783L231.154,62.72L231.572,62.656L231.989,62.593L232.406,62.55L232.823,62.508L233.241,62.466L233.658,62.423L234.075,62.381L234.492,62.339L234.91,62.296L235.327,62.254L235.744,62.201L236.161,62.148L236.579,62.095L236.996,62.042L237.413,61.989L237.83,61.937L238.248,61.926L238.665,61.915L239.082,61.905L239.499,61.894L239.917,61.884L240.334,61.873L240.751,61.862L241.168,61.852L241.586,61.841L242.003,61.831L242.42,61.82L242.837,61.81L243.255,61.799L243.672,61.788L244.089,61.778L244.506,61.778L244.924,61.778L245.341,61.778L245.758,61.778L246.175,61.778L246.592,61.778L247.01,61.778L247.427,61.751L247.844,61.725L248.261,61.698L248.679,61.672L249.096,61.646L249.513,61.619L249.93,61.593L250.348,61.566L250.765,61.54L251.182,61.513L251.599,61.487L252.017,61.46L252.434,61.434L252.851,61.407L253.268,61.381L253.686,61.354L254.103,61.328L254.52,61.302L254.937,61.275L255.355,61.249L255.772,61.222L256.189,61.222L256.606,61.222L257.024,61.222L257.441,61.222L257.858,61.222L258.275,61.222L258.693,61.222L259.11,61.222L259.527,61.138L259.944,61.053L260.362,60.968L260.779,60.884L261.196,60.799L261.613,60.714L262.031,60.63L262.448,60.545L262.865,60.46L263.282,60.376L263.7,60.291L264.117,60.206L264.534,60.111L264.951,60.016L265.369,59.921L265.786,59.825L266.203,59.73L266.62,59.635L267.038,59.54L267.455,59.444L267.872,59.349L268.289,59.339L268.707,59.328L269.124,59.317L269.541,59.307L269.958,59.296L270.376,59.286L270.793,59.275L271.21,59.265L271.627,59.254L272.045,59.243L272.462,59.233L272.879,59.222L273.296,59.222L273.713,59.222L274.131,59.222L274.548,59.222L274.965,59.222L275.382,59.222L275.8,59.222L276.217,59.222L276.634,59.222L277.051,59.222L277.469,59.222L277.886,59.222L278.303,59.222L278.72,59.222L279.138,59.222L279.555,59.222L279.972,59.222L280.389,59.222L280.807,59.222L281.224,59.222L281.641,59.222L282.058,59.222L282.476,59.222L282.893,59.222L283.31,59.222L283.727,59.222L284.145,59.222L284.562,59.222L284.979,59.222L285.396,59.222L285.814,59.222L286.231,59.222L286.648,59.222L287.065,59.206L287.483,59.19L287.9,59.175L288.317,59.159L288.734,59.143L289.152,59.127L289.569,59.111L289.986,59.095L290.403,59.079L290.821,59.063L291.238,59.048L291.655,59.032L292.072,59.016L292.49,59L292.907,58.984L293.324,58.968L293.741,58.952L294.159,58.937L294.576,58.921L294.993,58.905L295.41,58.889L295.828,58.889L296.245,58.889L296.662,58.889L297.079,58.889L297.497,58.889L297.914,58.889L298.331,58.889L298.748,58.889L299.166,58.889L299.583,58.889L300,58.889L300,58.889L299.583,58.889L299.166,58.889L298.748,58.889L298.331,58.889L297.914,58.889L297.497,58.889L297.079,58.889L296.662,58.889L296.245,58.889L295.828,58.889L295.41,58.889L294.993,58.905L294.576,58.921L294.159,58.937L293.741,58.952L293.324,58.968L292.907,58.984L292.49,59L292.072,59.016L291.655,59.032L291.238,59.048L290.821,59.063L290.403,59.079L289.986,59.095L289.569,59.111L289.152,59.127L288.734,59.143L288.317,59.159L287.9,59.175L287.483,59.19L287.065,59.206L286.648,59.222L286.231,59.222L285.814,59.222L285.396,59.222L284.979,59.222L284.562,59.222L284.145,59.222L283.727,59.222L283.31,59.222L282.893,59.222L282.476,59.222L282.058,59.222L281.641,59.222L281.224,59.222L280.807,59.222L280.389,59.222L279.972,59.222L279.555,59.222L279.138,59.222L278.72,59.222L278.303,59.222L277.886,59.222L277.469,59.222L277.051,59.222L276.634,59.222L276.217,59.222L275.8,59.222L275.382,59.222L274.965,59.222L274.548,59.222L274.131,59.222L273.713,59.222L273.296,59.222L272.879,59.222L272.462,59.233L272.045,59.243L271.627,59.254L271.21,59.265L270.793,59.275L270.376,59.286L269.958,59.296L269.541,59.307L269.124,59.317L268.707,59.328L268.289,59.339L267.872,59.349L267.455,59.444L267.038,59.54L266.62,59.635L266.203,59.73L265.786,59.825L265.369,59.921L264.951,60.016L264.534,60.111L264.117,60.206L263.7,60.291L263.282,60.376L262.865,60.46L262.448,60.545L262.031,60.63L261.613,60.714L261.196,60.799L260.779,60.884L260.362,60.968L259.944,61.053L259.527,61.138L259.11,61.222L258.693,61.222L258.275,61.222L257.858,61.222L257.441,61.222L257.024,61.222L256.606,61.222L256.189,61.222L255.772,61.222L255.355,61.249L254.937,61.275L254.52,61.302L254.103,61.328L253.686,61.354L253.268,61.381L252.851,61.407L252.434,61.434L252.017,61.46L251.599,61.487L251.182,61.513L250.765,61.54L250.348,61.566L249.93,61.593L249.513,61.619L249.096,61.646L248.679,61.672L248.261,61.698L247.844,61.725L247.427,61.751L247.01,61.778L246.592,61.778L246.175,61.778L245.758,61.778L245.341,61.778L244.924,61.778L244.506,61.778L244.089,61.778L243.672,61.788L243.255,61.799L242.837,61.81L242.42,61.82L242.003,61.831L241.586,61.841L241.168,61.852L240.751,61.862L240.334,61.873L239.917,61.884L239.499,61.894L239.082,61.905L238.665,61.915L238.248,61.926L237.83,61.937L237.413,61.989L236.996,62.042L236.579,62.095L236.161,62.148L235.744,62.201L235.327,62.254L234.91,62.296L234.492,62.339L234.075,62.381L233.658,62.423L233.241,62.466L232.823,62.508L232.406,62.55L231.989,62.593L231.572,62.656L231.154,62.72L230.737,62.783L230.32,62.847L229.903,62.91L229.485,62.974L229.068,63.037L228.651,63.058L228.234,63.079L227.816,63.101L227.399,63.122L226.982,63.143L226.565,63.164L226.147,63.185L225.73,63.217L225.313,63.249L224.896,63.28L224.478,63.312L224.061,63.344L223.644,63.376L223.227,63.407L222.809,63.418L222.392,63.429L221.975,63.439L221.558,63.45L221.14,63.46L220.723,63.471L220.306,63.519L219.889,63.566L219.471,63.614L219.054,63.661L218.637,63.852L218.22,64.042L217.803,64.238L217.385,64.45L216.968,64.667L216.551,64.91L216.134,65.19L215.716,65.545L215.299,65.899L214.882,66.254L214.465,66.608L214.047,66.963L213.63,67.317L213.213,67.672L212.796,68.026L212.378,68.381L211.961,68.735L211.544,69.053L211.127,69.37L210.709,69.688L210.292,70.005L209.875,70.18L209.458,70.354L209.04,70.524L208.623,70.677L208.206,70.815L207.789,70.926L207.371,71L206.954,71L206.537,71L206.12,71L205.702,71L205.285,71L204.868,71L204.451,71L204.033,71L203.616,71L203.199,71L202.782,71L202.364,71L201.947,71L201.53,71L201.113,71L200.695,71L200.278,71L199.861,71L199.444,71L199.026,71L198.609,71L198.192,71L197.775,71L197.357,71L196.94,71L196.523,71L196.106,71L195.688,71L195.271,71L194.854,71L194.437,71L194.019,71L193.602,71L193.185,71L192.768,71L192.35,71L191.933,71L191.516,71L191.099,71L190.682,71L190.264,71L189.847,71L189.43,71L189.013,71L188.595,71L188.178,71L187.761,71L187.344,71L186.926,71L186.509,71L186.092,71L185.675,71L185.257,71L184.84,71L184.423,71L184.006,71L183.588,71L183.171,71L182.754,71L182.337,71L181.919,71L181.502,71L181.085,71L180.668,71L180.25,71L179.833,71L179.416,71L178.999,71L178.581,71L178.164,71L177.747,71L177.33,71L176.912,71L176.495,71L176.078,71L175.661,71L175.243,71L174.826,71L174.409,71L173.992,71L173.574,71L173.157,71L172.74,71L172.323,71L171.905,71L171.488,71L171.071,71L170.654,71L170.236,71L169.819,71L169.402,71L168.985,71L168.567,71L168.15,71L167.733,71L167.316,71L166.898,71L166.481,71L166.064,71L165.647,71L165.229,71L164.812,71L164.395,71L163.978,71L163.561,71L163.143,71L162.726,71L162.309,71L161.892,71L161.474,71L161.057,71L160.64,71L160.223,71L159.805,71L159.388,71L158.971,71L158.554,71L158.136,71L157.719,71L157.302,71L156.885,71L156.467,71L156.05,71L155.633,71L155.216,71L154.798,71L154.381,71L153.964,71L153.547,71L153.129,71L152.712,71L152.295,71L151.878,71L151.46,71L151.043,71L150.626,71L150.209,71L149.791,71L149.374,71L148.957,71L148.54,71L148.122,71L147.705,71L147.288,71L146.871,71L146.453,71L146.036,71L145.619,71L145.202,71L144.784,71L144.367,71L143.95,71L143.533,71L143.115,71L142.698,71L142.281,71L141.864,71L141.446,71L141.029,71L140.612,71L140.195,71L139.777,71L139.36,71L138.943,71L138.526,71L138.108,71L137.691,71L137.274,71L136.857,71L136.439,71L136.022,71L135.605,71L135.188,71L134.771,71L134.353,71L133.936,71L133.519,71L133.102,71L132.684,71L132.267,71L131.85,71L131.433,71L131.015,71L130.598,71L130.181,71L129.764,71L129.346,71L128.929,71L128.512,71L128.095,71L127.677,71L127.26,71L126.843,71L126.426,71L126.008,71L125.591,71L125.174,71L124.757,71L124.339,71L123.922,71L123.505,71L123.088,71L122.67,71L122.253,71L121.836,71L121.419,71L121.001,71L120.584,71L120.167,71L119.75,71L119.332,71L118.915,71L118.498,71L118.081,71L117.663,71L117.246,71L116.829,71L116.412,71L115.994,71L115.577,71L115.16,71L114.743,71L114.325,71L113.908,71L113.491,71L113.074,71L112.656,71L112.239,71L111.822,71L111.405,71L110.987,71L110.57,71L110.153,71L109.736,71L109.318,71L108.901,71L108.484,71L108.067,71L107.65,71L107.232,71L106.815,71L106.398,71L105.981,71L105.563,71L105.146,71L104.729,71L104.312,71L103.894,71L103.477,71L103.06,71L102.643,71L102.225,71L101.808,71L101.391,71L100.974,71L100.556,71L100.139,71L99.722,71L99.305,71L98.887,71L98.47,71L98.053,71L97.636,71L97.218,71L96.801,71L96.384,71L95.967,71L95.549,71L95.132,71L94.715,71L94.298,71L93.88,71L93.463,71L93.046,71L92.629,71L92.211,71L91.794,71L91.377,71L90.96,71L90.542,71L90.125,71L89.708,71L89.291,71L88.873,71L88.456,71L88.039,71L87.622,71L87.204,71L86.787,71L86.37,71L85.953,71L85.535,71L85.118,71L84.701,71L84.284,71L83.866,71L83.449,71L83.032,71L82.615,71L82.197,71L81.78,71L81.363,71L80.946,71L80.529,71L80.111,71L79.694,71L79.277,71L78.86,71L78.442,71L78.025,71L77.608,71L77.191,71L76.773,71L76.356,71L75.939,71L75.522,71L75.104,71L74.687,71L74.27,71L73.853,71L73.435,71L73.018,71L72.601,71L72.184,71L71.766,71L71.349,71L70.932,71L70.515,71L70.097,71L69.68,71L69.263,71L68.846,71L68.428,71L68.011,71L67.594,71L67.177,71L66.759,71L66.342,71L65.925,71L65.508,71L65.09,71L64.673,71L64.256,71L63.839,71L63.421,71L63.004,71L62.587,71L62.17,71L61.752,71L61.335,71L60.918,71L60.501,71L60.083,71L59.666,71L59.249,71L58.832,71L58.414,71L57.997,71L57.58,71L57.163,71L56.745,71L56.328,71L55.911,71L55.494,71L55.076,71L54.659,71L54.242,71L53.825,71L53.408,71L52.99,71L52.573,71L52.156,71L51.739,71L51.321,71L50.904,71L50.487,71L50.07,71L49.652,71L49.235,71L48.818,71L48.401,71L47.983,71L47.566,71L47.149,71L46.732,71L46.314,71L45.897,71L45.48,71L45.063,71L44.645,71L44.228,71L43.811,71L43.394,71L42.976,71L42.559,71L42.142,71L41.725,71L41.307,71L40.89,71L40.473,71L40.056,71L39.638,71L39.221,71L38.804,71L38.387,71L37.969,71L37.552,71L37.135,71L36.718,71L36.3,71L35.883,71L35.466,71L35.049,71L34.631,71L34.214,71L33.797,71L33.38,71L32.962,71L32.545,71L32.128,71L31.711,71L31.293,71L30.876,71L30.459,71L30.042,71L29.624,71L29.207,71L28.79,71L28.373,71L27.955,71L27.538,71L27.121,71L26.704,71L26.287,71L25.869,71L25.452,71L25.035,71L24.618,71L24.2,71L23.783,71L23.366,71L22.949,71L22.531,71L22.114,71L21.697,71L21.28,71L20.862,71L20.445,71L20.028,71L19.611,71L19.193,71L18.776,71L18.359,71L17.942,71L17.524,71L17.107,71L16.69,71L16.273,71L15.855,71L15.438,71L15.021,71L14.604,71L14.186,71L13.769,71L13.352,71L12.935,71L12.517,71L12.1,71L11.683,71L11.266,71L10.848,71L10.431,71L10.014,71.011L9.597,71.032L9.179,71.053L8.762,71.074L8.345,77.217L7.928,75.032L7.51,72.847L7.093,70.661L6.676,68.476L6.259,66.291L5.841,64.106L5.424,61.921L5.007,59.735L4.59,57.55L4.172,55.365L3.755,53.18L3.338,50.995L2.921,48.81L2.503,46.624L2.086,44.439L1.669,42.254L1.252,40.058L0.834,37.852L0.417,35.646L0,33.439Z" fill="#d66368" opacity="0.2"/></g></g><path class="foreground" aria-hidden="true" d="" display="none"/></g></g><g class="mark-group role-legend" role="graphics-symbol" aria-roledescription="legend" aria-label="Symbol legend titled 'Fuzzer' for shape, fill color and stroke color with 4 values: ft, aflnet, stateafl, sgfuzz"><g transform="translate(0,-47)"><path class="background" aria-hidden="true" d="M0,0h190v29h-190Z" pointer-events="none"/><g><g class="mark-group role-legend-entry"><g transform="translate(0,16)"><path class="background" aria-hidden="true" d="M0,0h0v0h0Z" pointer-events="none"/><g><g class="mark-group role-scope" role="graphics-object" aria-roledescription="group mark container"><g transform="translate(0,0.25)"><path class="background" aria-hidden="true" d="M0,0h21.556640625v12.5h-21.556640625Z" pointer-events="none" opacity="1"/><g><g class="mark-symbol role-legend-symbol" pointer-events="none"><path transform="translate(6,6)" d="M5,0A5,5,0,1,1,-5,0A5,5,0,1,1,5,0" fill="#d66368" fill-opacity="1" stroke="#d66368" stroke-width="1.5" opacity="1"/></g><g class="mark-text role-legend-label" pointer-events="none"><text text-anchor="start" transform="translate(16,9)" font-family="sans-serif" font-size="10px" fill="#000" opacity="1">ft</text></g></g><path class="foreground" aria-hidden="true" d="" pointer-events="none" display="none"/></g><g transform="translate(33,0.25)"><path class="background" aria-hidden="true" d="M0,0h40.462890625v12.5h-40.462890625Z" pointer-events="none" opacity="1"/><g><g class="mark-symbol role-legend-symbol" pointer-events="none"><path transform="translate(6,6)" d="M-5,-5h10v10h-10Z" fill="#f59c0c" fill-opacity="1" stroke="#f59c0c" stroke-width="1.5" opacity="1"/></g><g class="mark-text role-legend-label" pointer-events="none"><text text-anchor="start" transform="translate(16,9)" font-family="sans-serif" font-size="10px" fill="#000" opacity="1">aflnet</text></g></g><path class="foreground" aria-hidden="true" d="" pointer-events="none" display="none"/></g><g transform="translate(85,0.5849364905389036)"><path class="background" aria-hidden="true" d="M0,0h48.2412109375v11.830127018922191h-48.2412109375Z" pointer-events="none" opacity="1"/><g><g class="mark-symbol role-legend-symbol" pointer-events="none"><path transform="translate(6,6)" d="M0,-4.33L-5,4.33L5,4.33Z" fill="#109426" fill-opacity="1" stroke="#109426" stroke-width="1.5" opacity="1"/></g><g class="mark-text role-legend-label" pointer-events="none"><text text-anchor="start" transform="translate(16,9)" font-family="sans-serif" font-size="10px" fill="#000" opacity="1">stateafl</text></g></g><path class="foreground" aria-hidden="true" d="" pointer-events="none" display="none"/></g><g transform="translate(145,0.25)"><path class="background" aria-hidden="true" d="M0,0h44.9013671875v12.5h-44.9013671875Z" pointer-events="none" opacity="1"/><g><g class="mark-symbol role-legend-symbol" pointer-events="none"><path transform="translate(6,6)" d="M-5,-2L-5,2L-2,2L-2,5L2,5L2,2L5,2L5,-2L2,-2L2,-5L-2,-5L-2,-2Z" fill="#808b88" fill-opacity="1" stroke="#808b88" stroke-width="1.5" opacity="1"/></g><g class="mark-text role-legend-label" pointer-events="none"><text text-anchor="start" transform="translate(16,9)" font-family="sans-serif" font-size="10px" fill="#000" opacity="1">sgfuzz</text></g></g><path class="foreground" aria-hidden="true" d="" pointer-events="none" display="none"/></g></g></g><path class="foreground" aria-hidden="true" d="" pointer-events="none" display="none"/></g></g><g class="mark-text role-legend-title" pointer-events="none"><text text-anchor="start" transform="translate(0,9)" font-family="sans-serif" font-size="11px" font-weight="bold" fill="#000" opacity="1">Fuzzer</text></g></g><path class="foreground" aria-hidden="true" d="" pointer-events="none" display="none"/></g></g><g class="mark-group role-title"><g transform="translate(150,-64)"><path class="background" aria-hidden="true" d="M0,0h0v0h0Z" pointer-events="none"/><g><g class="mark-text role-title-text" role="graphics-symbol" aria-roledescription="title" aria-label="Title text 'target:artifact_dbclient_dropbear_1,cores:4,timeout:43200s'" pointer-events="none"><text text-anchor="middle" transform="translate(0,10)" font-family="sans-serif" font-size="13px" font-weight="bold" fill="#000" opacity="1">target:artifact_dbclient_dropbear_1,cores:4,timeout:43200s</text></g></g><path class="foreground" aria-hidden="true" d="" pointer-events="none" display="none"/></g></g></g><path class="foreground" aria-hidden="true" d="" display="none"/></g></g></g></svg>